<?xml version="1.0" encoding="utf-8"?>
<!-- Generator: Adobe Illustrator 23.0.4, SVG Export Plug-In . SVG Version: 6.00 Build 0)  -->
<svg version="1.1" id="Layer_1" xmlns="http://www.w3.org/2000/svg" xmlns:xlink="http://www.w3.org/1999/xlink" x="0px" y="0px"
	 viewBox="0 0 512 512" style="enable-background:new 0 0 512 512;" xml:space="preserve">
<style type="text/css">
	.st0{fill:#FFFFFF;}
</style>
<g>
	<g>
		<g>
			<g>
				<path class="st0" d="M470,398.5v-242c0-5.7-2.2-11.1-6.3-15.2c-4.1-4-9.5-6.3-15.2-6.3H375V61.4H137V135H63.4
					c-5.7,0-11.1,2.2-15.2,6.3s-6.3,9.5-6.3,15.2v242H0v26.1c0,7,2.7,13.5,7.6,18.5c4.9,4.9,11.5,7.6,18.4,7.6h459.9
					c7,0,13.5-2.7,18.4-7.6s7.6-11.5,7.6-18.4v-26.1L470,398.5L470,398.5z M448.6,150.4c1.6,0,3.2,0.6,4.3,1.8
					c1.5,1.5,1.8,3.2,1.8,4.3v242H437V168.1h-62v-17.7L448.6,150.4L448.6,150.4z M256,151.9l103.6-68.5V202l-55-36.4l-8.5,12.9
					l45.6,30.2H170.3l45.6-30.1l-8.5-12.9l-55,36.4V83.4L256,151.9z M170.3,76.8h171.4L256,133.5L170.3,76.8z M375,224.1L375,224.1
					v-40.5h46.5v215h-331v-215H137v40.5H375L375,224.1z M57.4,156.5c0-1.1,0.3-2.8,1.8-4.3c1.2-1.2,2.7-1.8,4.3-1.8H137v17.7H75.1
					v230.4H57.4V156.5z M496.6,424.6c0,2.9-1.1,5.5-3.1,7.5s-4.7,3.1-7.6,3.1H26.1c-2.8,0-5.5-1.1-7.5-3.1s-3.1-4.7-3.1-7.5v-10.7
					H42l0,0h428l0,0l0,0h26.5L496.6,424.6L496.6,424.6z"/>
				<rect x="174.7" y="265" class="st0" width="15.4" height="61.6"/>
				<rect x="321.9" y="265" class="st0" width="15.4" height="61.6"/>
				<rect x="248.3" y="295.9" class="st0" width="15.4" height="61.6"/>
			</g>
		</g>
	</g>
</g>
</svg>
