<?xml version="1.0" encoding="utf-8"?>
<!-- Generator: Adobe Illustrator 24.0.3, SVG Export Plug-In . SVG Version: 6.00 Build 0)  -->
<svg version="1.1" id="Layer_1" xmlns="http://www.w3.org/2000/svg" xmlns:xlink="http://www.w3.org/1999/xlink" x="0px" y="0px"
	 viewBox="0 0 288 288" style="enable-background:new 0 0 288 288;" xml:space="preserve">
<style type="text/css">
	.st0{fill:#7564F5;}
</style>
<g>
	<g>
		<g>
			<path class="st0" d="M115.2,250.3c-0.4,0-0.7-0.2-0.9-0.6c-1.9-3.9-0.3-8.6,3.5-10.5c3.9-1.9,8.6-0.3,10.5,3.5
				c0.2,0.5,0,1.1-0.5,1.3c-0.5,0.2-1.1,0-1.3-0.5c-0.7-1.4-1.9-2.4-3.4-2.9c-1.5-0.5-3.1-0.4-4.5,0.3c-2.9,1.4-4.1,4.9-2.6,7.8
				c0.2,0.5,0,1.1-0.5,1.3C115.5,250.3,115.4,250.3,115.2,250.3z"/>
		</g>
		<g>
			<path class="st0" d="M94.6,133.8c-0.9,0-1.8-0.4-2.5-1.1c-0.4-0.4-0.3-1,0.1-1.4c0.4-0.4,1-0.3,1.4,0.1c0.5,0.6,1.4,0.6,1.9,0.1
				c0.6-0.5,0.6-1.4,0.1-1.9c-0.4-0.4-0.3-1,0.1-1.4c0.4-0.4,1-0.3,1.4,0.1c1.2,1.4,1.1,3.5-0.2,4.8
				C96.2,133.5,95.4,133.8,94.6,133.8z"/>
		</g>
		<g>
			<path class="st0" d="M61.4,256.4c-0.3,0-0.6-0.1-0.8-0.4c-0.5-0.7-0.7-1.6-0.6-2.5c0.1-0.9,0.6-1.7,1.4-2.2
				c1.5-1.1,3.6-0.7,4.7,0.8c0.3,0.4,0.2,1.1-0.2,1.4c-0.4,0.3-1.1,0.2-1.4-0.2c-0.4-0.6-1.3-0.8-1.9-0.3c-0.3,0.2-0.5,0.5-0.6,0.9
				c-0.1,0.4,0,0.7,0.2,1c0.3,0.4,0.2,1.1-0.2,1.4C61.9,256.3,61.6,256.4,61.4,256.4z"/>
		</g>
		<g>
			<path class="st0" d="M168.9,194.7c-0.5,0-1-0.4-1-0.9c0-0.6,0.4-1,0.9-1.1c1.9-0.1,3.3-1.7,3.2-3.6c-0.1-1.9-1.8-3.3-3.6-3.2
				c-0.5,0-1-0.4-1.1-0.9c0-0.6,0.4-1,0.9-1.1c3-0.2,5.5,2.1,5.7,5C174.2,191.9,172,194.5,168.9,194.7
				C169,194.7,168.9,194.7,168.9,194.7z"/>
		</g>
		<g>
			<path class="st0" d="M255.9,168.9c-0.5,0-0.9-0.3-1-0.8c-0.1-0.5,0.3-1.1,0.8-1.2c0.7-0.1,1.2-0.8,1-1.5
				c-0.1-0.3-0.3-0.6-0.5-0.8c-0.3-0.2-0.6-0.3-1-0.2c-0.5,0.1-1.1-0.3-1.2-0.8c-0.1-0.5,0.3-1.1,0.8-1.2c0.9-0.2,1.7,0,2.5,0.5
				c0.7,0.5,1.2,1.2,1.4,2.1c0.2,0.9,0,1.7-0.5,2.5c-0.5,0.7-1.2,1.2-2.1,1.4C256,168.9,256,168.9,255.9,168.9z"/>
		</g>
		<g>
			<path class="st0" d="M278.6,127.1c-0.1,0-0.2,0-0.3,0c-0.5-0.1-0.9-0.6-0.9-1.1c0.1-0.5,0.6-0.9,1.1-0.9c0.6,0.1,1.1-0.3,1.2-0.9
				c0.1-0.6-0.3-1.1-0.9-1.2c-0.5-0.1-0.9-0.6-0.9-1.1c0.1-0.5,0.6-0.9,1.1-0.9c1.7,0.2,2.9,1.7,2.7,3.4
				C281.5,126,280.2,127.1,278.6,127.1z"/>
		</g>
		<g>
			<path class="st0" d="M208.8,12.9c-0.8,0-1.6-0.2-2.2-0.7c-0.9-0.6-1.6-1.5-1.8-2.6c-0.1-0.5,0.2-1.1,0.8-1.2
				c0.5-0.1,1.1,0.2,1.2,0.8c0.1,0.6,0.5,1,0.9,1.3c0.5,0.3,1,0.4,1.6,0.3c1.1-0.2,1.9-1.4,1.6-2.5c-0.1-0.5,0.2-1.1,0.8-1.2
				c0.5-0.1,1.1,0.2,1.2,0.8c0.2,1.1,0,2.2-0.6,3.1c-0.6,0.9-1.5,1.6-2.6,1.8C209.4,12.9,209.1,12.9,208.8,12.9z"/>
		</g>
		<g>
			<path class="st0" d="M152.8,148.1c-0.1,0-0.1,0-0.2,0c-0.6,0-1-0.5-0.9-1.1c0-0.6,0.5-1,1.1-0.9c0.3,0,0.6-0.1,0.9-0.3
				c0.2-0.2,0.4-0.5,0.4-0.8c0-0.3-0.1-0.6-0.3-0.9c-0.2-0.2-0.5-0.4-0.8-0.4c-0.6,0-1-0.5-0.9-1.1c0-0.6,0.5-1,1.1-0.9
				c0.9,0.1,1.6,0.4,2.2,1.1c0.6,0.6,0.9,1.5,0.8,2.3c-0.1,0.9-0.4,1.6-1.1,2.2C154.3,147.8,153.5,148.1,152.8,148.1z"/>
		</g>
		<g>
			<path class="st0" d="M49.4,162.7c-0.1,0-0.1,0-0.2,0c-0.5-0.1-0.9-0.6-0.8-1.2c0.2-1.1,0-2.3-0.6-3.3c-0.6-1-1.6-1.6-2.8-1.9
				c-1.1-0.2-2.3,0-3.3,0.6c-1,0.6-1.6,1.6-1.9,2.8c-0.1,0.5-0.6,0.9-1.2,0.8c-0.5-0.1-0.9-0.6-0.8-1.2c0.3-1.7,1.3-3.1,2.7-4
				c1.4-0.9,3.1-1.3,4.8-0.9c1.7,0.3,3.1,1.3,4,2.7c0.9,1.4,1.3,3.1,0.9,4.8C50.3,162.4,49.9,162.7,49.4,162.7z"/>
		</g>
		<g>
			<path class="st0" d="M122.4,29.3c-0.3,0-0.6,0-0.9,0c-0.5-0.1-0.9-0.5-0.9-1.1c0.1-0.5,0.5-1,1.1-0.9c1.8,0.2,3.6-0.3,5-1.5
				c1.4-1.2,2.3-2.8,2.5-4.6c0.2-1.8-0.3-3.6-1.5-5c-1.2-1.4-2.8-2.3-4.6-2.5c-0.5-0.1-0.9-0.5-0.9-1.1c0.1-0.5,0.5-1,1.1-0.9
				c2.4,0.2,4.5,1.4,6,3.2c1.5,1.8,2.2,4.1,1.9,6.5c-0.2,2.4-1.4,4.5-3.2,6C126.4,28.6,124.5,29.3,122.4,29.3z"/>
		</g>
		<g>
			<path class="st0" d="M260.9,110.4c-0.3,0-0.6-0.2-0.8-0.4c-0.3-0.5-0.2-1.1,0.3-1.4c0.3-0.2,0.5-0.5,0.6-0.8c0.1-0.3,0-0.7-0.2-1
				c-0.2-0.3-0.5-0.5-0.8-0.6c-0.3-0.1-0.7,0-1,0.2c-0.5,0.3-1.1,0.2-1.4-0.3c-0.3-0.5-0.2-1.1,0.3-1.4c0.7-0.5,1.6-0.7,2.5-0.5
				c0.9,0.2,1.6,0.7,2.1,1.4c0.5,0.7,0.7,1.6,0.5,2.5c-0.2,0.9-0.7,1.6-1.4,2.1C261.3,110.3,261.1,110.4,260.9,110.4z"/>
		</g>
		<g>
			<path class="st0" d="M117.6,120.2C117.6,120.2,117.6,120.2,117.6,120.2c-0.6,0-1-0.5-1-1c0-0.2-0.1-0.4-0.3-0.4
				c-0.2,0-0.4,0.1-0.4,0.3c0,0.6-0.5,1-1,1c-0.6,0-1-0.5-1-1c0.1-1.3,1.2-2.3,2.5-2.3c0.6,0,1.2,0.3,1.6,0.8
				c0.4,0.5,0.6,1.1,0.6,1.7C118.6,119.8,118.2,120.2,117.6,120.2z"/>
		</g>
		<g>
			<path class="st0" d="M250.8,67.4c-1.4,0-2.6-1-2.7-2.5c-0.2-1.5,0.9-2.9,2.4-3.1c0.5-0.1,1,0.3,1.1,0.9c0.1,0.5-0.3,1-0.9,1.1
				c-0.4,0-0.7,0.4-0.7,0.8c0,0.4,0.4,0.7,0.8,0.7c0.5-0.1,1,0.3,1.1,0.9c0.1,0.5-0.3,1-0.9,1.1C251,67.4,250.9,67.4,250.8,67.4z"/>
		</g>
		<g>
			<path class="st0" d="M80.3,192c-0.5,0-0.9-0.1-1.4-0.4c-0.6-0.4-1-0.9-1.2-1.6c-0.2-0.7,0-1.4,0.3-2c0.3-0.5,0.9-0.6,1.4-0.3
				c0.5,0.3,0.6,0.9,0.3,1.4c-0.1,0.1-0.1,0.3-0.1,0.4c0,0.2,0.1,0.3,0.3,0.4c0.3,0.2,0.6,0.1,0.8-0.2c0.3-0.5,0.9-0.6,1.4-0.3
				c0.5,0.3,0.6,0.9,0.3,1.4C82,191.5,81.2,192,80.3,192z"/>
		</g>
		<g>
			<path class="st0" d="M261.3,129.7c-0.1,0-0.1,0-0.2,0c-0.6-0.1-1.2-0.4-1.6-1c-0.4-0.5-0.5-1.1-0.4-1.8c0.1-0.6,0.4-1.2,1-1.6
				c0.5-0.4,1.1-0.5,1.8-0.4c0.5,0.1,0.9,0.6,0.8,1.1c-0.1,0.5-0.6,0.9-1.1,0.8c-0.2,0-0.4,0.1-0.5,0.3c0,0.1,0,0.2,0.1,0.3
				c0,0,0.1,0.1,0.3,0.2c0.5,0.1,0.9,0.6,0.8,1.1C262.2,129.3,261.8,129.7,261.3,129.7z"/>
		</g>
		<g>
			<path class="st0" d="M185.7,157.2c-1.2,0-2.5-0.4-3.5-1.1c-0.4-0.3-0.5-0.9-0.2-1.4c0.3-0.4,0.9-0.5,1.4-0.2
				c1.8,1.3,4.4,0.9,5.7-0.9c1.3-1.8,0.9-4.4-0.9-5.7c-0.4-0.3-0.5-0.9-0.2-1.4c0.3-0.4,0.9-0.5,1.4-0.2c2.7,2,3.3,5.8,1.4,8.5
				C189.5,156.3,187.6,157.2,185.7,157.2z"/>
		</g>
		<g>
			<path class="st0" d="M149.1,192.9c-0.4,0-0.7-0.2-0.9-0.6c-0.2-0.5,0-1.1,0.5-1.3c0.7-0.3,1.2-0.9,1.5-1.7
				c0.3-0.7,0.2-1.5-0.1-2.2c-0.3-0.7-0.9-1.2-1.7-1.5c-0.7-0.3-1.5-0.2-2.2,0.1c-0.5,0.2-1.1,0-1.3-0.5c-0.2-0.5,0-1.1,0.5-1.3
				c1.2-0.6,2.5-0.6,3.8-0.2c1.2,0.4,2.2,1.3,2.8,2.5c1.2,2.5,0.1,5.4-2.3,6.6C149.4,192.9,149.3,192.9,149.1,192.9z"/>
		</g>
		<g>
			<path class="st0" d="M190.4,119c-0.3,0-0.5,0-0.8-0.1c-0.5-0.1-0.9-0.6-0.8-1.2c0.1-0.5,0.6-0.9,1.2-0.8c0.6,0.1,1.2,0,1.6-0.3
				c0.5-0.3,0.8-0.8,0.9-1.4c0.2-1.2-0.6-2.3-1.8-2.6c-0.5-0.1-0.9-0.6-0.8-1.2c0.1-0.5,0.6-0.9,1.2-0.8c2.3,0.4,3.8,2.6,3.4,4.9
				c-0.2,1.1-0.8,2.1-1.8,2.7C192,118.7,191.2,119,190.4,119z"/>
		</g>
		<g>
			<path class="st0" d="M102.8,20.4c-2,0-4-0.8-5.5-2.3c-0.4-0.4-0.4-1,0-1.4c0.4-0.4,1-0.4,1.4,0c2.1,2.2,5.6,2.3,7.8,0.2
				c2.2-2.1,2.3-5.6,0.2-7.8c-0.4-0.4-0.4-1,0-1.4c0.4-0.4,1-0.4,1.4,0c2.9,3,2.8,7.8-0.3,10.7C106.6,19.7,104.7,20.4,102.8,20.4z"
				/>
		</g>
		<g>
			<path class="st0" d="M133.2,145.7c-0.3,0-0.5-0.1-0.7-0.3c-0.5-0.6-0.8-1.3-0.8-2.1c0-0.8,0.4-1.5,0.9-2c1.2-1.1,3-1,4.1,0.2
				c0.4,0.4,0.3,1-0.1,1.4c-0.4,0.4-1,0.3-1.4-0.1c-0.3-0.4-0.9-0.4-1.3-0.1c-0.2,0.2-0.3,0.4-0.3,0.6c0,0.2,0.1,0.5,0.2,0.7
				c0.4,0.4,0.3,1-0.1,1.4C133.7,145.7,133.4,145.7,133.2,145.7z"/>
		</g>
		<g>
			<path class="st0" d="M225.1,19.9c-0.5,0-1-0.1-1.5-0.4c-0.5-0.3-0.7-0.9-0.4-1.4c0.3-0.5,0.9-0.7,1.4-0.4
				c0.3,0.1,0.5,0.2,0.8,0.1c0.3-0.1,0.5-0.3,0.6-0.5c0.1-0.3,0.2-0.5,0.1-0.8c-0.1-0.3-0.3-0.5-0.5-0.6c-0.5-0.3-0.7-0.9-0.4-1.4
				c0.3-0.5,0.9-0.7,1.4-0.4c0.7,0.4,1.2,1,1.5,1.8c0.2,0.8,0.1,1.6-0.3,2.3c-0.4,0.7-1,1.2-1.8,1.5
				C225.7,19.9,225.4,19.9,225.1,19.9z"/>
		</g>
		<g>
			<path class="st0" d="M251.2,259.7c-0.5,0-1-0.4-1-1c-0.1-2.8,2.1-5.1,4.8-5.2c2.8-0.1,5.1,2.1,5.2,4.8c0,0.6-0.4,1-1,1
				c-0.6,0-1-0.4-1-1c-0.1-1.7-1.4-3-3.1-2.9c-0.8,0-1.5,0.4-2.1,0.9c-0.5,0.6-0.8,1.3-0.8,2.1C252.2,259.2,251.8,259.7,251.2,259.7
				C251.3,259.7,251.2,259.7,251.2,259.7z"/>
		</g>
		<g>
			<path class="st0" d="M216,225.9c-0.2,0-0.3,0-0.5-0.1c-0.5-0.3-0.6-0.9-0.4-1.4c0.2-0.3,0.2-0.6,0.1-1c-0.1-0.3-0.3-0.6-0.6-0.8
				c-0.6-0.3-1.4-0.1-1.8,0.5c-0.3,0.5-0.9,0.6-1.4,0.4c-0.5-0.3-0.6-0.9-0.4-1.4c0.4-0.8,1.1-1.3,2-1.5c0.8-0.2,1.7-0.1,2.5,0.3
				c1.6,0.9,2.1,2.9,1.2,4.5C216.7,225.7,216.4,225.9,216,225.9z"/>
		</g>
		<g>
			<path class="st0" d="M87.6,240.9c-1.2,0-2.5-0.2-3.6-0.8c-4.5-2-6.5-7.3-4.5-11.8c0.2-0.5,0.8-0.7,1.3-0.5
				c0.5,0.2,0.7,0.8,0.5,1.3c-0.8,1.7-0.8,3.6-0.1,5.3c0.7,1.7,2,3.1,3.6,3.9c3.5,1.6,7.6,0,9.2-3.5c0.2-0.5,0.8-0.7,1.3-0.5
				c0.5,0.2,0.7,0.8,0.5,1.3C94.3,239,91.1,240.9,87.6,240.9z"/>
		</g>
		<g>
			<path class="st0" d="M243.3,20.4c-0.4,0-0.9-0.3-1-0.8c-0.1-0.5,0.2-1.1,0.7-1.2c0.8-0.2,1.5-0.7,1.9-1.4
				c0.4-0.7,0.6-1.6,0.3-2.4c-0.2-0.8-0.7-1.5-1.4-1.9c-0.7-0.4-1.6-0.6-2.4-0.3c-0.5,0.1-1.1-0.2-1.2-0.7c-0.1-0.5,0.2-1.1,0.7-1.2
				c1.3-0.3,2.7-0.1,3.9,0.6c1.2,0.7,2,1.8,2.4,3.2c0.3,1.3,0.1,2.7-0.6,3.9c-0.7,1.2-1.8,2-3.2,2.4
				C243.5,20.4,243.4,20.4,243.3,20.4z"/>
		</g>
		<g>
			<path class="st0" d="M252.8,48.1c-0.5,0-0.9-0.3-1-0.8c-0.4-1.9,0.8-3.7,2.6-4.1c1.9-0.4,3.7,0.8,4.1,2.6
				c0.1,0.5-0.2,1.1-0.8,1.2c-0.5,0.1-1.1-0.2-1.2-0.8c-0.2-0.8-0.9-1.3-1.7-1.1c-0.4,0.1-0.7,0.3-0.9,0.6c-0.2,0.3-0.3,0.7-0.2,1.1
				c0.1,0.5-0.2,1.1-0.8,1.2C253,48.1,252.9,48.1,252.8,48.1z"/>
		</g>
		<g>
			<path class="st0" d="M132,224.5c-0.4,0-0.7-0.2-0.9-0.5c-1-1.9-1.3-4.1-0.7-6.1c0.6-2.1,2-3.8,3.8-4.8c3.9-2.1,8.8-0.7,10.9,3.2
				c0.3,0.5,0.1,1.1-0.4,1.4c-0.5,0.3-1.1,0.1-1.4-0.4c-0.8-1.4-2.1-2.4-3.6-2.9c-1.5-0.4-3.2-0.3-4.6,0.5c-1.4,0.8-2.4,2.1-2.9,3.6
				c-0.4,1.5-0.3,3.2,0.5,4.6c0.3,0.5,0.1,1.1-0.4,1.4C132.3,224.5,132.1,224.5,132,224.5z"/>
		</g>
		<g>
			<path class="st0" d="M11.1,221.9c-1.2,0-2.4-0.8-2.8-2c-0.2-0.5,0.1-1.1,0.7-1.2c0.5-0.2,1.1,0.1,1.2,0.7
				c0.1,0.2,0.2,0.4,0.4,0.5c0.2,0.1,0.5,0.1,0.7,0.1c0.5-0.1,0.7-0.6,0.6-1.1c-0.2-0.5,0.1-1.1,0.7-1.2c0.5-0.2,1.1,0.1,1.2,0.7
				c0.5,1.5-0.4,3.2-1.9,3.6C11.7,221.8,11.4,221.9,11.1,221.9z"/>
		</g>
		<g>
			<path class="st0" d="M204.3,32.5c-1,0-2-0.3-2.9-0.9c-2.5-1.6-3.2-4.9-1.6-7.4c0.3-0.5,0.9-0.6,1.4-0.3c0.5,0.3,0.6,0.9,0.3,1.4
				c-1,1.5-0.6,3.6,1,4.6c1.5,1,3.6,0.6,4.6-1c0.3-0.5,0.9-0.6,1.4-0.3c0.5,0.3,0.6,0.9,0.3,1.4C207.7,31.6,206,32.5,204.3,32.5z"/>
		</g>
		<g>
			<path class="st0" d="M274.1,224.3c-1,0-2-0.3-3-0.9c-0.5-0.3-0.6-0.9-0.3-1.4c0.3-0.5,0.9-0.6,1.4-0.3c1.6,1,3.8,0.6,4.8-1
				c0.5-0.8,0.7-1.7,0.5-2.6c-0.2-0.9-0.7-1.7-1.5-2.2c-0.5-0.3-0.6-0.9-0.3-1.4c0.3-0.5,0.9-0.6,1.4-0.3c1.2,0.8,2.1,2,2.4,3.4
				c0.3,1.4,0,2.9-0.7,4.1C277.6,223.4,275.9,224.3,274.1,224.3z"/>
		</g>
		<g>
			<path class="st0" d="M171.2,110.5c-0.2,0-0.3,0-0.5,0c-0.5-0.1-0.9-0.6-0.8-1.2c0.1-0.5,0.6-0.9,1.2-0.8c0.2,0,0.3,0,0.4-0.1
				c0.1-0.1,0.2-0.2,0.3-0.4c0.1-0.3-0.1-0.6-0.5-0.7c-0.5-0.1-0.9-0.6-0.8-1.2c0.1-0.5,0.6-0.9,1.2-0.8c1.4,0.3,2.3,1.6,2,3
				c-0.1,0.7-0.5,1.3-1.1,1.7C172.2,110.4,171.7,110.5,171.2,110.5z"/>
		</g>
		<g>
			<path class="st0" d="M147.6,35.8c-0.3,0-0.7-0.2-0.9-0.5c-0.8-1.2-0.4-2.9,0.9-3.6c1.2-0.8,2.9-0.4,3.6,0.9
				c0.3,0.5,0.1,1.1-0.3,1.4c-0.5,0.3-1.1,0.1-1.4-0.3c-0.2-0.3-0.6-0.4-0.9-0.2c-0.3,0.2-0.4,0.6-0.2,0.9c0.3,0.5,0.1,1.1-0.3,1.4
				C147.9,35.7,147.8,35.8,147.6,35.8z"/>
		</g>
		<g>
			<path class="st0" d="M90.3,116.1c-1,0-1.9-0.3-2.8-0.8c-1.2-0.7-2-1.9-2.4-3.3c-0.3-1.4-0.1-2.8,0.7-4c0.3-0.5,0.9-0.6,1.4-0.3
				c0.5,0.3,0.6,0.9,0.3,1.4c-0.5,0.7-0.6,1.6-0.4,2.5c0.2,0.9,0.7,1.6,1.5,2c1.5,1,3.6,0.5,4.5-1.1c0.3-0.5,0.9-0.6,1.4-0.3
				c0.5,0.3,0.6,0.9,0.3,1.4C93.8,115.2,92.1,116.1,90.3,116.1z"/>
		</g>
		<g>
			<path class="st0" d="M229.9,262.2c-0.2,0-0.4-0.1-0.6-0.2c-0.5-0.3-0.6-0.9-0.3-1.4c0.4-0.5,0.2-1.3-0.3-1.6
				c-0.5-0.4-1.3-0.2-1.6,0.3c-0.3,0.5-0.9,0.6-1.4,0.3c-0.5-0.3-0.6-0.9-0.3-1.4c1-1.5,2.9-1.8,4.4-0.9c1.5,1,1.8,2.9,0.9,4.4
				C230.6,262,230.2,262.2,229.9,262.2z"/>
		</g>
		<g>
			<path class="st0" d="M117.5,145.5c-0.5,0-0.9-0.3-1-0.8c-0.1-0.5,0.2-1.1,0.8-1.2c0.3-0.1,0.6-0.3,0.8-0.6c0.2-0.3,0.3-0.6,0.2-1
				c-0.1-0.7-0.8-1.2-1.5-1c-0.5,0.1-1.1-0.2-1.2-0.8c-0.1-0.5,0.2-1.1,0.8-1.2c1.8-0.4,3.5,0.8,3.9,2.6c0.2,0.9,0,1.7-0.5,2.5
				c-0.5,0.7-1.2,1.2-2.1,1.4C117.6,145.4,117.6,145.5,117.5,145.5z"/>
		</g>
		<g>
			<path class="st0" d="M99.2,265.4c-0.4,0-0.8-0.3-1-0.7c-0.2-0.5,0.1-1.1,0.7-1.3c1.1-0.3,1.9-1.1,2.5-2.1c0.5-1,0.6-2.1,0.3-3.2
				c-0.3-1.1-1.1-1.9-2.1-2.5c-1-0.5-2.1-0.6-3.2-0.3c-0.5,0.2-1.1-0.1-1.3-0.7c-0.2-0.5,0.1-1.1,0.7-1.3c1.6-0.5,3.3-0.3,4.7,0.4
				c1.5,0.8,2.5,2.1,3,3.6c0.5,1.6,0.3,3.3-0.4,4.7c-0.8,1.5-2.1,2.5-3.6,3C99.4,265.4,99.3,265.4,99.2,265.4z"/>
		</g>
		<g>
			<path class="st0" d="M10.1,118.2c-0.2,0-0.5,0-0.7-0.1c-0.7-0.2-1.2-0.6-1.5-1.2c-0.3-0.5-0.1-1.1,0.4-1.4
				c0.5-0.3,1.1-0.1,1.4,0.4c0.1,0.1,0.2,0.2,0.3,0.3c0.1,0,0.3,0,0.4-0.1c0.3-0.2,0.4-0.5,0.2-0.8c-0.3-0.5-0.1-1.1,0.4-1.4
				c0.5-0.3,1.1-0.1,1.4,0.4c0.7,1.2,0.2,2.8-1,3.5C11,118.1,10.6,118.2,10.1,118.2z"/>
		</g>
		<g>
			<path class="st0" d="M133.7,171.5c-0.4,0-0.8,0-1.2-0.1c-1.5-0.3-2.8-1.2-3.7-2.5c-0.9-1.3-1.2-2.8-0.8-4.3
				c0.1-0.5,0.6-0.9,1.2-0.8c0.5,0.1,0.9,0.6,0.8,1.2c-0.2,1,0,2,0.5,2.8c0.6,0.8,1.4,1.4,2.4,1.6c1,0.2,2,0,2.8-0.5
				c0.8-0.6,1.4-1.4,1.6-2.4c0.1-0.5,0.6-0.9,1.2-0.8c0.5,0.1,0.9,0.6,0.8,1.2c-0.3,1.5-1.2,2.8-2.5,3.7
				C135.9,171.1,134.8,171.5,133.7,171.5z"/>
		</g>
		<g>
			<path class="st0" d="M266.7,82.9c-1.1,0-2.3-0.2-3.3-0.7c-0.5-0.2-0.7-0.8-0.5-1.3c0.2-0.5,0.8-0.7,1.3-0.5
				c3.3,1.4,7.2-0.1,8.6-3.4c0.7-1.6,0.7-3.4,0.1-5c-0.6-1.6-1.9-2.9-3.5-3.6c-0.5-0.2-0.7-0.8-0.5-1.3c0.2-0.5,0.8-0.7,1.3-0.5
				c2.1,0.9,3.7,2.6,4.6,4.7c0.8,2.1,0.8,4.4-0.1,6.5C273.2,80.9,270,82.9,266.7,82.9z"/>
		</g>
		<g>
			<path class="st0" d="M241.3,116.4c-0.2,0-0.4,0-0.7-0.1c-0.5-0.2-0.8-0.7-0.7-1.2c0.2-0.5,0.7-0.8,1.2-0.7c0.1,0,0.2,0,0.3,0
				c0.1,0,0.1-0.1,0.2-0.2c0-0.1,0-0.2,0-0.3c0-0.1-0.1-0.1-0.2-0.2c-0.5-0.2-0.8-0.7-0.7-1.2c0.2-0.5,0.7-0.8,1.2-0.7
				c0.6,0.2,1.1,0.6,1.4,1.1c0.3,0.6,0.4,1.2,0.2,1.8c-0.2,0.6-0.6,1.1-1.1,1.4C242.1,116.3,241.7,116.4,241.3,116.4z"/>
		</g>
		<g>
			<path class="st0" d="M141.7,283.6c-1.1,0-2.2-0.4-3-1.2c-0.8-0.8-1.3-1.9-1.3-3c0-0.6,0.4-1,1-1c0.5,0,1,0.4,1,1
				c0,0.6,0.3,1.2,0.7,1.6c0.4,0.4,1.1,0.7,1.7,0.6c0.6,0,1.2-0.3,1.6-0.7c0.4-0.4,0.7-1,0.6-1.7c0-0.6,0.4-1,1-1c0.5,0,1,0.4,1,1
				c0,1.2-0.4,2.3-1.2,3.1C144,283.1,143,283.6,141.7,283.6C141.8,283.6,141.7,283.6,141.7,283.6z"/>
		</g>
		<g>
			<path class="st0" d="M10.4,159.6c-0.7,0-1.5-0.3-2-1c-0.4-0.5-0.6-1.2-0.5-1.9c0.1-0.7,0.4-1.3,0.9-1.7c0.4-0.3,1.1-0.3,1.4,0.2
				c0.3,0.4,0.3,1.1-0.2,1.4c-0.1,0.1-0.2,0.3-0.2,0.3c0,0.1,0,0.2,0.1,0.4c0.2,0.2,0.5,0.3,0.7,0.1c0.4-0.3,1.1-0.3,1.4,0.2
				c0.3,0.4,0.3,1.1-0.2,1.4C11.5,159.5,11,159.6,10.4,159.6z"/>
		</g>
		<g>
			<path class="st0" d="M223.3,122.4c-0.1,0-0.1,0-0.2,0c-2.8-0.5-4.7-3.2-4.2-6c0.3-1.4,1-2.5,2.2-3.3c1.1-0.8,2.5-1.1,3.9-0.8
				c0.5,0.1,0.9,0.6,0.8,1.2c-0.1,0.5-0.6,0.9-1.2,0.8c-0.8-0.2-1.7,0-2.4,0.5c-0.7,0.5-1.2,1.2-1.3,2c-0.3,1.7,0.8,3.4,2.5,3.7
				c0.5,0.1,0.9,0.6,0.8,1.2C224.2,122.1,223.7,122.4,223.3,122.4z"/>
		</g>
		<g>
			<path class="st0" d="M73.9,153.8c-1.7,0-3.5-0.7-4.7-2.1c-0.4-0.4-0.3-1,0.1-1.4c0.4-0.4,1-0.3,1.4,0.1c1.5,1.8,4.2,1.9,5.9,0.4
				c1.8-1.5,1.9-4.2,0.4-5.9c-0.4-0.4-0.3-1,0.1-1.4c0.4-0.4,1-0.3,1.4,0.1c2.2,2.6,2,6.5-0.6,8.8C76.8,153.3,75.4,153.8,73.9,153.8
				z"/>
		</g>
		<g>
			<path class="st0" d="M22.7,75.4c-1.8,0-3.5-0.7-4.8-2.1c-0.4-0.4-0.3-1,0.1-1.4c0.4-0.4,1-0.3,1.4,0.1c1.6,1.8,4.5,1.9,6.3,0.3
				c0.9-0.8,1.4-1.9,1.5-3.1c0.1-1.2-0.4-2.3-1.2-3.2c-0.4-0.4-0.3-1,0.1-1.4c0.4-0.4,1-0.3,1.4,0.1c1.2,1.3,1.8,2.9,1.7,4.6
				c-0.1,1.7-0.8,3.3-2.1,4.5C25.8,74.9,24.3,75.4,22.7,75.4z"/>
		</g>
		<g>
			<path class="st0" d="M90.1,11.2c-0.1,0-0.2,0-0.3,0c-0.8-0.1-1.5-0.5-2-1.1c-0.5-0.6-0.7-1.4-0.6-2.2C87.2,7.4,87.7,7,88.3,7
				c0.5,0.1,0.9,0.6,0.9,1.1c0,0.3,0,0.5,0.2,0.7C89.5,9,89.8,9.2,90,9.2c0.5,0.1,1-0.3,1.1-0.9c0.1-0.5,0.6-0.9,1.1-0.9
				c0.5,0.1,0.9,0.6,0.9,1.1C92.9,10.1,91.6,11.2,90.1,11.2z"/>
		</g>
		<g>
			<path class="st0" d="M60,279.2c-0.1,0-0.3,0-0.4,0c-0.5-0.1-1-0.5-0.9-1.1c0.1-0.5,0.5-1,1.1-0.9c0.5,0,1.1-0.1,1.5-0.5
				c0.4-0.3,0.7-0.8,0.7-1.4c0.1-1.1-0.7-2.1-1.8-2.2c-0.5-0.1-1-0.5-0.9-1.1c0.1-0.6,0.5-1,1.1-0.9c2.2,0.2,3.8,2.2,3.6,4.4
				C63.8,277.7,62,279.2,60,279.2z"/>
		</g>
		<g>
			<path class="st0" d="M275.3,279.3c-0.3,0-0.5,0-0.8-0.1c-0.7-0.2-1.2-0.7-1.6-1.3c-0.3-0.5-0.1-1.1,0.4-1.4
				c0.5-0.3,1.1-0.1,1.4,0.4c0.1,0.2,0.2,0.3,0.4,0.3c0.2,0,0.3,0,0.5,0c0.3-0.2,0.4-0.6,0.3-0.9c-0.3-0.5-0.1-1.1,0.4-1.4
				c0.5-0.3,1.1-0.1,1.4,0.4c0.7,1.3,0.2,2.9-1.1,3.6C276.1,279.2,275.7,279.3,275.3,279.3z"/>
		</g>
		<g>
			<path class="st0" d="M256.5,220.1c-0.1,0-0.2,0-0.4-0.1c-1.6-0.6-2.8-1.8-3.5-3.3c-0.7-1.5-0.8-3.3-0.2-4.8
				c0.6-1.6,1.8-2.8,3.3-3.5c1.5-0.7,3.3-0.8,4.8-0.2c0.5,0.2,0.8,0.8,0.6,1.3c-0.2,0.5-0.8,0.8-1.3,0.6c-1.1-0.4-2.3-0.4-3.3,0.1
				c-1.1,0.5-1.9,1.3-2.3,2.4c-0.4,1.1-0.4,2.3,0.1,3.3c0.5,1.1,1.3,1.9,2.4,2.3c0.5,0.2,0.8,0.8,0.6,1.3
				C257.2,219.8,256.9,220.1,256.5,220.1z"/>
		</g>
		<g>
			<path class="st0" d="M72.1,216.1c-0.3,0-0.6-0.1-0.8-0.4c-0.6-0.8-0.8-1.7-0.7-2.7c0.1-1,0.6-1.8,1.4-2.4
				c1.6-1.2,3.9-0.9,5.1,0.7c0.3,0.4,0.3,1.1-0.2,1.4c-0.4,0.3-1.1,0.3-1.4-0.2c-0.6-0.7-1.6-0.9-2.3-0.3c-0.4,0.3-0.6,0.7-0.6,1.1
				c-0.1,0.4,0.1,0.9,0.3,1.2c0.3,0.4,0.3,1.1-0.2,1.4C72.5,216,72.3,216.1,72.1,216.1z"/>
		</g>
		<g>
			<path class="st0" d="M222.4,197.2c-0.4,0-0.7-0.2-0.9-0.6c-0.2-0.5,0-1.1,0.5-1.3c0.2-0.1,0.3-0.4,0.2-0.6
				c-0.1-0.2-0.4-0.3-0.6-0.2c-0.5,0.2-1.1,0-1.3-0.5c-0.2-0.5,0-1.1,0.5-1.3c1.2-0.6,2.7,0,3.2,1.2c0.6,1.2,0,2.7-1.2,3.2
				C222.7,197.2,222.6,197.2,222.4,197.2z"/>
		</g>
		<g>
			<path class="st0" d="M26.9,170.5c-0.8,0-1.6-0.3-2.1-1c-1-1.2-0.9-2.9,0.3-3.9c0.4-0.4,1.1-0.3,1.4,0.1c0.4,0.4,0.3,1.1-0.1,1.4
				c-0.3,0.3-0.4,0.8-0.1,1.1c0.3,0.3,0.8,0.4,1.1,0.1c0.4-0.4,1.1-0.3,1.4,0.1c0.4,0.4,0.3,1.1-0.1,1.4
				C28.2,170.3,27.5,170.5,26.9,170.5z"/>
		</g>
		<g>
			<path class="st0" d="M278.3,52.5c0,0-0.1,0-0.1,0c-1.5-0.2-2.6-1.5-2.4-3c0.2-1.5,1.5-2.6,3-2.4c0.5,0.1,0.9,0.6,0.9,1.1
				c-0.1,0.5-0.5,0.9-1.1,0.9c-0.4,0-0.7,0.2-0.8,0.6c0,0.4,0.2,0.7,0.6,0.8c0.5,0.1,0.9,0.6,0.9,1.1
				C279.3,52.1,278.9,52.5,278.3,52.5z"/>
		</g>
		<g>
			<path class="st0" d="M45.9,17.4c-0.1,0-0.2,0-0.4-0.1c-1.7-0.7-2.5-2.6-1.8-4.3c0.7-1.7,2.6-2.5,4.3-1.8c0.5,0.2,0.8,0.8,0.6,1.3
				c-0.2,0.5-0.8,0.8-1.3,0.6c-0.7-0.3-1.4,0.1-1.7,0.7c-0.3,0.7,0.1,1.4,0.7,1.7c0.5,0.2,0.8,0.8,0.6,1.3
				C46.7,17.2,46.3,17.4,45.9,17.4z"/>
		</g>
		<g>
			<path class="st0" d="M55.9,70.7c-0.3,0-0.6-0.1-0.8-0.4c-0.3-0.4-0.2-1.1,0.2-1.4c1.1-0.8,1.8-2,2-3.3c0.2-1.3-0.2-2.7-1-3.7
				c-1.7-2.2-4.9-2.7-7.1-1c-0.4,0.3-1.1,0.2-1.4-0.2c-0.3-0.4-0.2-1.1,0.2-1.4c3.1-2.3,7.5-1.7,9.9,1.4c1.1,1.5,1.6,3.4,1.4,5.2
				c-0.3,1.9-1.2,3.5-2.7,4.7C56.4,70.6,56.1,70.7,55.9,70.7z"/>
		</g>
		<g>
			<path class="st0" d="M278.5,104.8c0,0-0.1,0-0.1,0c-2.6-0.4-4.4-2.8-4-5.4c0.4-2.6,2.8-4.4,5.4-4c0.5,0.1,0.9,0.6,0.8,1.1
				c-0.1,0.5-0.6,0.9-1.1,0.8c-1.5-0.2-2.9,0.8-3.1,2.3s0.8,2.9,2.3,3.1c0.5,0.1,0.9,0.6,0.8,1.1C279.4,104.4,279,104.8,278.5,104.8
				z"/>
		</g>
		<g>
			<path class="st0" d="M255.7,281c-0.1,0-0.2,0-0.3,0c-0.5-0.2-0.8-0.7-0.7-1.2c0.3-1.2-0.3-2.4-1.5-2.8c-1.2-0.3-2.4,0.3-2.8,1.5
				c-0.2,0.5-0.7,0.8-1.2,0.7c-0.5-0.2-0.8-0.7-0.7-1.2c0.7-2.2,3-3.5,5.2-2.8c2.2,0.7,3.5,3,2.8,5.2
				C256.5,280.7,256.1,281,255.7,281z"/>
		</g>
		<g>
			<path class="st0" d="M149.7,237.2c-0.4,0-0.7-0.2-0.9-0.6c-1-2.1,0-4.6,2.1-5.6c2.1-1,4.6,0,5.6,2.1c0.2,0.5,0,1.1-0.5,1.3
				c-0.5,0.2-1.1,0-1.3-0.5c-0.5-1.1-1.8-1.6-2.9-1.1c-1.1,0.5-1.6,1.8-1.1,2.9c0.2,0.5,0,1.1-0.5,1.3
				C150,237.2,149.9,237.2,149.7,237.2z"/>
		</g>
		<g>
			<path class="st0" d="M24.1,143.5c-0.2,0-0.4-0.1-0.6-0.2c-0.4-0.3-0.5-1-0.2-1.4c0.9-1.2,1.3-2.7,1.1-4.1c-0.2-1.5-1-2.8-2.2-3.7
				c-1.2-0.9-2.7-1.3-4.1-1.1c-1.5,0.2-2.8,1-3.7,2.2c-0.3,0.4-1,0.5-1.4,0.2c-0.4-0.3-0.5-1-0.2-1.4c1.2-1.6,3-2.7,5-2.9
				c2-0.3,4,0.2,5.6,1.5c1.6,1.2,2.7,3,2.9,5c0.3,2-0.2,4-1.5,5.6C24.7,143.4,24.4,143.5,24.1,143.5z"/>
		</g>
		<g>
			<path class="st0" d="M201.8,72.9c-0.3,0-0.7,0-1-0.1c-2.8-0.6-4.6-3.3-4.1-6.1c0.1-0.5,0.6-0.9,1.2-0.8c0.5,0.1,0.9,0.6,0.8,1.2
				c-0.4,1.7,0.8,3.4,2.5,3.8c1.7,0.4,3.4-0.8,3.8-2.5c0.1-0.5,0.6-0.9,1.2-0.8c0.5,0.1,0.9,0.6,0.8,1.2
				C206.4,71.2,204.2,72.9,201.8,72.9z"/>
		</g>
		<g>
			<path class="st0" d="M102.5,204.3c-0.1,0-0.2,0-0.3,0c-0.5-0.1-0.8-0.7-0.7-1.2c0.3-1,0.1-2.1-0.4-3c-0.5-0.9-1.4-1.6-2.4-1.8
				c-2.1-0.6-4.3,0.7-4.8,2.8c-0.1,0.5-0.7,0.8-1.2,0.7c-0.5-0.1-0.8-0.7-0.7-1.2c0.9-3.2,4.1-5,7.3-4.2c1.5,0.4,2.8,1.4,3.6,2.8
				c0.8,1.4,1,3,0.6,4.5C103.4,204.1,103,204.3,102.5,204.3z"/>
		</g>
		<g>
			<path class="st0" d="M272.7,11.7c-1.4,0-2.7-0.5-3.7-1.5c-1-1-1.7-2.3-1.7-3.8c0-0.6,0.4-1,1-1c0.5,0,1,0.4,1,1
				c0,0.9,0.4,1.7,1.1,2.4c0.7,0.6,1.5,0.9,2.4,0.9c0.9,0,1.7-0.4,2.4-1.1c0.6-0.7,0.9-1.5,0.9-2.4c0-0.6,0.4-1,1-1c0.5,0,1,0.4,1,1
				c0,1.4-0.5,2.8-1.5,3.9c-1,1-2.3,1.7-3.8,1.7C272.8,11.7,272.8,11.7,272.7,11.7z"/>
		</g>
		<g>
			<path class="st0" d="M151.9,61c-0.5,0-1-0.4-1-0.9c-0.2-2.2,0.5-4.3,2-5.9c1.4-1.7,3.4-2.6,5.6-2.8c2.2-0.2,4.3,0.5,5.9,2
				c1.7,1.4,2.6,3.4,2.8,5.6c0,0.6-0.4,1-0.9,1.1c-0.6,0-1-0.4-1.1-0.9c-0.1-1.6-0.9-3.1-2.1-4.2c-1.2-1.1-2.9-1.6-4.5-1.5
				c-1.6,0.1-3.1,0.9-4.2,2.1c-1.1,1.2-1.6,2.8-1.5,4.5C152.9,60.4,152.5,60.9,151.9,61C151.9,61,151.9,61,151.9,61z"/>
		</g>
		<g>
			<path class="st0" d="M76.9,176.2c-0.9,0-1.9-0.2-2.7-0.6c-1.5-0.7-2.6-2-3.1-3.6c-0.2-0.5,0.1-1.1,0.6-1.3
				c0.5-0.2,1.1,0.1,1.3,0.6c0.4,1.1,1.1,1.9,2.1,2.4c1,0.5,2.1,0.6,3.2,0.2c1.1-0.4,1.9-1.1,2.4-2.1c0.5-1,0.6-2.1,0.2-3.2
				c-0.2-0.5,0.1-1.1,0.6-1.3c0.5-0.2,1.1,0.1,1.3,0.6c0.5,1.6,0.4,3.2-0.3,4.7c-0.7,1.5-2,2.6-3.6,3.1
				C78.3,176.1,77.6,176.2,76.9,176.2z"/>
		</g>
		<g>
			<path class="st0" d="M83.9,282.6c-0.5,0-1-0.4-1-1c-0.1-3.4,2.5-6.2,5.9-6.3c1.6-0.1,3.2,0.5,4.4,1.6c1.2,1.1,1.9,2.6,2,4.2
				c0,0.6-0.4,1-1,1c-0.6,0-1-0.4-1-1c0-1.1-0.5-2.1-1.3-2.9c-0.8-0.7-1.9-1.1-2.9-1.1c-1.1,0-2.1,0.5-2.9,1.3
				c-0.7,0.8-1.1,1.9-1.1,2.9C84.9,282.1,84.5,282.6,83.9,282.6C83.9,282.6,83.9,282.6,83.9,282.6z"/>
		</g>
		<g>
			<path class="st0" d="M187.7,178.3c-0.3,0-0.6-0.2-0.8-0.4c-0.3-0.5-0.2-1.1,0.3-1.4c0.2-0.1,0.3-0.3,0.3-0.5c0-0.2,0-0.4-0.1-0.6
				c-0.1-0.2-0.3-0.3-0.5-0.3c-0.2,0-0.4,0-0.6,0.1c-0.5,0.3-1.1,0.2-1.4-0.3c-0.3-0.5-0.2-1.1,0.3-1.4c0.6-0.4,1.3-0.6,2.1-0.4
				c0.7,0.1,1.3,0.6,1.8,1.2c0.4,0.6,0.6,1.3,0.4,2.1c-0.1,0.7-0.6,1.3-1.2,1.8C188.1,178.2,187.9,178.3,187.7,178.3z"/>
		</g>
		<g>
			<path class="st0" d="M171.2,137.6c-0.4,0-0.7-0.2-0.9-0.5c-0.3-0.5-0.1-1.1,0.4-1.4c0.9-0.5,1.6-1.4,1.9-2.4c0.3-1,0.2-2.1-0.3-3
				c-0.5-0.9-1.4-1.6-2.4-1.9c-1-0.3-2.1-0.2-3,0.3c-0.5,0.3-1.1,0.1-1.4-0.4c-0.3-0.5-0.1-1.1,0.4-1.4c1.4-0.8,3-0.9,4.5-0.5
				c1.5,0.4,2.8,1.5,3.6,2.9c0.8,1.4,0.9,3,0.5,4.5c-0.4,1.5-1.5,2.8-2.9,3.6C171.6,137.6,171.4,137.6,171.2,137.6z"/>
		</g>
		<g>
			<path class="st0" d="M234.1,175.5c-0.1,0-0.3,0-0.4-0.1c-1.9-0.8-3.4-2.2-4.2-4.1c-0.8-1.9-0.8-4,0-5.8c1.6-3.9,6-5.8,9.9-4.2
				c0.5,0.2,0.8,0.8,0.6,1.3c-0.2,0.5-0.8,0.8-1.3,0.6c-2.9-1.2-6.2,0.2-7.3,3.1c-1.2,2.9,0.2,6.2,3.1,7.3c0.5,0.2,0.8,0.8,0.6,1.3
				C234.9,175.3,234.5,175.5,234.1,175.5z"/>
		</g>
		<g>
			<path class="st0" d="M227.2,146.5c-0.1,0-0.3,0-0.4-0.1c-0.5-0.2-0.7-0.8-0.5-1.3c0.6-1.2,0.1-2.8-1.1-3.4
				c-1.2-0.6-2.8-0.1-3.4,1.1c-0.2,0.5-0.8,0.7-1.3,0.5c-0.5-0.2-0.7-0.8-0.5-1.3c1.1-2.2,3.8-3.2,6-2.1c2.2,1.1,3.2,3.8,2.1,6
				C228,146.3,227.6,146.5,227.2,146.5z"/>
		</g>
		<g>
			<path class="st0" d="M40.1,92.4c-1.1,0-2.2-0.3-3.2-0.8c-0.5-0.3-0.7-0.9-0.4-1.4c0.3-0.5,0.9-0.7,1.4-0.4c2.4,1.3,5.3,0.4,6.6-2
				c1.3-2.4,0.4-5.3-2-6.6c-0.5-0.3-0.7-0.9-0.4-1.4c0.3-0.5,0.9-0.7,1.4-0.4c3.3,1.8,4.6,6,2.8,9.3c-0.9,1.6-2.3,2.8-4.1,3.3
				C41.4,92.3,40.7,92.4,40.1,92.4z"/>
		</g>
		<g>
			<path class="st0" d="M118,198c-0.5,0-0.9-0.4-1-0.9c-0.6-4,2.2-7.8,6.2-8.4c1.9-0.3,3.9,0.2,5.5,1.4c1.6,1.2,2.6,2.9,2.9,4.8
				c0.1,0.5-0.3,1.1-0.8,1.1c-0.5,0.1-1.1-0.3-1.1-0.8c-0.2-1.4-1-2.7-2.1-3.5c-1.2-0.9-2.6-1.2-4-1c-2.9,0.4-4.9,3.2-4.5,6.1
				c0.1,0.5-0.3,1.1-0.8,1.1C118.1,198,118.1,198,118,198z"/>
		</g>
		<g>
			<path class="st0" d="M113.8,44.8c-0.5,0-0.9-0.1-1.4-0.3c-1.8-0.8-2.6-2.8-1.8-4.6c0.2-0.5,0.8-0.7,1.3-0.5
				c0.5,0.2,0.7,0.8,0.5,1.3c-0.2,0.4-0.2,0.8,0,1.1c0.1,0.4,0.4,0.7,0.8,0.8c0.7,0.3,1.6,0,2-0.8c0.2-0.5,0.8-0.7,1.3-0.5
				c0.5,0.2,0.7,0.8,0.5,1.3C116.4,44,115.1,44.8,113.8,44.8z"/>
		</g>
		<g>
			<path class="st0" d="M134.5,108.2c-1.8,0-3.5-0.7-4.8-2c-1.3-1.3-2-3-2-4.8c0-3.8,3-6.8,6.8-6.9c0,0,0,0,0,0c0.5,0,1,0.4,1,1
				c0,0.6-0.4,1-1,1c-2.7,0-4.8,2.2-4.8,4.9c0,1.3,0.5,2.5,1.4,3.4c0.9,0.9,2.1,1.4,3.4,1.4c0,0,0,0,0,0c0.5,0,1,0.4,1,1
				C135.6,107.8,135.1,108.2,134.5,108.2C134.6,108.2,134.5,108.2,134.5,108.2z"/>
		</g>
		<g>
			<path class="st0" d="M251.8,196.9c-0.1,0-0.2,0-0.3-0.1c-0.5-0.2-0.8-0.7-0.6-1.3c0.5-1.6,0.4-3.3-0.4-4.8
				c-0.8-1.5-2.1-2.6-3.7-3.1c-3.3-1.1-6.9,0.7-7.9,4c-0.2,0.5-0.7,0.8-1.3,0.6c-0.5-0.2-0.8-0.7-0.6-1.3c0.7-2.1,2.2-3.8,4.1-4.8
				c2-1,4.2-1.2,6.3-0.5c2.1,0.7,3.8,2.2,4.8,4.1c1,2,1.2,4.2,0.5,6.3C252.6,196.6,252.2,196.9,251.8,196.9z"/>
		</g>
		<g>
			<path class="st0" d="M10.1,96.2c-0.5,0-0.9-0.4-1-0.9c-0.1-0.5,0.4-1,0.9-1.1c0.7-0.1,1.3-0.4,1.8-1c0.5-0.5,0.7-1.2,0.6-2
				c-0.1-0.7-0.4-1.3-1-1.8c-0.5-0.5-1.2-0.7-2-0.6c-0.6,0-1-0.4-1.1-0.9c-0.1-0.5,0.4-1,0.9-1.1c1.2-0.1,2.5,0.3,3.4,1
				c1,0.8,1.6,1.9,1.7,3.2c0.1,1.2-0.3,2.5-1,3.4C12.6,95.5,11.5,96.1,10.1,96.2C10.2,96.2,10.1,96.2,10.1,96.2z"/>
		</g>
		<g>
			<path class="st0" d="M179.3,70.9c-0.1,0-0.3,0-0.4,0c-0.7-0.1-1.4-0.5-1.8-1.1c-0.4-0.6-0.6-1.4-0.5-2.1s0.5-1.4,1.1-1.8
				c0.4-0.3,1.1-0.2,1.4,0.2c0.3,0.4,0.2,1.1-0.2,1.4c-0.2,0.1-0.3,0.3-0.3,0.5c0,0.2,0,0.4,0.1,0.6c0.3,0.4,0.8,0.4,1.2,0.2
				c0.4-0.3,1.1-0.2,1.4,0.2c0.3,0.4,0.2,1.1-0.2,1.4C180.5,70.7,179.9,70.9,179.3,70.9z"/>
		</g>
		<g>
			<path class="st0" d="M108.8,99.7c-0.7,0-1.5-0.1-2.2-0.4c-1.8-0.6-3.2-1.8-4-3.5c-0.8-1.7-1-3.6-0.4-5.3c0.2-0.5,0.7-0.8,1.3-0.6
				c0.5,0.2,0.8,0.7,0.6,1.3c-0.4,1.3-0.3,2.6,0.3,3.8c0.6,1.2,1.6,2.1,2.9,2.5c1.3,0.4,2.6,0.3,3.8-0.3c1.2-0.6,2.1-1.6,2.5-2.9
				c0.2-0.5,0.7-0.8,1.3-0.6c0.5,0.2,0.8,0.7,0.6,1.3C114.5,97.8,111.7,99.7,108.8,99.7z"/>
		</g>
		<g>
			<path class="st0" d="M162.2,171c-0.4,0-0.7,0-1.1-0.1c-1.5-0.3-2.7-1.1-3.6-2.4c-0.3-0.5-0.2-1.1,0.3-1.4
				c0.5-0.3,1.1-0.2,1.4,0.3c0.5,0.8,1.4,1.3,2.3,1.5c0.9,0.2,1.9,0,2.7-0.5c1.7-1.1,2.1-3.4,1-5c-0.3-0.5-0.2-1.1,0.3-1.4
				c0.5-0.3,1.1-0.2,1.4,0.3c1.7,2.6,1,6.1-1.5,7.8C164.4,170.7,163.3,171,162.2,171z"/>
		</g>
		<g>
			<path class="st0" d="M14.4,24.4c-1.6,0-3.2-0.6-4.5-1.6c-1.5-1.2-2.4-2.9-2.6-4.8c-0.4-3.9,2.4-7.4,6.3-7.8
				c0.6-0.1,1,0.3,1.1,0.9c0.1,0.5-0.3,1-0.9,1.1C11.1,12.5,9,15,9.3,17.8c0.1,1.4,0.8,2.6,1.9,3.4c1.1,0.9,2.4,1.3,3.7,1.1
				c0.5-0.1,1,0.3,1.1,0.9c0.1,0.5-0.3,1-0.9,1.1C14.9,24.4,14.6,24.4,14.4,24.4z"/>
		</g>
		<g>
			<path class="st0" d="M56.5,232c-0.2,0-0.3,0-0.5,0c-0.5-0.1-0.9-0.6-0.8-1.1c0.1-0.5,0.6-0.9,1.1-0.8c0.7,0.1,1.4-0.4,1.5-1.1
				c0.1-0.3,0-0.7-0.2-1c-0.2-0.3-0.5-0.5-0.8-0.5c-0.5-0.1-0.9-0.6-0.8-1.1c0.1-0.5,0.6-0.9,1.1-0.8c0.9,0.1,1.6,0.6,2.2,1.3
				c0.5,0.7,0.7,1.6,0.6,2.4C59.5,230.9,58.1,232,56.5,232z"/>
		</g>
		<g>
			<path class="st0" d="M240.9,245.3c-3.4,0-6.6-2.1-7.8-5.5c-0.2-0.5,0.1-1.1,0.6-1.3c0.5-0.2,1.1,0.1,1.3,0.6
				c1.2,3.3,4.8,5,8.1,3.8c3.3-1.2,5-4.8,3.8-8.1c-0.2-0.5,0.1-1.1,0.6-1.3c0.5-0.2,1.1,0.1,1.3,0.6c1.5,4.3-0.7,9.1-5.1,10.6
				C242.7,245.1,241.8,245.3,240.9,245.3z"/>
		</g>
		<g>
			<path class="st0" d="M182.3,95.1c-0.2,0-0.5-0.1-0.7-0.3c-1-0.9-1.6-2.2-1.7-3.5c-0.1-1.4,0.4-2.7,1.3-3.7c0.9-1,2.2-1.6,3.5-1.7
				c1.3-0.1,2.7,0.4,3.7,1.3c0.4,0.4,0.4,1,0.1,1.4c-0.4,0.4-1,0.4-1.4,0.1c-0.6-0.5-1.4-0.8-2.2-0.8c-0.8,0-1.6,0.4-2.1,1
				c-0.5,0.6-0.8,1.4-0.8,2.2c0,0.8,0.4,1.6,1,2.1c0.4,0.4,0.4,1,0.1,1.4C182.9,94.9,182.6,95.1,182.3,95.1z"/>
		</g>
		<g>
			<path class="st0" d="M279.6,146.9c-0.1,0-0.3,0-0.4-0.1c-0.6-0.3-1.1-0.8-1.3-1.4c-0.2-0.6-0.2-1.3,0.1-1.9
				c0.3-0.6,0.8-1.1,1.4-1.3c0.6-0.2,1.3-0.2,1.9,0.1c0.5,0.2,0.7,0.8,0.5,1.3c-0.2,0.5-0.8,0.7-1.3,0.5c-0.2-0.1-0.5,0-0.7,0.2
				c-0.1,0.2,0,0.5,0.2,0.7c0.5,0.2,0.7,0.8,0.5,1.3C280.4,146.6,280,146.9,279.6,146.9z"/>
		</g>
		<g>
			<path class="st0" d="M45.1,47.1c-0.5,0-0.9-0.3-1-0.8c-0.5-2.3,0-4.7,1.3-6.7c1.3-2,3.3-3.3,5.7-3.8c4.8-1,9.5,2.2,10.5,7
				c0.1,0.5-0.2,1.1-0.8,1.2c-0.5,0.1-1.1-0.2-1.2-0.8c-0.7-3.7-4.4-6.2-8.1-5.4c-1.8,0.4-3.4,1.4-4.4,2.9c-1,1.5-1.4,3.4-1,5.2
				c0.1,0.5-0.2,1.1-0.8,1.2C45.3,47.1,45.2,47.1,45.1,47.1z"/>
		</g>
		<g>
			<path class="st0" d="M143.4,247.4c-0.4,0-0.7-0.2-0.9-0.6c-0.6-1.1-0.1-2.5,1.1-3.1c0.6-0.3,1.2-0.3,1.8-0.1
				c0.6,0.2,1.1,0.6,1.3,1.2c0.2,0.5,0,1.1-0.5,1.3c-0.5,0.2-1.1,0-1.3-0.5c-0.1-0.1-0.1-0.1-0.2-0.2c0,0-0.1,0-0.2,0
				c-0.2,0.1-0.2,0.3-0.1,0.4c0.2,0.5,0,1.1-0.5,1.3C143.7,247.4,143.5,247.4,143.4,247.4z"/>
		</g>
		<g>
			<path class="st0" d="M123.7,79.5c-0.2,0-0.3,0-0.5-0.1c-0.5-0.3-0.6-0.9-0.4-1.4c0.1-0.1,0.1-0.3,0-0.3c0-0.1-0.1-0.2-0.2-0.3
				c-0.1-0.1-0.3-0.1-0.3,0c-0.1,0-0.2,0.1-0.3,0.2c-0.3,0.5-0.9,0.6-1.4,0.4c-0.5-0.3-0.6-0.9-0.4-1.4c0.3-0.6,0.9-1,1.5-1.1
				c0.6-0.2,1.3-0.1,1.9,0.2c0.6,0.3,1,0.9,1.1,1.5c0.2,0.6,0.1,1.3-0.2,1.9C124.4,79.3,124.1,79.5,123.7,79.5z"/>
		</g>
		<g>
			<path class="st0" d="M208.5,164.7c-0.5,0-0.9-0.3-1-0.8c-0.1-0.5,0.3-1.1,0.8-1.2c0.6-0.1,1.2-0.5,1.6-1c0.4-0.5,0.5-1.2,0.4-1.8
				c-0.1-0.6-0.5-1.2-1-1.6c-0.5-0.4-1.2-0.5-1.8-0.4c-0.5,0.1-1.1-0.3-1.2-0.8c-0.1-0.5,0.3-1.1,0.8-1.2c1.2-0.2,2.3,0.1,3.3,0.7
				c1,0.7,1.6,1.7,1.8,2.9c0.2,1.2-0.1,2.3-0.7,3.3c-0.7,1-1.7,1.6-2.9,1.8C208.6,164.7,208.5,164.7,208.5,164.7z"/>
		</g>
		<g>
			<path class="st0" d="M270.3,31.3c-0.3,0-0.5,0-0.8,0c-4.5-0.4-7.7-4.4-7.3-8.8c0.1-0.5,0.5-1,1.1-0.9c0.5,0.1,1,0.5,0.9,1.1
				c-0.3,3.4,2.2,6.4,5.5,6.7c3.4,0.3,6.4-2.2,6.7-5.5c0.1-0.5,0.5-1,1.1-0.9c0.5,0.1,1,0.5,0.9,1.1C278,28.1,274.4,31.3,270.3,31.3
				z"/>
		</g>
		<g>
			<path class="st0" d="M161.9,19.9c-0.2,0-0.3,0-0.5,0c-0.6,0-1-0.5-0.9-1.1s0.5-1,1.1-0.9c1.9,0.2,3.7-1.3,3.8-3.2
				c0.2-1.9-1.3-3.7-3.2-3.8c-0.6,0-1-0.5-0.9-1.1c0-0.6,0.5-1,1.1-0.9c3,0.3,5.3,2.9,5.1,6C167.2,17.7,164.7,19.9,161.9,19.9z"/>
		</g>
		<g>
			<path class="st0" d="M180,234.7c0,0-0.1,0-0.1,0c-1.8,0-3.5-0.8-4.7-2.1c-0.4-0.4-0.4-1,0-1.4c0.4-0.4,1-0.4,1.4,0
				c0.9,0.9,2.1,1.4,3.3,1.5c1.3,0,2.5-0.4,3.4-1.3c0.9-0.9,1.4-2.1,1.5-3.3c0-1.3-0.4-2.5-1.3-3.4c-0.4-0.4-0.4-1,0-1.4
				c0.4-0.4,1-0.4,1.4,0c1.2,1.3,1.9,3,1.9,4.8c0,1.8-0.8,3.5-2.1,4.7C183.4,234,181.7,234.7,180,234.7z"/>
		</g>
		<g>
			<path class="st0" d="M145.6,128c-2.2,0-4.3-1.4-5.1-3.6c-0.2-0.5,0.1-1.1,0.6-1.3c0.5-0.2,1.1,0.1,1.3,0.6
				c0.6,1.7,2.5,2.7,4.2,2.1c1.7-0.6,2.7-2.5,2.1-4.2c-0.2-0.5,0.1-1.1,0.6-1.3c0.5-0.2,1.1,0.1,1.3,0.6c1,2.8-0.5,5.8-3.3,6.8
				C146.8,127.9,146.2,128,145.6,128z"/>
		</g>
		<g>
			<path class="st0" d="M208,183.4c-0.7,0-1.3-0.2-1.8-0.7c-0.5-0.5-0.9-1.1-0.9-1.9c0-0.6,0.4-1,0.9-1.1c0.6,0,1,0.4,1.1,0.9
				c0,0.2,0.1,0.4,0.2,0.5c0.1,0.1,0.3,0.2,0.5,0.2c0.4,0,0.7-0.4,0.7-0.7c0-0.6,0.4-1,0.9-1.1c0.6,0,1,0.4,1.1,0.9
				c0.1,1.5-1,2.8-2.5,2.9C208.2,183.4,208.1,183.4,208,183.4z"/>
		</g>
		<g>
			<path class="st0" d="M54.8,201.7c-1.2,0-2.4-0.3-3.5-0.8c-2-0.9-3.6-2.6-4.4-4.7c-0.2-0.5,0.1-1.1,0.6-1.3
				c0.5-0.2,1.1,0.1,1.3,0.6c0.6,1.6,1.8,2.9,3.3,3.6c1.5,0.7,3.3,0.8,4.9,0.2c1.6-0.6,2.9-1.8,3.6-3.3c0.7-1.5,0.8-3.3,0.2-4.9
				c-0.2-0.5,0.1-1.1,0.6-1.3c0.5-0.2,1.1,0.1,1.3,0.6c0.8,2.1,0.7,4.4-0.2,6.4c-0.9,2-2.6,3.6-4.7,4.4
				C56.7,201.5,55.7,201.7,54.8,201.7z"/>
		</g>
		<g>
			<path class="st0" d="M118.6,278.5c-0.4,0-0.7,0-1.1-0.1c-1.4-0.3-2.5-1.1-3.3-2.2c-0.8-1.2-1-2.5-0.8-3.9
				c0.3-1.4,1.1-2.5,2.2-3.3c0.5-0.3,1.1-0.2,1.4,0.3c0.3,0.5,0.2,1.1-0.3,1.4c-0.7,0.5-1.2,1.2-1.4,2c-0.2,0.8,0,1.7,0.5,2.4
				c0.5,0.7,1.2,1.2,2,1.4c0.8,0.2,1.7,0,2.4-0.5c0.5-0.3,1.1-0.2,1.4,0.3c0.3,0.5,0.2,1.1-0.3,1.4
				C120.6,278.2,119.6,278.5,118.6,278.5z"/>
		</g>
		<g>
			<path class="st0" d="M51.9,139.7c-0.6,0-1.3-0.1-1.9-0.3c-1.8-0.5-3.2-1.7-4.1-3.2c-0.3-0.5-0.1-1.1,0.4-1.4
				c0.5-0.3,1.1-0.1,1.4,0.4c0.6,1.1,1.7,1.9,2.9,2.3c1.2,0.4,2.5,0.2,3.7-0.4c2.3-1.3,3.2-4.3,1.9-6.6c-0.3-0.5-0.1-1.1,0.4-1.4
				c0.5-0.3,1.1-0.1,1.4,0.4c1.8,3.3,0.7,7.5-2.6,9.3C54.2,139.4,53,139.7,51.9,139.7z"/>
		</g>
		<g>
			<path class="st0" d="M234.8,218.2C234.8,218.2,234.8,218.2,234.8,218.2c-2.7,0-4.9-2.3-4.8-4.9c0-2.7,2.3-4.8,4.9-4.8
				c0.6,0,1,0.5,1,1c0,0.5-0.5,1-1,1c0,0,0,0-0.1,0c-1.6,0-2.9,1.3-2.9,2.8c0,1.6,1.3,2.9,2.8,2.9c0.6,0,1,0.5,1,1
				C235.8,217.7,235.3,218.2,234.8,218.2z"/>
		</g>
		<g>
			<path class="st0" d="M242.4,140.8c-0.5,0-0.9-0.3-1-0.8c-0.1-0.5,0.3-1.1,0.8-1.1c0.8-0.1,1.5-0.5,1.9-1.2
				c0.5-0.6,0.6-1.4,0.5-2.2c-0.3-1.6-1.8-2.7-3.4-2.4c-0.5,0.1-1.1-0.3-1.1-0.8c-0.1-0.5,0.3-1.1,0.8-1.1c2.7-0.4,5.2,1.4,5.7,4.1
				c0.2,1.3-0.1,2.6-0.9,3.7c-0.8,1.1-1.9,1.8-3.2,2C242.5,140.8,242.4,140.8,242.4,140.8z"/>
		</g>
		<g>
			<path class="st0" d="M233.5,280.4c-0.3,0-0.7-0.2-0.9-0.5c-0.3-0.5-0.1-1.1,0.4-1.4c0.5-0.3,0.7-1,0.4-1.5
				c-0.3-0.5-1-0.7-1.5-0.4c-0.5,0.3-1.1,0.1-1.4-0.4c-0.3-0.5-0.1-1.1,0.4-1.4c1.5-0.8,3.4-0.3,4.2,1.1c0.4,0.7,0.5,1.5,0.3,2.3
				c-0.2,0.8-0.7,1.5-1.4,1.9C233.8,280.3,233.6,280.4,233.5,280.4z"/>
		</g>
		<g>
			<path class="st0" d="M236.1,98.1c-0.5,0-1-0.4-1-1c0-0.6,0.4-1,1-1c1.9,0,3.7-0.8,5-2.1c1.3-1.4,2.1-3.2,2-5.1
				c0-1.9-0.8-3.7-2.1-5c-1.4-1.3-3.1-2.1-5.1-2c0,0,0,0,0,0c-0.5,0-1-0.4-1-1c0-0.6,0.4-1,1-1c2.4,0,4.7,0.9,6.5,2.6
				c1.7,1.7,2.7,4,2.7,6.4c0,2.4-0.9,4.7-2.6,6.5C240.8,97.1,238.6,98,236.1,98.1C236.1,98.1,236.1,98.1,236.1,98.1z"/>
		</g>
		<g>
			<path class="st0" d="M189,256.8c-0.9,0-1.8-0.3-2.6-0.9c-0.9-0.7-1.4-1.7-1.6-2.8c-0.3-2.3,1.4-4.4,3.7-4.7
				c0.5-0.1,1,0.3,1.1,0.9c0.1,0.5-0.3,1-0.9,1.1c-1.2,0.1-2.1,1.2-1.9,2.4c0.1,0.6,0.4,1.1,0.8,1.5c0.5,0.4,1,0.5,1.6,0.5
				c0.5-0.1,1,0.3,1.1,0.9c0.1,0.5-0.3,1-0.9,1.1C189.3,256.8,189.1,256.8,189,256.8z"/>
		</g>
		<g>
			<path class="st0" d="M226.4,70.8c-0.3,0-0.6-0.1-0.8-0.4c-0.7-1-1-2.2-0.9-3.4c0.2-1.2,0.8-2.3,1.8-3c1-0.7,2.2-1,3.4-0.9
				c1.2,0.2,2.3,0.8,3,1.8c0.3,0.4,0.2,1.1-0.2,1.4c-0.4,0.3-1.1,0.2-1.4-0.2c-0.4-0.5-1-0.9-1.7-1c-0.7-0.1-1.3,0.1-1.9,0.5
				c-0.5,0.4-0.9,1-1,1.7c-0.1,0.7,0.1,1.3,0.5,1.9c0.3,0.4,0.2,1.1-0.2,1.4C226.8,70.7,226.6,70.8,226.4,70.8z"/>
		</g>
		<g>
			<path class="st0" d="M205.1,53c-2.7,0-5.2-1.4-6.6-3.9c-0.3-0.5-0.1-1.1,0.4-1.4c0.5-0.3,1.1-0.1,1.4,0.4
				c1.4,2.7,4.7,3.7,7.4,2.2c1.3-0.7,2.2-1.8,2.7-3.2s0.3-2.9-0.4-4.2c-0.3-0.5-0.1-1.1,0.4-1.4c0.5-0.3,1.1-0.1,1.4,0.4
				c0.9,1.8,1.1,3.8,0.5,5.7c-0.6,1.9-1.9,3.5-3.6,4.4C207.5,52.7,206.3,53,205.1,53z"/>
		</g>
		<g>
			<path class="st0" d="M35.6,114c-0.1,0-0.1,0-0.2,0c-1.6-0.1-3-0.7-4.1-1.9c-1.1-1.2-1.6-2.7-1.6-4.2c0.1-1.6,0.7-3,1.9-4.1
				c0.4-0.4,1-0.4,1.4,0c0.4,0.4,0.4,1,0,1.4c-0.8,0.7-1.2,1.7-1.2,2.7c0,1,0.3,2,1,2.8c0.7,0.8,1.7,1.2,2.7,1.2c1,0,2-0.3,2.8-1
				c0.4-0.4,1-0.4,1.4,0c0.4,0.4,0.4,1,0,1.4C38.6,113.5,37.1,114,35.6,114z"/>
		</g>
		<g>
			<path class="st0" d="M80.2,266.1c-0.2,0-0.4-0.1-0.6-0.2c-1.8-1.2-2.2-3.6-1-5.4c0.6-0.8,1.5-1.4,2.5-1.6c1-0.2,2,0,2.9,0.6
				c0.5,0.3,0.6,0.9,0.3,1.4c-0.3,0.5-0.9,0.6-1.4,0.3c-0.8-0.6-2-0.4-2.6,0.5c-0.6,0.8-0.4,2,0.5,2.6c0.5,0.3,0.6,0.9,0.3,1.4
				C80.8,266,80.5,266.1,80.2,266.1z"/>
		</g>
		<g>
			<path class="st0" d="M49.8,181.7c-0.2,0-0.4,0-0.6,0c-2.2-0.3-3.7-2.3-3.3-4.5c0.1-0.5,0.6-0.9,1.1-0.8c0.5,0.1,0.9,0.6,0.8,1.1
				c-0.2,1.1,0.6,2.1,1.7,2.2c0.5,0.1,1-0.1,1.5-0.4c0.4-0.3,0.7-0.8,0.8-1.3c0.1-0.5,0.6-0.9,1.1-0.8c0.5,0.1,0.9,0.6,0.8,1.1
				c-0.2,1-0.7,2-1.6,2.6C51.4,181.5,50.6,181.7,49.8,181.7z"/>
		</g>
		<g>
			<path class="st0" d="M275.9,261.4c-0.5,0-0.9-0.4-1-0.8c-0.1-0.9,0.1-1.8,0.6-2.5c0.5-0.7,1.3-1.2,2.2-1.3
				c0.9-0.1,1.8,0.1,2.5,0.6c0.7,0.5,1.2,1.3,1.3,2.2c0.1,0.5-0.3,1.1-0.8,1.1c-0.5,0.1-1.1-0.3-1.1-0.8c-0.1-0.4-0.3-0.7-0.6-0.9
				c-0.3-0.2-0.7-0.3-1-0.3c-0.4,0.1-0.7,0.3-0.9,0.6c-0.2,0.3-0.3,0.7-0.3,1c0.1,0.5-0.3,1.1-0.8,1.1
				C276,261.4,275.9,261.4,275.9,261.4z"/>
		</g>
		<g>
			<path class="st0" d="M130.9,64.9c-0.4,0-0.8-0.3-0.9-0.7c-0.2-0.5,0.1-1.1,0.6-1.3c1.6-0.6,2.9-1.8,3.7-3.3
				c0.7-1.6,0.8-3.3,0.2-4.9c-0.6-1.6-1.8-2.9-3.3-3.7c-1.6-0.7-3.3-0.8-4.9-0.2c-0.5,0.2-1.1-0.1-1.3-0.6c-0.2-0.5,0.1-1.1,0.6-1.3
				c2.1-0.8,4.4-0.7,6.5,0.3c2,1,3.6,2.7,4.4,4.8c0.8,2.1,0.7,4.4-0.3,6.5c-1,2-2.7,3.6-4.8,4.4C131.1,64.8,131,64.9,130.9,64.9z"/>
		</g>
		<g>
			<path class="st0" d="M162.9,254.5c-0.8,0-1.6-0.2-2.4-0.6c-0.5-0.3-0.7-0.9-0.4-1.4s0.9-0.7,1.4-0.4c0.7,0.4,1.6,0.5,2.4,0.2
				c0.8-0.2,1.4-0.8,1.8-1.5c0.8-1.5,0.2-3.4-1.3-4.2c-0.5-0.3-0.7-0.9-0.4-1.4c0.3-0.5,0.9-0.7,1.4-0.4c2.5,1.3,3.4,4.4,2.1,6.9
				C166.5,253.6,164.8,254.5,162.9,254.5z"/>
		</g>
		<g>
			<path class="st0" d="M276.5,200c-0.3,0-0.5-0.1-0.7-0.3c-0.4-0.4-0.4-1,0-1.4c1.3-1.2,2.1-2.9,2.2-4.8c0.1-1.8-0.6-3.6-1.8-4.9
				c-1.2-1.3-2.9-2.1-4.8-2.2c-1.8-0.1-3.6,0.6-4.9,1.8c-0.4,0.4-1,0.4-1.4,0c-0.4-0.4-0.4-1,0-1.4c1.7-1.6,4-2.5,6.3-2.4
				c2.4,0.1,4.5,1.1,6.2,2.8c1.6,1.7,2.5,4,2.4,6.3c-0.1,2.4-1.1,4.5-2.8,6.2C277,199.9,276.8,200,276.5,200z"/>
		</g>
		<g>
			<path class="st0" d="M13.7,277c-2.8,0-5.5-1.6-6.7-4.4c-0.2-0.5,0-1.1,0.5-1.3c0.5-0.2,1.1,0,1.3,0.5c1.2,2.7,4.3,3.9,7,2.8
				c1.3-0.6,2.3-1.6,2.8-2.9c0.5-1.3,0.5-2.8-0.1-4.1c-0.2-0.5,0-1.1,0.5-1.3c0.5-0.2,1.1,0,1.3,0.5c1.6,3.7-0.1,8-3.8,9.6
				C15.6,276.9,14.7,277,13.7,277z"/>
		</g>
		<g>
			<path class="st0" d="M84.8,51.2c-2.4,0-4.7-1.2-6.1-3.3c-2.2-3.3-1.2-7.8,2.2-10c0.5-0.3,1.1-0.2,1.4,0.3
				c0.3,0.5,0.2,1.1-0.3,1.4c-2.4,1.6-3.1,4.8-1.6,7.2c1.6,2.4,4.8,3.1,7.2,1.6c0.5-0.3,1.1-0.2,1.4,0.3c0.3,0.5,0.2,1.1-0.3,1.4
				C87.5,50.8,86.2,51.2,84.8,51.2z"/>
		</g>
		<g>
			<path class="st0" d="M199.1,211.7c-1.7,0-3.3-0.5-4.8-1.4c-2.1-1.3-3.5-3.3-4.1-5.7c-0.6-2.4-0.1-4.8,1.1-6.9
				c0.3-0.5,0.9-0.6,1.4-0.3c0.5,0.3,0.6,0.9,0.3,1.4c-1,1.6-1.3,3.5-0.9,5.4c0.4,1.9,1.6,3.4,3.2,4.4c1.6,1,3.5,1.3,5.4,0.9
				c1.9-0.4,3.4-1.6,4.4-3.2c0.3-0.5,0.9-0.6,1.4-0.3c0.5,0.3,0.6,0.9,0.3,1.4c-1.3,2.1-3.3,3.5-5.7,4.1
				C200.5,211.7,199.8,211.7,199.1,211.7z"/>
		</g>
		<g>
			<path class="st0" d="M99,181c-0.4,0-0.8-0.3-0.9-0.7c-1.5-4.3,0.8-9,5.1-10.4c2.1-0.7,4.3-0.6,6.3,0.4c2,1,3.5,2.6,4.2,4.7
				c0.2,0.5-0.1,1.1-0.6,1.3c-0.5,0.2-1.1-0.1-1.3-0.6c-0.5-1.6-1.7-2.8-3.2-3.5c-1.5-0.7-3.2-0.8-4.7-0.3c-3.2,1.1-5,4.7-3.8,7.9
				c0.2,0.5-0.1,1.1-0.6,1.3C99.2,181,99.1,181,99,181z"/>
		</g>
		<g>
			<path class="st0" d="M204.3,136.9c-0.3,0-0.6-0.1-1-0.2c-0.5-0.2-0.8-0.7-0.6-1.3c0.2-0.5,0.7-0.8,1.3-0.6
				c0.3,0.1,0.6,0.1,0.8-0.1c0.3-0.1,0.4-0.4,0.5-0.6c0.1-0.3,0.1-0.6-0.1-0.8c-0.1-0.3-0.4-0.4-0.6-0.5c-0.5-0.2-0.8-0.7-0.6-1.3
				c0.2-0.5,0.7-0.8,1.3-0.6c0.8,0.3,1.4,0.8,1.8,1.5c0.4,0.7,0.4,1.6,0.2,2.4c-0.3,0.8-0.8,1.4-1.5,1.8
				C205.2,136.8,204.7,136.9,204.3,136.9z"/>
		</g>
		<g>
			<path class="st0" d="M95.3,73.2c-0.1,0-0.1,0-0.2,0c-1-0.1-1.9-0.5-2.5-1.2c-1.3-1.5-1.2-3.8,0.3-5.2c0.4-0.4,1-0.3,1.4,0.1
				c0.4,0.4,0.3,1-0.1,1.4c-0.7,0.6-0.7,1.7-0.1,2.3c0.3,0.3,0.7,0.5,1.1,0.5c0.4,0,0.9-0.1,1.2-0.4c0.4-0.4,1-0.3,1.4,0.1
				c0.4,0.4,0.3,1-0.1,1.4C97,72.9,96.2,73.2,95.3,73.2z"/>
		</g>
		<g>
			<path class="st0" d="M138.7,266c-0.3,0-0.6,0-0.8,0c-4.8-0.5-8.3-4.7-7.8-9.5c0.1-0.5,0.5-0.9,1.1-0.9c0.5,0.1,1,0.5,0.9,1.1
				c-0.2,1.8,0.4,3.5,1.5,4.9c1.1,1.4,2.7,2.2,4.5,2.4c1.8,0.2,3.5-0.4,4.9-1.5c1.4-1.1,2.2-2.7,2.4-4.5c0.1-0.5,0.5-1,1.1-0.9
				c0.5,0.1,1,0.5,0.9,1.1C146.9,262.6,143.2,266,138.7,266z"/>
		</g>
		<g>
			<path class="st0" d="M97.6,36.2c-0.6,0-1.2-0.2-1.6-0.6c-0.5-0.4-0.7-1-0.8-1.6c0-0.6,0.4-1,1-1c0.5,0,1,0.4,1,1
				c0,0.1,0.1,0.2,0.1,0.3c0,0,0.1,0.1,0.3,0.1c0.1,0,0.2-0.1,0.3-0.1c0,0,0.1-0.1,0.1-0.3c0-0.6,0.4-1,1-1c0.5,0,1,0.4,1,1
				c0,0.6-0.2,1.2-0.6,1.7c-0.4,0.5-1,0.7-1.6,0.8C97.7,36.2,97.6,36.2,97.6,36.2z"/>
		</g>
		<g>
			<path class="st0" d="M40.4,277.5c-0.7,0-1.5-0.3-2-0.8c-0.4-0.4-0.4-1,0-1.4c0.4-0.4,1-0.4,1.4,0c0.3,0.3,0.9,0.3,1.3,0
				c0.2-0.2,0.3-0.4,0.3-0.6c0-0.2-0.1-0.5-0.3-0.6c-0.4-0.4-0.4-1,0-1.4c0.4-0.4,1-0.4,1.4,0c0.5,0.5,0.9,1.3,0.9,2
				c0,0.8-0.3,1.5-0.8,2C41.9,277.2,41.1,277.5,40.4,277.5z"/>
		</g>
		<g>
			<path class="st0" d="M93.6,222.6c-0.3,0-0.6-0.1-0.8-0.4c-0.3-0.4-0.3-1.1,0.2-1.4c0.8-0.6,0.9-1.7,0.3-2.4
				c-0.6-0.8-1.7-0.9-2.4-0.3c-0.4,0.3-1.1,0.3-1.4-0.2c-0.3-0.4-0.3-1.1,0.2-1.4c1.6-1.3,4-1,5.2,0.7c1.3,1.6,1,4-0.7,5.2
				C94,222.6,93.8,222.6,93.6,222.6z"/>
		</g>
		<g>
			<path class="st0" d="M216.1,279.6c0,0-0.1,0-0.1,0c-0.5-0.1-0.9-0.6-0.9-1.1c0.1-1.1-0.2-2.1-0.8-2.9c-0.7-0.8-1.6-1.4-2.7-1.5
				c-1.1-0.1-2.1,0.2-2.9,0.8c-0.8,0.7-1.4,1.6-1.5,2.7c-0.1,0.5-0.6,1-1.1,0.9c-0.5-0.1-0.9-0.6-0.9-1.1c0.2-1.6,1-3,2.2-4
				c1.3-1,2.8-1.4,4.4-1.3c1.6,0.2,3,1,4,2.2c1,1.3,1.4,2.8,1.3,4.4C217,279.2,216.6,279.6,216.1,279.6z"/>
		</g>
		<g>
			<path class="st0" d="M9.7,250.6c-0.5,0-0.9-0.4-1-0.9c-0.3-2.1,0.2-4.1,1.4-5.8c1.2-1.7,3.1-2.8,5.1-3.1c2.1-0.3,4.1,0.2,5.8,1.4
				c1.7,1.2,2.8,3.1,3.1,5.1c0.1,0.5-0.3,1.1-0.8,1.1c-0.5,0.1-1.1-0.3-1.1-0.8c-0.2-1.5-1-2.9-2.3-3.8c-1.3-0.9-2.8-1.3-4.3-1.1
				c-1.5,0.2-2.9,1-3.8,2.3c-0.9,1.3-1.3,2.8-1.1,4.3c0.1,0.5-0.3,1.1-0.8,1.1C9.8,250.6,9.8,250.6,9.7,250.6z"/>
		</g>
		<g>
			<path class="st0" d="M18.4,202.6c-0.3,0-0.7,0-1-0.1c-2.4-0.3-4.5-1.5-6-3.3c-0.3-0.4-0.3-1.1,0.2-1.4c0.4-0.3,1.1-0.3,1.4,0.2
				c1.2,1.5,2.8,2.4,4.7,2.6c1.9,0.2,3.7-0.3,5.2-1.5c1.5-1.2,2.4-2.8,2.6-4.7c0.2-1.9-0.3-3.7-1.5-5.2c-0.3-0.4-0.3-1.1,0.2-1.4
				c0.4-0.3,1.1-0.3,1.4,0.2c1.5,1.9,2.2,4.2,1.9,6.6c-0.3,2.4-1.5,4.5-3.3,6C22.4,202,20.4,202.6,18.4,202.6z"/>
		</g>
		<g>
			<path class="st0" d="M144.4,14c-0.4,0-0.8-0.3-1-0.7c-0.2-0.5,0.1-1.1,0.7-1.2c0.6-0.2,0.9-0.8,0.8-1.4c-0.1-0.3-0.3-0.5-0.6-0.7
				c-0.3-0.1-0.6-0.2-0.9-0.1c-0.5,0.2-1.1-0.1-1.2-0.7c-0.2-0.5,0.1-1.1,0.7-1.2c0.8-0.2,1.7-0.2,2.4,0.2c0.7,0.4,1.3,1.1,1.5,1.9
				c0.5,1.7-0.4,3.4-2.1,3.9C144.6,14,144.5,14,144.4,14z"/>
		</g>
		<g>
			<path class="st0" d="M28.3,41.4c-0.2,0-0.4-0.1-0.6-0.2c-2.4-1.6-3-4.8-1.4-7.1c0.8-1.1,1.9-1.9,3.3-2.2c1.3-0.3,2.7,0,3.9,0.8
				c0.5,0.3,0.6,0.9,0.3,1.4c-0.3,0.5-0.9,0.6-1.4,0.3c-1.4-1-3.4-0.6-4.4,0.9c-1,1.4-0.6,3.4,0.9,4.4c0.5,0.3,0.6,0.9,0.3,1.4
				C29,41.3,28.6,41.4,28.3,41.4z"/>
		</g>
		<g>
			<path class="st0" d="M161.7,280.6c-0.5,0-1-0.4-1-0.9c-0.1-2.1,0.5-4,1.9-5.6c1.4-1.5,3.2-2.5,5.3-2.6c2.1-0.1,4,0.5,5.6,1.9
				c1.5,1.4,2.5,3.2,2.6,5.3c0,0.6-0.4,1-0.9,1.1c-0.6,0-1-0.4-1.1-0.9c-0.2-3.1-2.9-5.5-6.1-5.3c-1.5,0.1-2.9,0.8-3.9,1.9
				c-1,1.1-1.5,2.6-1.4,4.1C162.8,280.1,162.3,280.5,161.7,280.6C161.8,280.6,161.7,280.6,161.7,280.6z"/>
		</g>
		<g>
			<path class="st0" d="M30.2,13.7c-0.2,0-0.4-0.1-0.6-0.2c-0.4-0.3-0.5-1-0.2-1.4c0.5-0.6,0.3-1.5-0.3-1.9
				c-0.6-0.5-1.5-0.3-1.9,0.3c-0.3,0.4-1,0.5-1.4,0.2c-0.4-0.3-0.5-1-0.2-1.4c1.1-1.5,3.3-1.7,4.7-0.6c1.5,1.1,1.7,3.3,0.6,4.7
				C30.8,13.5,30.5,13.7,30.2,13.7z"/>
		</g>
		<g>
			<path class="st0" d="M147.9,84.5c-0.5,0-0.9-0.4-1-0.9c-0.5-3.9,2.3-7.6,6.2-8.1c3.9-0.5,7.6,2.3,8.1,6.2c0.1,0.5-0.3,1-0.9,1.1
				c-0.5,0.1-1-0.3-1.1-0.9c-0.4-2.8-3-4.9-5.8-4.5c-2.8,0.4-4.9,3-4.5,5.8c0.1,0.5-0.3,1-0.9,1.1C148,84.5,148,84.5,147.9,84.5z"/>
		</g>
		<g>
			<path class="st0" d="M111.3,223.7c-0.6,0-1.1-0.1-1.6-0.4c-0.8-0.4-1.5-1.2-1.7-2.1c-0.2-0.5,0.1-1.1,0.7-1.3
				c0.5-0.2,1.1,0.1,1.3,0.7c0.1,0.4,0.4,0.7,0.8,0.9c0.4,0.2,0.8,0.2,1.2,0.1c0.4-0.1,0.7-0.4,0.9-0.8c0.2-0.4,0.2-0.8,0.1-1.2
				c-0.2-0.5,0.1-1.1,0.7-1.3c0.5-0.2,1.1,0.1,1.3,0.7c0.6,1.9-0.5,3.9-2.3,4.4C112,223.6,111.7,223.7,111.3,223.7z"/>
		</g>
		<g>
			<path class="st0" d="M153.7,102.3c-0.5,0-1-0.1-1.4-0.3c-1.1-0.4-1.9-1.2-2.4-2.2c-0.2-0.5,0-1.1,0.5-1.3c0.5-0.2,1.1,0,1.3,0.5
				c0.5,1.1,1.9,1.6,3,1.1c0.5-0.3,1-0.7,1.2-1.3c0.2-0.6,0.2-1.2-0.1-1.7c-0.2-0.5,0-1.1,0.5-1.3c0.5-0.2,1.1,0,1.3,0.5
				c0.5,1,0.5,2.2,0.2,3.3c-0.4,1.1-1.2,1.9-2.2,2.4C154.9,102.2,154.3,102.3,153.7,102.3z"/>
		</g>
		<g>
			<path class="st0" d="M186.4,13.6c-0.6,0-1.2-0.2-1.7-0.6c-0.6-0.5-0.9-1.1-1-1.8c-0.1-1.5,1-2.8,2.5-3c0.5-0.1,1,0.4,1.1,0.9
				c0.1,0.5-0.4,1-0.9,1.1c-0.4,0-0.7,0.4-0.7,0.8c0,0.4,0.4,0.7,0.8,0.7c0.5-0.1,1,0.4,1.1,0.9c0.1,0.5-0.4,1-0.9,1.1
				C186.6,13.6,186.5,13.6,186.4,13.6z"/>
		</g>
		<g>
			<path class="st0" d="M230.7,46.4c-0.2,0-0.5,0-0.7,0c-0.5-0.1-0.9-0.6-0.9-1.1c0.1-0.5,0.6-0.9,1.1-0.9c0.9,0.1,1.8-0.1,2.5-0.7
				c0.7-0.5,1.2-1.3,1.3-2.2c0.2-1.8-1-3.5-2.9-3.8c-0.5-0.1-0.9-0.6-0.9-1.1c0.1-0.5,0.6-0.9,1.1-0.9c1.4,0.2,2.7,0.9,3.5,2
				c0.9,1.1,1.2,2.5,1.1,4c-0.2,1.4-0.9,2.7-2,3.5C233,46,231.9,46.4,230.7,46.4z"/>
		</g>
		<g>
			<path class="st0" d="M69.3,21c-0.8,0-1.7-0.1-2.5-0.3c-4.7-1.4-7.5-6.3-6.1-11c0.2-0.5,0.7-0.8,1.2-0.7c0.5,0.2,0.8,0.7,0.7,1.2
				c-0.5,1.8-0.3,3.6,0.6,5.3c0.9,1.6,2.4,2.8,4.1,3.3c1.8,0.5,3.6,0.3,5.3-0.6c1.6-0.9,2.8-2.4,3.3-4.1c0.2-0.5,0.7-0.8,1.2-0.7
				c0.5,0.2,0.8,0.7,0.7,1.2c-0.7,2.3-2.2,4.2-4.3,5.3C72.2,20.6,70.8,21,69.3,21z"/>
		</g>
		<g>
			<path class="st0" d="M8.9,184c-0.2,0-0.5-0.1-0.7-0.2c-2.1-1.8-2.3-5-0.4-7.1c1.8-2.1,5-2.3,7.1-0.4c0.4,0.4,0.5,1,0.1,1.4
				c-0.4,0.4-1,0.5-1.4,0.1c-1.2-1.1-3.1-1-4.2,0.3c-1.1,1.2-1,3.1,0.3,4.2c0.4,0.4,0.5,1,0.1,1.4C9.4,183.8,9.2,184,8.9,184z"/>
		</g>
		<g>
			<path class="st0" d="M74.9,93c-2.8,0-5.2-2.1-5.6-4.9c-0.1-0.5,0.3-1.1,0.9-1.1c0.5-0.1,1.1,0.3,1.1,0.9c0.3,2,2.1,3.4,4.1,3.1
				c2-0.3,3.4-2.1,3.1-4.1c-0.1-0.5,0.3-1.1,0.9-1.1c0.5-0.1,1.1,0.3,1.1,0.9c0.4,3.1-1.8,6-4.9,6.4C75.4,93,75.1,93,74.9,93z"/>
		</g>
		<g>
			<path class="st0" d="M179.4,47.7c-0.3,0-0.6-0.1-0.8-0.4c-0.3-0.5-0.2-1.1,0.2-1.4c1.3-0.9,2.1-2.2,2.4-3.8
				c0.3-1.5-0.1-3.1-1-4.4c-0.9-1.3-2.2-2.1-3.8-2.4c-1.5-0.3-3.1,0.1-4.4,1c-0.5,0.3-1.1,0.2-1.4-0.2c-0.3-0.5-0.2-1.1,0.2-1.4
				c1.7-1.2,3.8-1.7,5.9-1.3c2.1,0.4,3.9,1.5,5.1,3.2c1.2,1.7,1.7,3.8,1.3,5.9c-0.4,2.1-1.5,3.9-3.2,5.1
				C179.8,47.7,179.6,47.7,179.4,47.7z"/>
		</g>
		<g>
			<path class="st0" d="M32.7,227c-1.4,0-2.8-0.4-4-1.2c-0.5-0.3-0.6-0.9-0.3-1.4c0.3-0.5,0.9-0.6,1.4-0.3c2.5,1.6,5.8,0.9,7.4-1.6
				c1.6-2.5,0.9-5.8-1.6-7.4c-0.5-0.3-0.6-0.9-0.3-1.4c0.3-0.5,0.9-0.6,1.4-0.3c3.4,2.2,4.4,6.8,2.2,10.2c-1.1,1.7-2.7,2.8-4.7,3.2
				C33.7,226.9,33.2,227,32.7,227z"/>
		</g>
		<g>
			<path class="st0" d="M276.4,244.3c-0.1,0-0.1,0-0.2,0c-0.5-0.1-0.9-0.6-0.8-1.2c0.5-2.8-1.3-5.4-4-6c-1.3-0.3-2.7,0-3.8,0.8
				c-1.1,0.8-1.9,1.9-2.1,3.2c-0.1,0.5-0.6,0.9-1.2,0.8c-0.5-0.1-0.9-0.6-0.8-1.2c0.4-1.9,1.4-3.5,3-4.5c1.6-1.1,3.5-1.4,5.3-1.1
				c3.8,0.7,6.4,4.5,5.6,8.3C277.3,243.9,276.9,244.3,276.4,244.3z"/>
		</g>
		<g>
			<path class="st0" d="M100.2,154.8c-0.2,0-0.3,0-0.5-0.1c-0.5-0.3-0.6-0.9-0.4-1.4c0.1-0.2,0.1-0.6-0.2-0.7
				c-0.2-0.1-0.6-0.1-0.7,0.2c-0.3,0.5-0.9,0.6-1.4,0.4c-0.5-0.3-0.6-0.9-0.4-1.4c0.3-0.6,0.9-1,1.5-1.2c0.7-0.2,1.3-0.1,1.9,0.3
				c0.6,0.3,1,0.9,1.2,1.5c0.2,0.7,0.1,1.3-0.3,1.9C100.9,154.6,100.6,154.8,100.2,154.8z"/>
		</g>
		<g>
			<path class="st0" d="M57.5,108.3c-0.2,0-0.4,0-0.6-0.1c-0.6-0.2-1.1-0.5-1.4-1.1c-0.3-0.5-0.1-1.1,0.3-1.4
				c0.5-0.3,1.1-0.1,1.4,0.3c0.1,0.1,0.2,0.2,0.2,0.2c0.1,0,0.2,0,0.3,0c0.2-0.1,0.2-0.3,0.1-0.5c-0.3-0.5-0.1-1.1,0.3-1.4
				c0.5-0.3,1.1-0.1,1.4,0.3c0.7,1.1,0.3,2.6-0.8,3.2C58.4,108.2,57.9,108.3,57.5,108.3z"/>
		</g>
		<g>
			<path class="st0" d="M108.6,60.1C108.6,60.1,108.6,60.1,108.6,60.1c-1.4,0-2.6-0.6-3.5-1.5c-1.9-2-1.8-5.1,0.1-7
				c0.4-0.4,1-0.4,1.4,0c0.4,0.4,0.4,1,0,1.4c-1.2,1.1-1.2,3-0.1,4.2c0.5,0.6,1.3,0.9,2.1,0.9c0.8,0,1.5-0.3,2.1-0.8
				c0.4-0.4,1-0.4,1.4,0c0.4,0.4,0.4,1,0,1.4C111.1,59.6,109.9,60.1,108.6,60.1z"/>
		</g>
		<g>
			<path class="st0" d="M40.4,253.7c-0.3,0-0.6,0-0.9-0.1c-1.1-0.2-2-0.9-2.5-1.8c-0.3-0.5-0.2-1.1,0.3-1.4c0.5-0.3,1.1-0.2,1.4,0.3
				c0.3,0.5,0.7,0.8,1.3,0.9c0.5,0.1,1.1,0,1.5-0.3c1-0.6,1.2-1.9,0.6-2.8c-0.3-0.5-0.2-1.1,0.3-1.4c0.5-0.3,1.1-0.2,1.4,0.3
				c0.6,0.9,0.8,2,0.5,3.1c-0.2,1.1-0.9,2-1.8,2.5C41.9,253.5,41.2,253.7,40.4,253.7z"/>
		</g>
		<g>
			<path class="st0" d="M207,253c-0.4,0-0.8-0.3-0.9-0.7c-0.2-0.5,0.1-1.1,0.6-1.3c3-1,4.6-4.4,3.6-7.4c-0.5-1.5-1.6-2.6-2.9-3.3
				c-1.4-0.7-3-0.8-4.4-0.3c-0.5,0.2-1.1-0.1-1.3-0.6c-0.2-0.5,0.1-1.1,0.6-1.3c2-0.7,4.1-0.6,6,0.4c1.9,0.9,3.3,2.5,4,4.5
				c1.4,4.1-0.8,8.5-4.8,9.9C207.2,253,207.1,253,207,253z"/>
		</g>
		<g>
			<path class="st0" d="M73.5,124.6c-0.7,0-1.4-0.3-1.9-0.8c-1.1-1.1-1.2-2.8-0.1-4c0.4-0.4,1-0.4,1.4,0c0.4,0.4,0.4,1,0,1.4
				c-0.1,0.2-0.2,0.4-0.2,0.6c0,0.2,0.1,0.4,0.3,0.6c0.2,0.1,0.4,0.2,0.6,0.2c0.2,0,0.4-0.1,0.6-0.3c0.4-0.4,1-0.4,1.4,0
				c0.4,0.4,0.4,1,0,1.4C75.1,124.2,74.4,124.5,73.5,124.6C73.6,124.6,73.6,124.6,73.5,124.6z"/>
		</g>
		<g>
			<path class="st0" d="M72.3,75c-0.4,0-0.8-0.1-1.3-0.2c-2.6-0.7-4.1-3.3-3.4-5.9c0.1-0.5,0.7-0.9,1.2-0.7c0.5,0.1,0.8,0.7,0.7,1.2
				c-0.4,1.5,0.5,3,2,3.4c0.7,0.2,1.5,0.1,2.1-0.3c0.6-0.4,1.1-1,1.3-1.7c0.1-0.5,0.7-0.8,1.2-0.7c0.5,0.1,0.8,0.7,0.7,1.2
				c-0.3,1.2-1.1,2.3-2.2,2.9C73.9,74.8,73.1,75,72.3,75z"/>
		</g>
		<g>
			<path class="st0" d="M9.8,54.3c-0.4,0-0.8-0.3-1-0.7C8.7,53,9,52.4,9.6,52.3c0.7-0.2,1.1-0.9,0.9-1.6c-0.2-0.7-0.9-1.1-1.6-0.9
				c-0.5,0.1-1.1-0.2-1.2-0.7c-0.1-0.5,0.2-1.1,0.7-1.2c1.7-0.5,3.5,0.5,4,2.3c0.5,1.7-0.5,3.5-2.3,4C10,54.3,9.9,54.3,9.8,54.3z"/>
		</g>
		<g>
			<path class="st0" d="M278.6,167.9c0,0-0.1,0-0.1,0c-1.4-0.2-2.5-1.5-2.3-2.9c0.1-0.7,0.4-1.3,1-1.8c0.5-0.4,1.2-0.6,1.9-0.5
				c0.5,0.1,0.9,0.6,0.9,1.1c-0.1,0.5-0.6,0.9-1.1,0.9c-0.3,0-0.7,0.2-0.7,0.5c0,0.3,0.2,0.7,0.5,0.7c0.5,0.1,0.9,0.6,0.9,1.1
				C279.6,167.5,279.1,167.9,278.6,167.9z"/>
		</g>
		<g>
			<path class="st0" d="M260.7,151.3c-0.7,0-1.4-0.2-2-0.6c-0.5-0.3-0.6-0.9-0.3-1.4c0.3-0.5,0.9-0.6,1.4-0.3
				c0.3,0.2,0.8,0.3,1.2,0.2c0.4-0.1,0.8-0.3,1-0.7c0.2-0.3,0.3-0.8,0.2-1.2c-0.1-0.4-0.3-0.8-0.7-1c-0.5-0.3-0.6-0.9-0.3-1.4
				c0.3-0.5,0.9-0.6,1.4-0.3c1.6,1.1,2,3.3,0.9,4.9c-0.5,0.8-1.3,1.3-2.3,1.5C261.2,151.3,261,151.3,260.7,151.3z"/>
		</g>
		<g>
			<path class="st0" d="M166.2,218.4c-0.2,0-0.4,0-0.6,0c-3.2-0.3-5.6-3.2-5.2-6.4c0.1-0.5,0.5-0.9,1.1-0.9c0.5,0.1,0.9,0.5,0.9,1.1
				c-0.2,2.1,1.3,4,3.4,4.2c1,0.1,2-0.2,2.8-0.8c0.8-0.6,1.3-1.6,1.4-2.6c0.1-0.5,0.5-0.9,1.1-0.9c0.5,0.1,0.9,0.5,0.9,1.1
				c-0.2,1.6-0.9,3-2.1,3.9C168.9,217.9,167.6,218.4,166.2,218.4z"/>
		</g>
		<g>
			<path class="st0" d="M206.6,103c-0.3,0-0.6-0.2-0.8-0.4c-2.6-3.9-1.6-9.2,2.3-11.9c3.9-2.6,9.2-1.6,11.9,2.3
				c0.3,0.5,0.2,1.1-0.3,1.4c-0.5,0.3-1.1,0.2-1.4-0.3c-2-3-6.1-3.8-9.1-1.8c-3,2-3.8,6.1-1.8,9.1c0.3,0.5,0.2,1.1-0.3,1.4
				C207,102.9,206.8,103,206.6,103z"/>
		</g>
		<g>
			<path class="st0" d="M191.8,278.6C191.8,278.6,191.8,278.6,191.8,278.6c-1.8,0-3.2-1.5-3.2-3.3c0-0.9,0.4-1.7,1-2.3
				c0.6-0.6,1.4-0.9,2.3-0.9c0.6,0,1,0.5,1,1c0,0.6-0.5,1-1,1c-0.7,0-1.3,0.5-1.3,1.2c0,0.7,0.5,1.3,1.2,1.3c0.6,0,1,0.5,1,1
				C192.8,278.2,192.3,278.6,191.8,278.6z"/>
		</g>
	</g>
</g>
</svg>
