<svg id="Layer_1" data-name="Layer 1" xmlns="http://www.w3.org/2000/svg" viewBox="0 0 294.03 38.09"><title>vs-wp-logo-black</title><path d="M132.37,8.46H117.22v1.61c4.74,0,5.5,1,5.5,7V27.93c0,6-.76,7.11-5.5,7.11-3.64-.51-6.09-2.46-9.48-6.18l-3.89-4.23c5.25-.93,8-4.23,8-8,0-4.65-4-8.21-11.43-8.21H85.57V10c4.74,0,5.5,1,5.5,7v10.9c0,6-.76,7.11-5.5,7.11v1.61h16.84V35c-4.74,0-5.5-1.1-5.5-7.11v-3h1.44l9.39,11.76h24.63c12.1,0,17.35-6.43,17.35-14.13S144.48,8.46,132.37,8.46ZM96.91,22.26V11h3.47c3.81,0,5.5,2.62,5.5,5.67s-1.69,5.59-5.5,5.59ZM132.63,34H132c-3,0-3.47-.76-3.47-4.66V11h4.06c8.8,0,10.41,6.43,10.41,11.43C143,27.59,141.43,34,132.63,34Z"/><path d="M38.43,25.39,44.27,8.12c1.69-5,.93-6.43-4.49-6.43V0H55.69V1.69C50.36,1.69,49.09,3,47,9.14L37.33,38.09h-1.1L27.59,11.6l-8.8,26.49h-1.1L8.29,9.14C6.26,3,4.91,1.69,0,1.69V0H18.79V1.69c-5,0-6.35,1.18-4.57,6.43l5.67,17.27L28.44,0H30Z"/><path d="M67.2,37.75c-9.31,0-16.93-6.86-16.93-15.24S57.89,7.36,67.2,7.36s16.93,6.86,16.93,15.15S76.51,37.75,67.2,37.75ZM67.2,10c-7.79,0-10.5,7-10.5,12.53S59.42,35,67.2,35s10.58-6.9,10.58-12.49S75.07,10,67.2,10Z"/><path d="M170.63,35v1.69H151.25V35c5.67,0,6.69-1.44,6.69-9.9V11.51c0-8.46-1-9.82-6.69-9.82V0h17.52c8.72,0,13.54,4.49,13.54,10.5,0,5.84-4.83,10.41-13.54,10.41h-4.82v4.15C163.94,33.52,165,35,170.63,35ZM168.76,3h-4.82V17.77h4.82c4.74,0,6.94-3.3,6.94-7.28S173.5,3,168.76,3Z"/><path d="M240.45,28.69,240,30.22C239.24,33,238.31,34,232.3,34h-1.19c-4.4,0-5.16-1-5.16-7V23.11c6.6,0,7.11.59,7.11,5h1.61V15.49h-1.61c0,4.4-.51,5-7.11,5V11h4.65c6,0,6.94,1,7.7,3.81l.42,1.61h1.35l-.59-8H214.64V10c4.74,0,5.5,1,5.5,7v10.9c0,5.5-.65,6.88-4.38,7.08-3.55-.54-6-2.48-9.33-6.15l-3.89-4.23c5.25-.93,8-4.23,8-8,0-4.65-4-8.21-11.43-8.21h-14.9V10c4.74,0,5.5,1,5.5,7v10.9c0,6-.76,7.11-5.5,7.11v1.61H201.1V35c-4.74,0-5.5-1.1-5.5-7.11v-3H197l9.39,11.76h34.79l.51-8ZM195.6,22.26V11h3.47c3.81,0,5.5,2.62,5.5,5.67s-1.69,5.59-5.5,5.59Z"/><path d="M257.63,37.75A12.52,12.52,0,0,1,250,34.87a6.08,6.08,0,0,0-1.35,2.88H247V26.07h1.69c.68,5.59,4.57,8.89,9.56,8.89,2.71,0,4.91-1.52,4.91-4.06,0-2.2-2-3.89-5.42-5.5L253,23.11c-3.39-1.61-5.92-4.4-5.92-8.13,0-4.06,3.81-7.53,9.06-7.53a10.6,10.6,0,0,1,6.6,2.2,4.79,4.79,0,0,0,1.1-2.29h1.61v10h-1.78c-.59-4-2.79-7.28-7.28-7.28-2.37,0-4.57,1.35-4.57,3.47s1.78,3.38,5.84,5.25l4.65,2.29c4,1.91,5.69,5.06,5.69,7.6C268,34,263.3,37.75,257.63,37.75Z"/><path d="M283.7,37.75a12.52,12.52,0,0,1-7.62-2.88,6.08,6.08,0,0,0-1.35,2.88h-1.61V26.07h1.69c.68,5.59,4.57,8.89,9.56,8.89,2.71,0,4.91-1.52,4.91-4.06,0-2.2-2-3.89-5.42-5.5L279,23.11c-3.39-1.61-5.92-4.4-5.92-8.13,0-4.06,3.81-7.53,9.06-7.53a10.6,10.6,0,0,1,6.6,2.2,4.78,4.78,0,0,0,1.1-2.29h1.61v10h-1.78c-.59-4-2.79-7.28-7.28-7.28-2.37,0-4.57,1.35-4.57,3.47s1.78,3.38,5.84,5.25l4.65,2.29c4.11,1.91,5.69,5.06,5.69,7.6C294,34,289.37,37.75,283.7,37.75Z"/></svg>