<?xml version="1.0" encoding="utf-8"?>
<!-- Generator: Adobe Illustrator 24.0.3, SVG Export Plug-In . SVG Version: 6.00 Build 0)  -->
<svg version="1.1" id="Layer_1" xmlns="http://www.w3.org/2000/svg" xmlns:xlink="http://www.w3.org/1999/xlink" x="0px" y="0px"
	 viewBox="0 0 596.7 151.7" style="enable-background:new 0 0 596.7 151.7;" xml:space="preserve">
<style type="text/css">
	.st0{fill:#8796AF;}
</style>
<g>
	<g>
		<path class="st0" d="M183.2,67.5c-2.7-0.8-4.8-1.8-6.5-3l2.8-6.3c1.5,1.1,3.4,2,5.5,2.7s4.2,1.1,6.5,1.1c2.4,0,4.1-0.4,5.3-1.1
			c1.1-0.7,1.7-1.6,1.7-2.8c0-0.8-0.4-1.5-1-2.1s-1.5-1-2.6-1.3c-1.1-0.4-2.5-0.7-4.2-1.1c-2.7-0.6-5-1.3-6.8-2
			c-1.8-0.6-3.2-1.7-4.5-3.2c-1.3-1.4-1.9-3.4-1.9-5.8c0-2.1,0.6-4,1.7-5.7s2.8-3,5.1-4s5.1-1.5,8.4-1.5c2.3,0,4.6,0.3,6.8,0.8
			c2.2,0.6,4.1,1.3,5.8,2.4l-2.6,6.4c-3.3-1.9-6.7-2.8-10-2.8c-2.3,0-4.1,0.4-5.1,1.1c-1.1,0.8-1.7,1.8-1.7,2.9s0.6,2.2,1.9,2.7
			c1.3,0.6,3.2,1.2,5.9,1.8s5,1.3,6.8,2c1.8,0.6,3.2,1.7,4.5,3.1c1.3,1.4,1.9,3.3,1.9,5.7c0,2-0.6,3.9-1.7,5.6c-1.1,1.7-2.9,3-5.1,4
			c-2.3,1-5.1,1.5-8.4,1.5C188.6,68.6,185.9,68.3,183.2,67.5z"/>
		<path class="st0" d="M214.5,64.4c-2.9-2.8-4.3-6.9-4.3-12.2V32h8.3v19.9c0,6.5,2.7,9.7,8.1,9.7c2.6,0,4.6-0.8,6-2.3
			c1.3-1.5,2-4,2-7.4V32h8.3v20.2c0,5.3-1.4,9.4-4.3,12.2c-2.9,2.8-6.9,4.3-12.1,4.3C221.4,68.7,217.3,67.2,214.5,64.4z"/>
		<path class="st0" d="M272,68.1L265,58h-0.4h-7.3v10.1H249V32h15.6c3.2,0,6,0.6,8.3,1.6c2.3,1.1,4.1,2.6,5.4,4.5
			c1.3,2,1.9,4.3,1.9,7s-0.6,5-1.9,6.9c-1.3,2-3.1,3.4-5.5,4.4l8.1,11.6L272,68.1L272,68.1z M269.9,40.4c-1.3-1.1-3.2-1.6-5.7-1.6
			h-6.8v12.6h6.8c2.5,0,4.4-0.6,5.7-1.6c1.3-1.1,2-2.7,2-4.6C271.9,43,271.3,41.5,269.9,40.4z"/>
		<path class="st0" d="M308,68.1L301,58h-0.4h-7.3v10.1H285V32h15.6c3.2,0,6,0.6,8.3,1.6c2.3,1.1,4.1,2.6,5.4,4.5
			c1.3,2,1.9,4.3,1.9,7s-0.6,5-1.9,6.9c-1.3,2-3.1,3.4-5.5,4.4l8.1,11.6L308,68.1L308,68.1z M305.8,40.4c-1.3-1.1-3.2-1.6-5.7-1.6
			h-6.8v12.6h6.8c2.5,0,4.4-0.6,5.7-1.6c1.3-1.1,2-2.7,2-4.6C307.8,43,307.1,41.5,305.8,40.4z"/>
		<path class="st0" d="M348.7,61.4v6.7h-27.9v-36h27.3v6.7h-19v7.8h16.8v6.5h-16.7v8.3L348.7,61.4L348.7,61.4z"/>
		<path class="st0" d="M370.7,55.2V68h-8.3V55.1l-14-23.2h8.9l9.7,16l9.7-16h8.2L370.7,55.2z"/>
		<path class="st0" d="M398.7,31.9H415c3.9,0,7.4,0.8,10.4,2.2s5.3,3.6,7,6.4c1.7,2.7,2.5,5.8,2.5,9.5s-0.8,6.8-2.5,9.5
			s-4,4.8-7,6.4s-6.5,2.2-10.4,2.2h-16.3V31.9z M414.8,61.2c3.6,0,6.5-1,8.6-3s3.2-4.7,3.2-8.2c0-3.4-1.1-6.2-3.2-8.2
			c-2.2-2-5-3-8.6-3h-7.6v22.4L414.8,61.2L414.8,61.2z"/>
		<path class="st0" d="M439.4,31.9h8.4V68h-8.3L439.4,31.9L439.4,31.9z"/>
		<path class="st0" d="M478.7,49.5h7.6v14.7c-2,1.5-4.2,2.6-6.8,3.4c-2.5,0.8-5.1,1.2-7.8,1.2c-3.7,0-7.2-0.8-10.1-2.4
			s-5.3-3.8-7.1-6.7c-1.7-2.8-2.5-6-2.5-9.6c0-3.6,0.8-6.8,2.5-9.6s4.1-5.1,7.1-6.7c3-1.6,6.5-2.4,10.2-2.4c3.2,0,6,0.6,8.6,1.6
			c2.6,1.1,4.7,2.6,6.5,4.6l-5.3,4.9c-2.6-2.7-5.7-4.1-9.3-4.1c-2.3,0-4.4,0.5-6.2,1.4c-1.8,1-3.2,2.3-4.1,4.1c-1,1.8-1.5,3.7-1.5,6
			s0.5,4.2,1.5,6s2.4,3.1,4.1,4.1c1.8,1,3.8,1.5,6,1.5c2.4,0,4.6-0.5,6.5-1.5V49.2h-0.1v0.3H478.7z"/>
		<path class="st0" d="M492,31.9h8.3V68H492V31.9z"/>
		<path class="st0" d="M514.4,38.8h-11.6V32h31.5v6.8h-11.6v29.3h-8.3L514.4,38.8L514.4,38.8z"/>
		<path class="st0" d="M556.7,60.3H540l-3.2,7.8h-8.6L544.3,32h8.3l16.1,36.1h-8.8L556.7,60.3z M554,54l-5.7-13.8L542.7,54H554z"/>
		<path class="st0" d="M570.4,31.9h8.3v29.3h18V68h-26.5L570.4,31.9L570.4,31.9z"/>
	</g>
	<g>
		<path class="st0" d="M231.1,111.9h-16.7l-3.2,7.8h-8.6l16.1-36.1h8.3l16.1,36h-8.8L231.1,111.9z M228.5,105.6l-5.7-13.8l-5.7,13.8
			H228.5z"/>
		<path class="st0" d="M296.5,83.6l-11.8,36.1h-9l-8-24.4l-8.2,24.4h-8.9l-11.9-36.1h8.7l8.1,25.3l8.6-25.3h7.8l8.3,25.5l8.4-25.5
			C288.6,83.6,296.5,83.6,296.5,83.6z"/>
		<path class="st0" d="M320.9,111.9h-16.7l-3.2,7.8h-8.6l16.1-36.1h8.3l16.1,36.1h-8.8L320.9,111.9z M318.3,105.6l-5.7-13.8
			l-5.7,13.8H318.3z"/>
		<path class="st0" d="M357.6,119.6l-7-10.1h-0.4h-7.3v10.1h-8.3v-36h15.6c3.2,0,6,0.6,8.3,1.6c2.3,1.1,4.1,2.6,5.4,4.5
			c1.3,2,1.9,4.3,1.9,7s-0.6,5-1.9,6.9c-1.3,2-3.1,3.4-5.5,4.4l8.1,11.6H357.6L357.6,119.6z M355.5,91.9c-1.3-1.1-3.2-1.6-5.7-1.6
			H343v12.6h6.8c2.5,0,4.4-0.6,5.7-1.6c1.3-1.1,2-2.7,2-4.6C357.4,94.7,356.7,93,355.5,91.9z"/>
		<path class="st0" d="M370.4,83.6h16.3c3.9,0,7.4,0.8,10.4,2.2c3,1.5,5.3,3.6,7,6.4c1.7,2.7,2.5,5.8,2.5,9.5c0,3.6-0.8,6.8-2.5,9.5
			s-4,4.8-7,6.4c-2.9,1.5-6.5,2.2-10.4,2.2h-16.3V83.6z M386.4,112.8c3.6,0,6.5-1,8.6-3s3.2-4.7,3.2-8.2s-1.1-6.2-3.2-8.2
			s-5-3-8.6-3h-7.6v22.4L386.4,112.8L386.4,112.8L386.4,112.8z"/>
		<path class="st0" d="M414.6,119.1c-2.7-0.8-4.8-1.8-6.5-3l2.8-6.3c1.5,1.1,3.4,2,5.5,2.7s4.2,1.1,6.5,1.1c2.4,0,4.1-0.4,5.3-1.1
			c1.1-0.7,1.7-1.6,1.7-2.8c0-0.8-0.4-1.5-1-2.1s-1.5-1-2.6-1.3c-1.1-0.4-2.5-0.7-4.2-1.1c-2.7-0.6-5-1.3-6.8-2
			c-1.8-0.6-3.2-1.7-4.5-3.2c-1.3-1.4-1.9-3.4-1.9-5.8c0-2.1,0.6-4,1.7-5.7s2.8-3,5.1-4c2.2-1,5.1-1.5,8.4-1.5
			c2.3,0,4.6,0.3,6.8,0.8c2.2,0.6,4.1,1.3,5.8,2.4l-2.6,6.4c-3.3-1.9-6.7-2.8-10-2.8c-2.3,0-4.1,0.4-5.1,1.1
			c-1.1,0.8-1.7,1.8-1.7,2.9c0,1.2,0.6,2.2,1.9,2.7c1.3,0.6,3.2,1.2,5.9,1.8c2.7,0.6,5,1.3,6.8,2c1.8,0.6,3.2,1.7,4.5,3.1
			s1.9,3.3,1.9,5.7c0,2-0.6,3.9-1.7,5.6s-2.9,3-5.1,4c-2.3,1-5.1,1.5-8.4,1.5C420,120.3,417.3,119.9,414.6,119.1z"/>
	</g>
</g>
<g>
	<path class="st0" d="M106.2,6.9c-0.1,0-0.3-0.1-0.4-0.1c7.7,3.3,14.5,7.7,20.5,13c22.1,17.8,32.6,47.8,24.1,76.8
		c-5.6,19-18.3,34-34.5,42.9c-10,5.5-21.2,8.6-32.8,9c-2.8,0.2-5.6,0.3-8.5,0.2c-6-0.2-12.1-1.1-18.2-2.8c2.6,1.1,5.3,2.1,8.1,2.9
		c6.2,1.8,12.4,2.8,18.5,3c13.4,0.4,26.5-2.8,38-9.1c16.5-9.1,29.5-24.4,35.2-43.9C167.8,59.4,145.4,18.4,106.2,6.9"/>
	<path class="st0" d="M8.7,54.9C18.2,22.6,48.3,1.9,80.5,3c7.4-0.2,14.8,0.7,22.3,2.8c-2.6-1.1-5.3-2.1-8.1-2.9
		C55.6-8.5,14.6,13.9,3,53.1c-11.5,39.1,10.9,80.2,50.1,91.7c0.1,0,0.3,0.1,0.4,0.1c-7.8-3.3-14.8-7.8-20.8-13.3
		C10.6,113.8,0.2,83.8,8.7,54.9"/>
</g>
</svg>
