<?xml version="1.0" encoding="utf-8"?>
<!-- Generator: Adobe Illustrator 25.0.1, SVG Export Plug-In . SVG Version: 6.00 Build 0)  -->
<svg version="1.1" id="Layer_1" xmlns:sketch="http://www.bohemiancoding.com/sketch/ns"
	 xmlns="http://www.w3.org/2000/svg" xmlns:xlink="http://www.w3.org/1999/xlink" x="0px" y="0px" viewBox="0 0 86.9 30"
	 style="enable-background:new 0 0 86.9 30;" xml:space="preserve">
<style type="text/css">
	.st0{fill-rule:evenodd;clip-rule:evenodd;fill:#8796AF;}
	.st1{fill:#8796AF;}
</style>
<desc>Created with Sketch.</desc>
<g id="Page-1" sketch:type="MSPage">
	<g id="webflow-white" sketch:type="MSArtboardGroup">
		<path id="Fill-4" sketch:type="MSShapeGroup" class="st0" d="M52.5,0l-2.1,17l0,0L50,19.1c0.1,0,0.1,0,0.2,0l0,0
			c2.3,0,3.9-2,4.2-4.5l1.1-9.7C55.9,1.9,54.1,0,52.5,0L52.5,0z M82.4,9.2c0,0-1.5,4.6-1.6,4.9c0-0.4-1.1-8.6-1.1-8.6
			c-2.5,0-3.8,1.8-4.5,3.6c0,0-1.8,4.6-1.9,5c0-0.4-0.3-4.9-0.3-4.9c-0.1-2.3-2.2-3.7-3.9-3.7l2,12.4c2.6,0,4-1.8,4.7-3.6
			c0,0,1.6-4,1.6-4.2c0,0.2,1.1,7.8,1.1,7.8c2.6,0,4-1.6,4.8-3.4l3.6-9C84.4,5.6,83.1,7.3,82.4,9.2L82.4,9.2z M64.3,11.6
			c-0.2,1.5-0.8,3.8-2.7,3.8c-1.8,0-1.6-2.7-1.4-4c0.2-1.4,1-3.3,2.6-3.3C64.4,8.1,64.5,9.9,64.3,11.6L64.3,11.6z M63.1,5.3
			c-2.9,0-5.6,2.1-6.5,5.5c-0.8,3.4,0.4,7.3,4.7,7.3S68,14,68,10.5C68.1,7.2,65.8,5.3,63.1,5.3L63.1,5.3z M50.1,5.6h-2.5V5.5
			c0.2-1.6,0.6-2.5,1.8-2.6c0.9-0.1,1.3-0.5,1.4-1c0.1-0.4,0.3-1.7,0.3-1.7c-5,0-6.6,2.1-7,5.5v0.1l0,0c-0.8,0-1.7,0.9-1.9,2.1
			l-0.1,0.4h1.7l-1.4,11.6L42,22c0.1,0,0.1,0,0.2,0c2.4-0.1,3.9-1.9,4.2-4.6l1.1-9.1h0.8c0.8,0,1.7-0.8,1.8-2.1L50.1,5.6L50.1,5.6z
			 M37.3,11.7c-0.4,2.2-1.6,3.7-2.8,3.7s-1.7-0.5-1.7-0.5c0.2-1.9,0.4-3.1,0.8-4.1c0.4-1,1.5-2.6,2.5-2.6
			C37.2,8.1,37.7,9.5,37.3,11.7L37.3,11.7z M37.6,5.3c-1.6,0-2.8,0.9-3.9,2.2l0,0L34.6,0c-2.1,0-3.9,1.9-4.2,4.6l-1.5,13.3
			c1.2,0,2.5-0.4,3.2-1.3c0.6,0.8,1.6,1.5,2.9,1.5c3.6,0,6.1-4.2,6.1-8.1C41.1,6.4,39.4,5.3,37.6,5.3L37.6,5.3z M13.3,9.2
			c0,0-1.5,4.6-1.6,4.9c0-0.4-1.1-8.6-1.1-8.6c-2.5,0-3.8,1.8-4.5,3.6c0,0-1.8,4.6-1.9,5c0-0.4-0.3-4.9-0.3-4.9
			C3.8,6.9,1.7,5.6,0,5.6L2,18c2.6,0,4-1.8,4.7-3.6c0,0,1.6-4,1.6-4.2c0,0.2,1.1,7.8,1.1,7.8c2.6,0,4-1.6,4.8-3.4l3.6-9
			C15.3,5.6,14,7.3,13.3,9.2L13.3,9.2z M24.7,8.8c0,0.5-0.2,1.3-3.7,1.8c0.7-2.6,2.1-2.8,2.7-2.8C24.4,7.8,24.8,8.3,24.7,8.8
			L24.7,8.8z M28.1,8.5c0-1.6-1.5-3.2-4.1-3.2c-3,0-6.2,2.2-6.7,6.5c-0.5,4.4,2.2,6.3,4.9,6.3s4.2-1.1,5.6-2.5
			c-1.3-1.6-2.9-0.8-3.2-0.7c-0.3,0.2-0.8,0.4-1.7,0.4c-1.1,0-2.1-0.5-2.1-2.4C27.6,12.2,28.1,10.1,28.1,8.5L28.1,8.5z"/>
	</g>
</g>
<path class="st1" d="M7,25.6c0,0-0.8,2.3-0.8,2.5c0-0.2-0.6-4.3-0.6-4.3c-1.3,0-2,0.9-2.3,1.8c0,0-0.9,2.3-1,2.5
	c0-0.2-0.1-2.5-0.1-2.5c-0.1-1.1-1.2-1.8-2-1.8L1.2,30c1.4,0,2.1-0.9,2.5-1.8c0,0,0.8-2,0.8-2.1c0,0.1,0.6,3.9,0.6,3.9
	c1.4,0,2.1-0.8,2.5-1.7l1.9-4.5C8.1,23.8,7.4,24.6,7,25.6z"/>
<path class="st1" d="M18.3,28.9h1v-2H20c1.1,0,1.9-0.5,1.9-1.6v0c0-1.1-0.8-1.6-1.9-1.6h-1.7V28.9z M19.2,26.3v-1.8H20
	c0.6,0,1,0.2,1,0.9v0c0,0.6-0.3,0.9-1,0.9H19.2z M22.6,28.9h0.9v-2c0-0.8,0.5-1,1.2-1.1v-0.8c-0.6,0-1,0.3-1.2,0.8v-0.7h-0.9V28.9z
	 M27.1,28.3c-0.7,0-1-0.5-1-1.3V27c0-0.8,0.4-1.3,1-1.3c0.7,0,1,0.5,1,1.3v0.1C28.2,27.8,27.8,28.3,27.1,28.3z M27.1,29
	c1.1,0,1.9-0.8,1.9-1.9V27c0-1.2-0.8-1.9-1.9-1.9c-1.1,0-1.9,0.8-1.9,2v0.1C25.2,28.2,26,29,27.1,29z M30,28.9h0.9v-3.1h0.9v-0.7
	h-0.9v-0.5c0-0.3,0.1-0.6,0.5-0.6c0.2,0,0.3,0,0.4,0.1v-0.7c-0.2-0.1-0.3-0.1-0.5-0.1c-0.8,0-1.3,0.4-1.3,1.3v0.5h-0.5v0.7H30V28.9z
	 M34,29c1,0,1.6-0.4,1.7-1.2h-0.8c-0.1,0.4-0.3,0.6-0.9,0.6c-0.7,0-1-0.4-1-1.1h2.8V27c0-1.4-0.8-1.9-1.8-1.9c-1.1,0-1.9,0.8-1.9,2
	v0.1C32.1,28.3,32.9,29,34,29z M33,26.6c0.1-0.6,0.4-0.9,1-0.9c0.5,0,0.9,0.3,0.9,0.9H33z M37.9,29c1,0,1.5-0.4,1.5-1.2
	c0-0.8-0.5-1-1.4-1.2c-0.6-0.1-0.8-0.2-0.8-0.5c0-0.3,0.2-0.4,0.6-0.4c0.4,0,0.6,0.2,0.7,0.5h0.8c-0.1-0.9-0.7-1.1-1.5-1.1
	c-0.7,0-1.4,0.4-1.4,1.1c0,0.7,0.4,1,1.4,1.2c0.6,0.1,0.8,0.2,0.8,0.5c0,0.3-0.2,0.5-0.7,0.5c-0.5,0-0.7-0.2-0.8-0.6h-0.8
	C36.3,28.5,36.9,29,37.9,29z M41.5,29c1,0,1.5-0.4,1.5-1.2c0-0.8-0.5-1-1.4-1.2c-0.6-0.1-0.8-0.2-0.8-0.5c0-0.3,0.2-0.4,0.6-0.4
	c0.4,0,0.6,0.2,0.7,0.5h0.8c-0.1-0.9-0.7-1.1-1.5-1.1c-0.7,0-1.4,0.4-1.4,1.1c0,0.7,0.4,1,1.4,1.2c0.6,0.1,0.8,0.2,0.8,0.5
	c0,0.3-0.2,0.5-0.7,0.5c-0.5,0-0.7-0.2-0.8-0.6h-0.8C39.9,28.5,40.5,29,41.5,29z M43.8,28.9h0.9v-3.8h-0.9V28.9z M44.2,24.5
	c0.3,0,0.5-0.2,0.5-0.5c0-0.3-0.2-0.5-0.5-0.5c-0.3,0-0.5,0.2-0.5,0.5C43.7,24.3,43.9,24.5,44.2,24.5z M47.4,28.3
	c-0.7,0-1-0.5-1-1.3V27c0-0.8,0.4-1.3,1-1.3c0.7,0,1,0.5,1,1.3v0.1C48.4,27.8,48,28.3,47.4,28.3z M47.4,29c1.1,0,1.9-0.8,1.9-1.9V27
	c0-1.2-0.8-1.9-1.9-1.9c-1.1,0-1.9,0.8-1.9,2v0.1C45.4,28.2,46.3,29,47.4,29z M50.1,28.9H51v-2.2c0-0.6,0.4-0.9,0.9-0.9
	c0.5,0,0.8,0.3,0.8,0.8v2.3h0.9v-2.4c0-1-0.5-1.5-1.3-1.5c-0.6,0-1,0.3-1.2,0.7v-0.6h-0.9V28.9z M55.5,29c0.6,0,0.9-0.2,1.2-0.5v0.5
	h0.9v-2.5c0-1-0.7-1.4-1.5-1.4c-0.8,0-1.5,0.4-1.6,1.3h0.8c0-0.4,0.3-0.6,0.7-0.6c0.5,0,0.7,0.3,0.7,0.8v0.2h-0.5
	c-1.1,0-1.9,0.3-1.9,1.2C54.3,28.7,54.8,29,55.5,29z M55.7,28.4c-0.4,0-0.6-0.2-0.6-0.5c0-0.5,0.4-0.6,1.1-0.6h0.4v0.4
	C56.7,28.1,56.3,28.4,55.7,28.4z M58.6,28.9h0.9v-5.5h-0.9V28.9z M62.3,28.9h1v-2H64c1.1,0,1.9-0.5,1.9-1.6v0c0-1.1-0.8-1.6-1.9-1.6
	h-1.7V28.9z M63.3,26.3v-1.8H64c0.6,0,1,0.2,1,0.9v0c0,0.6-0.3,0.9-1,0.9H63.3z M67.6,29c0.6,0,0.9-0.2,1.2-0.5v0.5h0.9v-2.5
	c0-1-0.7-1.4-1.5-1.4s-1.5,0.4-1.6,1.3h0.8c0-0.4,0.3-0.6,0.7-0.6c0.5,0,0.7,0.3,0.7,0.8v0.2h-0.5c-1.1,0-1.9,0.3-1.9,1.2
	C66.3,28.7,66.9,29,67.6,29z M67.8,28.4c-0.4,0-0.6-0.2-0.6-0.5c0-0.5,0.4-0.6,1.1-0.6h0.4v0.4C68.7,28.1,68.3,28.4,67.8,28.4z
	 M70.6,28.9h0.9v-2c0-0.8,0.5-1,1.2-1.1v-0.8c-0.6,0-1,0.3-1.2,0.8v-0.7h-0.9V28.9z M74.8,29c0.3,0,0.5,0,0.6-0.1v-0.7
	c-0.1,0.1-0.3,0.1-0.4,0.1c-0.3,0-0.4-0.2-0.4-0.5v-2h0.8v-0.7h-0.8v-0.8h-0.9v0.8h-0.5v0.7h0.5v2.1C73.7,28.6,74,29,74.8,29z
	 M76.2,28.9h0.9v-2.2c0-0.6,0.4-0.9,0.9-0.9c0.5,0,0.8,0.3,0.8,0.8v2.3h0.9v-2.4c0-1-0.5-1.5-1.3-1.5c-0.6,0-1,0.3-1.2,0.7v-0.6
	h-0.9V28.9z M82.3,29c1,0,1.6-0.4,1.7-1.2h-0.8c-0.1,0.4-0.3,0.6-0.9,0.6c-0.7,0-1-0.4-1-1.1H84V27c0-1.4-0.8-1.9-1.8-1.9
	c-1.1,0-1.9,0.8-1.9,2v0.1C80.3,28.3,81.1,29,82.3,29z M81.3,26.6c0.1-0.6,0.4-0.9,1-0.9c0.5,0,0.9,0.3,0.9,0.9H81.3z M84.8,28.9
	h0.9v-2c0-0.8,0.5-1,1.2-1.1v-0.8c-0.6,0-1,0.3-1.2,0.8v-0.7h-0.9V28.9z"/>
</svg>
