<?xml version="1.0" encoding="utf-8"?>
<!-- Generator: Adobe Illustrator 25.0.1, SVG Export Plug-In . SVG Version: 6.00 Build 0)  -->
<svg version="1.1" id="Layer_1" xmlns:sketch="http://www.bohemiancoding.com/sketch/ns"
	 xmlns="http://www.w3.org/2000/svg" xmlns:xlink="http://www.w3.org/1999/xlink" x="0px" y="0px" viewBox="0 0 87 22"
	 style="enable-background:new 0 0 87 22;" xml:space="preserve">
<style type="text/css">
	.st0{fill-rule:evenodd;clip-rule:evenodd;fill:#8796AF;}
</style>
<desc>Created with Sketch.</desc>
<g id="Page-1" sketch:type="MSPage">
	<g id="webflow-white" sketch:type="MSArtboardGroup">
		<path id="Fill-4" sketch:type="MSShapeGroup" class="st0" d="M52.5,0.1l-2.1,17l0,0l-0.4,2.1c0.1,0,0.1,0,0.2,0v0
			c2.3,0,3.9-2,4.2-4.5L55.5,5C55.9,2,54.1,0.1,52.5,0.1L52.5,0.1z M82.4,9.3c0,0-1.5,4.6-1.6,4.9c0-0.4-1.1-8.6-1.1-8.6
			c-2.5,0-3.8,1.8-4.5,3.6c0,0-1.8,4.6-1.9,5c0-0.4-0.3-4.9-0.3-4.9c-0.1-2.3-2.2-3.7-3.9-3.7l2,12.4c2.6,0,4-1.8,4.7-3.6
			c0,0,1.6-4,1.6-4.2c0,0.2,1.1,7.8,1.1,7.8c2.6,0,4-1.6,4.8-3.4l3.6-9C84.4,5.7,83.1,7.4,82.4,9.3L82.4,9.3z M64.3,11.7
			c-0.2,1.5-0.8,3.8-2.7,3.8c-1.8,0-1.6-2.7-1.4-4c0.2-1.4,1-3.3,2.6-3.3C64.4,8.2,64.5,10,64.3,11.7L64.3,11.7z M63.1,5.4
			c-2.9,0-5.6,2.1-6.5,5.5c-0.8,3.4,0.4,7.3,4.7,7.3c4.3,0,6.7-4.1,6.7-7.6C68.1,7.3,65.8,5.4,63.1,5.4L63.1,5.4z M50.1,5.7h-2.5
			l0-0.1c0.2-1.6,0.6-2.5,1.8-2.6c0.9-0.1,1.3-0.5,1.4-1c0.1-0.4,0.3-1.7,0.3-1.7c-5,0-6.6,2.1-7,5.5l0,0.1l0,0
			c-0.8,0-1.7,0.9-1.9,2.1l-0.1,0.4h1.7l-1.4,11.6l-0.4,2.1c0.1,0,0.1,0,0.2,0c2.4-0.1,3.9-1.9,4.2-4.6l1.1-9.1h0.8
			c0.8,0,1.7-0.8,1.8-2.1L50.1,5.7L50.1,5.7z M37.3,11.8c-0.4,2.2-1.6,3.7-2.8,3.7c-1.2,0-1.7-0.5-1.7-0.5c0.2-1.9,0.4-3.1,0.8-4.1
			c0.4-1,1.5-2.6,2.5-2.6C37.2,8.2,37.7,9.6,37.3,11.8L37.3,11.8z M37.6,5.4c-1.6,0-2.8,0.9-3.9,2.2l0,0l0.9-7.5
			c-2.1,0-3.9,1.9-4.2,4.6L28.9,18c1.2,0,2.5-0.4,3.2-1.3c0.6,0.8,1.6,1.5,2.9,1.5c3.6,0,6.1-4.2,6.1-8.1
			C41.1,6.5,39.4,5.4,37.6,5.4L37.6,5.4z M13.3,9.3c0,0-1.5,4.6-1.6,4.9c0-0.4-1.1-8.6-1.1-8.6c-2.5,0-3.8,1.8-4.5,3.6
			c0,0-1.8,4.6-1.9,5c0-0.4-0.3-4.9-0.3-4.9C3.8,7,1.7,5.7,0,5.7l2,12.4c2.6,0,4-1.8,4.7-3.6c0,0,1.6-4,1.6-4.2
			c0,0.2,1.1,7.8,1.1,7.8c2.6,0,4-1.6,4.8-3.4l3.6-9C15.3,5.7,14,7.4,13.3,9.3L13.3,9.3z M24.7,8.9c0,0.5-0.2,1.3-3.7,1.8
			c0.7-2.6,2.1-2.8,2.7-2.8C24.4,7.9,24.8,8.4,24.7,8.9L24.7,8.9z M28.1,8.6c0-1.6-1.5-3.2-4.1-3.2c-3,0-6.2,2.2-6.7,6.5
			c-0.5,4.4,2.2,6.3,4.9,6.3c2.7,0,4.2-1.1,5.6-2.5c-1.3-1.6-2.9-0.8-3.2-0.7c-0.3,0.2-0.8,0.4-1.7,0.4c-1.1,0-2.1-0.5-2.1-2.4
			C27.6,12.3,28.1,10.2,28.1,8.6L28.1,8.6z"/>
	</g>
</g>
</svg>
