<?xml version="1.0" encoding="UTF-8"?><svg xmlns="http://www.w3.org/2000/svg" viewBox="0 0 1828.83 552.01"><g id="a"/><g id="b"><g id="c"><g><path d="M107.19,534.87c-27.23-11.42-50.31-27.58-69.27-48.49-18.96-20.9-31.61-45.45-37.92-73.65l99.9-33.54c8.26,23.33,20.42,40.96,36.46,52.87,16.04,11.92,35,17.87,56.88,17.87,26.73,0,48-7.41,63.81-22.24,15.79-14.82,23.7-34.88,23.7-60.16s-7.78-44.36-23.33-58.7c-15.56-14.33-36.95-21.51-64.17-21.51-22.37,0-42.78,4.63-61.25,13.85l-26.25-54.69L245.01,94.8H32.81V0H371.89V87.5l-105.01,119.59c38.89,6.81,69.75,24.06,92.61,51.77,22.84,27.71,34.27,62.47,34.27,104.28,0,35.98-8.75,68.31-26.25,96.98-17.5,28.69-41.33,51.17-71.46,67.45-30.15,16.28-64.42,24.43-102.82,24.43-30.15,0-58.83-5.72-86.05-17.14Z" fill="#fff"/><path d="M508.62,521.02c-32.34-20.66-54.33-48.49-65.99-83.49l80.21-37.92c10.21,21.4,24.06,38.17,41.56,50.32,17.5,12.16,36.94,18.23,58.34,18.23,32.08,0,48.13-11.91,48.13-35.73,0-16.04-13.13-27.71-39.38-35l-67.82-18.96c-32.57-9.23-57.61-24.18-75.11-44.85-17.5-20.66-26.25-45.08-26.25-73.28,0-24.79,6.31-46.42,18.96-64.9,12.64-18.47,30.38-32.93,53.23-43.39,22.84-10.45,49.1-15.68,78.75-15.68,38.89,0,73.03,9.12,102.45,27.35,29.41,18.23,50.19,43.88,62.35,76.93l-80.94,37.92c-5.83-16.52-16.41-29.77-31.72-39.74-15.31-9.96-32.7-14.95-52.14-14.95-14.11,0-25.16,2.92-33.18,8.75-8.02,5.83-12.03,13.85-12.03,24.06,0,15.56,14.33,27.47,43.02,35.73l63.44,18.96c33.05,9.73,58.34,24.43,75.84,44.12,17.5,19.69,26.25,43.88,26.25,72.56,0,36.95-14.11,66.85-42.29,89.69-28.2,22.86-65.39,34.27-111.57,34.27-43.75,0-81.8-10.32-114.12-30.99Z" fill="#fff"/><path d="M442.83,0h965V85.67H442.83V0Zm399.4,145.11h109.38v398.15h-109.38V145.11Z" fill="#fff"/><path d="M1139.74,343.45l-140.01-198.34h126.88l77.3,113.76,77.3-113.76h126.88l-140.01,198.34,138.55,199.8h-126.15l-76.57-115.21-76.57,115.21h-126.88l139.28-199.8Z" fill="#fff"/><path d="M1548.08,535.6c-26.74-10.94-49.59-26.49-68.54-46.67-18.96-20.17-31.36-44.36-37.19-72.56l99.9-33.54c7.29,23.33,18.96,40.36,35,51.04,16.04,10.7,34.02,16.04,53.96,16.04,25.27,0,45.69-7.9,61.25-23.7,15.55-15.79,23.33-36.34,23.33-61.62s-7.78-45.69-23.33-61.25c-15.56-15.55-35.98-23.33-61.25-23.33-17.5,0-33.06,3.77-46.67,11.3-13.62,7.54-23.59,19.08-29.9,34.64l-92.61-21.88L1505.79,0h303.35V94.8h-221.68l-14.58,107.92c19.93-11.67,46.42-17.5,79.48-17.5,36.46,0,67.82,7.66,94.07,22.97,26.25,15.31,46.54,36.35,60.89,63.08,14.33,26.74,21.51,57.86,21.51,93.34s-8.64,67.45-25.89,95.89c-17.26,28.44-40.72,50.81-70.37,67.09-29.66,16.28-63.44,24.43-101.36,24.43-28.69,0-56.4-5.47-83.13-16.41Z" fill="#fff"/></g></g></g></svg>