<svg xmlns="http://www.w3.org/2000/svg" xmlns:xlink="http://www.w3.org/1999/xlink" viewBox="0 0 421.78 168.32"><defs><style>.cls-1,.cls-10,.cls-11,.cls-12,.cls-13,.cls-2,.cls-3,.cls-4,.cls-5,.cls-6,.cls-7,.cls-8,.cls-9{opacity:0.16;}.cls-1{fill:url(#New_Gradient_Swatch_1);}.cls-2{fill:url(#New_Gradient_Swatch_1-2);}.cls-3{fill:url(#New_Gradient_Swatch_1-3);}.cls-4{fill:url(#New_Gradient_Swatch_1-4);}.cls-5{fill:url(#New_Gradient_Swatch_1-5);}.cls-6{fill:url(#New_Gradient_Swatch_1-6);}.cls-7{fill:url(#New_Gradient_Swatch_1-7);}.cls-8{fill:url(#New_Gradient_Swatch_1-8);}.cls-9{fill:url(#New_Gradient_Swatch_1-9);}.cls-10{fill:url(#New_Gradient_Swatch_1-10);}.cls-11{fill:url(#New_Gradient_Swatch_1-11);}.cls-12{fill:url(#New_Gradient_Swatch_1-12);}.cls-13{fill:url(#New_Gradient_Swatch_1-13);}</style><linearGradient id="New_Gradient_Swatch_1" x1="385.8" y1="147.25" x2="405.37" y2="147.25" gradientUnits="userSpaceOnUse"><stop offset="0" stop-color="#37b294"/><stop offset="0.29" stop-color="#2baf94"/><stop offset="0.8" stop-color="#0da693"/><stop offset="0.98" stop-color="#00a393"/></linearGradient><linearGradient id="New_Gradient_Swatch_1-2" x1="238.56" y1="25.14" x2="268.72" y2="25.14" xlink:href="#New_Gradient_Swatch_1"/><linearGradient id="New_Gradient_Swatch_1-3" x1="103.01" y1="61.99" x2="115.93" y2="61.99" xlink:href="#New_Gradient_Swatch_1"/><linearGradient id="New_Gradient_Swatch_1-4" x1="306.47" y1="50.15" x2="319.39" y2="50.15" xlink:href="#New_Gradient_Swatch_1"/><linearGradient id="New_Gradient_Swatch_1-5" x1="164.02" y1="6.46" x2="176.94" y2="6.46" xlink:href="#New_Gradient_Swatch_1"/><linearGradient id="New_Gradient_Swatch_1-6" x1="307.89" y1="4.47" x2="311.87" y2="4.47" xlink:href="#New_Gradient_Swatch_1"/><linearGradient id="New_Gradient_Swatch_1-7" x1="109.44" y1="14.39" x2="114.62" y2="14.39" xlink:href="#New_Gradient_Swatch_1"/><linearGradient id="New_Gradient_Swatch_1-8" x1="0" y1="72.25" x2="6.89" y2="72.25" xlink:href="#New_Gradient_Swatch_1"/><linearGradient id="New_Gradient_Swatch_1-9" x1="414.89" y1="97.5" x2="421.78" y2="97.5" xlink:href="#New_Gradient_Swatch_1"/><linearGradient id="New_Gradient_Swatch_1-10" x1="44.2" y1="58.31" x2="73.43" y2="58.31" xlink:href="#New_Gradient_Swatch_1"/><linearGradient id="New_Gradient_Swatch_1-11" x1="12.35" y1="164.87" x2="19.24" y2="164.87" xlink:href="#New_Gradient_Swatch_1"/><linearGradient id="New_Gradient_Swatch_1-12" x1="371.63" y1="61.99" x2="399.97" y2="61.99" xlink:href="#New_Gradient_Swatch_1"/><linearGradient id="New_Gradient_Swatch_1-13" x1="1.88" y1="126" x2="29.72" y2="126" xlink:href="#New_Gradient_Swatch_1"/></defs><title>Asset 6</title><g id="Layer_2" data-name="Layer 2"><g id="Graphics"><g id="Layer_6" data-name="Layer 6"><circle class="cls-1" cx="395.59" cy="147.25" r="9.79"/><circle class="cls-2" cx="253.64" cy="25.14" r="15.08"/><circle class="cls-3" cx="109.47" cy="61.99" r="6.46"/><circle class="cls-4" cx="312.93" cy="50.15" r="6.46"/><circle class="cls-5" cx="170.48" cy="6.46" r="6.46"/><circle class="cls-6" cx="309.88" cy="4.47" r="1.99"/><circle class="cls-7" cx="112.03" cy="14.39" r="2.59"/><circle class="cls-8" cx="3.45" cy="72.25" r="3.45"/><circle class="cls-9" cx="418.34" cy="97.5" r="3.45"/><circle class="cls-10" cx="58.82" cy="58.31" r="14.61"/><circle class="cls-11" cx="15.8" cy="164.87" r="3.45"/><circle class="cls-12" cx="385.8" cy="61.99" r="14.17"/><circle class="cls-13" cx="15.8" cy="126" r="13.92"/></g></g></g></svg>