<?xml version="1.0" encoding="utf-8"?>
<!-- Generator: Adobe Illustrator 21.1.0, SVG Export Plug-In . SVG Version: 6.00 Build 0)  -->
<svg version="1.1" id="Capa_1" xmlns="http://www.w3.org/2000/svg" xmlns:xlink="http://www.w3.org/1999/xlink" x="0px" y="0px"
	 viewBox="0 0 599.3 67.4" style="enable-background:new 0 0 599.3 67.4;" xml:space="preserve">
<style type="text/css">
	.st0{fill:#8796AF;}
</style>
<g>
	<g>
		<g>
			<g>
				<path class="st0" d="M343.4,49.6h-22.9L315,66.3h-12.2l23-65.2h12.4l23,65.2H349L343.4,49.6z M331.9,12.4c0,0-1.5,6.4-2.8,10.1
					l-5.8,17.4h17.1l-5.8-17.4c-1.2-3.7-2.6-10.1-2.6-10.1S331.9,12.4,331.9,12.4z"/>
			</g>
			<g>
				<path class="st0" d="M378.6,1.1h21c7.1,0,10.3,0.5,13.1,1.8c6.5,2.9,10.7,9.2,10.7,17.8c0,7.8-4.1,15-11,17.8v0.2
					c0,0,0.9,0.9,2.2,3.2L428,66.3h-13.2L401.9,42h-11.4v24.3h-11.8L378.6,1.1L378.6,1.1L378.6,1.1L378.6,1.1z M401.1,31.7
					c6.3,0,10.3-3.8,10.3-10.3c0-6.2-2.7-10.1-11.9-10.1h-9v20.4H401.1L401.1,31.7z"/>
			</g>
			<g>
				<path class="st0" d="M448.2,1.1h22.2c20.1,0,33.2,11.9,33.2,32.5s-13.1,32.7-33.2,32.7h-22.2V1.1z M469.8,56.1
					c13.2,0,21.7-7.8,21.7-22.5c0-14.5-8.6-22.3-21.7-22.3h-9.7v44.8H469.8L469.8,56.1z"/>
			</g>
			<g>
				<path class="st0" d="M524.9,49.6c0,0,7.1,6.9,16.2,6.9c5,0,9.5-2.6,9.5-7.9c0-11.7-30.8-9.7-30.8-29.7
					c0-10.8,9.4-18.9,21.9-18.9c12.9,0,19.5,7,19.5,7l-5.1,9.6c0,0-6.3-5.7-14.4-5.7c-5.5,0-9.8,3.2-9.8,7.8
					c0,11.6,30.7,8.7,30.7,29.6c0,10.4-7.9,19.1-21.5,19.1c-14.5,0-22.5-8.9-22.5-8.9L524.9,49.6z"/>
			</g>
			<g>
				<path class="st0" d="M209.7,1.1L199,46.2c-0.8,3.7-1.1,6.9-1.1,6.9h-0.2c-0.1,0-0.2-3.1-1.2-6.9L185,1.1h-10.3L163,46.2
					c-1,3.7-1.1,6.9-1.2,6.9h-0.2c0,0-0.3-3.2-1.1-6.9l-7.7-33.8L147,37.1l7.3,29.2H168l10-38.6c1.1-4.2,1.7-8.5,1.7-8.5h0.2
					c0,0,0.6,4.3,1.7,8.5l10,38.6h13.7L222,1.1H209.7L209.7,1.1z"/>
			</g>
			<g>
				<path class="st0" d="M283.3,1.1l-10.8,45.1c-0.8,3.7-1.1,6.9-1.1,6.9h-0.2c-0.1,0-0.2-3.1-1.2-6.9L258.5,1.1h-10.3l-11.8,45.1
					c-1,3.7-1.1,6.9-1.2,6.9H235c0,0-0.3-3.2-1.1-6.9l-7.7-33.9l-5.8,24.6l7.4,29.4h13.7l10-38.6c1.1-4.2,1.7-8.5,1.7-8.5h0.2
					c0,0,0.6,4.3,1.7,8.5l10,38.6h13.7l16.8-65.2L283.3,1.1L283.3,1.1z"/>
			</g>
			<g>
				<path class="st0" d="M40.6,49.6H17.7l-5.5,16.7H0L23,1.1h12.4l23,65.2H46.1L40.6,49.6z M29.1,12.4c0,0-1.5,6.4-2.8,10.1
					l-5.8,17.4h17.1l-5.8-17.4C30.6,18.8,29.2,12.4,29.1,12.4L29.1,12.4L29.1,12.4z"/>
			</g>
			<g>
				<path class="st0" d="M123,46.2c1,3.8,1.1,6.9,1.2,6.9h0.2c0,0,0.3-3.2,1.1-6.9l10.7-45.1h12.2l-16.8,65.2h-13.7l-10-38.6
					c-1.1-4.2-1.7-8.5-1.7-8.5H106c0,0-0.5,4.3-1.7,8.5l-10,38.6H80.7L64.4,1.1h12.2l10.3,45.1c0.8,3.7,1.1,6.9,1.1,6.9h0.2
					c0.1,0,0.2-3.1,1.2-6.9l11.8-45.1h10.3L123,46.2z"/>
			</g>
		</g>
		<g>
			<path class="st0" d="M588.1,22.3c6.2,0,11.2,5,11.2,11.4s-5,11.4-11.2,11.4c-6.1,0-11.1-5-11.1-11.4
				C577,27.4,581.9,22.3,588.1,22.3z M588.1,43.8c5.5,0,9.8-4.4,9.8-10.1s-4.3-10.1-9.8-10.1c-5.4,0-9.7,4.4-9.7,10.1
				C578.4,39.4,582.6,43.8,588.1,43.8z M584.4,27.4h4.2c2.1,0,3.7,1.5,3.7,3.7c0,1.9-1.1,3-2.4,3.4v0.1c0,0,0.1,0.2,0.4,0.7l2.5,4.8
				h-1.5l-2.7-5.3h-2.7V40h-1.4L584.4,27.4L584.4,27.4z M588.5,33.5c1.5,0,2.4-0.9,2.4-2.5c0-1.5-0.9-2.4-2.4-2.4h-2.6v4.9H588.5
				L588.5,33.5z"/>
		</g>
	</g>
</g>
</svg>
