<?xml version="1.0"?>
<svg xmlns="http://www.w3.org/2000/svg" height="512px" viewBox="-32 0 512 512" width="512px" class=""><g><path d="m0 160v336c0 8.835938 7.164062 16 16 16h416c8.835938 0 16-7.164062 16-16v-336zm0 0" fill="#ea348b" data-original="#EA348B" class="" style="fill:#7A39EB" data-old_color="#7a39eb"/><path d="m272 208c-8.835938 0-16 7.164062-16 16v80h-64v-80c0-8.835938-7.164062-16-16-16s-16 7.164062-16 16v96c0 8.835938 7.164062 16 16 16h80v80c0 8.835938 7.164062 16 16 16s16-7.164062 16-16v-192c0-8.835938-7.164062-16-16-16zm0 0" fill="#fff" data-original="#FFF" class=""/><path d="m432 48h-48v64c0 8.835938-7.164062 16-16 16h-48c-8.835938 0-16-7.164062-16-16v-64h-160v64c0 8.835938-7.164062 16-16 16h-48c-8.835938 0-16-7.164062-16-16v-64h-48c-8.835938 0-16 7.164062-16 16v96h448v-96c0-8.835938-7.164062-16-16-16zm0 0" fill="#004fac" data-original="#004FAC" class="" style="fill:#5F2DBF" data-old_color="#602DC0"/><g fill="#ffa5b5"><path d="m80 0h48c8.835938 0 16 7.164062 16 16v96c0 8.835938-7.164062 16-16 16h-48c-8.835938 0-16-7.164062-16-16v-96c0-8.835938 7.164062-16 16-16zm0 0" data-original="#000000" class="active-path" style="fill:#9C9B9B" data-old_color="#9C9A9A"/><path d="m320 0h48c8.835938 0 16 7.164062 16 16v96c0 8.835938-7.164062 16-16 16h-48c-8.835938 0-16-7.164062-16-16v-96c0-8.835938 7.164062-16 16-16zm0 0" data-original="#000000" class="active-path" style="fill:#9C9B9B" data-old_color="#9C9A9A"/></g></g> </svg>
