<svg xmlns="http://www.w3.org/2000/svg" viewBox="0 0 500 500"><g id="freepik--background-simple--inject-6"><path d="M414.34,91.78A210.11,210.11,0,0,0,357,51.53C325.37,36.75,290.55,29.62,255.72,29.2,153.93,28,146.18,147.54,114.88,164.17s-88,18.58-90,85.09c-1.23,41.83,8.53,84.84,36,117.43,25.15,29.85,62.1,45,98.5,56.16,40.88,12.55,84.23,24.86,127.23,16.39C330.74,430.55,361.75,395.61,398,372c22.82-14.86,43.3-30.52,57.39-54.37q2.52-4.28,4.76-8.71C479,271.85,482.69,229.09,472.29,189,463,153,441.88,118.71,414.34,91.78Z" style="fill:#643CF5"></path><path d="M414.34,91.78A210.11,210.11,0,0,0,357,51.53C325.37,36.75,290.55,29.62,255.72,29.2,153.93,28,146.18,147.54,114.88,164.17s-88,18.58-90,85.09c-1.23,41.83,8.53,84.84,36,117.43,25.15,29.85,62.1,45,98.5,56.16,40.88,12.55,84.23,24.86,127.23,16.39C330.74,430.55,361.75,395.61,398,372c22.82-14.86,43.3-30.52,57.39-54.37q2.52-4.28,4.76-8.71C479,271.85,482.69,229.09,472.29,189,463,153,441.88,118.71,414.34,91.78Z" style="fill:#fff;opacity:0.7000000000000001"></path></g><g id="freepik--Arrows--inject-6"><path d="M245.86,350.6H105.72a12.26,12.26,0,0,1-12.26-12.26V261" style="fill:none;stroke:#263238;stroke-linecap:round;stroke-linejoin:round;stroke-dasharray:4,4"></path><polygon points="98.45 262.49 93.46 253.85 88.47 262.49 98.45 262.49" style="fill:#263238"></polygon><path d="M93.84,144.51V96A12.26,12.26,0,0,1,106.1,83.72H233.86" style="fill:none;stroke:#263238;stroke-linecap:round;stroke-linejoin:round;stroke-dasharray:4,4"></path><polygon points="232.4 88.71 241.03 83.72 232.4 78.74 232.4 88.71" style="fill:#263238"></polygon><path d="M411.36,163.72V337a12.25,12.25,0,0,1-12.25,12.26H326.82" style="fill:none;stroke:#263238;stroke-linecap:round;stroke-linejoin:round;stroke-dasharray:4,4"></path><polygon points="328.28 344.23 319.65 349.22 328.28 354.2 328.28 344.23" style="fill:#263238"></polygon></g><g id="freepik--Box--inject-6"><rect x="428.49" y="241.28" width="19.09" height="53.43" transform="translate(876.06 535.99) rotate(180)" style="fill:#643CF5;stroke:#263238;stroke-linecap:round;stroke-linejoin:round"></rect><polygon points="437.68 259.57 456.77 259.57 447.57 241.28 428.49 241.28 437.68 259.57" style="fill:#643CF5;stroke:#263238;stroke-linecap:round;stroke-linejoin:round"></polygon><polygon points="381.21 259.57 362.13 259.57 374.6 241.28 393.68 241.28 381.21 259.57" style="fill:#643CF5;stroke:#263238;stroke-linecap:round;stroke-linejoin:round"></polygon><rect x="375.05" y="241.28" width="53.43" height="53.43" style="fill:#643CF5;stroke:#263238;stroke-linecap:round;stroke-linejoin:round"></rect><polygon points="420.79 260.46 367.35 260.46 375.05 241.28 428.49 241.28 420.79 260.46" style="fill:#643CF5;stroke:#263238;stroke-linecap:round;stroke-linejoin:round"></polygon><rect x="409.86" y="274.8" width="12.82" height="8.19" style="fill:#fff;stroke:#263238;stroke-linecap:round;stroke-linejoin:round"></rect></g><g id="freepik--3--inject-6"><circle cx="438.69" cy="180.24" r="18.11" transform="translate(72.39 481.5) rotate(-61.77)" style="fill:#643CF5"></circle><path d="M438.79,192.12a6,6,0,0,1-3.34-.8,4.38,4.38,0,0,1-1.73-2.24,9.88,9.88,0,0,1-.51-3.31V185h4.18v.73a8.78,8.78,0,0,0,.12,1.62,1.66,1.66,0,0,0,.45.92,1.33,1.33,0,0,0,.9.28,1.12,1.12,0,0,0,.86-.3,1.57,1.57,0,0,0,.39-.9,9,9,0,0,0,.1-1.5,5.07,5.07,0,0,0-.41-2.28,1.8,1.8,0,0,0-1.71-.82h-.78v-2.87H438a1.91,1.91,0,0,0,1.77-.73,4.36,4.36,0,0,0,.45-2.25,4.13,4.13,0,0,0-.31-1.8,1.19,1.19,0,0,0-1.16-.62,1,1,0,0,0-1.09.7,5.11,5.11,0,0,0-.26,1.8v1h-4.18v-1.23a6.58,6.58,0,0,1,.66-3.08,4.51,4.51,0,0,1,1.9-1.92,6.38,6.38,0,0,1,3-.65,6.64,6.64,0,0,1,3,.63,4.43,4.43,0,0,1,1.92,1.84,6.12,6.12,0,0,1,.68,3,5.68,5.68,0,0,1-.73,3,3,3,0,0,1-1.75,1.48,3.38,3.38,0,0,1,1.26.8,3.64,3.64,0,0,1,.89,1.49,7.26,7.26,0,0,1,.33,2.38,9.21,9.21,0,0,1-.54,3.28,4.61,4.61,0,0,1-1.76,2.24A5.82,5.82,0,0,1,438.79,192.12Z" style="fill:#263238"></path></g><g id="freepik--2--inject-6"><circle cx="67.39" cy="126.53" r="18.11" style="fill:#643CF5"></circle><path d="M62,138v-2.95l4.85-7.45c.37-.55.72-1.08,1-1.6a8.94,8.94,0,0,0,.8-1.57,4.52,4.52,0,0,0,.31-1.68,2,2,0,0,0-.35-1.3,1.17,1.17,0,0,0-1-.42,1.42,1.42,0,0,0-1,.37,2,2,0,0,0-.51,1,6.7,6.7,0,0,0-.14,1.4v1h-4v-1.07a8.5,8.5,0,0,1,.58-3.21,4.7,4.7,0,0,1,1.82-2.23,6,6,0,0,1,3.28-.81,5.51,5.51,0,0,1,4.11,1.41,5.37,5.37,0,0,1,1.39,3.94,6.44,6.44,0,0,1-.39,2.27,10.8,10.8,0,0,1-1,2c-.43.66-.88,1.35-1.37,2.06l-3.7,5.53h5.93V138Z" style="fill:#263238"></path></g><g id="freepik--1--inject-6"><circle cx="214.63" cy="311.28" r="18.11" style="fill:#643CF5"></circle><path d="M213.09,322.79V306.66a6.28,6.28,0,0,1-.63.3l-.73.32-.75.31c-.25.1-.47.2-.67.3v-3.1l.78-.41c.33-.18.69-.37,1.07-.59s.75-.44,1.08-.66a5.78,5.78,0,0,0,.75-.59h3.27v20.25Z" style="fill:#263238"></path></g><g id="freepik--Supplier--inject-6"><rect x="314.7" y="89.24" width="117.19" height="65.31" transform="translate(746.59 243.78) rotate(180)" style="fill:#263238;stroke:#263238;stroke-linecap:round;stroke-linejoin:round"></rect><rect x="256.24" y="89.24" width="124.07" height="65.31" transform="translate(636.56 243.78) rotate(180)" style="fill:#fff;stroke:#263238;stroke-linecap:round;stroke-linejoin:round"></rect><rect x="344" y="114.26" width="20.45" height="40.28" transform="translate(708.44 268.81) rotate(180)" style="fill:#fff;stroke:#263238;stroke-linecap:round;stroke-linejoin:round"></rect><rect x="347.35" y="114.26" width="17.09" height="40.28" transform="translate(711.79 268.81) rotate(180)" style="fill:#263238;stroke:#263238;stroke-linecap:round;stroke-linejoin:round"></rect><rect x="307.37" y="114.26" width="20.45" height="40.28" transform="translate(635.19 268.81) rotate(180)" style="fill:#fff;stroke:#263238;stroke-linecap:round;stroke-linejoin:round"></rect><rect x="310.73" y="114.26" width="17.09" height="40.28" transform="translate(638.55 268.81) rotate(180)" style="fill:#263238;stroke:#263238;stroke-linecap:round;stroke-linejoin:round"></rect><rect x="270.75" y="114.26" width="20.45" height="40.28" transform="translate(561.95 268.81) rotate(180)" style="fill:#fff;stroke:#263238;stroke-linecap:round;stroke-linejoin:round"></rect><rect x="274.11" y="114.26" width="17.09" height="40.28" transform="translate(565.3 268.81) rotate(180)" style="fill:#263238;stroke:#263238;stroke-linecap:round;stroke-linejoin:round"></rect><rect x="416.03" y="96.71" width="11.15" height="10.23" transform="translate(843.21 203.65) rotate(180)" style="fill:#fff;stroke:#263238;stroke-linecap:round;stroke-linejoin:round"></rect><rect x="400.95" y="96.71" width="11.15" height="10.23" transform="translate(813.05 203.65) rotate(180)" style="fill:#fff;stroke:#263238;stroke-linecap:round;stroke-linejoin:round"></rect><rect x="385.87" y="96.71" width="11.15" height="10.23" transform="translate(782.9 203.65) rotate(180)" style="fill:#fff;stroke:#263238;stroke-linecap:round;stroke-linejoin:round"></rect><rect x="346.14" y="96.71" width="16.66" height="10.23" transform="translate(708.93 203.65) rotate(180)" style="fill:#fff;stroke:#263238;stroke-linecap:round;stroke-linejoin:round"></rect><rect x="347.08" y="96.71" width="16.66" height="10.23" transform="translate(710.83 203.65) rotate(180)" style="fill:#fff;stroke:#263238;stroke-linecap:round;stroke-linejoin:round"></rect><rect x="309.55" y="96.71" width="16.66" height="10.23" transform="translate(635.75 203.65) rotate(180)" style="fill:#fff;stroke:#263238;stroke-linecap:round;stroke-linejoin:round"></rect><rect x="310.49" y="96.71" width="16.66" height="10.23" transform="translate(637.65 203.65) rotate(180)" style="fill:#fff;stroke:#263238;stroke-linecap:round;stroke-linejoin:round"></rect><rect x="272.96" y="96.71" width="16.66" height="10.23" transform="translate(562.57 203.65) rotate(180)" style="fill:#fff;stroke:#263238;stroke-linecap:round;stroke-linejoin:round"></rect><rect x="273.9" y="96.71" width="16.66" height="10.23" transform="translate(564.47 203.65) rotate(180)" style="fill:#fff;stroke:#263238;stroke-linecap:round;stroke-linejoin:round"></rect><rect x="433.52" y="106.83" width="14.84" height="8.59" transform="translate(881.88 222.25) rotate(180)" style="fill:#643CF5;stroke:#263238;stroke-linecap:round;stroke-linejoin:round"></rect><rect x="428.84" y="106.83" width="14.84" height="8.59" transform="translate(872.53 222.25) rotate(180)" style="fill:#643CF5;stroke:#263238;stroke-linecap:round;stroke-linejoin:round"></rect><rect x="415.38" y="111.66" width="36.59" height="42.88" transform="translate(867.35 266.21) rotate(180)" style="fill:#263238;stroke:#263238;stroke-linecap:round;stroke-linejoin:round"></rect><rect x="388.23" y="111.66" width="36.59" height="42.88" transform="translate(813.05 266.21) rotate(180)" style="fill:#643CF5;stroke:#263238;stroke-linecap:round;stroke-linejoin:round"></rect><rect x="401.61" y="138.81" width="9.84" height="15.74" transform="translate(813.05 293.35) rotate(180)" style="fill:#263238;stroke:#263238;stroke-linecap:round;stroke-linejoin:round"></rect><rect x="428.36" y="116.78" width="6.09" height="29.11" transform="translate(862.81 262.67) rotate(180)" style="fill:#643CF5;stroke:#263238;stroke-linecap:round;stroke-linejoin:round"></rect><rect x="436.14" y="116.78" width="6.09" height="29.11" transform="translate(878.36 262.67) rotate(180)" style="fill:#643CF5;stroke:#263238;stroke-linecap:round;stroke-linejoin:round"></rect><rect x="443.92" y="116.78" width="6.09" height="29.11" transform="translate(893.92 262.67) rotate(180)" style="fill:#643CF5;stroke:#263238;stroke-linecap:round;stroke-linejoin:round"></rect><rect x="367.47" y="95.9" width="8.76" height="58.38" transform="translate(743.7 250.18) rotate(180)" style="fill:#fff;stroke:#263238;stroke-linecap:round;stroke-linejoin:round"></rect><rect x="366.1" y="95.9" width="8.76" height="58.38" transform="translate(740.95 250.18) rotate(180)" style="fill:#643CF5;stroke:#263238;stroke-miterlimit:10"></rect><rect x="331.76" y="95.9" width="8.76" height="58.38" transform="translate(672.27 250.18) rotate(180)" style="fill:#fff;stroke:#263238;stroke-linecap:round;stroke-linejoin:round"></rect><rect x="330.38" y="95.9" width="8.76" height="58.38" transform="translate(669.52 250.18) rotate(180)" style="fill:#643CF5;stroke:#263238;stroke-miterlimit:10"></rect><rect x="295.18" y="95.9" width="8.76" height="58.38" transform="translate(599.12 250.18) rotate(180)" style="fill:#fff;stroke:#263238;stroke-linecap:round;stroke-linejoin:round"></rect><rect x="293.81" y="95.9" width="8.76" height="58.38" transform="translate(596.38 250.18) rotate(180)" style="fill:#643CF5;stroke:#263238;stroke-miterlimit:10"></rect><rect x="258.56" y="95.9" width="8.76" height="58.38" transform="translate(525.89 250.18) rotate(180)" style="fill:#fff;stroke:#263238;stroke-linecap:round;stroke-linejoin:round"></rect><rect x="257.19" y="95.9" width="8.76" height="58.38" transform="translate(523.14 250.18) rotate(180)" style="fill:#643CF5;stroke:#263238;stroke-miterlimit:10"></rect><polygon points="371.62 56.9 318.59 56.9 303.17 89.59 440.07 89.59 371.62 56.9" style="fill:#263238;stroke:#263238;stroke-linecap:round;stroke-linejoin:round"></polygon><polygon points="318.59 56.9 250.14 89.59 387.04 89.59 318.59 56.9" style="fill:#fff;stroke:#263238;stroke-linecap:round;stroke-linejoin:round"></polygon><polygon points="318.59 60.68 379.11 89.59 387.04 89.59 318.59 56.9 250.14 89.59 258.07 89.59 318.59 60.68" style="fill:#fff;stroke:#263238;stroke-linecap:round;stroke-linejoin:round"></polygon></g><g id="freepik--Store--inject-6"><rect x="51.27" y="180.72" width="93.77" height="63.49" style="fill:#fff;stroke:#263238;stroke-linecap:round;stroke-linejoin:round"></rect><line x1="51.47" y1="230.5" x2="84.74" y2="230.5" style="fill:none;stroke:#263238;stroke-linecap:round;stroke-linejoin:round"></line><line x1="51.47" y1="237.46" x2="84.74" y2="237.46" style="fill:none;stroke:#263238;stroke-linecap:round;stroke-linejoin:round"></line><line x1="58.32" y1="223.98" x2="58.32" y2="230.39" style="fill:none;stroke:#263238;stroke-linecap:round;stroke-linejoin:round"></line><line x1="58.32" y1="237.57" x2="58.32" y2="243.98" style="fill:none;stroke:#263238;stroke-linecap:round;stroke-linejoin:round"></line><line x1="73.11" y1="223.98" x2="73.11" y2="230.39" style="fill:none;stroke:#263238;stroke-linecap:round;stroke-linejoin:round"></line><line x1="65.28" y1="230.94" x2="65.28" y2="237.35" style="fill:none;stroke:#263238;stroke-linecap:round;stroke-linejoin:round"></line><line x1="81.26" y1="230.94" x2="81.26" y2="237.35" style="fill:none;stroke:#263238;stroke-linecap:round;stroke-linejoin:round"></line><line x1="52.45" y1="230.94" x2="52.45" y2="237.35" style="fill:none;stroke:#263238;stroke-linecap:round;stroke-linejoin:round"></line><line x1="73.11" y1="237.57" x2="73.11" y2="243.98" style="fill:none;stroke:#263238;stroke-linecap:round;stroke-linejoin:round"></line><line x1="144.54" y1="230.5" x2="111.27" y2="230.5" style="fill:none;stroke:#263238;stroke-linecap:round;stroke-linejoin:round"></line><line x1="144.54" y1="237.46" x2="111.27" y2="237.46" style="fill:none;stroke:#263238;stroke-linecap:round;stroke-linejoin:round"></line><line x1="137.69" y1="223.98" x2="137.69" y2="230.39" style="fill:none;stroke:#263238;stroke-linecap:round;stroke-linejoin:round"></line><line x1="137.69" y1="237.57" x2="137.69" y2="243.98" style="fill:none;stroke:#263238;stroke-linecap:round;stroke-linejoin:round"></line><line x1="122.9" y1="223.98" x2="122.9" y2="230.39" style="fill:none;stroke:#263238;stroke-linecap:round;stroke-linejoin:round"></line><line x1="130.73" y1="230.94" x2="130.73" y2="237.35" style="fill:none;stroke:#263238;stroke-linecap:round;stroke-linejoin:round"></line><line x1="114.75" y1="230.94" x2="114.75" y2="237.35" style="fill:none;stroke:#263238;stroke-linecap:round;stroke-linejoin:round"></line><line x1="143.56" y1="230.94" x2="143.56" y2="237.35" style="fill:none;stroke:#263238;stroke-linecap:round;stroke-linejoin:round"></line><line x1="122.9" y1="237.57" x2="122.9" y2="243.98" style="fill:none;stroke:#263238;stroke-linecap:round;stroke-linejoin:round"></line><rect x="112.4" y="182.56" width="31.66" height="40.97" style="fill:#fff;stroke:#263238;stroke-linecap:round;stroke-linejoin:round"></rect><rect x="52.29" y="182.56" width="31.66" height="40.97" style="fill:#fff;stroke:#263238;stroke-linecap:round;stroke-linejoin:round"></rect><polygon points="144.06 199.37 112.4 210.43 112.4 182.56 144.06 182.56 144.06 199.37" style="fill:#263238;stroke:#263238;stroke-linecap:round;stroke-linejoin:round"></polygon><polygon points="83.95 199.37 52.29 212.51 52.29 182.56 83.95 182.56 83.95 199.37" style="fill:#263238;stroke:#263238;stroke-linecap:round;stroke-linejoin:round"></polygon><rect x="85.22" y="180.72" width="25.89" height="63.49" style="fill:#643CF5;stroke:#263238;stroke-linecap:round;stroke-linejoin:round"></rect><polygon points="86.68 213.16 109.64 203.14 109.64 183.12 86.68 183.12 86.68 213.16" style="fill:#263238"></polygon><polygon points="146.67 181.93 49.97 181.93 55.77 161.62 140.86 161.62 146.67 181.93" style="fill:#643CF5;stroke:#263238;stroke-linecap:round;stroke-linejoin:round"></polygon><path d="M50,182c0,.12,0,.23,0,.35a5.36,5.36,0,0,0,10.72,0c0-.12,0-.23,0-.35Z" style="fill:#fff;stroke:#263238;stroke-linecap:round;stroke-linejoin:round"></path><path d="M60.71,182c0,.12,0,.23,0,.35a5.36,5.36,0,0,0,10.72,0c0-.12,0-.23,0-.35Z" style="fill:#643CF5;stroke:#263238;stroke-linecap:round;stroke-linejoin:round"></path><path d="M71.45,182c0,.12,0,.23,0,.35a5.36,5.36,0,0,0,10.72,0c0-.12,0-.23,0-.35Z" style="fill:#fff;stroke:#263238;stroke-linecap:round;stroke-linejoin:round"></path><path d="M82.19,182c0,.12,0,.23,0,.35a5.36,5.36,0,0,0,10.72,0c0-.12,0-.23,0-.35Z" style="fill:#643CF5;stroke:#263238;stroke-linecap:round;stroke-linejoin:round"></path><path d="M92.93,182c0,.12,0,.23,0,.35a5.36,5.36,0,1,0,10.71,0c0-.12,0-.23,0-.35Z" style="fill:#fff;stroke:#263238;stroke-linecap:round;stroke-linejoin:round"></path><path d="M103.67,182c0,.12,0,.23,0,.35a5.36,5.36,0,1,0,10.71,0c0-.12,0-.23,0-.35Z" style="fill:#643CF5;stroke:#263238;stroke-linecap:round;stroke-linejoin:round"></path><path d="M114.41,182c0,.12,0,.23,0,.35a5.36,5.36,0,1,0,10.71,0c0-.12,0-.23,0-.35Z" style="fill:#fff;stroke:#263238;stroke-linecap:round;stroke-linejoin:round"></path><path d="M125.15,182c0,.12,0,.23,0,.35a5.36,5.36,0,1,0,10.71,0c0-.12,0-.23,0-.35Z" style="fill:#643CF5;stroke:#263238;stroke-linecap:round;stroke-linejoin:round"></path><path d="M135.88,182c0,.12,0,.23,0,.35a5.36,5.36,0,1,0,10.71,0c0-.12,0-.23,0-.35Z" style="fill:#fff;stroke:#263238;stroke-linecap:round;stroke-linejoin:round"></path><polygon points="64.58 161.62 60.77 181.93 49.97 181.93 55.77 161.62 64.58 161.62" style="fill:#fff;stroke:#263238;stroke-linecap:round;stroke-linejoin:round"></polygon><polygon points="71.45 181.98 73.52 161.84 83.26 161.84 82.19 181.98 71.45 181.98" style="fill:#fff;stroke:#263238;stroke-linecap:round;stroke-linejoin:round"></polygon><polygon points="92.87 181.98 93.28 161.57 103.09 161.57 103.67 181.98 92.87 181.98" style="fill:#fff;stroke:#263238;stroke-linecap:round;stroke-linejoin:round"></polygon><polygon points="112.56 161.66 114.41 181.98 125.14 181.98 122.28 161.66 112.56 161.66" style="fill:#fff;stroke:#263238;stroke-linecap:round;stroke-linejoin:round"></polygon><polygon points="135.88 181.98 131.83 161.66 140.86 161.62 146.56 181.98 135.88 181.98" style="fill:#fff;stroke:#263238;stroke-linecap:round;stroke-linejoin:round"></polygon><path d="M110.27,212.83a1.57,1.57,0,1,0-1.57,1.57A1.57,1.57,0,0,0,110.27,212.83Z" style="fill:#263238"></path><path d="M109.1,212.83a.4.4,0,1,0-.4.4A.4.4,0,0,0,109.1,212.83Z" style="fill:#263238"></path><path d="M58.91,154.35h79a3.45,3.45,0,0,1,3.45,3.45V162a0,0,0,0,1,0,0H55.45a0,0,0,0,1,0,0V157.8A3.45,3.45,0,0,1,58.91,154.35Z" style="fill:#643CF5;stroke:#263238;stroke-linecap:round;stroke-linejoin:round"></path></g><g id="freepik--coin-2--inject-6"><circle cx="172.2" cy="83.87" r="26.92" style="fill:#fff;stroke:#263238;stroke-linecap:round;stroke-linejoin:round"></circle><circle cx="172.2" cy="83.87" r="22.3" transform="translate(29.52 211.66) rotate(-67.82)" style="fill:#fff;stroke:#263238;stroke-linecap:round;stroke-linejoin:round"></circle><path d="M171.86,98.28V95.49a5.72,5.72,0,0,1-4.35-1.87A8.56,8.56,0,0,1,166,88.29l4.3-.65a10.89,10.89,0,0,0,.26,2.36,2.52,2.52,0,0,0,.66,1.3,1.52,1.52,0,0,0,1.05.39,1,1,0,0,0,1-.53,2.73,2.73,0,0,0,.24-1.13,4.14,4.14,0,0,0-.66-2.38,10.42,10.42,0,0,0-1.82-2L169,84a17.36,17.36,0,0,1-1.54-1.56,6.51,6.51,0,0,1-1.11-1.86A6.78,6.78,0,0,1,166,78a5.64,5.64,0,0,1,1.53-4.19,6.33,6.33,0,0,1,4.13-1.72V69.46H173V72.1a5.17,5.17,0,0,1,2.62.75,4.34,4.34,0,0,1,1.48,1.63,7.32,7.32,0,0,1,.67,2.06,15.28,15.28,0,0,1,.21,2l-4.36.53a17,17,0,0,0-.13-1.77,2.44,2.44,0,0,0-.39-1.17,1,1,0,0,0-.94-.38,1.14,1.14,0,0,0-1,.59,2.43,2.43,0,0,0-.33,1.19,3.31,3.31,0,0,0,.69,2.18,15.75,15.75,0,0,0,1.5,1.56l1.92,1.66a18.18,18.18,0,0,1,1.76,1.86A8.39,8.39,0,0,1,178,87a7.77,7.77,0,0,1,.47,2.79,6,6,0,0,1-.62,2.73,5.05,5.05,0,0,1-1.77,2,5.93,5.93,0,0,1-2.76.94v2.82Z" style="fill:#263238"></path></g><g id="freepik--coin-1--inject-6"><circle cx="142.54" cy="349.36" r="26.92" style="fill:#fff;stroke:#263238;stroke-linecap:round;stroke-linejoin:round"></circle><circle cx="142.54" cy="349.36" r="22.3" style="fill:#fff;stroke:#263238;stroke-linecap:round;stroke-linejoin:round"></circle><path d="M142.21,363.77V361a5.75,5.75,0,0,1-4.35-1.87,8.68,8.68,0,0,1-1.57-5.34l4.31-.65a11.08,11.08,0,0,0,.25,2.37,2.45,2.45,0,0,0,.67,1.29,1.48,1.48,0,0,0,1,.4,1,1,0,0,0,1-.54,2.68,2.68,0,0,0,.24-1.12,4.14,4.14,0,0,0-.66-2.38,10.15,10.15,0,0,0-1.82-2l-2-1.71a17.32,17.32,0,0,1-1.53-1.57,6.46,6.46,0,0,1-1.11-1.85,6.85,6.85,0,0,1-.43-2.52,5.67,5.67,0,0,1,1.54-4.2,6.32,6.32,0,0,1,4.12-1.71V335h1.44v2.65a5.08,5.08,0,0,1,2.62.74,4.34,4.34,0,0,1,1.47,1.64,7,7,0,0,1,.68,2,15.28,15.28,0,0,1,.21,2l-4.36.54a16.57,16.57,0,0,0-.13-1.77,2.67,2.67,0,0,0-.39-1.17,1,1,0,0,0-1-.38,1.11,1.11,0,0,0-1,.59,2.41,2.41,0,0,0-.34,1.18,3.29,3.29,0,0,0,.69,2.18,13.91,13.91,0,0,0,1.51,1.56l1.91,1.66a18.06,18.06,0,0,1,1.76,1.86,8.18,8.18,0,0,1,1.28,2.2,7.46,7.46,0,0,1,.48,2.78,5.89,5.89,0,0,1-.62,2.73,5.15,5.15,0,0,1-1.77,2,6,6,0,0,1-2.76.94v2.81Z" style="fill:#263238"></path></g><g id="freepik--Character--inject-6"><path d="M266.92,449.87s-8.37,6.74-9.94,9.3.16,2.69,2.85,2.53,7-1.65,9.46-2.28,4.67,0,5-2.52a32.62,32.62,0,0,0-.24-6.72A5.37,5.37,0,0,0,266.92,449.87Z" style="fill:#fff;stroke:#263238;stroke-linecap:round;stroke-linejoin:round"></path><path d="M289.87,451.65l-8.17,11.56c-1.81,2.57,1.75,4.57,4.69,4.39s8.87-4,9.95-6.49.48-8.39.48-8.39S292.59,452,289.87,451.65Z" style="fill:#fff;stroke:#263238;stroke-linecap:round;stroke-linejoin:round"></path><path d="M263.77,343.22s-.53,16.54-1,24.93,1.62,52.06,2.1,60.15,2.06,21.57,2.06,21.57,2.35,2.32,7.15.31c0,0,1.75-19.57,2.11-26s2.94-45.69,3.08-47.42-.37-11.78-.37-11.78,3.89,28.25,4.35,35.85,5.95,51.84,5.95,51.84,1.26.42,3,.8,4.63-.76,4.63-.76,1.39-13.86,1.71-20.77.6-35.46.09-44a172.32,172.32,0,0,1-.32-17.69c.17-1.24,2.32-31.38,1.1-35.24s-20.62-2.56-26.81-3.17S263.62,336.59,263.77,343.22Z" style="fill:#263238;stroke:#263238;stroke-linecap:round;stroke-linejoin:round"></path><path d="M245.18,312.62s9.48,10.51,12.33,12.8,7.44,1,8.79-1,1.26-20.24,1.26-20.24L264,282l-5,31.54-10.76-3S244.73,309.21,245.18,312.62Z" style="fill:#643CF5;stroke:#263238;stroke-linecap:round;stroke-linejoin:round"></path><path d="M280.58,275.09s-14.2,5.27-15.88,5.87-2.58,9-2.3,15.14c.12,2.6,1.63,27.41.76,45.71-.13,2.65,5.09,5.2,11.46,4.82s17.71.31,21.28-1.63,2.89-3.6,2.89-3.6,4.94-41.12,5.94-49-1.46-12.21-4.56-14.74S280.58,275.09,280.58,275.09Z" style="fill:#643CF5;stroke:#263238;stroke-linecap:round;stroke-linejoin:round"></path><line x1="275.64" y1="288.86" x2="275.64" y2="302.39" style="fill:none;stroke:#263238;stroke-linecap:round;stroke-linejoin:round"></line><line x1="281.06" y1="289.57" x2="281.06" y2="309.23" style="fill:none;stroke:#263238;stroke-linecap:round;stroke-linejoin:round"></line><path d="M278.29,290.23s6.39-.88,9-3.05,5.13-8,7.16-8.64a30.3,30.3,0,0,1,5.76-.93s.32-3.66-4.14-5.69-15.26-.95-17.56.4-6.75,4.33-6.48,6.08S274.05,290.85,278.29,290.23Z" style="fill:#fff;stroke:#263238;stroke-linecap:round;stroke-linejoin:round"></path><path d="M276.83,274.08s1.61,6.31,1.09,10-1.35,6.23.37,6.12,7.63-8.08,8.18-11.31.34-15,.34-15Z" style="fill:#fff;stroke:#263238;stroke-linecap:round;stroke-linejoin:round"></path><path d="M283.88,270.44l-5.48,10.31L277,275.92A44.58,44.58,0,0,0,283.88,270.44Z" style="fill:#263238;stroke:#263238;stroke-linecap:round;stroke-linejoin:round"></path><path d="M266.32,250.36S268,261.82,269,265.7s3.6,10.85,5.58,11,9.54-5,11.13-7.3,1.42-9.19,1.67-13.14-1.24-8.54-3.77-9.62S267.63,247.57,266.32,250.36Z" style="fill:#fff;stroke:#263238;stroke-linecap:round;stroke-linejoin:round"></path><path d="M267.82,258.12l2.65.47-.47,9.05a13.55,13.55,0,0,0,3.59,0" style="fill:#fff;stroke:#263238;stroke-linecap:round;stroke-linejoin:round"></path><path d="M272.19,270.45s3.74.78,5.77-1.56" style="fill:#fff;stroke:#263238;stroke-linecap:round;stroke-linejoin:round"></path><path d="M273.59,258.44a3.28,3.28,0,0,1,5.31.78" style="fill:#fff;stroke:#263238;stroke-linecap:round;stroke-linejoin:round"></path><path d="M276.4,261.48c0,.64-.35,1.17-.78,1.17s-.78-.53-.78-1.17.35-1.17.78-1.17S276.4,260.83,276.4,261.48Z" style="fill:#263238"></path><path d="M281.06,250s-1.24,1.23-8.84,1.68-10.75-3.65-9.67-5.59c2.08-3.75,6.77-9.26,17.42-8.17s12.92,8.43,12.38,11.66-2,8.48-2,8.48-.44-1.62-1.61-.57S286.2,262,286.2,262l-1.06-.26a15.35,15.35,0,0,0-1.25-3c-.54-.71-3.83-2.68-3.9-3.9A24.34,24.34,0,0,1,281.06,250Z" style="fill:#263238;stroke:#263238;stroke-linecap:round;stroke-linejoin:round"></path><path d="M285.52,263s.26-6.33,3.26-5.53,2.45,2.24.89,5a8.49,8.49,0,0,1-3.47,3.65" style="fill:#fff;stroke:#263238;stroke-linecap:round;stroke-linejoin:round"></path><path d="M297.84,283.9s-1.83,6.51-1.66,9.45,12.35,31.51,12.7,33.21,5.06,2.4,7.41.54,3.43-4.39,1.81-10.93c-1-4.05-10.92-28.15-11.66-32.29s-3.61-6.92-6.27-6.27" style="fill:#643CF5;stroke:#263238;stroke-linecap:round;stroke-linejoin:round"></path><path d="M309.1,318l-15,25.82,5.76,3.68s14.38-18.63,16.41-20.38,4.81-5.36,1.81-10.93" style="fill:#643CF5;stroke:#263238;stroke-linecap:round;stroke-linejoin:round"></path><path d="M294.12,343.8l-3.92.92s-2.08,3.69-2.54,4.38-2.76,1.84-.46,2.07,3.23-2.3,3.23-2.3l6,3.92,3.46-5.31Z" style="fill:#fff;stroke:#263238;stroke-linecap:round;stroke-linejoin:round"></path><polygon points="241.88 298.55 249.58 316.3 257.71 316.55 250.48 298.29 241.88 298.55" style="fill:#263238;stroke:#263238;stroke-linecap:round;stroke-linejoin:round"></polygon><path d="M248.2,305.55s-5.23-1.16-5.89.11,2.4,7.24,3.71,8.63,4.47.72,6.14-.12.21-4.68-.79-5.11a49.21,49.21,0,0,0-6-1.12s4.48.71,5.15-.31S250.19,305.93,248.2,305.55Z" style="fill:#fff;stroke:#263238;stroke-linecap:round;stroke-linejoin:round"></path></g></svg>