<?xml version="1.0" encoding="utf-8"?>
<!-- Generator: Adobe Illustrator 25.0.1, SVG Export Plug-In . SVG Version: 6.00 Build 0)  -->
<svg version="1.1" id="Layer_1" xmlns="http://www.w3.org/2000/svg" xmlns:xlink="http://www.w3.org/1999/xlink" x="0px" y="0px"
	 viewBox="0 0 158.6 41.9" style="enable-background:new 0 0 158.6 41.9;" xml:space="preserve">
<style type="text/css">
	.st0{enable-background:new    ;}
	.st1{fill:#8796AF;}
</style>
<g class="st0">
	<path class="st1" d="M65.6,34.8h-18V6.2h17.9v5.2H53.2V18h11.2v5H53.2v6.6h12.4V34.8z"/>
	<path class="st1" d="M75.9,34.8h-5.4V15h5.1v2.4c0.5-0.9,1.3-1.6,2.4-2.2c1.1-0.5,2.2-0.8,3.4-0.8c2.9,0,4.8,1.1,5.9,3.3
		c1.4-2.2,3.5-3.3,6.3-3.3c2,0,3.7,0.6,5.1,1.9s2.1,3.1,2.1,5.7v12.9h-5.2V23c0-1.1-0.3-2-0.9-2.7s-1.5-1-2.6-1s-2,0.4-2.7,1.1
		c-0.7,0.8-1,1.7-1,2.8v11.6h-5.3V23c0-1.1-0.3-2-0.9-2.7s-1.5-1-2.6-1c-1.2,0-2.1,0.4-2.7,1.1c-0.7,0.7-1,1.7-1,2.8
		C75.9,23.2,75.9,34.8,75.9,34.8z"/>
	<path class="st1" d="M111.6,34.8h-5.4V15h5.1v2.4c0.5-0.9,1.3-1.6,2.4-2.2c1.1-0.5,2.2-0.8,3.4-0.8c2.9,0,4.8,1.1,5.9,3.3
		c1.4-2.2,3.5-3.3,6.3-3.3c2,0,3.7,0.6,5.1,1.9c1.4,1.3,2.1,3.1,2.1,5.7v12.9h-5.2V23c0-1.1-0.3-2-0.9-2.7s-1.5-1-2.6-1
		s-2,0.4-2.7,1.1c-0.7,0.8-1,1.7-1,2.8v11.6h-5.3V23c0-1.1-0.3-2-0.9-2.7s-1.5-1-2.6-1c-1.2,0-2.1,0.4-2.7,1.1c-0.7,0.7-1,1.7-1,2.8
		L111.6,34.8L111.6,34.8z"/>
	<path class="st1" d="M140.8,29.4c0-1.7,0.5-3.1,1.6-4.1s2.5-1.7,4.3-1.9l4.9-0.7c1-0.1,1.5-0.6,1.5-1.4s-0.3-1.4-0.9-1.9
		c-0.6-0.5-1.4-0.7-2.5-0.7s-2,0.3-2.7,0.9s-1,1.4-1.1,2.3l-4.8-1c0.2-1.7,1-3.2,2.5-4.6c1.5-1.3,3.5-2,6-2c3,0,5.1,0.7,6.5,2.1
		s2.1,3.2,2.1,5.4v9.8c0,1.2,0.1,2.2,0.2,3.1h-4.9c-0.1-0.6-0.2-1.4-0.2-2.4c-1.3,2-3.2,2.9-5.9,2.9c-2,0-3.7-0.6-4.9-1.8
		S140.8,31,140.8,29.4z M148.8,31.4c1.3,0,2.3-0.4,3.1-1.1s1.2-1.9,1.2-3.5v-0.9l-4.5,0.7c-1.6,0.2-2.5,1.1-2.5,2.5
		c0,0.6,0.2,1.2,0.7,1.6S148,31.4,148.8,31.4z"/>
</g>
<path class="st1" d="M25.8,33.9c-0.5-1.8-2.2-3.1-3.4-4.4c-1.9-2.1,1-4.1,1.9-5.8c0.8-1.4,0.8-3.1,0-4.4s-2.3-2.2-2.6-3.7
	c-0.2-1.1,0.5-2.1,0.7-3.1c0.2-0.9,0.2-1.8,0.2-2.7c0-0.6-0.4-1.5,0-2c0.9-1.5,2.2-3.5,1.7-5.3c-0.4-1.3-1.6-2.3-3-2.4
	c-0.9,0-1.8,0.3-2.5,0.9c-0.1,0-0.8,0.8-0.9,0.8C16.3,1.3,14.7,1,13,1l0,0c-1.7,0-3.3,0.3-4.9,0.8c0,0-0.8-0.7-0.9-0.8
	C6.6,0.3,5.7,0,4.8,0c-1.4,0.1-2.6,1.1-3,2.4C1.2,4.2,2.5,6.1,3.4,7.7c0.3,0.6,0,1.4,0,2c0,0.9,0,1.8,0.2,2.7c0.2,1,0.9,2,0.7,3.1
	C4,17.1,2.5,18,1.7,19.3c-0.8,1.4-0.8,3.1,0,4.4c1,1.7,3.8,3.6,1.9,5.8c-1.2,1.4-2.9,2.6-3.4,4.4c-0.8,3,0.6,8.4,4.9,8
	c1.2-0.2,2.3-0.5,3.4-1c3-0.6,6-0.6,9,0c1.1,0.5,2.2,0.8,3.4,1C25.2,42.3,26.6,36.9,25.8,33.9z"/>
</svg>
