<?xml version="1.0" encoding="utf-8"?>
<!-- Generator: Adobe Illustrator 21.1.0, SVG Export Plug-In . SVG Version: 6.00 Build 0)  -->
<svg version="1.1" id="Layer_1" xmlns="http://www.w3.org/2000/svg" xmlns:xlink="http://www.w3.org/1999/xlink" x="0px" y="0px"
	 viewBox="0 0 599.1 284.4" style="enable-background:new 0 0 599.1 284.4;" xml:space="preserve">
<style type="text/css">
	.st0{fill:#8796AF;}
</style>
<g>
	<g>
		<path class="st0" d="M108.1,134.4c-1.4,0.7-3,0.1-3.7-1.3c-0.2-0.3-0.3-0.7-0.3-1.1c0-0.1-0.1-0.1-0.1-0.2L73.5,68.6L0,94.4
			c3.4,1.3,6.8,2.7,10.1,4c2.1,0.9,4.1,1.7,6.2,2.5c5.1,2,17.2,5.7,27.9,9c8.4,2.6,15.7,4.8,18.3,5.8c0.9,0.3,1.5,1.1,1.7,2.1
			c0.7,3.7-2.6,14.3-10.3,36.7c-1.1,3.2-2.1,6.2-3,8.7l77-27.6c-2.1-0.2-4.2-0.6-6.3-1C116.7,133.6,111.8,132.7,108.1,134.4z"/>
		<path class="st0" d="M119.1,128.5c1.2,0.2,2.3,0.4,3.5,0.6c3.8,0.7,7.3,1.4,10.1,0.7l-2.4-5.7C126.5,125.5,122.8,127,119.1,128.5z
			"/>
		<path class="st0" d="M525.6,68.6L495,131.9c0,0.1-0.1,0.1-0.1,0.2c0,0.4-0.1,0.7-0.3,1.1c-0.7,1.4-2.3,2-3.7,1.3
			c-3.7-1.8-8.6-0.8-13.4,0.1c-2.1,0.4-4.2,0.8-6.3,1l77,27.6c-0.8-2.5-1.9-5.5-3-8.7c-7.7-22.4-11-33-10.3-36.7
			c0.2-0.9,0.8-1.7,1.7-2.1c2.6-1,9.9-3.2,18.3-5.8c10.7-3.3,22.7-7,27.9-9c2-0.8,4.1-1.6,6.2-2.5c3.3-1.4,6.7-2.8,10.1-4
			L525.6,68.6z"/>
		<path class="st0" d="M480,128.5c-3.7-1.5-7.4-3-11.1-4.4l-2.4,5.7c2.7,0.6,6.3,0,10.1-0.7C477.6,128.9,478.8,128.7,480,128.5z"/>
		<path class="st0" d="M467.7,117.7l5.2,2c6.1,2.4,12.2,4.8,18.3,7.4l29.8-62l0,0l2.6-5.4l4.9-10.2C453.2,16.7,376.2,0,299.5,0
			s-153.7,16.7-229,49.5L76,61.1l2.6,5.3l29.3,60.8c6.6-2.8,13.2-5.4,19.8-8l5.8-2.2c55.4-20.5,111.1-30.9,166.1-30.9
			C355.2,86.1,411.6,96.7,467.7,117.7L467.7,117.7z M146.1,45.4c-0.3,2.1-1.2,4-2.9,4.7c-2.1,0.8-4.3,1.3-6.5,2V52
			c-2.1,0.9-4.3,1.6-6.3,2.6c-2.2,1-2.9,5.4-1.1,7.2c0.6,0.7,1.4,0.5,2.1,0.3c1.1-0.3,2.4-0.8,3.5-1c2.2-0.5,3.3,0.5,3.8,3.3
			c0.5,3,0.1,4.9-2.1,5.9c-0.5,0.2-1.2,0.4-1.7,0.6c-3.4,1.5-3.8,1.3-2.9,5.2c0.7,3.3,1.8,8.4,2.4,11.8c0.5,2.8-3.5,6.6-5.8,6.2
			c-0.9-0.2-1.5-0.9-1.8-1.9c-0.7-2.4-1.6-4.6-1.8-7c-0.4-4.1-1.8-9.5-3-13.3c-1.4-4.5-2.1-9.5-3.5-14.2c-2.6-8.6,2-10.1,7.1-12.5
			c0.6-0.2,1.3-0.1,1.8-0.2c3.7-0.6,7.2-1.9,10.7-3.7c1.6-0.9,4.4-1.6,6-0.6C145.4,41.4,146.5,43,146.1,45.4z M190.2,76.9
			c-3.6,0.9-4.4-0.4-6.8-5.5c-1.9-4.1-2.1-4.2-5.9-3.4c-3.4,0.7-6.8,1.8-10.1,2.5c-4.2,0.9-5.4,2.3-5.8,7.7c0,0.2,0,0.3,0,0.4
			c-0.6,6.4-1.1,5.4-5.9,6.7c-2.1,0.6-3.6,0.1-3.9-2.6c-0.4-3.1-0.1-6.2,0.4-9.2c1.7-10.7,2.8-21.4,3.8-32.2
			c0.4-4.4,0.5-4.8,3.9-5.3c0.6-0.1,1.2-0.3,1.9-0.5v0.1c3.2-1,6.4-2.1,9.8-2.9c3.7-0.9,4.5-0.2,6,3.7c1.1,2.9,2.4,4.8,4,7.3
			c1.4,2.2,2.5,4.7,3.5,7.1c1.9,4.6,3.9,9.2,6.2,13.6c1.3,2.6,3,4.7,3.9,7.6C195.9,75.3,193,76.2,190.2,76.9z M232.3,67.4
			c-0.9-0.7-1.6-1.5-2.5-2.4c-6.2-6.8-11.6-14.2-18-20.8c-0.5-0.5-1.1-1.5-1.7-1.1c-0.8,0.5-0.3,1.7-0.2,2.5
			c0.2,2.9,0.8,6.6,1.1,9.6c0.2,2.2,0.5,4.3,0.7,6.6c0.2,2.2,2.3,6.1,1.2,8.4c-0.4,1.1-9.9,6.7-9.9,0c-0.1-7.6-1.3-15-2.7-22.4
			c-0.5-2.4-0.4-4.7-0.7-7c-0.2-1.4-0.3-2.9-0.7-4.2s-1.3-2.2-0.8-4c0.7-2.5,1.9-4.4,3.7-5.8c2.4-1.9,4.6-1.3,7.5,1.4
			c3.8,3.7,7.6,8.5,11.6,11.9c3,2.5,5.8,5.2,8,8.7c0.3,0.5,0.8,1,1.2,0.9c0.5-0.1,0.3-1,0.2-1.5c-1-7.4-0.3-14.9-2.4-22.1
			c-0.1-0.4-0.2-0.9-0.1-1.3c0.2-1.8,4.7-3.5,7.6-3.6c2.2-0.1,2.9,0.4,3.1,3.2c0.2,3.3,0.4,9.9,0.4,13.3c0,4.5,0.2,9,1.2,13.4
			c0.8,3.4,0.4,8.6,0.7,12C241.1,67,235.4,69.6,232.3,67.4z M281.7,28.6c-3.1-1.8-6.5-0.2-9.7,0.1c-0.6,0.1-1,0.8-1,1.6
			c-0.1,1.9-0.6,4.1-0.4,6.1c0.5,4.8,0.1,9.8,0.9,14.7c0.2,1.7,0,3.5,0,5.3c0,2-0.2,4,0.3,6c0.6,2.6,0.1,3-2,4
			c-1.7,0.8-3.8-0.1-5.5,0.1c-0.9,0.1-2-4.6-1.6-5.8c0.4-4,0.4-9.3,0.1-14c-0.3-5.3-0.6-8.8-1-14.1c-0.2-2-0.9-2.3-2.7-3.3
			c-0.8-0.4-8.1,0.9-10,1.4c-3.1,0.8-4.6-11.2-0.9-11.4c7.6-0.4,15.3-1.3,22.9-1.5c0.5,0,1.1,0.1,1.5,0.1c2.3,0.4,6.8-0.1,10.1-0.8
			c1.7-0.4,2.8,0.4,3.7,2c1.5,3,1.2,5.8-0.3,8.4C284.7,29.5,283.8,29.8,281.7,28.6z M326.5,63.7c-0.8,0.2-0.3,0.7-1.1,0.8
			c-2.8,0.7-4.4-0.3-5.8-3.4c-0.2-0.4-0.3-0.7-0.4-1.1c-1.4-3.8-3.1-5.7-7.3-5.1c-3,0.5-6.4-0.2-9.5-0.2c-3.2,0-4.5-0.1-5.4,3.9
			c-0.3,1.5-0.8,2.7-1.4,4c-1,2.3-2.8,3.3-3.9,1.8c-1.3-1.8-3.7,0-4.4-2.7c-0.3-1.4,0.1-2.6,0.3-3.8c0.4-1.9,1.8-2.9,2.4-4.7
			c2.7-9.1,5.3-18,9.3-26.7c0.8-1.5,1.3-3.1,1.9-4.7c1.6-4.7,2.1-4.7,6.4-4.6c1.4,0.1,2.9,0.3,4.3-0.3c1.7-0.9,2.1,0.4,2.9,2.2
			c2.4,5,4.6,10.3,6.1,15.8c0.8,3.1,1.9,8.3,3,11.3c1.5,4.4,3.4,9.5,5,13.9C329.6,62.8,329.4,63.2,326.5,63.7z M346.9,34.3
			c2.2,1.6,6.2,4.4,9.5,5.5c4.5,2.4,7.8,3.9,10,9.4c1.1,2.7,0.8,6.8-1.5,11.4c-2.2,4.3-4.6,5.8-8.2,7.3c-3,1.3-8.6,0.7-11.5-0.6
			c-4.9-2.5-6-4-10.3-9.5c-0.7-0.9-0.6-2.3,0.1-3.4c0.8-1.1,1.5-2.1,2.4-3c1-1,2.2-1.4,3.4-0.3c0.8,0.8,1.8,1.4,2.5,2.3
			c2.5,3.5,2.3,2.8,5.7,4.1c2.2,0.8,5.7,1.4,7.3-0.1c1.8-1.7,2.4-2.5,2-4.6c-0.4-2.3-4-4-5.7-4.7c-2.3-1-4.1-2.6-6.6-3.3
			c-2.8-0.8-3.6-2.6-6.1-4.2c-3.1-1.9-4.7-8.9-2.8-13.5c2-4.8,4.7-6.8,8.3-8.6c2.1-1,5.4-0.5,7.2-0.7c3.6-0.2,7.8,1.8,11.2,4
			c4.5,2.8,3.8,5.7,3.2,7.5c-0.9,2.6-3.4,4.8-4.9,3.6c-1.6-1.2-2.3-2.5-4.2-3.9c-2.6-1.9-5.9-2.7-9.1-1.6
			C345.5,28.7,345.1,32.9,346.9,34.3z M409,38.8c-2.7-2.5-6.4-1.7-9.6-2.2c-0.6-0.1-1.1,0.6-1.2,1.4c-0.4,1.9-1.1,3.9-1.2,5.9
			c-0.2,4.8-1.3,9.7-1.2,14.6c0,1.8-0.5,3.5-0.8,5.2c-0.3,2-0.7,3.9-0.6,6c0.2,2.7-0.4,3-2.6,3.5c-1.8,0.4-3.7-0.9-5.4-1.2
			c-0.9-0.1-1.3-5-0.7-6.1c1-3.9,1.7-9.1,2.1-13.7c0.4-5.3,0.7-8.7,1-14.1c0.1-2-0.6-2.5-2.2-3.9c-0.7-0.6-8.1-1-10-1
			c-3.1,0.1-2.9-12,0.8-11.4c7.5,1.4,15.2,2.2,22.8,3.8c0.5,0.1,1.1,0.3,1.5,0.5c2.2,0.9,6.7,1.4,10,1.5c1.7,0,2.7,1,3.3,2.8
			c1,3.3,0.4,6-1.6,8.2C411.9,40.3,410.9,40.4,409,38.8z M437,36.6c-0.5,1.6,0.4,4.5-2.5,3.9c-1.7-0.3-2.5,0.7-2.8,2.5
			c-1.5,7.9-2.6,16-3.3,24c-0.2,1.9-0.2,3.6,1.1,5.1c1.6,1.9,1,3.8,0.3,5.7c-0.8,2.2-2.4,1.7-4,1.5c-3.1-0.4-7.1-1.3-10.2-2.5
			c-0.5-0.2-1.5-0.1-1.3-0.9c0.4-2,0.1-3.2,0.8-5c0.6-1.4,1.7-1.6,2.7-1.6c1.4,0,1.7-0.9,1.9-2.3c0.5-3.7,1.3-7.6,2-12.7
			c0.5-3.8,0.7-7.6,1.3-13.1c0.2-1.8,0-3.3-1.6-3.8c-2.2-0.7-2-2.5-1.6-4.5s1.5-2.8,3.3-2.4c3.7,0.8,8.4,1.8,12,2.6
			C436.7,33.6,437.6,34.5,437,36.6z M455,88.2c-0.9-0.5-1.8-0.7-2.6-1.1c-1-0.4-2-0.9-2.9-1.7c-5.7-4.8-8.8-10.6-10.2-17.8
			c-0.2-0.8,0.5-7.4,0.6-8.3c1.1-5.9,4.6-10.9,9-14.5c2.4-1.9,6-3.4,9.5-4c4.2-0.7,9.8,0.2,13.9,2.1c0.9,0.5,1.9,0.7,2.7,1.4
			c7.6,5.7,9.4,13,9.4,13c-0.2,2.2-0.8,3.3-2.4,3.6c-2.4,0.6-3.9,0.5-5.1-0.4c-1.1-0.9-2-2.8-4-5.6c-0.7-1.1-3.8-2.9-4.7-3.1
			c-3.7-0.8-6.9-1.6-10.4,0.1c-3.2,1.6-6.9,3.5-7.9,9.4c-0.7,4.3-0.3,7.6,1.3,11c0.7,1.5,1.6,2.7,2.6,3.6c2.7,2.2,5.4,3.7,9.6,4.5
			c2.6,0.5,6.2,0.3,7.8-0.5c1.3-0.6,3.4-1.9,4.8-2.3c0.9-0.5,3.2,3.1,3.6,5.1c0.4,1.7-0.7,3.8-2.3,4.7
			C470.3,90.8,462.4,91.6,455,88.2z"/>
		<path class="st0" d="M170.9,44.8c-1.5-0.4-4.4,0.6-5.7,1.7c-1.2,1.1-0.6,6-1.1,8c-1.4,6.1-0.8,7.8,4.4,6.1
			c0.8-0.3,5.5-1.4,6.7-1.9c2.4-1.1,0.6-2.6-0.4-6.9C174.1,49.1,172.3,45.2,170.9,44.8z"/>
		<path class="st0" d="M310.1,33.8c-0.3-0.9-0.3-2.3-1.2-2.5c-1.1-0.2-1.5,1.2-2,2.1c-0.2,0.4-0.4,0.8-0.6,1.2
			c-0.8,1.6-3.4,8.9-3,9.7c0.8,1.9,4.8,0.5,7,0.8c0.5,0.1,0.7,0.1,1.2,0.2c0.6,0,1.4,0.3,1.9-0.6c0.3-0.8-0.1-1.5-0.5-2.1
			C312.1,41.4,310.7,35.3,310.1,33.8z"/>
	</g>
	<g>
		<path class="st0" d="M203,165c-0.2-2.6-0.6-5.1-0.4-7.6c0.5-4.2,0.4-9.9-0.1-14.1c-0.4-5-0.1-10-0.4-15.1c-0.8-9.5,4.2-9.3,10-9.9
			c0.6,0,1.3,0.3,1.9,0.4c3.9,0.6,7.7,0.4,11.7-0.4c1.8-0.4,4.8-0.3,6.3,1.2c1.1,1.2,1.9,3.1,1.1,5.4c-0.7,2-1.9,3.7-4,3.8
			c-2.4,0.2-4.8,0-7.1,0v-0.1c-2.4,0.2-4.8,0.3-7.1,0.6c-2.6,0.3-4.1,4.4-2.6,6.8c0.4,0.9,1.3,0.9,2.1,1c1.3,0,2.6,0,3.9,0.1
			c2.5,0.3,3.3,1.5,3.3,4.5c-0.1,3.2-0.7,5-3.4,5.2c-0.6,0.1-1.3,0-1.9,0.1c-3.9,0.4-4.2,0-4.2,4.2c0.1,3.6,0.1,8.9,0,12.4
			c-0.1,3-5.3,5.4-7.7,4.2C203.5,167,203.1,166.1,203,165z"/>
		<path class="st0" d="M242.2,159.3c-1.8-2.6-3.6-5.5-4.6-8.7c-1.8-5.5-1.3-17.6,3.3-22.8c1.8-2,3.7-3.8,5.5-5.8
			c4.4-4.9,10.5-4.4,15.8-5.1c4.7-0.6,8.2,2.7,12.3,2.8c0.5,0.1,1.1,0.7,1.6,1.2c6.4,6,9.3,12,9.4,21.6c0.1,5.1-1.8,10.5-4,14.6
			c-4.1,7.6-9.9,11.4-18.2,10.6c-2.1-0.2-4.2,0.4-6.3,0.2C250.2,167.5,245.9,164.4,242.2,159.3z M274.4,146.5c0.2-2,0.4-3.9,0.4-5.9
			c0.1-5-2.7-12-9.2-12.4c-1-0.1-2.2-0.5-3.1-0.4c-3.1,0.3-6.7,0.2-9.5,2.4c-3.8,3-5.5,6.7-5.6,9.7c0,6.5,0.2,9.5,1.8,11.4
			c1.7,1.7,3.6,3.3,6.2,4.7C262.2,159.7,273.6,155.7,274.4,146.5z"/>
		<path class="st0" d="M306.7,165.7c-6.2-3.1-11.4-6.1-13.5-19c-0.9-5.9,0.6-12.8,2.2-15.7c4.4-8,11.1-13,19.7-13.6
			c25.4-2,28.8,19.1,28,28c-0.8,8.8-6.3,16.6-14.6,20.6C321.1,169.4,314,169.2,306.7,165.7z M332.3,145.1
			c2.1-8.6-2.6-17.1-13.3-17.1c-5.8,0-12.9,3.8-14.4,11c-2.5,11.3,4.8,19.2,14.8,18.8C328.1,157.5,330.9,150.4,332.3,145.1z"/>
		<path class="st0" d="M354.3,161.5c-0.6-5.5-0.5-10-0.4-15.5l-0.5-5c-0.3-2.3-0.4-4.7,0-7.1c0.5-3.9,0.5-7.8,0.5-11.6
			c-0.1-3.7,0.1-3.7,3.3-3.7h2c6.3-1.5,12.6,1.2,18.9,1.1c0.6,0,1.2,0.2,1.8,0.4c7.5,2.6,16.5,11.5,16.9,22.5l-0.3,0.1
			c0.3,1.3,0.4,2.5,0.4,3.2c-0.6,4.5-3.1,8.5-5.7,12.1c-4.6,6.4-9.7,6.2-16.1,8.9c-4.7,1.8-10.2,1.9-15.1,1.6
			C356.3,168.1,354.7,165.7,354.3,161.5z M376.7,155.4c2.1-1.7,5.7-2.7,7.4-5.7c1.5-2.6,1.6-3.6,1.6-5.8c-0.6-3.9-1.3-7.1-4.1-10
			c-3.5-3.8-7.9-4.5-12.4-4.3c-1.7,0.1-3.1,0.9-3.8,2.3c-0.2,0.8-0.3,1.6-0.3,2.4v3.1c0.3,3,0.1,6.1,0,9.2v5.6
			c0,0.9,0.2,1.1,0.3,1.9c0.6,3.2,1.2,3.9,4.1,3.3C372.3,156.8,374.1,157.3,376.7,155.4z"/>
	</g>
	<g>
		<path class="st0" d="M118.9,228.4c-0.2-2.6-0.6-5.1-0.4-7.6c0.5-4.2,0.4-9.9-0.1-14.1c-0.4-5-0.1-10-0.4-15.1
			c-0.8-9.5,4.2-9.3,10-9.9c0.6,0,1.3,0.3,1.9,0.4c3.9,0.6,7.7,0.4,11.7-0.4c1.8-0.4,4.8-0.3,6.3,1.2c1.1,1.2,1.9,3.1,1.1,5.4
			c-0.7,2-1.9,3.7-4,3.8c-2.4,0.2-4.8,0-7.1,0V192c-2.4,0.2-4.8,0.3-7.1,0.6c-2.6,0.3-4.1,4.4-2.6,6.8c0.4,0.9,1.3,0.9,2.1,1
			c1.3,0,2.6,0,3.9,0.1c2.5,0.3,3.3,1.5,3.3,4.5c-0.1,3.2-0.7,5-3.4,5.2c-0.6,0.1-1.3,0-1.9,0.1c-3.9,0.4-4.2,0-4.2,4.2
			c0.1,3.6,0.1,8.9,0,12.4c-0.1,3-5.3,5.4-7.7,4.2C119.4,230.4,119,229.5,118.9,228.4z"/>
		<path class="st0" d="M166.3,230.1c-5.3,0.5-7-2.2-7-8.2c-0.1-11.1-0.4-24.6-0.7-35.7c-0.2-3.3,0-4.3,2.8-4.5
			c5.9-0.6,18.1,0.3,24-0.2c2.5-0.2,5.2-0.1,7.7,0.7c2.4,0.7,2.6,6.2,1.6,7.9c-0.8,1.7-4.7,2.4-7,2.3c-3.4-0.7-11.4,0-14.8-0.2
			c-2.8-0.1-3.3,0.6-3.4,3.5c0,3.4,0.8,4.6,3.6,4.5c2.7,0,10-0.3,12.8,0.1c2.4,0.3,4,2.4,3.8,4.8c-0.2,2.5-1.9,4.1-4.5,3.9
			c-2.7-0.3-9.9,0-12.8,0.3c-1.9,0.2-2.5,1.2-2.4,3.1c0.1,0.9,0.1,3.5,0.2,4.4c0,2.2,1.1,3.2,3,3.4c3.4,0.3,11.4-0.1,14.7-0.5
			c1.9-0.2,3.7,0.1,5.5,0.5c2.6,0.6,4,3.1,3.9,5.8c-0.3,2.9-1.4,4.2-4.1,4.4c-2.4,0.1-4.8,0-7.1,0
			C181.5,230.5,170.8,229.7,166.3,230.1z"/>
		<path class="st0" d="M206.6,225.1c-1.1-1.1-2.1-2.2-3.1-3.3c-1.8-2.1,2.6-8.6,4.4-8.5c1.8,0.2,2.7,2.3,4,3.5
			c2.1,2,5.2,4.8,8.2,5.2c1.5,0,3.6-0.1,4.5-2.1c1.1-1.2,1.5-4.1-0.5-5.9c-5.6-5.1-12.3-6.5-16.3-12.1c-1.6-2.3-2.3-6.5-1.7-9.5
			c0.6-3.6,2.5-7.7,6.9-10.1c3.4-2,13.2-2.2,18.9,2.6c2.6,2.1,2.9,4.7,0.9,7.7c-1.4,2.1-3.3,2.6-5.1,1s-4.1-2.2-6.2-3.2
			c-1.6-0.6-3.9-0.6-5,1.1c-1,1.4-1.7,4.1-0.4,5.3c3.4,3.6,8.9,4.7,12.5,7.9c1.8,1.5,9.6,6.7,6.2,16.8c-1.8,5.6-4.7,10-13.8,10.9
			C215.2,233,209.4,228.2,206.6,225.1z"/>
		<path class="st0" d="M257.9,231c-1,0-2-4.9-1.5-6.1c0.7-4.1,0.9-9.5,0.8-14.2c-0.1-5.5-0.2-9-0.4-14.4c-0.1-2.1-0.9-2.4-2.7-3.6
			c-0.8-0.5-8.8,0.2-10.8,0.5c-3.3,0.5-4.2-11.8-0.2-11.6c5.5,0.3,17.8,0,24.5,0.2c0.5,0,1.1,0,1.6,0.2c3.3,0,7.2,0.2,10.7-0.4
			c1.8-0.3,3,0.5,3.9,2.2c1.5,3.1,1.2,6-0.5,8.6c-1.4,2.1-2.5,2.4-4.7,1.1c-3.3-2-7-0.6-10.5-0.4c-0.7,0-1.1,0.8-1.1,1.6
			c-0.2,2-0.8,4.1-0.6,6.2c0.3,5-0.3,10,0.4,15c0.2,1.8-0.2,3.6-0.3,5.4c-0.1,2.1-0.4,4.1,0.1,6.2c0.5,2.7,0,3.1-2.5,4
			C262.1,232,259.9,231,257.9,231z"/>
		<path class="st0" d="M293.4,227.4c0-2.5-0.1-5.1,0-7.6c0.3-9.6-1.1-19.3-0.2-29c0.1-0.8-0.1-1.7-0.2-2.6c-0.4-4,1.6-5.7,4.5-6.2
			c3.3-0.5,4.6,0.7,4.8,5.1c0.3,4.5,0.4,9,0.2,13.3c-0.4,7.2,0.5,14.3,0.2,21.5c-0.1,1.2-0.1,2.4-0.4,3.6c-0.7,4.1-1.7,4.9-5.5,4.5
			C295.4,230.1,293.5,229.3,293.4,227.4z"/>
		<path class="st0" d="M323.6,223.7c-2.6-7.6-5.7-13.7-7.3-21.7c-0.9-4.4-3.1-8.3-4.3-12.4c-0.7-2.2-1.8-4.6-0.4-6.4
			c1.6-2.1,4.1-2.5,6.6-1.6c1.9,0.7,3.7,2.2,4.6,5.5c1.7,6.6,4.1,11.5,5.2,18.3c0.4,3,1.7,5.7,2.6,8.5c0.4,1.4,1.1,2.6,3.3,2.6
			c1.5,0,2.9-0.8,3.4-2.6c1.4-4.8,3.1-8.2,4-13.2c1-5.4,1.8-8.4,4-13.3c1.5-3.6,5-5.1,8.4-3.5c2.5,1.2,3.3,3.4,2,6.1
			c-3.8,8.5-4.4,14.6-8,23.2c-0.8,1.9-1.1,4-1.6,6.1c-0.4,1.5-0.6,3.2-1.1,4.7c-1.9,6.8-3.3,7.8-9.6,7.1c-0.5-0.1-1.4,0.4-1.9,0.4
			C328.7,231.2,325.3,228.5,323.6,223.7z"/>
		<path class="st0" d="M392.9,223.8c-1.5-4.6-1.7-4.7-5.9-4.8c-3.9-0.1-7.7,0.2-11.4,0c-4.8-0.2-6.2,0.9-7.7,6.2
			c-0.1,0.2-0.1,0.3-0.1,0.4c-1.8,6.3-2.1,5.2-7.7,5.1c-2.5,0-4-0.9-3.8-3.7c0.3-3.2,1.1-6.2,2.3-9.1c4-10.3,7-20.3,9.9-31
			c1.2-4.3,1.2-4.5,5-4.3c0.7,0.1,1.3,0,2,0v0.1c3.5-0.2,7-0.5,10.7-0.5c4,0,4.8,0.8,5.7,5.1c0.8,3.2,1.8,5.4,3.1,8.3
			c1.1,2.6,1.9,5.3,2.6,8c1.4,5.1,2.8,10.1,4.8,15c1.1,2.9,2.6,5.4,3.2,8.5c0.6,3.5-2.7,3.8-5.9,3.9
			C395.4,231,394.7,229.5,392.9,223.8z M385.9,209.2c2.8-0.5,1.1-2.4,0.7-7.1c-0.3-2.9-1.5-7.1-3-8c-1.7-0.7-4.8-0.5-6.2,0.3
			c-1.4,0.8-1.7,5.9-2.6,7.8c-2.6,5.8-2.5,7.4,3.6,7.3C379.4,209.4,384.5,209.5,385.9,209.2z"/>
		<path class="st0" d="M416.2,230.6c-3.2,0.4-1.9-12.8-2.2-16.9c0.7-7.4,0.7-14.7-0.2-22.2c-0.2-2.2,0.1-4.5,0.3-6.7
			c0.2-1.4,0.4-2.2,1.6-2.8c1.8-0.8,5.9-0.9,7-0.3c1.8,1.1,2.6,3,2.2,5.3c-1,5.8-0.3,12.5-0.4,18.3c0,3.4,0.3,9.8,0.4,13.3
			c0.1,2.6,7.1,1.2,9.2,1.6c1.5,0.4,3.2,0.3,4.8,0.2c2.5-0.1,4.3,0.9,5.4,3.6c1.1,2.8,0.5,3.4-1,5.9c-0.2,0.3-0.7,0.8-0.9,0.7
			c-2.6-1-5.1,0.9-7.7,0.1C430.8,229.6,420.2,230.2,416.2,230.6z"/>
		<path class="st0" d="M452.3,225.1c-1.1-1.1-2.1-2.2-3.1-3.3c-1.8-2.1,2.6-8.6,4.4-8.5c1.8,0.2,2.7,2.3,4,3.5
			c2.1,2,5.2,4.8,8.2,5.2c1.5,0,3.6-0.1,4.5-2.1c1.1-1.2,1.5-4.1-0.5-5.9c-5.6-5.1-12.3-6.5-16.3-12.1c-1.6-2.3-2.3-6.5-1.7-9.5
			c0.6-3.6,2.5-7.7,6.9-10.1c3.4-2,13.2-2.2,18.9,2.6c2.6,2.1,2.9,4.7,0.9,7.7c-1.4,2.1-3.3,2.6-5.1,1c-1.8-1.6-4.1-2.2-6.2-3.2
			c-1.6-0.6-3.9-0.6-5,1.1c-1,1.4-1.7,4.1-0.4,5.3c3.4,3.6,8.9,4.7,12.5,7.9c1.8,1.5,9.6,6.7,6.2,16.8c-1.8,5.6-4.7,10-13.8,10.9
			C460.8,233,455,228.2,452.3,225.1z"/>
	</g>
	<g>
		<g>
			<path class="st0" d="M393.8,266.5c-4,0.1-8.1,0.2-12.2,0.3c1.4-0.9,2.9-1.6,4.4-2.3c1.9-0.9,3.9-1.8,5.6-3.1
				c0.8-0.6,0.7-1.3,0.4-1.7c-0.5-0.7-1.8-0.9-2.7-0.3l0,0c-1.7,1.2-3.6,2.1-5.5,3c-2.2,1-4.4,2.1-6.4,3.7c-0.2,0.2-0.4,0.4-0.5,0.7
				c-3.8,0-7.5,0-11.3,0c-0.1-0.1-0.1-0.1-0.2-0.2c0.6-0.4,1.3-0.7,1.9-1.1c2.4-1.4,4.9-2.9,7.5-3.5c0.7-0.2,1.2-0.5,1.3-0.9
				c0.1-0.2,0-0.5-0.1-0.7c-0.3-0.3-0.9-0.4-1.6-0.2c-3.1,0.7-6,2.4-8.8,4c-1.1,0.6-2.2,1.3-3.3,1.8c-0.4,0.2-0.7,0.4-0.7,0.7
				c-4.3,0-8.6-0.1-12.9-0.1c-0.8,0-1.5,0-2.3,0c0.6-0.4,1.4-1,2.7-1.7c0.1-0.1,0.3-0.2,0.4-0.2c1.7-1,3.9-2.2,6.2-3
				c0.7-0.2,1.2-0.6,1.3-1.1c0.1-0.3,0-0.6-0.2-0.8c-0.3-0.3-0.9-0.4-1.6-0.1l0,0c-4.5,1.4-9,3.9-12.3,6.8
				c-5.2-0.1-10.5-0.1-15.7-0.1l0,0c-0.5,0-2.1,0.6-2.4,1.1c-0.1,0.2-0.1,0.4,0,0.5c0.2,0.3,0.6,0.3,0.7,0.3
				c5.4,0,10.8,0.1,16.2,0.1l0.1,0.1c3.1,2.5,5.8,5.7,7.7,9.2c0.1,0.2,0.4,0.5,1.1,0.6c0,0,0,0,0.1,0c0.8,0,1.8-0.4,2.1-0.9
				c0.1-0.2,0.2-0.5,0-0.7c-1.5-2.9-3.7-5.7-6.3-8.2c0.2,0,0.5,0,0.8,0c5.2,0.1,10.6,0.1,15.9,0.1c1.1,1.2,2.1,2.4,3.2,3.6
				c1.4,1.7,2.9,3.4,4.6,5c0.2,0.2,0.5,0.2,0.8,0.2c0.8,0,1.8-0.5,2.2-0.8c0.3-0.4,0.2-0.7,0-1c-1.6-1.5-3.1-3.2-4.5-4.9
				c-0.6-0.7-1.2-1.4-1.8-2.1c0.8,0,1.5,0,2.3,0c2.8,0,5.6,0,8.3,0c1.4,1.1,2.7,2.3,4,3.5c1.3,1.3,2.7,2.7,4.3,3.8
				c0.3,0.2,0.6,0.3,0.9,0.3c0.7,0,1.5-0.4,1.8-0.9c0.4-0.6,0.3-1.2-0.3-1.6c-1.5-1.1-2.9-2.4-4.2-3.7c-0.5-0.5-1-1-1.5-1.4
				c3.2-0.1,6.3-0.1,9.5-0.2c0.4,0,2.2-0.6,2.2-1.3C394.9,266.7,394.5,266.5,393.8,266.5z"/>
			<path class="st0" d="M401.6,266.9L401.6,266.9c0-0.3,0.1-0.6,0.1-1c0-0.1,0-0.8-1.1-0.8c-0.9,0-2.3,0.5-2.4,1.4l0,0
				c0,0.2,0,0.4-0.1,0.5c0,0.4-0.1,0.8,0,1.2c0.1,0.3,0.3,0.8,1.3,0.8c0.1,0,0.3,0,0.4,0c0.7-0.1,1.3-0.4,1.8-0.8
				c0.3-0.3,0.4-0.7,0.3-1C401.9,267.2,401.8,267,401.6,266.9z"/>
			<path class="st0" d="M409.9,265.9c-1.1-0.3-2.3-0.1-3.2,0.6c-0.1,0.1-0.2,0.1-0.3,0.2H406l0.2,0.1c0,0,0,0-0.1,0.1
				c-0.5,0.5-0.7,0.9-0.8,1.3c0,0.3,0.1,0.5,0.2,0.7c0.3,0.3,0.8,0.4,1,0.4l0,0c1.7,0,2.9-0.5,3.4-1.3c0.1-0.1,0.1-0.2,0.2-0.4
				c0.1,0,0.1-0.1,0.2-0.1c0.4-0.4,0.4-0.7,0.4-0.9C410.6,266.3,410.3,266.1,409.9,265.9z"/>
			<path class="st0" d="M418.9,267.4c-0.1-0.3-0.2-0.6-0.4-0.8h0.1h-0.1c-0.1-0.1-0.2-0.2-0.2-0.3c-0.1-0.2-0.2-0.4-0.4-0.6
				c-0.1-0.1-0.2-0.2-0.3-0.3l-0.4-0.4l-0.1,0.1c-0.5-0.2-1.1-0.2-1.7,0.1c-0.3,0.2-0.9,0.6-1,1.2c0,0.1,0,0.2,0,0.3
				c-0.2,0.4-0.1,0.9,0.2,1.2l0.1,0.1c0,0.2,0,0.4,0.2,0.6c0.4,0.5,1.3,0.6,1.5,0.6h0.8c0.4,0,1.3-0.3,1.7-0.9
				C419,268,419,267.7,418.9,267.4z"/>
		</g>
		<g>
			<path class="st0" d="M205.3,266.7c4,0.1,8.1,0.2,12.2,0.3c-1.4-0.9-2.9-1.6-4.4-2.3c-1.9-0.9-3.9-1.8-5.6-3.1
				c-0.8-0.6-0.7-1.3-0.4-1.7c0.5-0.7,1.8-0.9,2.7-0.3l0,0c1.7,1.2,3.6,2.1,5.5,3c2.2,1,4.4,2.1,6.4,3.7c0.2,0.2,0.4,0.4,0.5,0.7
				c3.8,0,7.5,0,11.3,0c0.1-0.1,0.1-0.1,0.2-0.2c-0.6-0.4-1.3-0.7-1.9-1.1c-2.4-1.4-4.9-2.9-7.5-3.5c-0.7-0.2-1.2-0.5-1.3-0.9
				c-0.1-0.2,0-0.5,0.1-0.7c0.3-0.3,0.9-0.4,1.6-0.2c3.1,0.7,6,2.4,8.8,4c1.1,0.6,2.2,1.3,3.3,1.8c0.4,0.2,0.7,0.4,0.7,0.7
				c4.3,0,8.6-0.1,12.9-0.1c0.8,0,1.5,0,2.3,0c-0.6-0.4-1.4-1-2.7-1.7c-0.1-0.1-0.3-0.2-0.4-0.2c-1.7-1-3.9-2.2-6.2-3
				c-0.7-0.2-1.2-0.6-1.3-1.1c-0.1-0.3,0-0.6,0.2-0.8c0.3-0.3,0.9-0.4,1.6-0.1l0,0c4.5,1.4,9,3.9,12.3,6.8
				c5.2-0.1,10.5-0.1,15.7-0.1l0,0c0.5,0,2.1,0.6,2.4,1.1c0.1,0.2,0.1,0.4,0,0.5c-0.2,0.3-0.6,0.3-0.7,0.3c-5.4,0-10.8,0.1-16.2,0.1
				l-0.1,0.1c-3.1,2.5-5.8,5.7-7.7,9.2c-0.1,0.2-0.4,0.5-1.1,0.6c0,0,0,0-0.1,0c-0.8,0-1.8-0.4-2.1-0.9c-0.1-0.2-0.2-0.5,0-0.7
				c1.5-2.9,3.7-5.7,6.3-8.2c-0.2,0-0.5,0-0.8,0c-5.2,0.1-10.6,0.1-15.9,0.1c-1.1,1.2-2.1,2.4-3.2,3.6c-1.4,1.7-2.9,3.4-4.6,5
				c-0.2,0.2-0.5,0.2-0.8,0.2c-0.8,0-1.8-0.5-2.2-0.8c-0.3-0.4-0.2-0.7,0-1c1.6-1.5,3.1-3.2,4.5-4.9c0.6-0.7,1.2-1.4,1.8-2.1
				c-0.8,0-1.5,0-2.3,0c-2.8,0-5.6,0-8.3,0c-1.4,1.1-2.7,2.3-4,3.5c-1.3,1.3-2.7,2.7-4.3,3.8c-0.3,0.2-0.6,0.3-0.9,0.3
				c-0.7,0-1.5-0.4-1.8-0.9c-0.4-0.6-0.3-1.2,0.3-1.6c1.5-1.1,2.9-2.4,4.2-3.7c0.5-0.5,1-1,1.5-1.4c-3.2-0.1-6.3-0.1-9.5-0.2
				c-0.4,0-2.2-0.6-2.2-1.3C204.2,266.9,204.6,266.7,205.3,266.7z"/>
			<path class="st0" d="M197.5,267.1L197.5,267.1c0-0.3-0.1-0.6-0.1-1c0-0.1,0-0.8,1.1-0.8c0.9,0,2.3,0.5,2.4,1.4l0,0
				c0,0.2,0,0.4,0.1,0.5c0,0.4,0.1,0.8,0,1.2c-0.1,0.3-0.3,0.8-1.3,0.8c-0.1,0-0.3,0-0.4,0c-0.7-0.1-1.3-0.4-1.8-0.8
				c-0.3-0.3-0.4-0.7-0.3-1C197.1,267.5,197.2,267.3,197.5,267.1z"/>
			<path class="st0" d="M189.2,266.2c1.1-0.3,2.3-0.1,3.2,0.6c0.1,0.1,0.2,0.1,0.3,0.2h0.4l-0.2,0.1c0,0,0,0,0.1,0.1
				c0.5,0.5,0.7,0.9,0.8,1.3c0,0.3-0.1,0.5-0.2,0.7c-0.3,0.3-0.8,0.4-1,0.4l0,0c-1.7,0-2.9-0.5-3.4-1.3c-0.1-0.1-0.1-0.2-0.2-0.4
				c-0.1,0-0.1-0.1-0.2-0.1c-0.4-0.4-0.4-0.7-0.4-0.9C188.5,266.6,188.7,266.3,189.2,266.2z"/>
			<path class="st0" d="M180.1,267.6c0.1-0.3,0.2-0.6,0.4-0.8h-0.1h0.1c0.1-0.1,0.2-0.2,0.2-0.3c0.1-0.2,0.2-0.4,0.4-0.6
				c0.1-0.1,0.2-0.2,0.3-0.3l0.4-0.4l0.1,0.1c0.5-0.2,1.1-0.2,1.7,0.1c0.3,0.2,0.9,0.6,1,1.2c0,0.1,0,0.2,0,0.3
				c0.2,0.4,0.1,0.9-0.2,1.2l-0.1,0.1c0,0.2,0,0.4-0.2,0.6c-0.4,0.5-1.3,0.6-1.5,0.6h-0.8c-0.4,0-1.3-0.3-1.7-0.9
				C180.1,268.3,180,267.9,180.1,267.6z"/>
		</g>
		<g>
			<g>
				<g>
					<path class="st0" d="M314.1,250.4c-0.3-0.3-0.7-0.3-1,0l-7.1,7.1c-0.3,0.3-0.3,0.7,0,1c0.1,0.1,0.3,0.2,0.5,0.2
						s0.4-0.1,0.5-0.2l7.1-7.1C314.4,251.1,314.4,250.6,314.1,250.4z"/>
				</g>
			</g>
			<g>
				<g>
					<path class="st0" d="M316,252.3c-0.3-0.3-0.7-0.3-1,0l-7.1,7.1c-0.3,0.3-0.3,0.7,0,1c0.1,0.1,0.3,0.2,0.5,0.2s0.4-0.1,0.5-0.2
						l7.1-7.1C316.3,253,316.3,252.5,316,252.3z"/>
				</g>
			</g>
			<g>
				<g>
					<path class="st0" d="M309.3,264.3l8.8-8.8c0.3-0.3,0.3-0.7,0-1s-0.7-0.3-1,0l-8.8,8.8c-1.1,1.1-2.8,1.4-4.1,0.7
						c-0.3-0.1-0.6-0.1-0.8,0.2l-3,3.4l0,0l0,0l-13,14.6l0,0c0,0.1-0.1,0.1-0.1,0.1c-0.9,0.9-2.3,0.9-3.1,0c-0.4-0.4-0.6-1-0.6-1.6
						s0.2-1.1,0.6-1.6l0.1-0.1l0,0l8.1-7.2c0.3-0.3,0.3-0.7,0.1-1c-0.3-0.3-0.7-0.3-1-0.1l-8.1,7.2c-0.1,0.1-0.1,0.1-0.2,0.2
						c-0.7,0.7-1,1.6-1,2.5c0,1,0.4,1.9,1,2.5c0.7,0.7,1.6,1,2.5,1s1.8-0.3,2.5-1c0.1-0.1,0.1-0.1,0.2-0.2l9.9-11.1l9.9,11.1
						c0.1,0.1,0.1,0.1,0.2,0.2c0.7,0.7,1.6,1,2.5,1s1.8-0.3,2.5-1c1.4-1.4,1.4-3.7,0-5c-0.1-0.1-0.1-0.1-0.2-0.2l-11.3-9.9l2.2-2.5
						C305.9,266.1,308,265.7,309.3,264.3z M312.4,279.1L312.4,279.1c0.1,0.1,0.1,0.1,0.1,0.1c0.9,0.9,0.9,2.3,0,3.1
						c-0.9,0.9-2.3,0.9-3.1,0l-0.1-0.1l0,0l-10-11.3l1.7-1.9L312.4,279.1z"/>
				</g>
			</g>
			<g>
				<g>
					<path class="st0" d="M312,248.4c-0.3-0.3-0.7-0.3-1,0l-8.8,8.8c-1.4,1.4-1.8,3.4-1.2,5.2l-2.7,2.4l-2.6-2.3
						c1.4-2.7,0.9-5.9-1.3-8c-2.1-2.1-4.6-3.6-6.9-4.2c-2.5-0.6-4.6-0.2-5.9,1.2c-1.4,1.4-1.8,3.5-1.2,5.9c0.6,2.3,2.1,4.8,4.2,6.9
						s5.4,2.6,8,1.3l2.6,2.9c0.1,0.2,0.3,0.2,0.5,0.2s0.3-0.1,0.5-0.2l6.1-5.4c0.2-0.2,0.3-0.5,0.2-0.8c-0.7-1.4-0.4-3.1,0.7-4.1
						l8.8-8.8C312.3,249.1,312.3,248.6,312,248.4z M295.8,267.1l-2.5-2.8c-0.2-0.2-0.6-0.3-0.9-0.1c-2.2,1.4-5,1-6.8-0.8
						c-2-2-3.3-4.2-3.9-6.3c-0.5-2-0.2-3.6,0.8-4.6s2.7-1.3,4.6-0.8c2.1,0.5,4.4,1.9,6.3,3.9c1.8,1.8,2.2,4.6,0.8,6.8
						c-0.2,0.3-0.1,0.7,0.1,0.9l2.9,2.6L295.8,267.1z"/>
				</g>
			</g>
		</g>
	</g>
</g>
</svg>
