<?xml version="1.0" encoding="utf-8"?>
<!-- Generator: Adobe Illustrator 25.0.1, SVG Export Plug-In . SVG Version: 6.00 Build 0)  -->
<svg version="1.1" id="Layer_1" xmlns="http://www.w3.org/2000/svg" xmlns:xlink="http://www.w3.org/1999/xlink" x="0px" y="0px"
	 viewBox="0 0 297.6 99.2" style="enable-background:new 0 0 297.6 99.2;" xml:space="preserve">
<style type="text/css">
	.st0{fill:#8796AF;}
</style>
<g id="New_Symbol">
</g>
<g>
	<g>
		<path class="st0" d="M20.9,32.3c7.2,0,12.6,3.4,15.4,7.2V33h9.3v45c0,12.1-7.8,21.2-21.6,21.2c-11.8,0-20.6-5.9-21.7-15.7h9.1
			c1.4,4.6,6.3,7.7,12.6,7.7c7.1,0,12.4-4.3,12.4-13.2v-7.4c-2.8,3.8-8.1,7.4-15.4,7.4C9.3,78,0,68.6,0,54.9
			C0,41.3,9.3,32.3,20.9,32.3z M22.8,40.2c-6.8,0-13.4,5.1-13.4,14.7c0,9.6,6.6,15.1,13.4,15.1c6.9,0,13.4-5.4,13.4-15
			C36.3,45.6,29.8,40.2,22.8,40.2z"/>
		<path class="st0" d="M74.4,78c-12.6,0-22.2-9-22.2-22.9s10-22.8,22.6-22.8c12.6,0,22.6,8.9,22.6,22.8S87.1,78,74.4,78z M74.4,70.1
			c6.8,0,13.6-4.9,13.6-15s-6.5-14.9-13.4-14.9c-6.9,0-13.1,4.8-13.1,14.9S67.5,70.1,74.4,70.1z"/>
		<path class="st0" d="M104.1,17.8h9.2v59.5h-9.2V17.8z"/>
		<path class="st0" d="M140.9,32.3c5.8,0,11.9,2.7,15.3,6.9V17.8h9.3v59.5h-9.3v-6.7c-2.8,4-8.1,7.4-15.4,7.4
			c-11.7,0-20.9-9.4-20.9-23.1C119.9,41.3,129.1,32.3,140.9,32.3z M142.7,40.2c-6.8,0-13.4,5.1-13.4,14.7c0,9.6,6.6,15.1,13.4,15.1
			c6.9,0,13.4-5.4,13.4-15C156.1,45.6,149.6,40.2,142.7,40.2z"/>
		<path class="st0" d="M178.6,40.5h-5.2V33h5.2v-3.1c0-10.2,5.2-14.6,16.8-14.6v7.6c-5.6,0-7.6,1.9-7.6,7V33h8.2v7.5h-8.2v36.8h-9.3
			V40.5z"/>
		<path class="st0" d="M222,32.3c7.5,0,12.6,3.5,15.4,7.2V33h9.3v44.3h-9.3v-6.6c-2.8,3.8-8.1,7.3-15.5,7.3
			c-11.5,0-20.8-9.4-20.8-23.1C201.1,41.3,210.4,32.3,222,32.3z M224,40.2c-6.8,0-13.4,5.1-13.4,14.7c0,9.6,6.6,15.1,13.4,15.1
			c6.9,0,13.4-5.4,13.4-15C237.4,45.6,230.9,40.2,224,40.2z"/>
		<path class="st0" d="M260.2,40.5h-5.2V33h5.2V22h9.3v11h10.8v7.5h-10.8V65c0,3.3,1.3,4.7,5.1,4.7h5.6v7.6h-7.2
			c-7.9,0-12.8-3.3-12.8-12.3V40.5z"/>
	</g>
	<g>
		<polygon class="st0" points="288.5,0 281.7,0 281.7,9.3 288.5,9.3 288.5,25.2 297.6,25.2 297.6,9.3 297.6,0 		"/>
	</g>
</g>
</svg>
