<svg id="Layer_1" data-name="Layer 1" xmlns="http://www.w3.org/2000/svg" viewBox="0 0 29.51 42.61"><defs><style>.cls-1{fill:none;}.cls-2{fill:#643cf5;}</style></defs><title>Growfox-G-Purple</title><path class="cls-1" d="M23.56,14.66A9,9,0,0,1,14.61,24c-4.81,0-8.72-4.09-8.72-9.32a8.78,8.78,0,0,1,8.72-9.13A9,9,0,0,1,23.56,14.66Z"/><path class="cls-2" d="M23.62.72V4.81C21.7,1.68,17.79,0,13.88,0,6.31,0,0,5.77,0,14.72a15.43,15.43,0,0,0,3,9.44l1.13,1.32a13.62,13.62,0,0,0,9.8,4c3.73,0,7.76-1.74,9.68-4.81v.72c0,3.78-.67,6.55-1.88,8.5-1.56,2.51-4,3.63-7.18,3.74l4.24,5A12.45,12.45,0,0,0,26,38.14c2.27-2.93,3.54-7.23,3.54-13.2V.72ZM14.61,24c-4.81,0-8.72-4.09-8.72-9.32a8.78,8.78,0,0,1,8.72-9.13,9,9,0,0,1,9,9.13A9,9,0,0,1,14.61,24Z"/></svg>