<svg id="Layer_1" data-name="Layer 1" xmlns="http://www.w3.org/2000/svg" viewBox="0 0 214.35 57.16"><defs><style>.cls-1{fill:#262626;}.cls-2{fill:#643cf5;}.cls-3{fill:none;}</style></defs><title>Growfox-Logo-2020</title><path class="cls-1" d="M53.92,15.57l-1,5.59a10,10,0,0,0-4.14-1c-5.11,0-7.52,5.47-7.52,13.05V43.33H35.28V15.27h5.95v6.31c1.45-4.93,4.27-7,7.88-7A10.87,10.87,0,0,1,53.92,15.57Z"/><path class="cls-1" d="M55.3,29.27A14.34,14.34,0,0,1,70,14.55c8,0,14.79,5.83,14.79,14.72a14.76,14.76,0,1,1-29.51,0Zm23.62,0a8.87,8.87,0,1,0-17.73,0,8.87,8.87,0,1,0,17.73,0Z"/><path class="cls-1" d="M123.88,15.27h6.37L120,43.33h-5L107.71,23.2l-7,20.13H95.81L85.17,15.27h6.37l6.74,19.17L105,15.27h5.53l6.73,19.17Z"/><path class="cls-2" d="M155.14,29.27a14.34,14.34,0,0,1,14.73-14.72c8,0,14.78,5.83,14.78,14.72a14.76,14.76,0,1,1-29.51,0Zm23.62,0a8.87,8.87,0,1,0-17.73,0,8.87,8.87,0,1,0,17.73,0Z"/><path class="cls-2" d="M214.35,43.33h-7L199.8,32.82l-7.57,10.51h-7L196.37,28l-9.19-12.68h7.15l5.47,7.87,5.53-7.87h7.09L203.23,28Z"/><path class="cls-2" d="M139.09,12.62v2.65h-5.41v4.92h5.41V43.33H145V20.19h6.43V15.27H145V12a10,10,0,0,1,.23-2.42l-4.43-4.7A16.08,16.08,0,0,0,139.09,12.62Z"/><path class="cls-2" d="M153.16,5.53V0H150a12,12,0,0,0-5.61,1.23L149,5.78a8.64,8.64,0,0,1,2.15-.25Z"/><path class="cls-2" d="M140.78,4.84l4.43,4.7A4.72,4.72,0,0,1,149,5.78l-4.54-4.55A8.85,8.85,0,0,0,140.78,4.84Z"/><path class="cls-3" d="M23.56,29.21a9,9,0,0,1-8.95,9.32c-4.81,0-8.72-4.09-8.72-9.32a8.78,8.78,0,0,1,8.72-9.13A9,9,0,0,1,23.56,29.21Z"/><path class="cls-1" d="M23.62,15.27v4.09c-1.92-3.13-5.83-4.81-9.74-4.81C6.31,14.55,0,20.32,0,29.27a15.43,15.43,0,0,0,3,9.44L4.14,40a13.62,13.62,0,0,0,9.8,4c3.73,0,7.76-1.74,9.68-4.81V40c0,3.78-.67,6.55-1.88,8.5-1.56,2.51-4,3.63-7.18,3.74l4.24,4.95A12.45,12.45,0,0,0,26,52.69c2.27-2.93,3.54-7.23,3.54-13.2V15.27Zm-9,23.26c-4.81,0-8.72-4.09-8.72-9.32a8.78,8.78,0,0,1,8.72-9.13,9,9,0,0,1,9,9.13A9,9,0,0,1,14.61,38.53Z"/></svg>