<?xml version="1.0" encoding="utf-8"?>
<!-- Generator: Adobe Illustrator 21.1.0, SVG Export Plug-In . SVG Version: 6.00 Build 0)  -->
<svg version="1.1" id="Capa_1" xmlns="http://www.w3.org/2000/svg" xmlns:xlink="http://www.w3.org/1999/xlink" x="0px" y="0px"
	 viewBox="0 0 441.1 88.3" style="enable-background:new 0 0 441.1 88.3;" xml:space="preserve">
<style type="text/css">
	.st0{fill:#8796AF;}
</style>
<g>
	<path class="st0" d="M87.3,37.6c-0.6-0.9-1.2-1.8-1.5-2.7c0-1.2,0-2.1,0.3-3.3c0.6-2.4,0.6-4.8-0.3-6.9c-1.2-2.1-3.1-3.7-5.4-4.5
		c-0.9-0.3-1.8-1.2-2.7-1.8c-0.6-0.9-0.9-1.8-1.2-3c-0.3-2.4-1.5-4.5-3.3-6.3c-2.1-1.2-4.5-2.1-6.6-1.8c-1.1,0-2.2-0.2-3.3-0.6
		c-0.9-0.6-1.5-1.5-2.1-2.4c-1.5-2.1-3.3-3.6-5.7-4.2c-2.4-0.3-4.8,0-6.9,1.2c-0.9,0.6-2.1,0.9-3.3,1.2c-1.2-0.3-2.1-0.6-3.3-0.9
		c-2.1-1.2-4.5-1.5-6.9-1.2c-2.4,0.6-4.2,2.1-5.7,4.2c-0.6,0.9-1.5,1.5-2.4,2.1C25.9,6.9,24.8,7,23.7,7c-2.4,0-4.8,0.6-6.6,1.8
		c-2.1,1.8-3,3.9-3.6,6.3c-0.3,1.2-0.6,2.1-1.2,3c-0.8,0.7-1.7,1.3-2.7,1.8c-2.2,1-4.1,2.7-5.4,4.8c-0.9,2.1-0.9,4.5-0.3,6.9
		c0.3,1.2,0.3,2.1,0.3,3.3c-0.3,1-0.8,2-1.5,2.7C1,39.4,0,41.7,0,44.2c0.3,2.4,1.2,4.8,2.7,6.6c0.6,0.9,1.2,1.8,1.5,2.7
		c0,1.2,0,2.1-0.3,3.3c-0.6,2.4-0.6,4.8,0.3,6.9c1.2,2.1,3.1,3.7,5.4,4.5c0.9,0.3,1.8,1.2,2.7,1.8c0.6,0.9,0.9,1.8,1.2,3
		c0.3,2.4,1.5,4.5,3.3,6.3c2.1,1.2,4.5,2.1,6.6,1.8c1.2,0,2.1,0,3.3,0.6c0.9,0.6,1.7,1.3,2.4,2.1c1.5,2.1,3.3,3.6,5.7,4.2
		c2.4,0.3,4.8,0,6.9-1.2c1-0.6,2.1-0.9,3.3-0.9c1.2,0.3,2.1,0.6,3.3,0.9c1.8,0.9,3.6,1.2,5.4,1.5c0.5,0,1-0.1,1.5-0.3
		c2.4-0.6,4.2-2.1,5.7-4.2c0.6-0.9,1.5-1.5,2.4-2.1c1.2-0.3,2.1-0.6,3.3-0.6c2.4,0,4.8-0.6,6.6-1.8c1.8-1.8,3-3.9,3.3-6.3
		c0.3-1.2,0.6-2.1,1.2-3c0.9-0.6,1.8-1.5,2.7-1.8c2.1-0.9,4.2-2.4,5.4-4.5c0.9-2.1,0.9-4.8,0.3-6.9c-0.3-1.2-0.3-2.1-0.3-3.3
		c0.3-0.9,0.9-1.8,1.5-2.7h0c1.5-1.8,2.7-4.2,2.7-6.6C89.7,41.8,88.8,39.4,87.3,37.6z M45,81.2c-20.5,0-37.1-16.6-37.1-37.1
		C7.9,23.7,24.5,7.1,45,7.1c20.5,0,37.1,16.6,37.1,37.1C82.1,64.6,65.5,81.2,45,81.2z"/>
</g>
<g>
	<path class="st0" d="M78.2,44c-0.1-18.3-15-33.1-33.3-33.1c-18.3,0.1-33.1,15-33.1,33.3c0.1,18.3,15,33.1,33.3,33.1c0,0,0,0,0,0
		C63.4,77.2,78.2,62.4,78.2,44C78.2,44,78.2,44,78.2,44z M45.5,72.9C29.5,73,16.5,60,16.4,44c-0.1-16,12.9-29.1,28.9-29.1
		c16,0,29.1,12.9,29.1,28.9C74.5,59.8,61.6,72.9,45.5,72.9z"/>
</g>
<g>
	<path class="st0" d="M56.7,46.3L49.4,49l-2,0.7l-1,0.4c-0.6,0.2-1.3,0.2-2,0l-1-0.4l-2-0.7l-4.2-1.5l-3.1-1.1l-1.4-0.5v5.1
		c0,1.9,1.2,3.7,3.7,5.2c0.1,0.1,0.3,0.1,0.4,0.2c2.1,1,4.4,1.6,6.7,1.8c1.2,0.1,2.3,0.1,3.5,0c2.3-0.3,4.6-0.9,6.7-1.8
		c0.1-0.1,0.3-0.1,0.4-0.2c2.5-1.4,3.7-3.3,3.7-5.2v-5.1L56.7,46.3z"/>
	<g>
		<polygon class="st0" points="47.5,30.2 47.9,30.3 48,30.4 		"/>
		<path class="st0" d="M66.6,37.1L66.6,37.1l-4.4-1.6l-4-1.4L53,32.2l2,0.7l-5.6-2.1l-1.5-0.5l-0.5-0.2l-1-0.4c-0.6-0.2-1.3-0.2-2,0
			l-1,0.4l-2,0.7l-5.6,2.1l-4,1.4l-7.6,2.8c-1.1,0.4-1.1,1,0,1.4l7.6,2.8l4,1.4l5.6,2.1l2,0.7l1,0.4c0.6,0.2,1.3,0.2,2,0l1-0.4
			l0.2-0.1l-0.2,0.1l2-0.7l4.5-1.6l6-2.2l1.5-0.6v10.4c0,1.1,0.9,2.1,2.1,2.1c1.1,0,2.1-0.9,2.1-2.1V38.9l1-0.4
			C67.6,38.2,67.6,37.5,66.6,37.1z M47.3,39c-1.2,0.6-2.7,0.6-3.9,0c-1.1-0.6-1.1-1.6,0-2.2c1.2-0.6,2.7-0.6,3.9,0
			C48.4,37.4,48.4,38.4,47.3,39z"/>
	</g>
</g>
<g>
	<path class="st0" d="M111.8,30.9h6.1v27.6h-6.1V30.9z"/>
	<path class="st0" d="M122.7,39.6h5.6v2.6h0.1c0.2-0.4,0.4-0.7,0.8-1.1c0.3-0.4,0.7-0.7,1.2-1s1-0.5,1.6-0.7
		c0.6-0.2,1.2-0.3,1.9-0.3c1.5,0,2.7,0.2,3.6,0.7c0.9,0.5,1.6,1.1,2.1,1.9c0.5,0.8,0.9,1.8,1,2.8c0.2,1.1,0.3,2.3,0.3,3.5v10.5h-5.8
		v-9.3c0-0.5,0-1.1-0.1-1.7s-0.2-1.1-0.4-1.6c-0.2-0.5-0.5-0.9-0.9-1.2c-0.4-0.3-1-0.5-1.7-0.5c-0.8,0-1.4,0.1-1.8,0.4
		c-0.5,0.3-0.8,0.6-1.1,1.1c-0.2,0.5-0.4,1-0.5,1.5c-0.1,0.6-0.1,1.2-0.1,1.8v9.4h-5.9V39.6z"/>
	<path class="st0" d="M145.7,29h5.9v12.6h0.1c0.7-0.9,1.5-1.6,2.6-1.9c1.1-0.4,2.2-0.6,3.4-0.6c1.4,0,2.6,0.3,3.6,0.8
		c1.1,0.6,2,1.3,2.7,2.2c0.7,0.9,1.3,2,1.7,3.2c0.4,1.2,0.6,2.5,0.6,3.8c0,1.4-0.2,2.7-0.7,3.9c-0.4,1.2-1.1,2.2-1.9,3.1
		c-0.8,0.9-1.8,1.5-2.9,2c-1.1,0.5-2.4,0.7-3.8,0.7c-0.7,0-1.3-0.1-1.9-0.3c-0.6-0.2-1.2-0.4-1.7-0.7s-0.9-0.6-1.3-1s-0.7-0.7-0.9-1
		H151v2.5h-5.4V29z M151,49c0,1.4,0.4,2.6,1.2,3.5c0.8,0.9,2,1.3,3.5,1.3c1.5,0,2.6-0.4,3.5-1.3c0.8-0.9,1.2-2,1.2-3.5
		c0-1.4-0.4-2.6-1.2-3.5c-0.8-0.9-2-1.3-3.5-1.3c-1.5,0-2.6,0.4-3.5,1.3C151.4,46.4,151,47.6,151,49z"/>
	<path class="st0" d="M169,49c0-1.5,0.3-2.9,0.8-4.1s1.3-2.3,2.2-3.1s2.1-1.5,3.4-2c1.3-0.5,2.7-0.7,4.1-0.7c1.5,0,2.8,0.2,4.1,0.7
		c1.3,0.5,2.4,1.1,3.4,2s1.7,1.9,2.2,3.1s0.8,2.6,0.8,4.1c0,1.5-0.3,2.9-0.8,4.1s-1.3,2.3-2.2,3.1c-0.9,0.9-2.1,1.5-3.4,2
		c-1.3,0.5-2.7,0.7-4.1,0.7c-1.5,0-2.8-0.2-4.1-0.7c-1.3-0.5-2.4-1.1-3.4-2c-0.9-0.9-1.7-1.9-2.2-3.1S169,50.5,169,49z M174.8,49
		c0,1.4,0.4,2.6,1.2,3.5c0.8,0.9,2,1.3,3.5,1.3s2.6-0.4,3.5-1.3c0.8-0.9,1.2-2,1.2-3.5c0-1.4-0.4-2.6-1.2-3.5
		c-0.8-0.9-2-1.3-3.5-1.3s-2.6,0.4-3.5,1.3C175.2,46.4,174.8,47.6,174.8,49z"/>
	<path class="st0" d="M211.7,58.5h-5.6v-2.6H206c-0.2,0.4-0.5,0.7-0.8,1.1c-0.3,0.4-0.7,0.7-1.2,1c-0.5,0.3-1,0.5-1.6,0.7
		c-0.6,0.2-1.2,0.3-2,0.3c-1.5,0-2.7-0.2-3.6-0.7c-0.9-0.5-1.6-1.1-2.1-1.9c-0.5-0.8-0.8-1.8-1-2.8c-0.2-1.1-0.3-2.3-0.3-3.5V39.6
		h5.9v9.3c0,0.5,0,1.1,0.1,1.7s0.2,1.1,0.4,1.6c0.2,0.5,0.5,0.9,0.9,1.2c0.4,0.3,1,0.5,1.7,0.5c0.8,0,1.4-0.1,1.8-0.4
		s0.8-0.6,1.1-1.1c0.2-0.5,0.4-1,0.5-1.5c0.1-0.6,0.1-1.2,0.1-1.8v-9.4h5.8V58.5z"/>
	<path class="st0" d="M215.9,39.6h5.6v2.6h0.1c0.2-0.4,0.4-0.7,0.8-1.1c0.3-0.4,0.7-0.7,1.2-1s1-0.5,1.6-0.7
		c0.6-0.2,1.2-0.3,1.9-0.3c1.5,0,2.7,0.2,3.6,0.7c0.9,0.5,1.6,1.1,2.1,1.9c0.5,0.8,0.9,1.8,1,2.8c0.2,1.1,0.3,2.3,0.3,3.5v10.5h-5.8
		v-9.3c0-0.5,0-1.1-0.1-1.7s-0.2-1.1-0.4-1.6c-0.2-0.5-0.5-0.9-0.9-1.2c-0.4-0.3-1-0.5-1.7-0.5c-0.8,0-1.4,0.1-1.8,0.4
		c-0.5,0.3-0.8,0.6-1.1,1.1c-0.2,0.5-0.4,1-0.5,1.5c-0.1,0.6-0.1,1.2-0.1,1.8v9.4h-5.9V39.6z"/>
	<path class="st0" d="M258.1,58.5h-5.4V56h-0.1c-0.2,0.3-0.5,0.7-0.9,1s-0.8,0.7-1.3,1c-0.5,0.3-1.1,0.5-1.7,0.7
		c-0.6,0.2-1.2,0.3-1.9,0.3c-1.4,0-2.7-0.2-3.8-0.7c-1.1-0.5-2.1-1.2-2.9-2c-0.8-0.9-1.4-1.9-1.9-3.1c-0.4-1.2-0.7-2.5-0.7-3.9
		c0-1.3,0.2-2.6,0.6-3.8c0.4-1.2,1-2.3,1.7-3.2c0.7-0.9,1.6-1.7,2.7-2.2c1.1-0.6,2.3-0.8,3.6-0.8c1.2,0,2.4,0.2,3.4,0.6
		c1.1,0.4,1.9,1,2.6,1.9h0.1V29h5.8V58.5z M252.7,49c0-1.4-0.4-2.6-1.2-3.5c-0.8-0.9-2-1.3-3.5-1.3c-1.5,0-2.6,0.4-3.5,1.3
		c-0.8,0.9-1.2,2-1.2,3.5c0,1.4,0.4,2.6,1.2,3.5c0.8,0.9,2,1.3,3.5,1.3c1.5,0,2.6-0.4,3.5-1.3C252.3,51.6,252.7,50.5,252.7,49z"/>
	<path class="st0" d="M293.1,38.1c-0.6-0.7-1.3-1.3-2.2-1.7c-0.9-0.4-1.9-0.6-3-0.6s-2.2,0.2-3.2,0.7c-1,0.4-1.8,1.1-2.5,1.9
		c-0.7,0.8-1.3,1.7-1.7,2.8s-0.6,2.3-0.6,3.5c0,1.3,0.2,2.5,0.6,3.6c0.4,1.1,1,2,1.7,2.8c0.7,0.8,1.5,1.4,2.5,1.9
		c0.9,0.4,2,0.7,3.1,0.7c1.2,0,2.4-0.3,3.3-0.8s1.8-1.2,2.4-2.2l5.1,3.8c-1.2,1.6-2.7,2.8-4.4,3.6c-1.8,0.8-3.6,1.2-5.5,1.2
		c-2.2,0-4.1-0.3-6-1c-1.8-0.7-3.4-1.6-4.7-2.9s-2.4-2.8-3.1-4.6c-0.7-1.8-1.1-3.8-1.1-6c0-2.2,0.4-4.2,1.1-6s1.8-3.3,3.1-4.6
		c1.3-1.3,2.9-2.2,4.7-2.9c1.8-0.7,3.8-1,6-1c0.8,0,1.6,0.1,2.4,0.2c0.8,0.1,1.7,0.4,2.5,0.7c0.8,0.3,1.6,0.7,2.4,1.2
		c0.8,0.5,1.4,1.2,2,1.9L293.1,38.1z"/>
	<path class="st0" d="M319,55.2c-0.9,1.2-2.1,2.1-3.5,2.8c-1.4,0.6-2.9,1-4.4,1c-1.5,0-2.8-0.2-4.1-0.7c-1.3-0.5-2.4-1.1-3.4-2
		c-1-0.9-1.7-1.9-2.2-3.1s-0.8-2.6-0.8-4.1c0-1.5,0.3-2.9,0.8-4.1s1.3-2.3,2.2-3.1c0.9-0.9,2.1-1.5,3.4-2c1.3-0.5,2.7-0.7,4.1-0.7
		c1.4,0,2.6,0.2,3.7,0.7c1.1,0.5,2,1.1,2.8,2c0.8,0.9,1.4,1.9,1.8,3.1c0.4,1.2,0.6,2.6,0.6,4.1v1.8h-13.6c0.2,1.1,0.7,2,1.5,2.7
		c0.8,0.7,1.7,1,2.9,1c1,0,1.8-0.2,2.4-0.6c0.7-0.4,1.2-1,1.7-1.7L319,55.2z M314.1,46.9c0-1-0.3-1.8-1-2.5
		c-0.7-0.7-1.5-1.1-2.6-1.1c-0.7,0-1.2,0.1-1.7,0.3c-0.5,0.2-0.9,0.5-1.3,0.8c-0.4,0.3-0.6,0.7-0.8,1.1c-0.2,0.4-0.3,0.9-0.3,1.3
		H314.1z"/>
	<path class="st0" d="M323.4,39.6h5.8v3h0.1c0.6-1.2,1.4-2,2.2-2.6c0.9-0.6,1.9-0.9,3.2-0.9c0.3,0,0.7,0,1,0s0.6,0.1,0.9,0.2v5.3
		c-0.4-0.1-0.8-0.2-1.2-0.3c-0.4-0.1-0.8-0.1-1.3-0.1c-1.1,0-2,0.2-2.7,0.5c-0.7,0.3-1.2,0.7-1.5,1.3c-0.4,0.6-0.6,1.2-0.7,2
		c-0.1,0.8-0.2,1.6-0.2,2.6v7.9h-5.8V39.6z"/>
	<path class="st0" d="M352.2,44.2h-5.1v6.3c0,0.5,0,1,0.1,1.4c0.1,0.4,0.2,0.8,0.4,1.1s0.5,0.6,0.8,0.7c0.4,0.2,0.9,0.3,1.5,0.3
		c0.3,0,0.7,0,1.2-0.1c0.5-0.1,0.9-0.2,1.2-0.4v4.9c-0.6,0.2-1.3,0.4-2,0.5s-1.4,0.1-2.1,0.1c-1,0-1.9-0.1-2.7-0.3
		c-0.8-0.2-1.6-0.5-2.2-1c-0.6-0.5-1.1-1-1.5-1.8c-0.4-0.7-0.5-1.6-0.5-2.7v-9h-3.7v-4.7h3.7v-5.6h5.9v5.6h5.1V44.2z"/>
	<path class="st0" d="M354.8,33.6c0-0.9,0.3-1.7,1-2.4c0.7-0.7,1.5-1,2.4-1c0.9,0,1.7,0.3,2.4,1c0.7,0.7,1,1.5,1,2.4s-0.3,1.7-1,2.4
		s-1.5,1-2.4,1c-0.9,0-1.7-0.3-2.4-1S354.8,34.5,354.8,33.6z M355.3,39.6h5.9v19h-5.9V39.6z"/>
	<path class="st0" d="M367.4,44.2h-3.9v-4.7h3.9v-3.4c0-1,0.1-2,0.3-2.9c0.2-0.9,0.5-1.7,1.1-2.4c0.5-0.7,1.3-1.3,2.2-1.7
		c1-0.4,2.3-0.6,3.8-0.6c0.6,0,1.2,0,1.8,0.1c0.6,0.1,1.1,0.1,1.7,0.3l-0.3,5c-0.3-0.1-0.7-0.2-0.9-0.3c-0.3-0.1-0.6-0.1-1-0.1
		c-0.9,0-1.6,0.2-2.1,0.6c-0.5,0.4-0.7,1.2-0.7,2.5v3h4.3v4.7h-4.3v14.3h-5.9V44.2z M379.4,33.6c0-0.9,0.3-1.7,1-2.4
		c0.7-0.7,1.5-1,2.4-1s1.7,0.3,2.4,1c0.7,0.7,1,1.5,1,2.4s-0.3,1.7-1,2.4s-1.5,1-2.4,1s-1.7-0.3-2.4-1S379.4,34.5,379.4,33.6z
		 M379.8,39.6h5.8v19h-5.8V39.6z"/>
	<path class="st0" d="M407.8,55.2c-0.9,1.2-2.1,2.1-3.5,2.8c-1.4,0.6-2.9,1-4.4,1c-1.5,0-2.8-0.2-4.1-0.7c-1.3-0.5-2.4-1.1-3.4-2
		c-1-0.9-1.7-1.9-2.2-3.1s-0.8-2.6-0.8-4.1c0-1.5,0.3-2.9,0.8-4.1s1.3-2.3,2.2-3.1c0.9-0.9,2.1-1.5,3.4-2c1.3-0.5,2.7-0.7,4.1-0.7
		c1.4,0,2.6,0.2,3.7,0.7c1.1,0.5,2,1.1,2.8,2c0.8,0.9,1.4,1.9,1.8,3.1c0.4,1.2,0.6,2.6,0.6,4.1v1.8h-13.6c0.2,1.1,0.7,2,1.5,2.7
		c0.8,0.7,1.7,1,2.9,1c1,0,1.8-0.2,2.4-0.6c0.7-0.4,1.2-1,1.7-1.7L407.8,55.2z M402.9,46.9c0-1-0.3-1.8-1-2.5
		c-0.7-0.7-1.5-1.1-2.6-1.1c-0.7,0-1.2,0.1-1.7,0.3c-0.5,0.2-0.9,0.5-1.3,0.8c-0.4,0.3-0.6,0.7-0.8,1.1c-0.2,0.4-0.3,0.9-0.3,1.3
		H402.9z"/>
	<path class="st0" d="M432.2,58.5h-5.4V56h-0.1c-0.2,0.3-0.5,0.7-0.9,1s-0.8,0.7-1.3,1c-0.5,0.3-1.1,0.5-1.7,0.7
		c-0.6,0.2-1.2,0.3-1.9,0.3c-1.4,0-2.7-0.2-3.8-0.7c-1.1-0.5-2.1-1.2-2.9-2c-0.8-0.9-1.5-1.9-1.9-3.1c-0.4-1.2-0.7-2.5-0.7-3.9
		c0-1.3,0.2-2.6,0.6-3.8c0.4-1.2,1-2.3,1.7-3.2s1.6-1.7,2.7-2.2c1.1-0.6,2.3-0.8,3.6-0.8c1.2,0,2.4,0.2,3.4,0.6
		c1.1,0.4,1.9,1,2.6,1.9h0.1V29h5.8V58.5z M426.8,49c0-1.4-0.4-2.6-1.2-3.5c-0.8-0.9-2-1.3-3.5-1.3c-1.5,0-2.6,0.4-3.5,1.3
		c-0.8,0.9-1.2,2-1.2,3.5c0,1.4,0.4,2.6,1.2,3.5c0.8,0.9,2,1.3,3.5,1.3c1.5,0,2.6-0.4,3.5-1.3C426.4,51.6,426.8,50.5,426.8,49z"/>
</g>
</svg>
