<?xml version="1.0" encoding="iso-8859-1"?>
<!-- Generator: Adobe Illustrator 19.0.0, SVG Export Plug-In . SVG Version: 6.00 Build 0)  -->
<svg version="1.1" id="Layer_1" xmlns="http://www.w3.org/2000/svg" xmlns:xlink="http://www.w3.org/1999/xlink" x="0px" y="0px"
	 viewBox="0 0 392.138 392.138" style="enable-background:new 0 0 392.138 392.138;" xml:space="preserve">
<g>
	<path style="fill:#2488FF;" d="M392.138,186.437V4.957l-68.44,68.109c-14.474-15.535-31.564-28.635-50.335-38.452
		c-26.498-13.856-56.405-21.181-86.489-21.181C83.832,13.433,0,97.264,0,200.307s83.832,186.874,186.874,186.874
		c35.732,0,70.47-10.123,100.459-29.274c29.172-18.629,52.578-44.9,67.687-75.971l-35.973-17.492
		c-24.816,51.035-75.462,82.738-132.173,82.738C105.887,347.181,40,281.294,40,200.307S105.887,53.433,186.874,53.433
		c41.362,0,80.793,17.636,108.46,47.86l5.844-5.816L392.138,186.437z"/>
	<polygon style="fill:#005ECE;" points="392.138,186.437 301.178,95.477 295.334,101.293 209.778,186.437 	"/>
</g>
<g>
</g>
<g>
</g>
<g>
</g>
<g>
</g>
<g>
</g>
<g>
</g>
<g>
</g>
<g>
</g>
<g>
</g>
<g>
</g>
<g>
</g>
<g>
</g>
<g>
</g>
<g>
</g>
<g>
</g>
</svg>
