<svg id="Layer_1" data-name="Layer 1" xmlns="http://www.w3.org/2000/svg" viewBox="0 0 940 520"><defs><style>.cls-1{fill:#1e1e1d;}</style></defs><title>logo-image-001</title><path class="cls-1" d="M267.13,277.77c5.21,0,6-1.42,6-5.52V241.64h-.32c-10.1,0-11.83,5.84-13.57,12.31h-.32l1.1-12.78h32.34l1.1,12.78h-.32c-1.74-6.47-3.47-12.31-13.57-12.31h-.32v30.61c0,4.1.79,5.52,6,5.52v.47H267.13Z"/><path class="cls-1" d="M295.68,277.77c3.31,0,4.58-.63,4.58-3.63V243.38c0-3-1.26-3.79-4.58-3.79v-.32l10.1-1.26v20.51c2.05-2.05,5.36-5.21,9.62-5.21s6.94,2.21,6.94,7.73v13.09c0,3,1.26,3.63,4.58,3.63v.47H312.56v-.47c3,0,4.42-.63,4.42-3.63V260.89c0-3.47-1.58-5.21-4.42-5.21s-5,2.05-6.78,3.63v15c0,3,1.26,3.63,4.58,3.63v.47H295.68v-.63Z"/><path class="cls-1" d="M329.92,265.94a12.15,12.15,0,0,1,11.66-12.61h.64a10.57,10.57,0,0,1,11.2,11.2H335.75c-.32,8,2.68,13.09,8.36,13.09a10.41,10.41,0,0,0,9-6h.47a12.31,12.31,0,0,1-11.36,7.1C334.18,278.87,329.92,272.72,329.92,265.94Zm5.84-1.89h11.83c0-3.47-.79-10.25-5.52-10.25S336.07,258.68,335.75,264Z"/><path class="cls-1" d="M371.73,277.77c5.21,0,5.68-1.42,5.68-5.36V247c0-3.94-.47-5.36-5.68-5.36v-.47H389.4v.47c-5.21,0-6,1.42-6,5.52v30.61h3.94c10.73,0,13.73-4.89,15.3-12H403l-.79,12.31H371.73v-.32Z"/><path class="cls-1" d="M406.12,277.77c3.31,0,4.58-.63,4.58-3.63V258.52c0-3-1.26-3.63-4.58-3.63v-.32l10.1-1.26v20.83c0,3,1.26,3.63,4.58,3.63v.47H406.12ZM409.43,245a3.47,3.47,0,0,1,3.47-3.47h.16a3.47,3.47,0,0,1,3.63,3.31q0,.08,0,.16a3.47,3.47,0,0,1-3.47,3.47h-.16a3.47,3.47,0,0,1-3.63-3.31Q409.43,245,409.43,245Z"/><path class="cls-1" d="M423,277.77c3.31,0,4.73-.47,4.73-3.79V254.42h-5.21v-.63h5.21v-4.73c0-7.26,4.89-10.57,10.1-10.57s8,3.16,8,6a3.16,3.16,0,0,1-2.82,3.46l-.33,0a3.16,3.16,0,0,1-3.16-3.15q0-.08,0-.16a3.16,3.16,0,0,1,2.37-3.16,3.94,3.94,0,0,0-3.79-2.68c-3.63,0-5,3.47-5,7.73v7.1h6.78v.63H433.1v19.56c0,3.31,1.74,3.79,5,3.79v.47h-15.3v-.47Z"/><path class="cls-1" d="M442.41,265.94a12.15,12.15,0,0,1,11.66-12.61h.64a10.57,10.57,0,0,1,11.2,11.2H448.24c-.32,8,2.68,13.09,8.36,13.09a10.41,10.41,0,0,0,9-6h.47a12.31,12.31,0,0,1-11.36,7.1C446.67,278.87,442.41,272.72,442.41,265.94Zm5.84-1.89h11.83c0-3.47-.79-10.25-5.52-10.25S448.72,258.68,448.24,264Z"/><path class="cls-1" d="M471.59,277.77l-.47-7.57h.32c1.58,3.63,3.47,8.36,9,8.36s5.68-2.52,5.68-4.73c0-6.78-14.67-4.26-14.67-13.57,0-4.1,3-7.1,9.31-7.1,3.31,0,5.52.79,8.36.16l.47,7.73h-.32c-1.26-2.84-3.47-7.73-8.36-7.73a4.58,4.58,0,0,0-5,4.08q0,.17,0,.34c0,6.63,14.83,4.26,14.83,13.41,0,4.42-3.47,7.26-10.25,7.26A46.7,46.7,0,0,1,471.59,277.77Z"/><path class="cls-1" d="M498.73,271.93V254.58h-4.58v-.63h4.58v-6.31l5.52-.95v7.26h7.57v.63h-7.57v17.83c0,3,1.1,4.89,3.47,4.89s3.94-1.74,5.21-3.31l.32.32c-1.74,2.21-4.1,4.58-8,4.58S498.73,276.51,498.73,271.93Z"/><path class="cls-1" d="M516.08,286.61c0-4.1,8.52-1.58,11-7.1l.32-.79-8.2-18.46c-1.74-3.94-3.31-5.84-6.78-5.84v-.47h16.09v.47c-4.73,0-5,1.89-3.79,5.21l5.36,12.94,2.21-5.36c2.37-5.84,3.31-8.36,3.31-9.94s-.95-2.84-3.94-2.84v-.47h11.52v.47a6.63,6.63,0,0,0-6,3.31c-.95,1.58-2.05,4.42-4.26,9.62l-5.84,13.57c-1.26,3-4.1,7.73-8.36,7.73a2.21,2.21,0,0,1-2.68-2.05Z"/><path class="cls-1" d="M543.22,277.77c3.31,0,4.58-.63,4.58-3.63V243.38c0-3-1.26-3.79-4.58-3.79v-.32l9.94-1.26v36.13c0,3,1.26,3.63,4.58,3.63v.47H543.22v-.47Z"/><path class="cls-1" d="M560.89,265.94a12.15,12.15,0,0,1,11.66-12.61h.64a10.57,10.57,0,0,1,11.2,11.2H566.73c-.32,8,2.68,13.09,8.36,13.09a10.41,10.41,0,0,0,9-6h.32a12.31,12.31,0,0,1-11.36,7.1C565.15,278.87,560.89,272.72,560.89,265.94Zm5.84-1.89h11.83c0-3.47-.79-10.25-5.52-10.25s-6,4.89-6.31,10.25Z"/><path class="cls-1" d="M602.7,277.77c5.21,0,5.68-1.42,5.68-5.36V247c0-3.94-.47-5.36-5.68-5.36v-.47h17.67v.47c-5.21,0-6,1.42-6,5.52v30.61h3.94c10.73,0,13.73-4.89,15.3-12h.32l-.79,12.31H602.7v-.32Z"/><path class="cls-1" d="M637.09,277.77c3.31,0,4.58-.63,4.58-3.63V258.52c0-3-1.26-3.63-4.58-3.63v-.32l10.1-1.26v20.83c0,3,1.26,3.63,4.58,3.63v.47H637.25v-.47ZM640.41,245a3.47,3.47,0,0,1,3.47-3.47H644a3.47,3.47,0,0,1,3.63,3.31q0,.08,0,.16a3.47,3.47,0,0,1-3.47,3.47H644a3.47,3.47,0,0,1-3.63-3.31Q640.41,245,640.41,245Z"/><path class="cls-1" d="M661.55,276.67l-4.26,2.21H657v-35.5c0-3-1.26-3.79-4.58-3.79v-.32l9.94-1.26v19.25a10.73,10.73,0,0,1,8.36-3.94c6.78,0,10.73,5.84,10.73,12.62A12.46,12.46,0,0,1,669.61,279q-.48,0-1,0A11.83,11.83,0,0,1,661.55,276.67Zm14.2-10.41c0-6-2.21-11.36-7.26-11.36a7.73,7.73,0,0,0-6,3v16.88A6,6,0,0,0,668,278.4C673.54,278.4,675.75,272.09,675.75,266.25Z"/><path class="cls-1" d="M685.53,277.77c3.31,0,4.58-.79,4.58-3.79V258.52c0-3-1.26-3.79-4.58-3.79v-.32l9.94-1.26v7.42C697,256.79,700,253,703.36,253a3.47,3.47,0,0,1,3.63,3.31q0,.16,0,.32a3.33,3.33,0,1,1-6.63-.47,8.68,8.68,0,0,0-4.73,5V274c0,3.16,1.42,3.79,4.73,3.79v.47H685.69v-.47Z"/><path class="cls-1" d="M709.82,272.09c0-4.73,4.42-6.78,9.62-6.78a23,23,0,0,1,6.78,1.1v-6c0-3.94-1.26-6.78-5.36-6.78a6.15,6.15,0,0,0-5.84,3.16,3.31,3.31,0,0,1,2.21,3.16,3.16,3.16,0,0,1-3,3.31h-.32a3.47,3.47,0,0,1-3.31-3.62h0c0-3.31,4.1-6.31,10.1-6.31s10.73,2.37,10.73,8.52v13.41c0,1.89.95,2.21,1.74,2.21s3.63-2.52,4.1-3.63h.47c-1.26,2.37-3.16,4.73-6.47,4.73a4.73,4.73,0,0,1-5-4.1,10.1,10.1,0,0,1-8.52,4.26C713.14,278.87,709.82,276.19,709.82,272.09ZM726.23,274v-7.26a17.51,17.51,0,0,0-4.89-.79c-3.47,0-5.84,1.74-5.84,6s1.74,5.84,4.73,5.84a7.73,7.73,0,0,0,6.15-3.63Z"/><path class="cls-1" d="M738.54,277.77c3.31,0,4.58-.79,4.58-3.79V258.52c0-3-1.26-3.79-4.58-3.79v-.32l9.94-1.26v7.42c1.58-3.79,4.58-7.57,7.89-7.57a3.47,3.47,0,0,1,3.63,3.31q0,.16,0,.32a3.4,3.4,0,1,1-6.8,0q0-.17,0-.33a8.68,8.68,0,0,0-4.73,5v12.78c0,3.16,1.42,3.79,4.73,3.79v.47H738.54v-.63Z"/><path class="cls-1" d="M763.94,286.61c0-4.1,8.52-1.58,11-7.1l.32-.79-8.2-18.46c-1.74-3.94-3.31-5.84-6.78-5.84v-.47H776.4v.47c-4.73,0-5,1.89-3.79,5.21L778,272.56l2.21-5.36c2.37-5.84,3.31-8.36,3.31-9.94s-.95-2.84-3.94-2.84v-.47h11.52v.47a6.63,6.63,0,0,0-6,3.31c-.95,1.58-2.05,4.42-4.26,9.62L775,280.93c-1.26,3-4.1,7.73-8.36,7.73a2.21,2.21,0,0,1-2.68-2.05Z"/><path class="cls-1" d="M148.33,222.08v76h76v-76ZM169,271.62c.47.63,1.89.79,3.63-.47l.47.47a15.3,15.3,0,0,1-10.1,4.58q-3.63,0-5-2.05t.16-5.68l5-13.57H160v-1.74a31.71,31.71,0,0,0,5.36-.47,11.83,11.83,0,0,0,6.94-5.84h5L175,253h4.89v1.74h-5.52l-5,13.25c-.32,1.26-.79,3-.16,3.63Zm20.19,0c.47.63,1.89.79,3.63-.47l.47.47a15.3,15.3,0,0,1-10.1,4.58q-3.63,0-5-2.05t.16-5.68l7.26-19.09a2.84,2.84,0,0,0,0-2.52,3,3,0,0,0-2.21-1.42V244h8.2c3.94,0,6,3.16,4.42,7.1l-6.47,17c-.16,1.1-.63,2.84-.16,3.47Zm25.4-20.51-6.47,17c-.47,1.1-.95,2.68-.32,3.47s1.89.79,3.63-.47l.47.47a15.3,15.3,0,0,1-10.1,4.58q-3.63,0-5-2.05t.16-5.68l7.26-19.09a2.84,2.84,0,0,0,0-2.52,3,3,0,0,0-2.21-1.42V244h8.2c4.1,0,6,3.16,4.58,7.1Z"/></svg>