<?xml version="1.0" encoding="utf-8"?>
<!-- Generator: Adobe Illustrator 21.1.0, SVG Export Plug-In . SVG Version: 6.00 Build 0)  -->
<svg version="1.1" id="Layer_1" xmlns="http://www.w3.org/2000/svg" xmlns:xlink="http://www.w3.org/1999/xlink" x="0px" y="0px"
	 viewBox="0 0 599.1 241.2" style="enable-background:new 0 0 599.1 241.2;" xml:space="preserve">
<style type="text/css">
	.st0{fill:#8796AF;}
</style>
<g>
	<path class="st0" d="M599.1,241.2V0H0v241.2H599.1L599.1,241.2z M240.9,23.3l-41.4,194.2h-64.9L93.8,83.1h-0.6L66.1,217.4H16.9
		L58.6,23.3h65.1l40,134.6h0.6l27.4-134.6L240.9,23.3L240.9,23.3z M426.5,23.3L386,217.5h-52.3l17.3-83.2h-61.8l-17.3,83.2h-52.3
		l40.5-194.2h52.3L297,97.6h61.8l15.4-74.3L426.5,23.3L426.5,23.3z M576.6,28.6L564,67.2c-10.1-4.7-23.8-8.9-43-8.9
		c-20.7,0-37.5,3-37.5,18.6c0,27.5,75.8,17.2,75.8,76.2c0,53.7-50.1,67.6-95.3,67.6c-20.1,0-43.3-4.8-60.4-10l12.3-39.5
		c10.3,6.7,31,11.1,48.1,11.1c16.2,0,41.6-3.1,41.6-23.1c0-31.2-75.8-19.5-75.8-74.2c0-50.1,44.2-65.1,87-65.1
		C540.8,20,563.5,22.5,576.6,28.6L576.6,28.6z"/>
</g>
</svg>
