<?xml version="1.0" encoding="utf-8"?>
<!-- Generator: Adobe Illustrator 21.1.0, SVG Export Plug-In . SVG Version: 6.00 Build 0)  -->
<svg version="1.1" id="Layer_1" xmlns="http://www.w3.org/2000/svg" xmlns:xlink="http://www.w3.org/1999/xlink" x="0px" y="0px"
	 viewBox="0 0 600.2 128.2" style="enable-background:new 0 0 600.2 128.2;" xml:space="preserve">
<style type="text/css">
	.st0{fill:#8796AF;}
</style>
<g>
	
		<rect x="31.1" y="68.5" transform="matrix(0.7071 -0.7071 0.7071 0.7071 -36.0416 62.2144)" class="st0" width="51.9" height="12.2"/>
	<polygon class="st0" points="54.2,0 54.2,0 54.2,0 0,54.2 0,54.2 0,54.2 8.6,62.8 62.8,8.6 	"/>
	<polygon class="st0" points="114.4,60.2 111,56.8 111,56.8 74.9,20.6 74.9,20.6 71.4,17.2 26,62.7 34.6,71.3 71.3,34.6 97.1,60.4 
		51.6,105.8 59.6,113.8 74,128.2 82.7,119.5 69,105.7 	"/>
</g>
<path class="st0" d="M600.2,69.2V75h-24.7V34.6h24.7v5.8h-18.8v11.4h18.3v5.9h-18.3v11.4L600.2,69.2L600.2,69.2z M550.6,59.8
	L563.4,75h-7.6L541,57.3v-2.8h6.8c4.9,0,7.4-3.5,7.4-7s-2.4-7-7.4-7h-9V75H533V34.6h14.8c8.8,0,13.2,6.5,13.2,12.9
	C561.1,53.2,557.6,58.6,550.6,59.8z M507.7,44.3c-2.7-2.7-6.5-4.4-10.5-4.4s-7.7,1.7-10.4,4.4c-2.7,2.7-4.3,6.4-4.3,10.5
	s1.7,7.8,4.3,10.5c2.7,2.7,6.4,4.4,10.4,4.4s7.8-1.7,10.5-4.4c2.6-2.7,4.3-6.3,4.3-10.5S510.3,47,507.7,44.3z M511.9,69.4
	c-3.8,3.8-8.9,6.1-14.6,6.1s-10.9-2.3-14.6-6.1c-3.6-3.8-6-8.9-6-14.6s2.4-10.9,6-14.6c3.7-3.8,8.9-6.1,14.6-6.1s10.9,2.4,14.6,6.1
	c3.6,3.8,6,8.9,6,14.6S515.5,65.6,511.9,69.4z M453.6,40.5v34.7h-5.8V40.5h-12.3v-5.9h30.3v5.9H453.6z M411.7,51.8
	c5.6,0.7,12.4,2.1,14,8.6c0.2,0.9,0.3,1.8,0.3,2.7c0,7.8-7.8,12.3-15,12.3c-6.3,0-13.8-3.7-14.6-10.9l-0.1-1.1l5.9-0.1l0.1,0.9V64
	c0.4,3.8,5,5.7,8.7,5.7c4.3,0,9.1-2.4,9.1-6.6c0-0.4-0.1-0.9-0.2-1.4c-0.7-3.1-4.9-3.6-8.9-4c-6.3-0.6-13.7-2-14.4-10.5v0.1
	c-0.2-2.7,0.5-5.4,2.2-7.7c2.7-3.5,7.6-5.4,12.3-5.4c6.3,0,12.7,3.2,13.8,10.6l-5.8,0.2c-0.8-3.6-4.7-5.2-8.3-5.1
	c-2.7,0.1-5.7,1-7.4,3.1c-0.8,1-1.1,2.4-1,3.8C402.8,50.8,407.3,51.4,411.7,51.8z M360.5,75V34.6h5.8v34.5h19V75H360.5z M335.2,44.3
	c-2.7-2.7-6.5-4.4-10.5-4.4s-7.7,1.7-10.4,4.4c-2.7,2.7-4.3,6.4-4.3,10.5s1.7,7.8,4.3,10.5c2.7,2.7,6.4,4.4,10.4,4.4
	s7.8-1.7,10.5-4.4c2.6-2.7,4.3-6.3,4.3-10.5S337.8,47,335.2,44.3z M339.4,69.4c-3.8,3.8-8.9,6.1-14.6,6.1s-10.9-2.3-14.6-6.1
	c-3.6-3.8-6-8.9-6-14.6s2.4-10.9,6-14.6c3.7-3.8,8.9-6.1,14.6-6.1s10.9,2.4,14.6,6.1c3.6,3.8,6,8.9,6,14.6S343.1,65.6,339.4,69.4z
	 M280.7,59.8L293.5,75h-7.6l-14.8-17.7v-2.8h6.8c4.9,0,7.4-3.5,7.4-7s-2.4-7-7.4-7h-9V75h-5.8V34.6h14.8c8.8,0,13.2,6.5,13.2,12.9
	C291.1,53.2,287.6,58.6,280.7,59.8z M236.7,40.5v34.7h-5.8V40.5h-12.3v-5.9h30.3v5.9H236.7z M194.9,43.3l-5.1,14.3h10.1L194.9,43.3z
	 M207,75l-4.9-11.9h-14.5c-1.6,3.7-3.6,8.5-4.9,11.9h-6.3l16.3-41h4.3l16.2,41H207z M156.1,40.5h-8.9v15.3h8.9
	c4.9,0,7.4-3.8,7.4-7.6C163.5,44.3,161,40.5,156.1,40.5z M156.1,61.5h-8.9V75h-5.9V34.6h14.8c8.7,0,13.1,6.8,13.1,13.5
	C169.3,54.8,164.9,61.5,156.1,61.5z"/>
</svg>
