<?xml version="1.0" encoding="utf-8"?>
<!-- Generator: Adobe Illustrator 26.0.2, SVG Export Plug-In . SVG Version: 6.00 Build 0)  -->
<svg version="1.1" id="Layer_1" xmlns="http://www.w3.org/2000/svg" xmlns:xlink="http://www.w3.org/1999/xlink" x="0px" y="0px"
	 viewBox="0 0 842.1 139.9" style="enable-background:new 0 0 842.1 139.9;" xml:space="preserve">
<style type="text/css">
	
		.st0{clip-path:url(#SVGID_00000110436829387427421460000013000265148268520108_);fill-rule:evenodd;clip-rule:evenodd;fill:#8796AF;}
	.st1{clip-path:url(#SVGID_00000110436829387427421460000013000265148268520108_);fill:#8796AF;}
</style>
<g>
	<defs>
		<rect id="SVGID_1_" x="-0.4" width="842.9" height="139.9"/>
	</defs>
	<clipPath id="SVGID_00000023280980369155813040000002870951308790728869_">
		<use xlink:href="#SVGID_1_"  style="overflow:visible;"/>
	</clipPath>
	
		<path style="clip-path:url(#SVGID_00000023280980369155813040000002870951308790728869_);fill-rule:evenodd;clip-rule:evenodd;fill:#8796AF;" d="
		M139.4,69.9c0,38.6-31.3,69.9-69.9,69.9c-38.6,0-69.9-31.3-69.9-69.9C-0.4,31.3,30.9,0,69.5,0C108.1,0,139.4,31.3,139.4,69.9z
		 M62.1,76.5l5.2-15.4l-1.9-0.4c-6.1-1.2-9.1-4.8-9.1-9.5c0-5.6,5.2-10.6,13.1-10.6c10.6,0,14.4,7.2,15.3,11.8L99.4,48
		c-1.9-9.5-9.7-21.8-30-21.8c-15.8,0-29.2,11.4-29.2,26.3C40.1,65.1,48.7,73.8,62.1,76.5z M77.1,63l-0.5-0.1l-5.3,15.4l2.4,0.5
		c6.5,1.3,10.2,5.1,10.2,9.9c0,5.9-4.8,10.3-13.6,10.3C58.5,99,52.7,91.5,52,83.3l-0.8,0.2L37,88c1.6,11.8,11.4,25.7,33.3,25.7
		c19.5,0,30.3-13,30.3-25.9C100.5,75.9,92.4,66,77.1,63z"/>
	<path style="clip-path:url(#SVGID_00000023280980369155813040000002870951308790728869_);fill:#8796AF;" d="M222,54.8
		c-0.7-4.1-4.1-10.4-13.4-10.4c-7,0-11.6,4.5-11.6,9.4c0,4.1,2.6,7.3,8,8.3l10.3,2c13.4,2.6,20.6,11.3,20.6,21.8
		c0,11.3-9.5,22.8-26.6,22.8c-19.6,0-28.2-12.6-29.4-23.1l13.3-3.5c0.6,7.3,5.7,13.8,16.1,13.8c7.7,0,12-3.9,12-9.1
		c0-4.3-3.2-7.6-9-8.7L202,76c-11.8-2.4-19.4-10-19.4-21.1c0-13.1,11.8-23.1,25.7-23.1c17.9,0,24.8,10.8,26.4,19.2L222,54.8z"/>
	<path style="clip-path:url(#SVGID_00000023280980369155813040000002870951308790728869_);fill:#8796AF;" d="M259,77.6l12.6-1.9
		c2.9-0.4,3.9-1.9,3.9-3.6c0-3.6-2.8-6.7-8.6-6.7c-6,0-9.4,3.9-9.8,8.3l-12.3-2.6c0.8-8,8.2-16.9,22-16.9c16.2,0,22.3,9.2,22.3,19.5
		v25.2c0,2.7,0.3,6.3,0.6,8.1H277c-0.3-1.4-0.5-4.2-0.5-6.1c-2.6,4.1-7.5,7.6-15.1,7.6c-10.9,0-17.6-7.4-17.6-15.4
		C243.7,84,250.5,78.9,259,77.6z M275.5,86.3V84l-11.6,1.8c-3.5,0.5-6.3,2.5-6.3,6.5c0,3,2.2,5.9,6.7,5.9
		C270.1,98.2,275.5,95.4,275.5,86.3z"/>
	<path style="clip-path:url(#SVGID_00000023280980369155813040000002870951308790728869_);fill:#8796AF;" d="M302.9,126.8v-71h13.4
		V62c2.3-4,8-7.4,15.7-7.4c15,0,23.6,11.5,23.6,26.6c0,15.5-9.7,27-24.1,27c-7.1,0-12.3-2.8-14.8-6.2v24.8H302.9z M329.4,67.1
		c-7.1,0-12.8,5.3-12.8,14.4S322.3,96,329.4,96c7.1,0,12.7-5.3,12.7-14.5C342.1,72.4,336.5,67.1,329.4,67.1z"/>
	<path style="clip-path:url(#SVGID_00000023280980369155813040000002870951308790728869_);fill:#8796AF;" d="M373.5,30.5
		c4.8,0,8.5,3.9,8.5,8.6c0,4.6-3.7,8.4-8.5,8.4c-4.7,0-8.5-3.9-8.5-8.4C365,34.3,368.8,30.5,373.5,30.5z M366.7,107.1V55.8h13.8V107
		L366.7,107.1L366.7,107.1z"/>
	<path style="clip-path:url(#SVGID_00000023280980369155813040000002870951308790728869_);fill:#8796AF;" d="M441.2,92.4
		c-2.6,8.8-10.7,16.2-23.3,16.2c-14.1,0-26.4-10.1-26.4-27.4c0-16.3,12.1-27,25.2-27c15.8,0,25.3,10.1,25.3,26.5
		c0,2-0.2,4.1-0.2,4.3h-36.6c0.3,6.8,6,11.7,12.9,11.7c6.5,0,10-3.2,11.7-7.8L441.2,92.4z M428.3,75.6c-0.2-5.1-3.5-10.1-11.5-10.1
		c-7.2,0-11.1,5.4-11.5,10.1H428.3z"/>
	<path style="clip-path:url(#SVGID_00000023280980369155813040000002870951308790728869_);fill:#8796AF;" d="M466.7,107.1h-13.8
		V55.8h13.4v6.3c3.1-5.3,9.3-7.7,14.8-7.7c12.7,0,18.5,9.1,18.5,20.3V107h-13.8V77.2c0-5.7-2.8-10.2-9.5-10.2c-6,0-9.6,4.7-9.6,10.6
		V107.1z"/>
	<path style="clip-path:url(#SVGID_00000023280980369155813040000002870951308790728869_);fill:#8796AF;" d="M586.9,107.1V76.5
		h-32.2v30.6h-14.4V33.3h14.4V63h32.2V33.3h14.5v73.8H586.9z"/>
	<path style="clip-path:url(#SVGID_00000023280980369155813040000002870951308790728869_);fill:#8796AF;" d="M662.8,92.4
		c-2.6,8.8-10.7,16.2-23.3,16.2c-14.1,0-26.4-10.1-26.4-27.4c0-16.3,12.1-27,25.2-27c15.8,0,25.3,10.1,25.3,26.5
		c0,2-0.2,4.1-0.2,4.3h-36.6c0.3,6.8,6,11.7,12.9,11.7c6.5,0,10-3.2,11.7-7.8L662.8,92.4z M649.9,75.6c-0.2-5.1-3.5-10.1-11.5-10.1
		c-7.2,0-11.1,5.4-11.5,10.1H649.9z"/>
	<path style="clip-path:url(#SVGID_00000023280980369155813040000002870951308790728869_);fill:#8796AF;" d="M686.6,77.6l12.6-1.9
		c2.9-0.4,3.9-1.9,3.9-3.6c0-3.6-2.8-6.7-8.6-6.7c-6,0-9.4,3.9-9.8,8.3l-12.3-2.6c0.8-8,8.2-16.9,22-16.9c16.2,0,22.3,9.2,22.3,19.5
		v25.2c0,2.7,0.3,6.3,0.6,8.1h-12.7c-0.3-1.4-0.5-4.2-0.5-6.1c-2.6,4.1-7.5,7.6-15.1,7.6c-10.9,0-17.6-7.4-17.6-15.4
		C671.3,84,678.1,78.9,686.6,77.6z M703.1,86.3V84l-11.6,1.8c-3.5,0.5-6.3,2.5-6.3,6.5c0,3,2.2,5.9,6.7,5.9
		C697.6,98.2,703.1,95.4,703.1,86.3z"/>
	<path style="clip-path:url(#SVGID_00000023280980369155813040000002870951308790728869_);fill:#8796AF;" d="M730.5,107.1V31.7h13.8
		v75.4H730.5z"/>
	<path style="clip-path:url(#SVGID_00000023280980369155813040000002870951308790728869_);fill:#8796AF;" d="M776.2,55.8h10.3v12.3
		h-10.3v21.4c0,4.5,2.1,5.9,6,5.9c1.7,0,3.5-0.2,4.3-0.4v11.5c-1.2,0.5-3.7,1.2-7.8,1.2c-10,0-16.2-5.9-16.2-15.8V68.1h-9.3V55.8
		h2.6c5.4,0,7.9-3.5,7.9-8.1v-7.2h12.5V55.8z"/>
	<path style="clip-path:url(#SVGID_00000023280980369155813040000002870951308790728869_);fill:#8796AF;" d="M809.6,107.1h-13.8
		V31.7h13.8v28.4c3.3-4,9-5.6,13.8-5.6c13,0,19,9.1,19,20.3v32.3h-13.8V77.2c0-5.7-2.8-10.2-9.5-10.2c-5.8,0-9.3,4.4-9.6,10
		L809.6,107.1L809.6,107.1z"/>
</g>
</svg>
