<?xml version="1.0" encoding="utf-8"?>
<!-- Generator: Adobe Illustrator 21.1.0, SVG Export Plug-In . SVG Version: 6.00 Build 0)  -->
<svg version="1.1" id="Layer_1" xmlns="http://www.w3.org/2000/svg" xmlns:xlink="http://www.w3.org/1999/xlink" x="0px" y="0px"
	 viewBox="0 0 600 307.1" style="enable-background:new 0 0 600 307.1;" xml:space="preserve">
<style type="text/css">
	.st0{fill:#8796AF;}
</style>
<title>Shippo-logo</title>
<path class="st0" d="M79.4,155.6c-3.1,8.4-8.9,15.6-16.5,20.3c-9.1,5.5-19.7,8.1-30.3,7.7c-5.8,0.1-11.6-0.6-17.3-1.9
	c-5.2-1.4-10.4-3.2-15.3-5.4l8.4-23c3.6,2.8,7.5,5.2,11.5,7.3c3.9,1.7,8.1,2.4,12.3,2.3c8.2,0,13-2.2,14.6-6.5
	c0.5-1.3,0.4-2.7-0.4-3.8c-1.3-1.6-2.8-2.9-4.6-3.8l-9.6-5.4c-4.8-2.4-8.8-6.1-11.5-10.7c-2.6-5-2.7-11-0.4-16.1
	c1.9-5,4.9-9.4,8.8-13c4.8-4.5,10.4-8,16.5-10.4c7-2.7,14.4-4,21.9-3.8h7.3l10.4,2.3c3.9,1.1,7.7,2.8,11.1,5l-8.1,22.6l-3.8-2.7
	l-4.2-2.7l-6.5-2.7c-2.7-0.8-5.6-1.2-8.4-1.2c-3-0.2-6,0.6-8.4,2.3c-1.5,1.1-2.7,2.5-3.5,4.2c-0.5,1.4-0.2,3.1,0.8,4.2
	c2.3,2.2,5,3.9,8.1,5c5.1,2.1,9.9,4.9,14.2,8.4c3,2.4,5,5.8,5.8,9.6C82.2,147.8,81.3,151.9,79.4,155.6z"/>
<path class="st0" d="M180.3,182.4h-32.2l17.3-47.6v-1.2l0.8-2.3c1.5-3.8,2-7.9,1.5-11.9c-0.5-3.6-3.3-5.4-8.4-5.4
	c-4.4,0.2-8.7,1.6-12.3,4.2c-4.5,3.1-8.8,6.5-12.7,10.4l-19.6,53.7H82.5l45.7-124.7h32.2l-16.9,46c6-4.9,12.7-8.7,19.9-11.5
	c5.7-2,11.6-3,17.6-3.1c22,0,28.5,12.3,19.6,36.8L180.3,182.4z"/>
<path class="st0" d="M367.1,136c-2.3,6.2-5.4,12.2-9.2,17.6c-3.8,5.7-8.3,10.8-13.4,15.3c-5.2,4.5-11.2,8.2-17.6,10.7
	c-6.7,2.6-13.9,3.9-21.1,3.8c-4.6,0.2-9.1-0.4-13.4-1.9c-3-1.3-5.9-3-8.4-5l-17,47h-32.2l48.3-133.1h32.2l-3.1,8.4
	c4.2-2.7,8.7-5.1,13.4-6.9c5.4-2,11.1-2.9,16.9-2.7c6.2-0.1,12.4,1.7,17.6,5c5.4,3.5,9.2,9,10.4,15.3
	C372,118.5,370.8,127.7,367.1,136z M333,136.8c1.8-4.2,2.6-8.8,2.3-13.4c-0.2-2.9-1.6-5.5-3.8-7.3c-2.3-1.6-4.9-2.4-7.7-2.3
	c-3.4,0-6.8,0.6-10,1.9l-8.4,4.6l-12.7,34.9l3.1,1.9l3.1,1.9l3.5,1.5h4.6c5.6-0.3,10.9-2.6,15-6.5C327,149.3,330.8,143.4,333,136.8
	L333,136.8z"/>
<path class="st0" d="M479.9,136c-2.3,6.2-5.4,12.2-9.2,17.6c-3.8,5.7-8.3,10.8-13.4,15.3c-5.2,4.5-11.2,8.2-17.6,10.7
	c-6.7,2.6-13.9,3.9-21.1,3.8c-4.6,0.2-9.1-0.4-13.4-1.9c-3-1.3-5.9-3-8.4-5l-16.9,46.8h-32.2L396,90.2h32.2l-3.1,8.4
	c4.2-2.7,8.7-5.1,13.4-6.9c5.4-2,11.1-2.9,16.9-2.7c6.2-0.1,12.4,1.7,17.6,5c5.4,3.5,9.2,9,10.4,15.3
	C484.8,118.5,483.6,127.7,479.9,136z M445.8,136.8c1.8-4.2,2.6-8.8,2.3-13.4c-0.2-2.9-1.6-5.5-3.8-7.3c-2.3-1.6-4.9-2.4-7.7-2.3
	c-3.4,0-6.8,0.6-10,1.9l-8.4,4.6l-12.7,34.9l3.1,1.9l3.1,1.9l3.5,1.5h4.6c5.6-0.3,10.9-2.6,15-6.5c5-4.8,8.7-10.7,10.7-17.3
	L445.8,136.8z"/>
<path class="st0" d="M592.7,136.4c-3.3,9-8.4,17.2-15,24.2c-6.7,7.2-14.8,13-23.8,16.9c-9.8,4.2-20.4,6.3-31.1,6.1
	c-9.2,0.5-18.4-1.6-26.5-6.1c-6.1-3.7-10.3-9.9-11.5-16.9c-1.1-8.2-0.1-16.5,3.1-24.2c2.4-6.7,5.7-13.1,10-18.8
	c4.3-5.7,9.5-10.8,15.3-15c6.1-4.4,12.8-7.7,19.9-10c7.7-2.4,15.7-3.5,23.8-3.5c7.3-0.2,14.6,0.9,21.5,3.5c5.1,2,9.5,5.4,12.7,10
	c2.8,4.5,4.3,9.7,4.2,15C595.7,124,594.8,130.3,592.7,136.4z M558.6,136.4c2.6-7.2,3.1-12.8,1.5-16.9c-1.5-4.1-5.4-6.1-11.5-6.1
	c-5.8,0-11.4,2.2-15.7,6.1c-4.9,4.6-8.6,10.4-10.7,16.9c-2.5,5.3-3,11.2-1.5,16.9c1.5,4.1,5.2,6.1,11.1,6.1c6,0.1,11.7-2.1,16.1-6.1
	c5-4.6,8.9-10.4,11.1-16.9H558.6z"/>
<path class="st0" d="M288.5,256.1c-0.4-0.4-23.8,0.8-36.1,11.1c-0.8,0.4,5,3.1,9.2,4.6c-10.4,5-27.2,15.3-45.7,3.8
	c-7.5-4.3-10.9-13.3-8.1-21.5l54.5-184.5l21.5,8.1c0.6,3.3,2.9,6.1,6.1,7.3c5,1.8,10.5-0.8,12.3-5.8s-0.8-10.5-5.8-12.3
	c-3.1-1.1-6.6-0.5-9.2,1.5l-21.5-8.1l5.8-17.3c9.4,0.4,17.9-5.4,21.1-14.2c4.1-11.1-1.5-23.5-12.7-27.6l0,0
	c-11.1-4.1-23.5,1.5-27.6,12.7l0,0c-3.3,8.8-0.5,18.8,6.9,24.6l-6.5,16.9l-21.5-8.1c-0.6-3.3-2.9-6.1-6.1-7.3
	c-5-1.8-10.5,0.8-12.3,5.8s0.8,10.5,5.8,12.3c3.1,1.1,6.6,0.5,9.2-1.5l21.5,8.1l-78.6,175.7c-3.3,7.8-11.6,12.3-19.9,10.7
	c-21.5-3.1-27.6-22.3-32.2-32.6c4.6,1.5,10.4,3.5,10.4,2.3c-2.7-16.1-19.6-32.2-20.3-31.8c-0.8,0.4-10.4,21.5-8.1,36.8
	c0,0.8,5.4-3.1,8.8-6.1c0.8,13.4,9.6,40.7,32.2,59.5c9.5,8.4,18.1,17.8,25.7,28c12.4-2.7,25-4.1,37.6-4.2
	c29.2,0.4,53.7-14.6,62.9-24.2c0.8,4.6,2.3,11.1,2.7,10.7C282.4,279.5,288.9,256.8,288.5,256.1z M260.9,17.5
	c2.3-6.3,9.4-9.6,15.7-7.3c6.3,2.3,9.6,9.4,7.3,15.7c-2.3,6.3-9.4,9.6-15.7,7.3C261.8,30.9,258.5,23.8,260.9,17.5z"/>
<path class="st0" d="M600,188.2c0,2.6-0.6,5.1-1.9,7.3c-1.3,2.2-3.1,4.1-5.4,5.4c-2.2,1.3-4.7,1.9-7.3,1.9s-5.1-0.7-7.3-1.9
	c-2.2-1.3-4.1-3.1-5.4-5.4c-1.3-2.2-2-4.7-1.9-7.3c0-2,0.4-3.9,1.2-5.8c0.7-1.7,1.8-3.3,3.1-4.6s2.9-2.3,4.6-3.1l5.8-1.2
	c2,0,3.9,0.4,5.8,1.2c1.7,0.7,3.3,1.8,4.6,3.1s2.4,2.9,3.1,4.6C599.6,184.2,600,186.2,600,188.2z M596.2,187.8
	c0-1.4-0.2-2.9-0.8-4.2c-0.5-1.3-1.3-2.5-2.3-3.5l-3.5-2.3l-4.2-0.8l-4.2,0.8l-3.5,2.3c-1,1-1.8,2.2-2.3,3.5s-0.8,2.8-0.8,4.2
	c0,1.9,0.6,3.7,1.5,5.4c0.9,1.6,2.3,2.9,3.8,3.8c1.6,1,3.5,1.5,5.4,1.5s3.7-0.6,5.4-1.5c1.6-0.9,2.9-2.3,3.8-3.8
	c0.9-1.5,1.4-3.2,1.5-5v-0.4H596.2z M591.9,195.1h-4.2l-1.9-3.8l-1.5-1.5h-1.2v5.8h-3.5V181h6.5c1.4,0,2.7,0.4,3.8,1.2
	c1,0.7,1.6,1.8,1.5,3.1c0,1-0.4,2-1.2,2.7l-2.7,1.2l1.9,1.5l1.5,2.7L591.9,195.1z M587.3,184.7c0.1-0.6-0.2-1.2-0.8-1.5h-3.8v3.5
	h3.8c0.7-0.2,1.2-0.8,1.2-1.5L587.3,184.7z"/>
</svg>
