<?xml version="1.0" encoding="utf-8"?>
<!-- Generator: Adobe Illustrator 23.0.4, SVG Export Plug-In . SVG Version: 6.00 Build 0)  -->
<svg version="1.1" id="Layer_1" xmlns="http://www.w3.org/2000/svg" xmlns:xlink="http://www.w3.org/1999/xlink" x="0px" y="0px"
	 viewBox="0 0 431.6 218.4" style="enable-background:new 0 0 431.6 218.4;" xml:space="preserve">
<style type="text/css">
	.st0{fill:#8796AF;}
</style>
<path class="st0" d="M5.5,211.2c2.8,1.7,8.7,4.2,15,4.2c8.8,0,15.4-4.1,15.4-10.8c0-4.7-3.5-7.3-10.8-8.9l-9.7-2.3
	c-7.2-1.7-11.3-5.5-11.3-11.4c0-6.7,5.5-12.8,17.8-12.8c6.3,0,12.5,1.9,15.9,3.9l-1,2.9c-3.1-2-9.6-3.8-15-3.8
	c-10.2,0-14.6,4.6-14.6,9.6c0,4.4,3.1,7.2,8.9,8.6l10,2.4c8,2,12.8,5,12.8,11.7c0,8.5-7.8,13.9-18.6,13.9c-6.6,0-12.9-2.4-15.9-4.2
	L5.5,211.2z"/>
<polygon class="st0" points="91.6,172.8 91.6,217.7 88.5,217.7 88.5,172.8 69.2,172.8 69.2,169.9 109.6,169.9 109.6,172.8 "/>
<path class="st0" d="M161.8,169.2c14,0,24.4,10.5,24.4,24.7c0,14-10.4,24.5-24.4,24.5c-13.8,0-24.3-10.5-24.3-24.5
	C137.5,179.7,148,169.2,161.8,169.2 M161.8,215.4c12.4,0,21.4-9.2,21.4-21.6c0-12.5-9-21.6-21.4-21.6c-12.2,0-21.3,9.1-21.3,21.6
	C140.5,206.2,149.6,215.4,161.8,215.4"/>
<polygon class="st0" points="226.2,174.9 226.2,217.7 223.1,217.7 223.1,169.9 226,169.9 261.9,212.9 261.9,169.9 264.9,169.9 
	264.9,217.7 262.2,217.7 "/>
<path class="st0" d="M326.2,169.2c14,0,24.4,10.5,24.4,24.7c0,14-10.4,24.5-24.4,24.5c-13.8,0-24.3-10.5-24.3-24.5
	C301.9,179.7,312.4,169.2,326.2,169.2 M326.2,215.4c12.4,0,21.4-9.2,21.4-21.6c0-12.5-9-21.6-21.4-21.6c-12.2,0-21.3,9.1-21.3,21.6
	C304.9,206.2,314,215.4,326.2,215.4"/>
<path class="st0" d="M387.5,169.9h20.2c8.6,0,15.9,4.6,15.9,14.9c0,9.4-7.1,14.7-15.4,14.7h-0.5l19.6,17.8v0.4h-4l-19.8-18.2h-13
	v18.2h-3.1V169.9z M390.6,172.7v24.1H408c6.8,0,12.6-4.2,12.6-11.9c0-8.4-5.9-12.2-12.6-12.2H390.6z"/>
<path class="st0" d="M49.2,16.4h-0.1c-0.4,0-1,0.3-1.6,0.3c-0.5,0-0.7,0.2-1.2,0.2c-0.2,0-0.5-0.1-0.9-0.2c-0.2-0.1-0.4-0.1-0.6-0.1
	c-1,0-1.8,1-2.1,1.1c-0.4,0.2-1.6,0.8-1.9,0.8s-0.7,0.3-1.6,0.9c-0.9,0.6-1.7,1.2-2,1.2l-1.2,1.5l-1.5,1.6c-0.3,0.3-0.4,0.6-0.7,1.3
	c-0.3,0.7-0.4,0.6-1.2,0.9c-0.8,0.3-0.9,0.6-0.9,0.6s-0.1,0.3-0.3,0.6l1.8,0.3c-1.3,0.6-2.2,1.4-2.6,2.4l-1.2,0.1
	c-0.2,0.2-0.4,0.5-0.5,0.8h0.1v3.1l1.8,1.2v1.5l1.2,0.1L32,37c0,0.5,0.2,1,0.4,1.4l-0.7,0l0,0.2c0,0.4-0.2,0.7-0.6,0.8l-0.3,0.1v0.7
	c0.5,0.2,0.5,0.4,0.4,0.8l-0.4,0.6v10.2v1l1.6-1.1l13.7-10.6l5.2,0.6V26.9h2.2v-5h2.4v-1h4.3v1h1.2l0-0.1l-0.1-0.6l-0.1-0.7
	c0-0.3-0.8-0.4-1.5-0.4s-1.6-0.7-1.6-0.7l0.6-0.5l-0.2-0.3L57,18.2L55.8,18c0,0-0.7-0.2-1.3-0.6c-0.2-0.2-0.3-0.2-0.3-0.2
	c0,0,0,0-0.1,0c0,0-0.1,0-0.1,0c-0.1,0-0.3,0-0.7-0.1c-0.6-0.1-0.9-0.2-1.1-0.2c0,0-0.1,0-0.1,0c0,0-0.1,0-0.1,0c-0.1,0-0.1,0-0.2,0
	l-2.4-0.4C49.4,16.4,49.3,16.4,49.2,16.4"/>
<polygon class="st0" points="288,53.9 290.2,61.1 290.2,53.8 "/>
<polygon class="st0" points="256.9,53.9 256.9,53.9 259.1,61.1 259.1,53.8 "/>
<polygon class="st0" points="225.8,53.9 228,61.1 228,53.8 "/>
<polygon class="st0" points="160.1,53.9 160.1,53.9 162.3,61.1 162.3,53.8 "/>
<polygon class="st0" points="126.5,53.9 128.7,61.1 128.7,53.8 "/>
<polygon class="st0" points="92.9,53.9 92.9,53.9 95.1,61.1 95.1,53.8 "/>
<polygon class="st0" points="424.3,49.7 430.7,83.8 430.7,89.3 431.5,89.3 431.5,83.8 425,49.6 "/>
<polygon class="st0" points="43.2,82.1 39.3,82.1 39.3,75.2 38.8,75.2 38.8,82.1 32,82.1 32,82.6 38.8,82.6 38.8,89.4 39.3,89.4 
	39.3,82.6 43.2,82.6 "/>
<polygon class="st0" points="363,79.2 356.2,79.2 356.2,72.3 355.7,72.3 355.7,79.2 348.9,79.2 348.9,79.6 355.7,79.6 355.7,86.5 
	356.2,86.5 356.2,79.6 363,79.6 "/>
<polygon class="st0" points="363,100.9 356.2,100.9 356.2,94 355.7,94 355.7,100.9 348.9,100.9 348.9,101.4 355.7,101.4 
	355.7,108.3 356.2,108.3 356.2,101.4 363,101.4 "/>
<path class="st0" d="M322.1,0h-0.3c-1.5,0-3.5,0.5-5.4,0.9l-0.1,0c-0.3-0.1-0.6-0.2-1-0.2c-1,0-1.9,0.4-2.1,0.5
	c-0.3,0.1-1.5,0.7-2.8,1.3c-0.6,0.3-1,0.4-1.2,0.4c-0.2,0-0.3-0.1-0.3-0.1s-1.1,1.4-1.7,1.9c-0.6,0.5-1.1,1.2-1.3,1.8
	c-0.2,0.6-0.5,0.9-1,2.1c-0.5,1.2-0.1,0.4-1.6,1.2c-1.2,0.6-2.9,2.1-2.9,3.3h2.9l0.7,0.4c-1.3,0.2-2.2,0.7-2.2,1.3l0.1,0.2l-1.4,0.3
	c-0.2,0.3-0.5,0.6-0.8,1c-0.4,0.5-0.7,1.5-0.8,2c-0.1,0.4,0.1,0.5,0.4,1l-0.4,0.6l0.2,0.4c-0.2,0.1-0.4,0.4-0.6,0.7
	c-0.3,0.4-0.5,0.6-0.8,0.8l-0.6,0.5l-4.4,1c-0.5-0.6-1.5-1.1-2.6-1.5l0.2-0.4c0-0.6-0.8-1-2.1-1.3L288,20c1.1-0.5,1.8-1.1,1.8-1.7
	c0-0.4-0.2-0.7-0.5-1c0.4-0.1,0.7-0.1,1.1-0.2v-0.3c0-0.3,0-0.3,0-0.3c0,0,0,0,0,0c0,0,0,0,0,0c0,0,0,0,0-0.2c0-0.5-1.8-0.7-2.2-0.8
	c-0.4-0.1-1.2-0.3-2-0.8c-0.3-0.2-0.5-0.4-0.7-0.5h-2.8c0.6-0.3,0.9-0.6,0.9-0.9c0-0.5-0.6-0.9-1.6-1.2l1.4-0.5
	c-0.5-0.1-1.2-0.1-2.1-0.1c-1.4-0.1-0.9-0.5-1.2-1.2c-0.3-0.7-1.2-0.4-2-0.7c-0.8-0.3-6.1-0.7-6.5-0.8c-0.4-0.1-2.1,0-3-0.1
	c-0.9-0.1-2.2-0.2-2.8-0.2c-0.6,0-1.5,0.1-2.4,0.1c-0.9,0-1.8,0.6-3.3,0.8c-1.1,0.1-1.7,0.3-2.4,0.3c-0.3,0-0.6,0-1-0.1
	c-0.1,0-0.1,0-0.2,0c-0.6,0-1.7,0.5-2.7,1c-1,0.5-1.8,1-2.1,1c0,0,0,0,0,0c0,0-0.1,0-0.1,0c-0.4,0-1,0.4-1.7,0.7
	c-0.7,0.4-1.6,1-2.5,1.5c-0.9,0.5-1.5,1-2,1.3c-0.5,0.3-1.9,1.5-2.4,1.6c-0.5,0.1-1.1,0.6-1.6,0.8c-0.5,0.2-1.1,1.2-1.4,1.8
	c-0.3,0.6-1,1.2-1,1.2s-1.6,1-2.3,1.4c-0.7,0.4-0.8,1.1-0.8,1.1s0,0.5-0.4,0.8c-0.4,0.3-1.2,0.7-3.2,2.1c-2,1.4-0.5,0.7-0.6,1.4
	c0,0.2,0,0.5-0.1,1l0.9-0.1l0.6,0.7c-1.2,0.4-2,1.6-2,2.9c0,0.3,0.1,0.7,0.2,1l-0.4,0.2l-0.4,0.1l-0.5-0.2c-0.6,0.7-1.5,1.7-1.4,2.2
	c0.1,0.7-2,4.6-3,5.9l-0.2,0.2l-0.3,0.6l-0.4,0.3l1.1,0.8l0.3,0.7l-0.1,0.6l10.3,0v-8.3h1v-4.1h1.9V31h4.1v2h1.2v3h1.3v6.2
	c0.1-0.4,0.3-0.8,0.4-1.2c0.6-1.6,1.4-3,2.4-4.5l2.7-0.9l0-0.1c0-0.4,0.2-0.7,0.7-1l-0.2-0.5c0-0.5,0.5-1,1.3-1.3l-0.5-0.4l-1.3,0
	c0.9-1.4,1.9-2.8,3.1-3.9c0.8-0.6,1.6-1.1,2.6-1.4l0.2,0l0.1,0l2.1-0.3c0.6-0.6,2-1.1,3.7-1.1l0.6,0l0,0l-0.2-0.8l-0.2-0.2
	c1.6-1,3.2-2,5-2c2.5,0,5.2,0.8,7.5,1.7c1.7,0.7,2.9,2.2,4.2,3.6l-0.1,0l0.1,0.4l-0.5,0.8c1.1,0.3,1.9,0.9,1.9,1.5l-0.4,0.7l2.6,0.1
	l0,0.2c0,0.3,0.3,0.6,0.6,0.7l1.9,0.4l0.1,0.2l0.6,0.3l0.2-0.1l0.5,0.6c0.4,0.6,0.7,1.2,0.9,1.8c-0.3,0-0.6,0.1-0.9,0.3l-0.1,0.1
	c0.3,0.3,0.5,0.5,0.5,0.9l-0.3,0.6c0.3,0.1,0.6,0.2,1.2,0.3c0.3,1.2,0.4,2.3,0.8,3.4c0.2,0.5,0.3,0.9,0.5,1.3v-4.1h8.5v5.9h7.1
	c0.3-1,0.7-1.9,1-2.7c0.3-0.1,0.5-0.3,0.6-0.6c0.1-0.4,1.3-2.3,2.1-3.1c0.7-0.8,0.7-1.7,0.4-2.4l0.5-0.3l0.4-0.8l-0.1-0.8l1.4-0.2
	c0.4,0,0.7-0.4,0.7-0.7c0-0.4-0.2-0.7-0.6-0.8l-0.2-0.1c0.6-0.1,1.1-0.3,1.1-0.3c0.4-0.1,0.6-0.4,0.6-0.8c0-0.4-0.2-0.7-0.6-0.8
	l-0.4-0.3c1.3-1.8,2.5-3.1,3.5-3.9l-0.2,0c0.9-1.5,2-1.1,3.1-2.2c1.8-1.8,4.1-2.3,6.3-2.4l1.3,0.1c0.9,0.8,1.3,0.9,1.7,0.9
	c0.1,0,0.3,0,0.4,0c0.1,0,0.3,0,0.4,0c0.4,0,1,0.1,1.9,0.7l-1.2,0.1c-0.4,0-0.7,0.4-0.7,0.8c0,0.4,0.3,0.8,0.7,0.8
	c1.5,0.1,3.2,0.3,3.9,0.4l0.1,0.2c0.5,0.7,0.8,0.7,1.3,1l-1.1,0.7c-0.4,0.1,0.1,0.3,0.1,0.7c0,0.4,0.4,0.7,0.8,0.7l1.6,0.2l-0.2,0.7
	l0.1,0.6l0.6,0.3l1.6,0.2l0.1,0l0.2,0c0.6,0.6,1,1.2,1.2,1.7v-3.9l1.8-0.4h6.7v13.4l2.2-0.2l0.6,0.7l10.6,8.2l3.1,0l0.9-1.2l4,0
	l-0.9-8.3l-0.2-0.1v-0.5h-0.2l-0.4-1.1l-0.3-0.9l-0.1-0.3l0-0.3l0-0.8l0-0.6l0.1-0.1c-1.3-4.9-2.1-7.1-2.1-7.1l-1.1-1.8l-0.4-0.8
	L365,26l-0.3,0.1l-1.9-1c-0.5-0.1-1.1-0.2-1.7-0.2l0,0c1-0.3,1.7-0.7,1.7-1.2c0-0.6-1-1.1-2.4-1.3l0.1-0.3l0-0.1l2.6-0.2l-0.6-0.6
	c-0.2-0.4-1.1-1.1-1.1-1.1s-1.7-0.7-2.3-1.1c-0.6-0.4-1.1-0.4-1.7-0.9c-0.2-0.2-0.3-0.2-0.3-0.2c0,0,0,0,0,0c0,0,0,0,0.1,0
	c0.1,0,0.1,0,0.1-0.2c0-0.4-0.8-0.7-0.8-0.7l-0.6-0.3l-2.8-0.5l-0.3-0.6l0.1-0.6h-1h-2.5c-0.1-1.6,0.8-0.4-0.6-1.9
	c-0.5-0.1-1-0.2-1.5-0.2c-1.2-0.1-0.9-0.7-0.3-1.4l-1.9-0.3l1.6-0.6c-0.3-0.4-0.6-0.7-0.9-1.1c-1.3,0-2.8-0.1-4.3-0.6
	c-1.4-0.4-0.7-0.7,0.4-0.8c0.6-0.2,1.6-0.4,2.3-0.5c-0.5-0.5-1.1-1.1-1.7-1.5c-1.7-1.3-4.1-2-6.5-3h-0.5c-0.7,0-1.5,0-2.5,0
	c-4-0.1-3.4-0.8-2.5-1.4c-0.5-0.1-1.1-0.2-1.7-0.3C327,1,324.7,0,322.1,0"/>
<path class="st0" d="M96.5,3.9L96.5,3.9c-0.4,0-1.5,0.3-1.8,0.5c-0.2,0.1-0.9,0.2-1.5,0.2c-0.5,0-1.1,0-1.3-0.2
	c-0.2-0.1-0.4-0.1-0.7-0.1c-0.3,0-0.6,0-0.9,0.1c-0.3,0-0.5,0.1-0.7,0.1c-0.1,0-0.1,0-0.1,0c0,0,0,0,0,0c-0.4,0-2.8,1-3.3,1.1
	c-0.6,0.2-1.4,0.8-1.4,0.8s-1.2,0.9-1.8,1c-0.6,0.2-1.1,0.5-1.5,1.6c-0.4,1.1-0.6,0.7-2.5,1.5c-1.9,0.9-1.4,2.2-1.4,2.2
	s-0.6,0.3-1.1,0.5c-0.5,0.2-1.6,1.1-1.6,1.1s-0.3,0.4-0.5,0.9h2.6c-0.9,0.6-1.4,1.3-1.5,2.1l-3,0.5L72,18.2
	c-0.4,0.5-0.3,0.9-0.3,0.9s-0.1,0.5-0.3,1c-0.2,0.5-1,1.3-1,1.3L70,21.7c-0.9-0.3-1.7-0.4-2.5-0.4c-2.6,0-4.2,1.4-4.2,1.4v6.9l0,0.1
	v13.7l1.7,0.1c0.3-0.7,2.2-2.1,2.6-4.8l0.1-0.6l0.7-0.4c1-0.6,0.8-1.8,0.6-2.5L69,35c-0.1-0.3,0.7-1.7,1.9-2.4
	c0.7-0.4,0.8-0.9,0.7-1.2l-0.1-0.4c0.6-0.1,1.2-0.2,2-0.3c0.2,0,1-0.2,1-0.8c0-0.5-0.4-0.8-1.3-1.1c0.4-0.1,0.9-0.1,1.4-0.1
	c0.5,0,1.2,0,1.2-0.7c0-0.5-0.2-0.7-1.4-0.9c1.7-2.1,1.4-2.7,3.9-3.6c0.3-0.5,0.6-0.9,0.9-1.4c1.7-2.5,3.5-4.7,5.8-4.9
	c0.5-0.1,2.5-0.6,4.9-0.6c1.7,0,3.7,0.2,5.6,0.9l-0.9,0.1c0,0-0.1,0-0.1,0c0,0-0.1,0-0.1,0c0,0-0.1,0-0.1,0c-0.1,0-0.1,0-0.1,0.3
	c0,0.4,0.3,0.5,0.6,0.5c0,0,0.1,0,0.1,0h0c1,0,1.9,0.8,3,0.9L98,19.6c0,0.4,0.2,0.8,0.6,0.9c0,0,1.1,0.2,2,0.8l0.4,0.2
	c0.4,0.6,0.9,1.2,1.2,1.9c0.3,0.7,0.7,1.4,1,2.1l-1.1,0.2c-0.4,0.1-0.6,0.4-0.6,0.8c0,0.4,0.3,0.7,0.6,0.8l1.1,0.2l0.4,0.7l0,0.2
	c-0.1,0.5,0.2,0.9,0.7,1.3c0.4,0.3,0.5,0.5,0.6,0.6c-0.3,0.3-0.7,0.7-0.6,1.3c0,0.3,0.2,0.7,0.9,1c0.4,0.2,0.5,0.3,0.6,0.3l0-0.1
	h0.2c0.4,1.4,0.7,2.7,0.9,3.9c0.2,0.2,0.4,0.4,0.8,0.4c0.2,0,0.5-0.1,0.8-0.3c0.5-0.8,1.1-1.6,1.8-2.2l0.2,0.2l0,0
	c0.4-0.7,2-1.1,3.9-1.1l0.1,0l0-0.1c0-0.8,1.8-1.5,4-1.5c0.3,0,0.6,0,0.9,0l0.3,0c0.3,0,0.6-0.3,0.6-0.5c1.8,0.2,3.4,0.9,4.9,1.9
	l-1.6,0.1l-0.4,0.2c0.3,0.1,0.6,0.3,0.8,0.5c1.6,0.2,2.7,0.7,2.7,1.4l-0.1,0.3l0.3,0.1h0l1.3-0.1c1.8,1.6,3.2,3.5,4.3,5.8
	c0.5,0.9,0.8,1.9,1.1,2.8h0.1v-8.6h1.6V32h4v3.7h1.6v8.6h3.3v-8.8h2.1V31h3.9v4.5h2v8.7h7.9h5.9l0.4-0.9l0.3-0.1h-0.2
	c-0.9,0-1-0.6-1.1-0.7c-0.1-0.5,0.4-0.9,0.9-1.2l-1.2-0.1c-0.4,0-0.7-0.3-0.7-0.6v0c1.9-0.2,3.2-0.6,3.2-1.1l-0.1-0.2l-0.1-0.1
	c-0.3-0.2-0.9-0.5-1.8-0.6l-0.2-0.4l0.1-0.3c0.8-0.2,1.4-0.5,1.4-0.8c0-0.5-1.5-0.9-3.7-1.1c0.4-0.2,0.7-0.4,0.7-0.7
	c0-0.3-0.4-0.5-1-0.8l1.3-0.4l0.1-0.3c0.1-0.7-0.1-0.6-0.1-1.2v-0.8c0,0-0.4-1.8-0.9-2.2c-0.5-0.4-1.3-0.8-2.1-1.8
	c-0.8-1-0.1-0.6,0-1.3c0.1-0.7,0-0.4,0-1.1c0-0.7-0.4-1.1-0.7-1.5c-0.3-0.3-1-0.5-1.4-0.7c-0.4-0.2-2.3-0.9-0.9-2
	c1.4-1,0.2-1-0.4-1.5c-0.6-0.5-2.1-1.5-3.6-2.5c-1.5-1-0.5-1.9-0.8-2.6c-0.3-0.7-1.8-0.8-2.1-1l-2.1-0.5l-1.6-0.7l-2.9-1.5
	c-0.3-0.2-2.1-0.2-5.3-1.1c-1-0.3-1.8-0.4-2.5-0.4c-1.5,0-2.2,0.5-2.4,0.5c-0.3,0-1.3,0.2-1.8,0.2c-0.5,0-2,0.3-2,0.3l-1.2,0.7
	l-1.9,1.5c-0.2,0.3-0.5,0.8-1.3,0.9c-0.8,0.1-2.8,1.9-3.2,2.2c-0.3,0.3-0.6,0.4-0.9,0.6l0,0l0.5,0.5l0.4,0c-0.7,0.4-1.2,0.9-1.5,1.4
	l-2.1,0l-0.1,0.1l0,0.1h-0.1c-2.6,0-4.5-0.7-5.8-1.5c-0.3-0.3-0.8-0.7-1.3-0.9l0.6-0.2l1,0.1l-0.5-0.8c-0.2-0.3,0-0.6-0.1-0.9
	c-0.1-0.3-0.3-0.4-1.2-0.9c-0.9-0.4-1-0.4-2-0.9c-1-0.4-0.8-0.9-1-1.4c-0.2-0.5,0-0.5,0-0.5s0.2-0.3-0.2-1.6
	C109,8.3,109,8.2,109,8.2c0,0,0,0.1,0,0.1c0,0.1,0,0.1,0,0.1c0,0,0,0-0.1-0.1c-0.3-0.5-0.9-0.4-1.2-0.6c-0.3-0.2-1.4-0.5-2-0.7
	c-0.6-0.2-0.8-0.3-1.4-0.5c-0.6-0.2-1.7-0.6-2-0.7l-0.6-0.3L101,4.9l-0.6-0.2c0,0-1.7-0.4-2.1-0.5C98,4.1,96.9,3.9,96.5,3.9"/>
<path class="st0" d="M383.2,114.1h-0.5v-12.7c0,0,0.1-1.3-0.8-2.3c-0.8-1-2.3-1.4-4.3-1.4v-0.5c2.2,0,3.7,0.5,4.7,1.6
	c1,1.2,0.9,2.6,0.9,2.7L383.2,114.1z"/>
<path class="st0" d="M383.2,115.7h-0.5v-14.3c0,0-0.2-1.4,0.9-2.6c0.9-1.1,2.5-1.6,4.7-1.6v0.5c-2,0-3.5,0.5-4.3,1.5
	c-0.9,1-0.7,2.3-0.7,2.3L383.2,115.7z"/>
<path class="st0" d="M400.9,114.1h-0.5v-12.7c0,0,0.1-1.3-0.8-2.3c-0.8-1-2.3-1.4-4.3-1.4v-0.5c2.2,0,3.7,0.5,4.7,1.6
	c1,1.2,0.9,2.6,0.9,2.7L400.9,114.1z"/>
<path class="st0" d="M400.9,115.7h-0.5v-14.3c0,0-0.2-1.4,0.9-2.6c0.9-1.1,2.5-1.6,4.7-1.6v0.5c-2,0-3.5,0.5-4.3,1.5
	c-0.9,1-0.7,2.3-0.7,2.3L400.9,115.7z"/>
<path class="st0" d="M418.3,114.1h-0.5v-12.7c0,0,0.1-1.3-0.8-2.3c-0.8-1-2.3-1.4-4.3-1.4v-0.5c2.2,0,3.7,0.5,4.7,1.6
	c1,1.2,0.9,2.6,0.9,2.7L418.3,114.1z"/>
<path class="st0" d="M418.3,115.7h-0.5v-14.3c0,0-0.2-1.4,0.9-2.6c0.9-1.1,2.5-1.6,4.7-1.6v0.5c-2,0-3.5,0.5-4.3,1.5
	c-0.9,1-0.8,2.3-0.7,2.3L418.3,115.7z"/>
<polygon class="st0" points="43.3,104 40,104 40,99.3 39.6,99.3 39.6,104 36.5,104 36.5,104.5 39.6,104.5 39.6,111.4 40,111.4 
	40,104.5 43.3,104.5 "/>
<polygon class="st0" points="171.1,52.7 166.7,48.8 162.5,52.7 163,53.3 166.8,49.9 170.6,53.3 "/>
<polygon class="st0" points="75.9,46.1 145.1,46.1 145.1,48.7 148.2,52.5 148.7,51.8 148.7,36.3 148.7,31.7 147.2,31.7 147.2,36.4 
	145.1,36.4 145.1,45.3 140,45.3 140,45.2 137.6,45.2 137.6,41.1 137.6,36.3 137.6,32.7 136.2,32.7 136.2,36.7 134.6,36.7 
	134.6,45.3 102,45.3 102,45.2 97.9,45.2 97.9,29.6 91.7,29.6 91.7,45.3 75.9,45.3 63.3,44.3 63.3,45.1 "/>
<path class="st0" d="M164.1,61.1h5.3h0.3v0h0.5v-7.4l-3.3-3l-3.3,3v7.4h0.3v0H164.1z M166.8,51.8l2.4,2.2h-4.8L166.8,51.8z"/>
<path class="st0" d="M130.5,61.1h5.4h0.1v0h0.5v-7.4l-3.3-3l-3.3,3v7.4h0.4v0H130.5z M133.2,51.8l2.4,2.2h-4.8L133.2,51.8z"/>
<path class="st0" d="M97,61.1h5.5h0v0h0.4v-7.4l-3.3-3l-3.3,3v7.4L97,61.1L97,61.1L97,61.1z M99.6,51.8l2.4,2.2h-4.8L99.6,51.8z"/>
<polygon class="st0" points="103.9,52.7 99.6,48.8 95.3,52.7 95.9,53.3 99.6,49.9 103.4,53.3 "/>
<polygon class="st0" points="299,52.7 294.6,48.8 290.4,52.7 290.9,53.3 294.6,49.9 298.4,53.3 "/>
<path class="st0" d="M297.5,61.1L297.5,61.1l0.5,0v-7.4l-3.3-3l-3.3,3v7.4h0.6v0H297.5z M294.6,51.8l2.4,2.2h-4.8L294.6,51.8z"/>
<polygon class="st0" points="72.8,53 73.8,55.4 72.9,55.4 72.9,56.1 76.2,56.1 77.6,53 "/>
<polygon class="st0" points="137.5,52.7 133.2,48.8 128.9,52.7 129.5,53.3 133.2,49.9 137,53.3 "/>
<polygon class="st0" points="151.8,45.1 151.8,45.9 187.7,45.9 188.3,45.1 "/>
<polygon class="st0" points="335.1,59.6 338.6,54.9 332.4,54.9 332.4,60 "/>
<path class="st0" d="M431.5,113.9l0-19.7v-5.8h-62.3v45.3h62.3L431.5,113.9z M414.1,99.3c0-2.4,3.3-4.8,3.9-5.2c0,0,3.9,2.8,3.9,5.2
	v14.6h-7.8V99.3z M396.7,99.3c0-2.4,3.3-4.8,3.9-5.2c0,0,3.9,2.8,3.9,5.2v14.6h-7.8V99.3z M379.2,99.3c0-2.4,3.3-4.8,3.9-5.2
	c0,0,3.9,2.8,3.9,5.2v14.6h-7.8V99.3z M431.5,120.5h-58.4v-0.8h58.4V120.5z"/>
<polygon class="st0" points="200.8,57.9 200.8,57.9 200.8,57.9 "/>
<polygon class="st0" points="201.9,57.3 201.9,57.3 201.9,57.2 "/>
<polygon class="st0" points="319.7,53 321.1,56.1 324.4,56.1 324.4,55.4 323.5,55.4 324.5,53 "/>
<polygon class="st0" points="72.9,56.8 72.9,60.6 73.3,61.1 75.7,61.4 75.7,56.8 "/>
<polygon class="st0" points="385.5,5.5 385.5,14.2 385.5,14.2 385.5,14.2 386.3,14.2 386.3,7.5 388.8,7.5 388,6.5 388.8,5.5 
	388.8,5.5 388.8,5.5 "/>
<polygon class="st0" points="321.6,56.8 321.6,61.4 324,61.1 324.4,60.6 324.4,56.8 "/>
<polygon class="st0" points="324.9,52.2 326.3,55.3 329.5,55.3 329.5,54.3 328.7,54.3 329.6,52.2 "/>
<polygon class="st0" points="330.3,50.7 331.8,54.1 339.1,54.1 340.3,50.7 "/>
<path class="st0" d="M206.1,104.5H205v-3h1.1V100H205v-2.7h1.1v-6.5h-5.5v-1.1h-3.7v1.1h-5.5v6.5h1v2.7h-1v1.4h1v3h-1v4.7h14.8
	V104.5z M203.3,107.9l-9.4,0V93.6c0,0,1.8-1.3,4.9-1.3c3.1,0,4.5,1.2,4.5,1.2V107.9z"/>
<polygon class="st0" points="326.8,56 326.8,60.7 329.2,60.4 329.5,59.9 329.5,56 "/>
<path class="st0" d="M15.8,78.1c-0.2,0.2-1.6,1.1-1.6,2.1v5.3h3.2v-5.3C17.4,79.2,15.8,78.1,15.8,78.1"/>
<polygon class="st0" points="79.9,87.7 81.8,87.4 81.8,76.2 79.9,76.1 "/>
<polygon class="st0" points="324,76.2 324,88.6 326,88.8 326,76.1 "/>
<polygon class="st0" points="328.9,108.9 330.8,109.3 330.8,94.9 328.9,94.6 "/>
<polygon class="st0" points="79.9,92.9 79.9,105.8 81.8,105.3 81.8,92.6 "/>
<polygon class="st0" points="75.7,88.1 77.6,87.9 77.6,76.2 75.7,76.1 "/>
<polygon class="st0" points="71.2,94.2 71.2,108.1 73.1,107.5 73.1,93.9 "/>
<polygon class="st0" points="75.7,93.5 75.7,106.8 77.6,106.3 77.6,93.2 "/>
<polygon class="st0" points="67.7,52.2 68.6,54.3 67.8,54.3 67.8,55.3 71,55.3 72.4,52.2 "/>
<polygon class="st0" points="315.3,105.3 317.3,105.8 317.3,92.9 315.3,92.6 "/>
<path class="st0" d="M215.7,113.6c-2.7,1.4-9.9,2.9-17,2.9c-8.1,0-16.6-1.5-17.9-3.1h1.3c2.1,0.9,8.4,2.3,16.6,2.3
	c7,0,12.8-1.3,15.6-2.3v-1.3c-1.7,1.3-8.8,2.6-15.5,2.6c-7.2,0-15.9-1.4-15.9-3.1l0-0.2l0-47.3L83.6,64v0l-22.4-2.8v0h0L47.6,43
	l9.1,1.1l1.8,1.4V27.3h0v-4.9v-0.5h-1.7v1h-2.4v5h-2.2v15l-5.8-0.7L30,54.8v0L26.1,58V31.1h-1.4v3.3h-0.8l-1.3,0.8v18.1l-1.6,1.6
	h-1.8v2.3H18v-2.3h-2.3v2.3h-1.2v-2.3h-2.3v2.4H11v-2.4H8.7v2.3H7.5v-2.3H5.1v2.3H3.8v-2.3H2.3v5.8H0.7L0,61v1.2h0.7v1.5h1.7v61.8
	l10.5,0l0.3,0V63.5H21v61.1l0.2,0h7.1v-2.3l4.1-6.3h1l-4.3,6.5v3.5l1.4,0v-0.7h1.1v-1.8h1.1v-2h1.1v-1.8h1.1v-1.6h0V97.5h9.9v18.2
	l-0.8,1.4V98.3h-8.3v19.7h7.7l-0.5,0.8h-7.3v1.1h6.6v0.1l-0.4,0.7h-7.3v1h6.7l-0.5,0.8h-7.3v1.1h6.8v0.8h-7.8v1h7.7v0.8l1.7,0l0-3.1
	l4.2-6.9l0,8.6l0.1,0l15.3,0l22.6-10.2l96.3,0c0,0,2.6,3.1,17.4,3.1c15.3,0,18.6-3.1,18.6-3.1h0.1v-1H215.7z M10.5,98.9H7.3v-5.3
	c0-1,1.4-2,1.6-2.1c0,0,1.6,1.1,1.6,2.1V98.9z M10.5,73.8H7.3v-5.3c0-1,1.4-2,1.6-2.1c0,0,1.6,1.1,1.6,2.1V73.8z M21.1,62.8H2.4V62
	h18.7V62.8z M42.4,109.2h-5.1v-9.5h5.1V109.2z M61.2,63.3L83.6,66l0,0.6l-22.5-2.5L61.2,63.3z M41.1,49.9L41.1,49.9l3.2,0l4.2,3.6
	l-3.7,0.8L41.1,51l-3.7,3.4l-0.5-0.6L41.1,49.9z M47.1,54.6L44.8,60l0.1-5L47.1,54.6z M43.2,60.4h-4.3v-5.1h4.3V60.4z M46.6,93.8
	l-10.6,0V93h7.5V75.8h3.1V93.8z M36,75.9h6.2v12.5H36V75.9z M48.1,74h-0.6v1.1h-3.6v-1.5h4.1V74z M59,66.5H23.2v-3H59V66.5z
	 M61.1,124.2L61.2,65l22.5,2.5l0.1,46.6L61.1,124.2z M99.8,77.1h-3.5v-6.6h3.5V77.1z M99.9,96.6h-3.5v-6.5h3.5V96.6z M92.4,77.5h3.4
	v6.4h-3.4V77.5z M99.8,83.9h-3.5v-6.4h3.5V83.9z M95.9,77.1h-3.4v-6.6h3.4V77.1z M92.5,90.1h3.4v6.6h-3.4V90.1z M92.5,97.1h3.4v6.4
	h-3.4V97.1z M96.3,97.1h3.5v6.4h-3.5V97.1z M115,77.1h-3.5v-6.6h3.5V77.1z M107.6,77.5h3.4v6.4h-3.4V77.5z M111.5,90.1h3.5v6.6h-3.5
	V90.1z M111.5,77.5h3.5v6.4h-3.5V77.5z M111,77.1h-3.4v-6.6h3.4V77.1z M107.6,90.1h3.4v6.6h-3.4V90.1z M107.6,97.1h3.4v6.4h-3.4
	V97.1z M111.5,97.1h3.5v6.4h-3.5V97.1z M130.1,77.1h-3.4v-6.6h3.4V77.1z M122.7,77.5h3.5v6.4h-3.5V77.5z M126.6,90.1h3.4v6.6h-3.4
	V90.1z M126.6,77.5h3.4v6.4h-3.4V77.5z M126.1,77.1h-3.5v-6.6h3.5V77.1z M122.7,90.1h3.5v6.6h-3.5V90.1z M122.7,97.1h3.5v6.4h-3.5
	V97.1z M126.6,97.1h3.4v6.4h-3.4V97.1z M145.1,77.1h-3.4v-6.6h3.4V77.1z M137.7,77.5h3.6v6.4h-3.6V77.5z M141.8,90.1h3.4v6.6h-3.4
	V90.1z M141.8,77.5h3.4v6.4h-3.4V77.5z M141.3,77.1h-3.6v-6.6h3.6V77.1z M137.7,90.1h3.6v6.6h-3.6V90.1z M137.7,97.1h3.6v6.4h-3.6
	V97.1z M141.8,97.1h3.4v6.4h-3.4V97.1z M160.2,77.1h-3.4v-6.6h3.4V77.1z M152.8,77.5h3.5v6.4h-3.5V77.5z M156.8,90.1h3.4v6.6h-3.4
	V90.1z M156.8,77.5h3.4v6.4h-3.4V77.5z M156.4,77.1h-3.5v-6.6h3.5V77.1z M152.8,90.1h3.5v6.6h-3.5V90.1z M152.8,97.1h3.5v6.4h-3.5
	V97.1z M156.8,97.1h3.4v6.4h-3.4V97.1z M175.3,77.1h-3.4v-6.6h3.4V77.1z M167.9,77.5h3.5v6.4h-3.5V77.5z M171.9,90.1h3.4v6.6h-3.4
	V90.1z M171.9,77.5h3.4v6.4h-3.4V77.5z M171.4,77.1h-3.5v-6.6h3.5V77.1z M167.9,90.1h3.5v6.6h-3.5V90.1z M167.9,97.1h3.5v6.4h-3.5
	V97.1z M171.9,97.1h3.4v6.4h-3.4V97.1z M180.1,66.6H87.5v-0.8h92.6V66.6z"/>
<polygon class="st0" points="324,107.5 326,108 326,94.2 324,93.9 "/>
<polygon class="st0" points="315.3,76.2 315.3,87.4 317.3,87.7 317.3,76.1 "/>
<polygon class="st0" points="319.5,106.3 321.5,106.8 321.5,93.5 319.6,93.2 "/>
<polygon class="st0" points="319.6,76.2 319.5,87.9 321.5,88.1 321.5,76.1 "/>
<polygon class="st0" points="71.2,88.8 73.1,88.6 73.1,76.2 71.2,76.1 "/>
<polygon class="st0" points="9,12.1 9,54.1 9,54.1 9,54.1 9.8,54.1 9.8,12.1 9.7,11.8 9.4,11.7 "/>
<polygon class="st0" points="67.8,56 67.8,59.9 68.1,60.4 70.5,60.7 70.5,56 "/>
<polygon class="st0" points="267.9,52.7 263.5,48.8 259.3,52.7 259.8,53.3 263.6,49.9 267.4,53.3 "/>
<polygon class="st0" points="57,50.7 58.2,54.1 65.5,54.1 67.1,50.7 "/>
<polygon class="st0" points="65,60 65,54.9 58.7,54.9 62.3,59.6 "/>
<path class="st0" d="M235.4,61.1L235.4,61.1l0.5,0v-7.4l-3.3-3l-3.3,3v7.4h0.6v0H235.4z M232.5,51.8l2.4,2.2h-4.8L232.5,51.8z"/>
<path class="st0" d="M431.2,82.9h-62.1l-0.7-16.4h-28.9v-3h28.8l-0.5-12.9h57.4l-0.2-0.9h-26.3V37.7l0.8-0.7l0.4-0.6v-0.2h-22.7
	v-0.8h23.5l0.3-0.4l-10.8-8v-4.5l0.3-0.3v-5l-4.9-2.5l-4.2,2.7v5.3l0.3,0.2v4.3l-9.4,9l0,0.7l0.3,0.9h0.6v1l0.3,0.1v10.6h-6.5
	l-1,1.5h-3.8l-10.9-8.5L351,42l-2.7,0.3v0l-2.6,0.3V28.8h-3.2l-1,0.2v14l-20.1,2.1h-23.3v0h-2.7v-5.9h-4v5.9h-45.8h-0.5h-2.7v0V45
	v-8.7v-2.8v-1.6h-2.1v0.8h-1.9v4.1h-1v8.3H209l0.1,0.2l0.4,0.5l0.1,0.1h90.3l21.6,0l7.4-0.8l21.2-2.2l-13.8,18.3v0l0,0v0h0l-1.1,0.1
	l-0.2,0l-21.4,2.8l-94.1,0v1.6h89v0.8h-87v3.9h2.5v6.6h-6.8v0.5h6.8v6.4h-2.5v6.2h2.5v6.5h-6.8v0.5h6.8v6.4h-2.5v11.1h91.9
	l22.9,10.3l0,0c3.3,0,29.9,0.1,29.9,0.1l2.2,7.5V85.5h63.1v-0.7L431.2,82.9z M384,22.9h0.4V22c0-1.2,0.9-2.2,2.1-2.2
	c1.2,0,2.1,1,2.1,2.2v0.9h0.4v4.7h-5V22.9z M386.6,38.9h3v5.5h-3V38.9z M374.4,38.9l2.6-1.1h0.8v12.1H377l-2.6-0.3V38.9z M350,54.6
	l2.3,0.4l0.1,5L350,54.6z M358.2,60.4h-4.3v-5.1h4.3V60.4z M352.8,49.9h3.2l0,0l4.3,3.9l-0.5,0.6l-3.7-3.4l-3.7,3.3l-3.7-0.8
	L352.8,49.9z M303.5,77.1H300v-6.6h3.5V77.1z M299.5,83.9h-3.4v-6.4h3.4V83.9z M299.5,96.6h-3.4v-6.5h3.4V96.6z M300,90.1h3.5v6.6
	H300V90.1z M300,77.5h3.5v6.4H300V77.5z M299.5,77.1h-3.4v-6.6h3.4V77.1z M288.4,77.1h-3.5v-6.6h3.5V77.1z M284.4,83.9H281v-6.4h3.5
	V83.9z M284.4,96.6H281v-6.5h3.5V96.6z M284.9,90.1h3.5v6.6h-3.5V90.1z M284.9,77.5h3.5v6.4h-3.5V77.5z M284.4,77.1H281v-6.6h3.5
	V77.1z M273.3,77.1h-3.4v-6.6h3.4V77.1z M269.4,83.9h-3.5v-6.4h3.5V83.9z M269.4,96.6h-3.5v-6.5h3.5V96.6z M269.9,90.1h3.4v6.6h-3.4
	V90.1z M269.9,77.5h3.4v6.4h-3.4V77.5z M269.4,77.1h-3.5v-6.6h3.5V77.1z M258.2,77.1h-3.5v-6.6h3.5V77.1z M254.2,83.9h-3.4v-6.4h3.4
	V83.9z M254.2,96.6h-3.4v-6.5h3.4V96.6z M254.7,90.1h3.5v6.6h-3.5V90.1z M254.7,77.5h3.5v6.4h-3.5V77.5z M254.2,77.1h-3.4v-6.6h3.4
	V77.1z M243.1,77.1h-3.5v-6.6h3.5V77.1z M239.1,83.9h-3.4v-6.4h3.4V83.9z M239.1,96.6h-3.4v-6.5h3.4V96.6z M239.5,90.1h3.5v6.6h-3.5
	V90.1z M239.5,77.5h3.5v6.4h-3.5V77.5z M239.1,77.1h-3.4v-6.6h3.4V77.1z M228,77.1h-3.6v-6.6h3.6V77.1z M224.4,77.5h3.6v6.4h-3.6
	V77.5z M228,96.6h-3.6v-6.5h3.6V96.6z M224.4,97.1h3.6v6.4h-3.6V97.1z M235.7,97.1h3.4v6.4h-3.4V97.1z M239.5,97.1h3.5v6.4h-3.5
	V97.1z M250.8,97.1h3.4v6.4h-3.4V97.1z M254.7,97.1h3.5v6.4h-3.5V97.1z M265.9,97.1h3.5v6.4h-3.5V97.1z M269.9,97.1h3.4v6.4h-3.4
	V97.1z M281,97.1h3.5v6.4H281V97.1z M284.9,97.1h3.5v6.4h-3.5V97.1z M296.1,97.1h3.4v6.4h-3.4V97.1z M300,97.1h3.5v6.4H300V97.1z
	 M313.5,66l22.4-2.8v0.9l-22.5,2.5L313.5,66z M313.4,114.1l0.1-46.6l22.5-2.5l0.1,59.3L313.4,114.1z M352.3,72.7h7.3v13.4h-7.3V72.7
	z M359.8,107.7h-7.4V94.3h7.4V107.7z"/>
<polygon class="st0" points="328.9,76 328.9,89.1 330.8,89.4 330.8,75.9 "/>
<path class="st0" d="M266.4,61.1L266.4,61.1l0.5,0v-7.4l-3.3-3l-3.3,3v7.4h0.6v0H266.4z M263.6,51.8l2.4,2.2h-4.8L263.6,51.8z"/>
<polygon class="st0" points="66.3,89.4 68.2,89.1 68.2,76 66.3,75.9 "/>
<polygon class="st0" points="66.3,94.9 66.3,109.3 68.2,108.9 68.2,94.6 "/>
<polygon class="st0" points="236.8,52.7 232.5,48.8 228.2,52.7 228.8,53.3 232.5,49.9 236.3,53.3 "/>
<path class="st0" d="M211.9,50.1l-13.2-16.9l-13.3,16.9h-1.8l0,61.4c0.4,0.7,6.7,2.3,15.1,2.3c8.3,0,14.7-1.8,15.1-2.5v-0.1V50.1
	H211.9z M202.9,76.5v-4.7c0-0.7,0.4-1.3,0.8-1.8c0.4-0.4,0.8-0.7,0.8-0.7s1.6,1,1.6,2.5v4.7H202.9z M206,83.8h-3.1V77h3.1V83.8z
	 M201.9,57.2c0-1.5,0.7-2.1,1.5-2.5h0.2c0.8,0.4,1.4,1.1,1.5,2.6v2.5h-3.1V57.2z M201.9,60.2h3.1V64h-3.1V60.2z M201.7,70.1
	c0.5,0.7,0.4,1.7,0.4,1.7h0l0-0.2v5h-3.2v-3.1v-0.5c0.1-0.8,0.5-2.3,2.6-2.9L201.7,70.1z M202.1,83.8H199V77h3.2V83.8z M198.7,71.8
	c-0.3-0.8-1-1.7-2.4-2.3c0.5-0.4,1.2-0.9,1.7-1.5c0.7-0.8,0.7-1.6,0.7-1.7c0,0.1,0,0.9,0.7,1.7c0.5,0.6,1.2,1.1,1.7,1.5
	C199.7,70.1,199,71,198.7,71.8 M198.9,60.2h2.1V64H199L198.9,60.2z M201.1,56.6v3.1h-2.1v-1v-0.5c0-0.7,0.4-1.9,1.9-2.7
	C201,55.9,201,56.2,201.1,56.6 M197.4,43.9L197.4,43.9L197.4,43.9c0-0.8,1.3-2.4,1.3-2.4s1.3,1.6,1.3,2.4l0,0.1h0v5.2h-2.7V43.9z
	 M198.7,53.1c0.8,0.5,1.6,1,2,2c-1.1,0.5-1.7,1.4-2,2.1c-0.3-0.7-0.8-1.5-2-2.1C197.1,54.1,197.9,53.5,198.7,53.1 M196.3,57.3
	L196.3,57.3c0-0.7,0.1-1.3,0.3-1.7c1.6,0.7,1.9,2,2,2.7v0.5v0v1h-2.2V57.3z M196.3,60.2h2.2V64h-2.2V60.2z M195.9,69.9
	c2.1,0.7,2.5,2.1,2.6,2.9v0.5v0v3.1h-3.2v-5.3c0-0.1,0-0.6,0.4-1.2L195.9,69.9z M198.5,83.8h-3.2V77h3.2V83.8z M192.4,57.2
	c0-1.5,0.7-2.1,1.5-2.5h0.2c0.8,0.4,1.4,1.1,1.5,2.6v2.5h-3.1V57.2z M192.4,60.2h3.1V64h-3.1V60.2z M191.4,71.7
	c0-1.4,1.6-2.5,1.6-2.5s1.2,0.8,1.5,2v5.3h-3.1V71.7z M191.4,77h3.1v6.8h-3.1V77z M190.5,109.2v-5.6h1v-1.4h-1v-3h1v-1.1h-1V90h5.5
	v-1.1h5.3V90h5.5v8.1h-1.1v1.1h1.1v3h-1.1v1.4h1.1v5.6h1.3v0.4c0,1.2-6,1.4-9.5,1.4c-1.6,0-9.4-0.1-9.5-1.4l0-0.4H190.5z
	 M198.7,112.9c-0.1,0-11.4-0.1-12-1.8h1.3c1.4,0.4,5.2,1,10.7,1c5.4,0,9.4-0.6,10.9-1h1.3C210.3,112.8,198.8,112.9,198.7,112.9"/>
</svg>
