<?xml version="1.0"?>
<svg xmlns="http://www.w3.org/2000/svg" xmlns:xlink="http://www.w3.org/1999/xlink" version="1.1" id="Layer_1" x="0px" y="0px" viewBox="0 0 512.017 512.017" style="enable-background:new 0 0 512.017 512.017;" xml:space="preserve" width="512px" height="512px" class=""><g><g>
	<g>
		<g>
			<path d="M466.48,193.053l45.538-16.184l-5.043-14.191l-44.779,15.915C444.736,130.583,398.651,96.2,344.685,96.2     c-46.363,0-86.91,25.375-108.486,62.966L93.426,83.608l-3.523,6.642c-5.458,10.291-6.567,22.091-3.13,33.208     c1.686,5.516,4.403,10.547,7.977,14.886l-1.731,5.728c-3.355,11.121-2.191,22.907,3.287,33.195     c1.728,3.232,3.823,6.191,6.229,8.837H0v7.53c0,11.622,4.55,22.566,12.79,30.805c4.082,4.106,8.847,7.291,14.039,9.455     l1.12,5.796c2.198,11.421,8.728,21.313,18.408,27.87c4.779,3.212,10.045,5.41,15.541,6.54l2.243,5.55     c4.383,10.817,12.704,19.268,23.385,23.777c5.325,2.28,10.94,3.447,16.582,3.502l3.191,4.929     c6.349,9.807,16.128,16.538,27.556,18.958c5.659,1.178,11.377,1.239,16.882,0.239l4.099,4.256     c8.055,8.37,18.92,13.117,30.645,13.356c11.551,0.085,22.603-4.192,30.973-12.254l2.246-2.164v74.278     c-18.819-4.288-36.945-11.382-53.688-21.129l-7.574,13.012c31.468,18.319,67.441,28,104.035,28     c114.258,0,207.213-92.959,207.203-207.213c0-3.368-0.138-6.705-0.401-10.006l37.679,13.387l5.042-14.191l-45.24-16.074     C466.662,193.893,466.576,193.471,466.48,193.053z M126.471,184.038c-7.301-2.232-13.295-7.158-16.879-13.858     c-2.372-4.458-3.516-9.346-3.376-14.251l34.953,10.585l5.697-13.862l-31.778-16.783c-6.755-3.604-11.697-9.574-13.92-16.835     c-1.492-4.82-1.676-9.827-0.597-14.616l128.933,68.237c-1.845,4.362-3.442,8.852-4.789,13.448h-91.434L126.471,184.038z      M262.468,413.353c-9.304,0-18.56-0.699-27.703-2.028V298.781l-27.757,26.798c-5.485,5.284-12.838,8.052-20.258,8.038     c-5.069-0.116-9.902-1.505-14.121-4.028l26.252-25.327l-9.322-11.732l-30.17,19.558c-6.328,4.13-13.947,5.543-21.432,3.98     c-4.943-1.044-9.421-3.331-13.087-6.625l30.635-19.876l-6.919-13.298l-33.348,13.469c-7.1,2.877-14.831,2.823-21.808-0.171     c-4.646-1.959-8.602-5.045-11.575-8.967l33.86-13.705l-4.267-14.367l-35.263,6.885c-7.516,1.42-15.131-0.116-21.405-4.335     c-4.188-2.84-7.479-6.635-9.643-11.046l35.816-6.953l-1.434-14.92H43.592c-7.622,0-14.769-2.963-20.139-8.359     c-3.581-3.57-6.093-7.916-7.386-12.64h205.239c-1.056,6.525-1.613,13.215-1.613,20.033h15.06     c0-60.617,49.316-109.937,109.937-109.937c60.617,0,109.933,49.319,109.933,109.937c0,12.606-1.234,24.927-3.562,36.862     c-9.994-2.704-20.257-4.091-30.619-4.091c-65.021,0-117.917,52.896-117.917,117.924c0,12.271,1.89,24.33,5.627,35.96     C293.503,411.437,278.206,413.353,262.468,413.353z M322.636,403.694c-3.356-10.284-5.056-20.952-5.056-31.803     c0-56.716,46.145-102.868,102.861-102.868c9.191,0,18.296,1.257,27.155,3.7C430.402,334.422,383.125,383.7,322.636,403.694z" data-original="#000000" class="active-path" data-old_color="#B0E4F8" fill="#AFE4F8"/>
			<path d="M391.499,218.206c13.554,0,24.576-11.025,24.576-24.579c0-13.547-11.022-24.569-24.576-24.569     c-13.558,0-24.579,11.022-24.579,24.569C366.92,207.181,377.941,218.206,391.499,218.206z M391.499,184.117     c5.246,0,9.52,4.267,9.52,9.51c0,5.253-4.273,9.523-9.52,9.523c-5.253,0-9.523-4.273-9.523-9.523     C381.976,188.384,386.246,184.117,391.499,184.117z" data-original="#000000" class="active-path" data-old_color="#B0E4F8" fill="#AFE4F8"/>
		</g>
	</g>
</g></g> </svg>
