<?xml version="1.0" encoding="utf-8"?>
<!-- Generator: Adobe Illustrator 16.0.4, SVG Export Plug-In . SVG Version: 6.00 Build 0)  -->
<!DOCTYPE svg PUBLIC "-//W3C//DTD SVG 1.1//EN" "http://www.w3.org/Graphics/SVG/1.1/DTD/svg11.dtd">
<svg version="1.1" xmlns="http://www.w3.org/2000/svg" xmlns:xlink="http://www.w3.org/1999/xlink" x="0px" y="0px"
	 width="1650.942px" height="990px" viewBox="0 0 1650.942 990" enable-background="new 0 0 1650.942 990" xml:space="preserve">
<g id="Layer_1">
</g>
<g id="Man_Standing_Up_designed_by_Freepik_from_Flaticon.com">
	<rect fill="#0F8257" width="1650.942" height="990"/>
	<g>
		<path fill="#FFFFFF" d="M931.879,821.724c8.684,0,15.748-7.064,15.748-15.75c0-8.684-7.064-15.748-15.748-15.748
			s-15.746,7.064-15.746,15.748C916.133,814.659,923.195,821.724,931.879,821.724z"/>
		<path fill="#FFFFFF" d="M963.954,868.718l-12.757-39.527c-0.684-2.117-2.959-3.773-5.184-3.773h-1.906h-1.363h-21.732h-1.363
			h-1.906c-2.225,0-4.5,1.656-5.184,3.773l-12.754,39.527c-0.378,1.172-0.221,2.357,0.432,3.256c0.652,0.896,1.734,1.41,2.967,1.41
			h3.27c2.224,0,4.5-1.656,5.183-3.773l3.634-11.262v15.209v0.732v42.387c0,4.008,3.26,7.268,7.266,7.268h0.512
			c4.008,0,7.267-3.26,7.267-7.268v-38.027h3.091v38.027c0,4.008,3.26,7.268,7.268,7.268h0.512c4.006,0,7.266-3.26,7.266-7.268
			V874.29v-0.732v-15.215l3.637,11.268c0.683,2.117,2.959,3.773,5.182,3.773h3.271c1.232,0,2.312-0.514,2.965-1.41
			C964.178,871.075,964.332,869.89,963.954,868.718z"/>
	</g>
	<g>
		<path fill="#FFFFFF" d="M1003.721,821.724c8.684,0,15.748-7.064,15.748-15.75c0-8.684-7.064-15.748-15.748-15.748
			s-15.746,7.064-15.746,15.748C987.975,814.659,995.037,821.724,1003.721,821.724z"/>
		<path fill="#FFFFFF" d="M1035.797,868.718l-12.758-39.527c-0.684-2.117-2.959-3.773-5.184-3.773h-1.906h-1.363h-21.732h-1.363
			h-1.906c-2.225,0-4.5,1.656-5.184,3.773l-12.754,39.527c-0.377,1.172-0.221,2.357,0.432,3.256c0.652,0.896,1.734,1.41,2.967,1.41
			h3.27c2.225,0,4.5-1.656,5.184-3.773l3.633-11.262v15.209v0.732v42.387c0,4.008,3.26,7.268,7.266,7.268h0.512
			c4.008,0,7.268-3.26,7.268-7.268v-38.027h3.09v38.027c0,4.008,3.26,7.268,7.268,7.268h0.512c4.006,0,7.266-3.26,7.266-7.268
			V874.29v-0.732v-15.215l3.637,11.268c0.684,2.117,2.959,3.773,5.184,3.773h3.27c1.232,0,2.312-0.514,2.965-1.41
			C1036.02,871.075,1036.174,869.89,1035.797,868.718z"/>
	</g>
	<g>
		<path fill="#C08869" d="M1151.049,821.725c8.684,0,15.748-7.064,15.748-15.75c0-8.684-7.064-15.748-15.748-15.748
			c-8.683,0-15.747,7.064-15.747,15.748C1135.302,814.66,1142.366,821.725,1151.049,821.725z"/>
		<path fill="#C08869" d="M1183.122,868.719l-12.756-39.527c-0.684-2.117-2.959-3.773-5.182-3.773h-1.907h-1.364h-21.732h-1.363
			h-1.906c-2.224,0-4.5,1.656-5.184,3.773l-12.754,39.527c-0.377,1.172-0.221,2.357,0.432,3.256c0.652,0.896,1.734,1.41,2.967,1.41
			h3.27c2.223,0,4.5-1.656,5.183-3.773l3.634-11.262v15.209v0.732v42.387c0,4.008,3.26,7.268,7.266,7.268h0.512
			c4.008,0,7.268-3.26,7.268-7.268V878.65h3.091v38.027c0,4.008,3.259,7.268,7.267,7.268h0.512c4.007,0,7.266-3.26,7.266-7.268
			v-42.387v-0.732v-15.215l3.637,11.268c0.684,2.117,2.959,3.773,5.182,3.773h3.271c1.232,0,2.312-0.514,2.965-1.41
			C1183.347,871.076,1183.501,869.891,1183.122,868.719z"/>
	</g>
	<g>
		<path fill="#C08869" d="M1222.892,821.725c8.684,0,15.748-7.064,15.748-15.75c0-8.684-7.064-15.748-15.748-15.748
			s-15.748,7.064-15.748,15.748C1207.144,814.66,1214.208,821.725,1222.892,821.725z"/>
		<path fill="#C08869" d="M1254.966,868.719l-12.758-39.527c-0.684-2.117-2.959-3.773-5.182-3.773h-1.906h-1.365h-21.732h-1.363
			h-1.906c-2.223,0-4.5,1.656-5.184,3.773l-12.754,39.527c-0.377,1.172-0.221,2.357,0.432,3.256c0.652,0.896,1.734,1.41,2.967,1.41
			h3.27c2.223,0,4.5-1.656,5.184-3.773l3.633-11.262v15.209v0.732v42.387c0,4.008,3.26,7.268,7.266,7.268h0.512
			c4.008,0,7.268-3.26,7.268-7.268V878.65h3.092v38.027c0,4.008,3.258,7.268,7.266,7.268h0.512c4.008,0,7.266-3.26,7.266-7.268
			v-42.387v-0.732v-15.215l3.637,11.268c0.684,2.117,2.959,3.773,5.182,3.773h3.271c1.232,0,2.312-0.514,2.967-1.41
			C1255.188,871.076,1255.343,869.891,1254.966,868.719z"/>
	</g>
	<g>
		<path fill="#C08869" d="M1294.733,821.725c8.684,0,15.748-7.064,15.748-15.75c0-8.684-7.064-15.748-15.748-15.748
			s-15.746,7.064-15.746,15.748C1278.987,814.66,1286.05,821.725,1294.733,821.725z"/>
		<path fill="#C08869" d="M1326.808,868.719l-12.758-39.527c-0.684-2.117-2.957-3.773-5.182-3.773h-1.906h-1.363h-21.734h-1.361
			h-1.908c-2.223,0-4.5,1.656-5.182,3.773l-12.756,39.527c-0.377,1.172-0.221,2.357,0.434,3.256c0.652,0.896,1.732,1.41,2.967,1.41
			h3.268c2.225,0,4.5-1.656,5.184-3.773l3.633-11.262v15.209v0.732v42.387c0,4.008,3.26,7.268,7.268,7.268h0.512
			c4.006,0,7.266-3.26,7.266-7.268V878.65h3.092v38.027c0,4.008,3.26,7.268,7.266,7.268h0.512c4.008,0,7.268-3.26,7.268-7.268
			v-42.387v-0.732v-15.215l3.635,11.268c0.684,2.117,2.959,3.773,5.184,3.773h3.27c1.232,0,2.312-0.514,2.967-1.41
			C1327.032,871.076,1327.187,869.891,1326.808,868.719z"/>
	</g>
	<g>
		<path fill="#C08869" d="M1366.575,821.725c8.684,0,15.748-7.064,15.748-15.75c0-8.684-7.064-15.748-15.748-15.748
			s-15.746,7.064-15.746,15.748C1350.829,814.66,1357.892,821.725,1366.575,821.725z"/>
		<path fill="#C08869" d="M1398.649,868.719l-12.758-39.527c-0.682-2.117-2.957-3.773-5.182-3.773h-1.906h-1.363h-21.734h-1.361
			h-1.906c-2.225,0-4.502,1.656-5.184,3.773l-12.756,39.527c-0.377,1.172-0.219,2.357,0.434,3.256
			c0.652,0.896,1.732,1.41,2.967,1.41h3.268c2.225,0,4.5-1.656,5.184-3.773l3.633-11.262v15.209v0.732v42.387
			c0,4.008,3.26,7.268,7.268,7.268h0.512c4.006,0,7.266-3.26,7.266-7.268V878.65h3.092v38.027c0,4.008,3.26,7.268,7.266,7.268h0.512
			c4.008,0,7.268-3.26,7.268-7.268v-42.387v-0.732v-15.215l3.635,11.268c0.684,2.117,2.959,3.773,5.182,3.773h3.271
			c1.232,0,2.312-0.514,2.965-1.41C1398.872,871.076,1399.026,869.891,1398.649,868.719z"/>
	</g>
	<g>
		<path fill="#C08869" d="M1438.417,821.725c8.684,0,15.748-7.064,15.748-15.75c0-8.684-7.064-15.748-15.748-15.748
			s-15.746,7.064-15.746,15.748C1422.671,814.66,1429.733,821.725,1438.417,821.725z"/>
		<path fill="#C08869" d="M1470.491,868.719l-12.758-39.527c-0.682-2.117-2.957-3.773-5.182-3.773h-1.906h-1.363h-21.734h-1.361
			h-1.906c-2.225,0-4.502,1.656-5.184,3.773l-12.756,39.527c-0.377,1.172-0.219,2.357,0.434,3.256
			c0.652,0.896,1.732,1.41,2.967,1.41h3.268c2.225,0,4.5-1.656,5.184-3.773l3.633-11.262v15.209v0.732v42.387
			c0,4.008,3.26,7.268,7.268,7.268h0.512c4.006,0,7.266-3.26,7.266-7.268V878.65h3.092v38.027c0,4.008,3.26,7.268,7.266,7.268h0.512
			c4.008,0,7.268-3.26,7.268-7.268v-42.387v-0.732v-15.215l3.635,11.268c0.684,2.117,2.959,3.773,5.184,3.773h3.27
			c1.232,0,2.312-0.514,2.967-1.41C1470.716,871.076,1470.87,869.891,1470.491,868.719z"/>
	</g>
	<g>
		<path fill="#C08869" d="M1510.259,821.725c8.684,0,15.748-7.064,15.748-15.75c0-8.684-7.064-15.748-15.748-15.748
			s-15.746,7.064-15.746,15.748C1494.513,814.66,1501.575,821.725,1510.259,821.725z"/>
		<path fill="#C08869" d="M1542.333,868.719l-12.758-39.527c-0.682-2.117-2.957-3.773-5.182-3.773h-1.906h-1.363h-21.734h-1.361
			h-1.906c-2.225,0-4.502,1.656-5.184,3.773l-12.756,39.527c-0.377,1.172-0.219,2.357,0.434,3.256
			c0.652,0.896,1.732,1.41,2.967,1.41h3.268c2.225,0,4.5-1.656,5.184-3.773l3.633-11.262v15.209v0.732v42.387
			c0,4.008,3.26,7.268,7.268,7.268h0.512c4.006,0,7.266-3.26,7.266-7.268V878.65h3.092v38.027c0,4.008,3.26,7.268,7.266,7.268h0.512
			c4.008,0,7.268-3.26,7.268-7.268v-42.387v-0.732v-15.215l3.635,11.268c0.684,2.117,2.959,3.773,5.184,3.773h3.27
			c1.232,0,2.312-0.514,2.967-1.41C1542.558,871.076,1542.712,869.891,1542.333,868.719z"/>
	</g>
	<g>
		<path fill="#FFFFFF" d="M1077.74,821.725c8.684,0,15.748-7.064,15.748-15.75c0-8.684-7.064-15.748-15.748-15.748
			s-15.746,7.064-15.746,15.748C1061.994,814.66,1069.057,821.725,1077.74,821.725z"/>
		<path fill="#FFFFFF" d="M1097.057,829.191c-0.682-2.117-2.957-3.773-5.182-3.773h-1.906h-1.363h-21.734h-1.361h-1.906
			c-2.225,0-4.502,1.656-5.184,3.773l-8.596,26.635h55.83L1097.057,829.191z"/>
		<path fill="#C08869" d="M1046.098,871.975c0.652,0.896,1.732,1.41,2.967,1.41h3.268c2.225,0,4.5-1.656,5.184-3.773l3.633-11.262
			v15.209v0.732v42.387c0,4.008,3.26,7.268,7.268,7.268h0.512c4.006,0,7.266-3.26,7.266-7.268V878.65h3.092v38.027
			c0,4.008,3.26,7.268,7.266,7.268h0.512c4.008,0,7.268-3.26,7.268-7.268v-42.387v-0.732v-15.215l3.635,11.268
			c0.684,2.117,2.959,3.773,5.184,3.773h3.27c1.232,0,2.312-0.514,2.967-1.41c0.654-0.898,0.809-2.084,0.43-3.256l-4.16-12.893
			h-55.83l-4.16,12.893C1045.287,869.891,1045.445,871.076,1046.098,871.975z"/>
	</g>
	<g>
		<path fill="#FFFFFF" d="M860.038,821.722c8.684,0,15.748-7.064,15.748-15.748s-7.064-15.748-15.748-15.748
			s-15.747,7.064-15.747,15.748S851.354,821.722,860.038,821.722z"/>
		<path fill="#FFFFFF" d="M892.113,868.716l-12.758-39.527c-0.684-2.115-2.959-3.771-5.183-3.771h-1.907h-1.362H849.17h-1.363H845.9
			c-2.224,0-4.5,1.656-5.183,3.771l-12.755,39.527c-0.377,1.174-0.221,2.359,0.432,3.256s1.734,1.412,2.967,1.412h3.27
			c2.224,0,4.5-1.658,5.183-3.773l3.634-11.264v15.211v0.73v42.389c0,4.006,3.26,7.266,7.266,7.266h0.512
			c4.008,0,7.268-3.26,7.268-7.266v-38.027h3.091v38.027c0,4.006,3.26,7.266,7.267,7.266h0.512c4.006,0,7.266-3.26,7.266-7.266
			v-42.389v-0.73v-15.217l3.637,11.27c0.684,2.115,2.959,3.773,5.183,3.773h3.271c1.232,0,2.312-0.516,2.966-1.412
			S892.49,869.89,892.113,868.716z"/>
	</g>
	<g>
		<path fill="#FFFFFF" d="M928.234,661.231c8.684,0,15.748-7.064,15.748-15.75c0-8.684-7.064-15.748-15.748-15.748
			s-15.746,7.064-15.746,15.748C912.488,654.167,919.551,661.231,928.234,661.231z"/>
		<path fill="#FFFFFF" d="M960.31,708.226l-12.757-39.527c-0.684-2.117-2.959-3.773-5.184-3.773h-1.906H939.1h-21.732h-1.363h-1.906
			c-2.225,0-4.5,1.656-5.184,3.773l-12.754,39.527c-0.378,1.172-0.221,2.357,0.432,3.256c0.652,0.896,1.734,1.41,2.967,1.41h3.27
			c2.224,0,4.5-1.656,5.183-3.773l3.634-11.262v15.209v0.732v42.387c0,4.008,3.26,7.268,7.266,7.268h0.512
			c4.008,0,7.267-3.26,7.267-7.268v-38.027h3.091v38.027c0,4.008,3.26,7.268,7.268,7.268h0.512c4.006,0,7.266-3.26,7.266-7.268
			v-42.387v-0.732v-15.215l3.637,11.268c0.683,2.117,2.959,3.773,5.182,3.773h3.271c1.232,0,2.312-0.514,2.965-1.41
			C960.533,710.583,960.688,709.397,960.31,708.226z"/>
	</g>
	<g>
		<path fill="#FFFFFF" d="M1000.076,661.231c8.684,0,15.748-7.064,15.748-15.75c0-8.684-7.064-15.748-15.748-15.748
			s-15.746,7.064-15.746,15.748C984.33,654.167,991.393,661.231,1000.076,661.231z"/>
		<path fill="#FFFFFF" d="M1032.152,708.226l-12.758-39.527c-0.684-2.117-2.959-3.773-5.184-3.773h-1.906h-1.363h-21.732h-1.363
			h-1.906c-2.225,0-4.5,1.656-5.184,3.773l-12.754,39.527c-0.377,1.172-0.221,2.357,0.432,3.256c0.652,0.896,1.734,1.41,2.967,1.41
			h3.27c2.225,0,4.5-1.656,5.184-3.773l3.633-11.262v15.209v0.732v42.387c0,4.008,3.26,7.268,7.266,7.268h0.512
			c4.008,0,7.268-3.26,7.268-7.268v-38.027h3.09v38.027c0,4.008,3.26,7.268,7.268,7.268h0.512c4.006,0,7.266-3.26,7.266-7.268
			v-42.387v-0.732v-15.215l3.637,11.268c0.684,2.117,2.959,3.773,5.184,3.773h3.27c1.232,0,2.312-0.514,2.965-1.41
			C1032.375,710.583,1032.529,709.397,1032.152,708.226z"/>
	</g>
	<g>
		<path fill="#FFFFFF" d="M1071.919,661.231c8.684,0,15.748-7.064,15.748-15.75c0-8.684-7.064-15.748-15.748-15.748
			c-8.683,0-15.747,7.064-15.747,15.748C1056.172,654.167,1063.236,661.231,1071.919,661.231z"/>
		<path fill="#FFFFFF" d="M1103.992,708.226l-12.756-39.527c-0.684-2.117-2.959-3.773-5.182-3.773h-1.907h-1.364h-21.732h-1.363
			h-1.906c-2.224,0-4.5,1.656-5.184,3.773l-12.754,39.527c-0.377,1.172-0.221,2.357,0.432,3.256c0.652,0.896,1.734,1.41,2.967,1.41
			h3.27c2.223,0,4.5-1.656,5.183-3.773l3.634-11.262v15.209v0.732v42.387c0,4.008,3.26,7.268,7.266,7.268h0.512
			c4.008,0,7.268-3.26,7.268-7.268v-38.027h3.091v38.027c0,4.008,3.259,7.268,7.267,7.268h0.512c4.007,0,7.266-3.26,7.266-7.268
			v-42.387v-0.732v-15.215l3.637,11.268c0.684,2.117,2.959,3.773,5.182,3.773h3.271c1.232,0,2.312-0.514,2.965-1.41
			C1104.217,710.583,1104.371,709.397,1103.992,708.226z"/>
	</g>
	<g>
		<path fill="#FFFFFF" d="M1143.762,661.231c8.684,0,15.748-7.064,15.748-15.75c0-8.684-7.064-15.748-15.748-15.748
			s-15.748,7.064-15.748,15.748C1128.014,654.167,1135.078,661.231,1143.762,661.231z"/>
		<path fill="#FFFFFF" d="M1175.836,708.226l-12.758-39.527c-0.684-2.117-2.959-3.773-5.182-3.773h-1.906h-1.365h-21.732h-1.363
			h-1.906c-2.223,0-4.5,1.656-5.184,3.773l-12.754,39.527c-0.377,1.172-0.221,2.357,0.432,3.256c0.652,0.896,1.734,1.41,2.967,1.41
			h3.27c2.223,0,4.5-1.656,5.184-3.773l3.633-11.262v15.209v0.732v42.387c0,4.008,3.26,7.268,7.266,7.268h0.512
			c4.008,0,7.268-3.26,7.268-7.268v-38.027h3.092v38.027c0,4.008,3.258,7.268,7.266,7.268h0.512c4.008,0,7.266-3.26,7.266-7.268
			v-42.387v-0.732v-15.215l3.637,11.268c0.684,2.117,2.959,3.773,5.182,3.773h3.271c1.232,0,2.312-0.514,2.967-1.41
			C1176.059,710.583,1176.213,709.397,1175.836,708.226z"/>
	</g>
	<g>
		<path fill="#FFFFFF" d="M1215.604,661.231c8.684,0,15.748-7.064,15.748-15.75c0-8.684-7.064-15.748-15.748-15.748
			s-15.746,7.064-15.746,15.748C1199.857,654.167,1206.92,661.231,1215.604,661.231z"/>
		<path fill="#FFFFFF" d="M1247.678,708.226l-12.758-39.527c-0.684-2.117-2.957-3.773-5.182-3.773h-1.906h-1.363h-21.734h-1.361
			h-1.908c-2.223,0-4.5,1.656-5.182,3.773l-12.756,39.527c-0.377,1.172-0.221,2.357,0.434,3.256c0.652,0.896,1.732,1.41,2.967,1.41
			h3.268c2.225,0,4.5-1.656,5.184-3.773l3.633-11.262v15.209v0.732v42.387c0,4.008,3.26,7.268,7.268,7.268h0.512
			c4.006,0,7.266-3.26,7.266-7.268v-38.027h3.092v38.027c0,4.008,3.26,7.268,7.266,7.268h0.512c4.008,0,7.268-3.26,7.268-7.268
			v-42.387v-0.732v-15.215l3.635,11.268c0.684,2.117,2.959,3.773,5.184,3.773h3.27c1.232,0,2.312-0.514,2.967-1.41
			C1247.902,710.583,1248.057,709.397,1247.678,708.226z"/>
	</g>
	<g>
		<path fill="#FFFFFF" d="M1287.445,661.231c8.684,0,15.748-7.064,15.748-15.75c0-8.684-7.064-15.748-15.748-15.748
			s-15.746,7.064-15.746,15.748C1271.699,654.167,1278.762,661.231,1287.445,661.231z"/>
		<path fill="#FFFFFF" d="M1319.52,708.226l-12.758-39.527c-0.682-2.117-2.957-3.773-5.182-3.773h-1.906h-1.363h-21.734h-1.361
			h-1.906c-2.225,0-4.502,1.656-5.184,3.773l-12.756,39.527c-0.377,1.172-0.219,2.357,0.434,3.256
			c0.652,0.896,1.732,1.41,2.967,1.41h3.268c2.225,0,4.5-1.656,5.184-3.773l3.633-11.262v15.209v0.732v42.387
			c0,4.008,3.26,7.268,7.268,7.268h0.512c4.006,0,7.266-3.26,7.266-7.268v-38.027h3.092v38.027c0,4.008,3.26,7.268,7.266,7.268
			h0.512c4.008,0,7.268-3.26,7.268-7.268v-42.387v-0.732v-15.215l3.635,11.268c0.684,2.117,2.959,3.773,5.182,3.773h3.271
			c1.232,0,2.312-0.514,2.965-1.41C1319.742,710.583,1319.896,709.397,1319.52,708.226z"/>
	</g>
	<g>
		<path fill="#FFFFFF" d="M1359.287,661.231c8.684,0,15.748-7.064,15.748-15.75c0-8.684-7.064-15.748-15.748-15.748
			s-15.746,7.064-15.746,15.748C1343.541,654.167,1350.604,661.231,1359.287,661.231z"/>
		<path fill="#FFFFFF" d="M1391.361,708.226l-12.758-39.527c-0.682-2.117-2.957-3.773-5.182-3.773h-1.906h-1.363h-21.734h-1.361
			h-1.906c-2.225,0-4.502,1.656-5.184,3.773l-12.756,39.527c-0.377,1.172-0.219,2.357,0.434,3.256
			c0.652,0.896,1.732,1.41,2.967,1.41h3.268c2.225,0,4.5-1.656,5.184-3.773l3.633-11.262v15.209v0.732v42.387
			c0,4.008,3.26,7.268,7.268,7.268h0.512c4.006,0,7.266-3.26,7.266-7.268v-38.027h3.092v38.027c0,4.008,3.26,7.268,7.266,7.268
			h0.512c4.008,0,7.268-3.26,7.268-7.268v-42.387v-0.732v-15.215l3.635,11.268c0.684,2.117,2.959,3.773,5.184,3.773h3.27
			c1.232,0,2.312-0.514,2.967-1.41C1391.586,710.583,1391.74,709.397,1391.361,708.226z"/>
	</g>
	<g>
		<path fill="#FFFFFF" d="M1431.129,661.231c8.684,0,15.748-7.064,15.748-15.75c0-8.684-7.064-15.748-15.748-15.748
			s-15.746,7.064-15.746,15.748C1415.383,654.167,1422.445,661.231,1431.129,661.231z"/>
		<path fill="#FFFFFF" d="M1463.203,708.226l-12.758-39.527c-0.682-2.117-2.957-3.773-5.182-3.773h-1.906h-1.363h-21.734h-1.361
			h-1.906c-2.225,0-4.502,1.656-5.184,3.773l-12.756,39.527c-0.377,1.172-0.219,2.357,0.434,3.256
			c0.652,0.896,1.732,1.41,2.967,1.41h3.268c2.225,0,4.5-1.656,5.184-3.773l3.633-11.262v15.209v0.732v42.387
			c0,4.008,3.26,7.268,7.268,7.268h0.512c4.006,0,7.266-3.26,7.266-7.268v-38.027h3.092v38.027c0,4.008,3.26,7.268,7.266,7.268
			h0.512c4.008,0,7.268-3.26,7.268-7.268v-42.387v-0.732v-15.215l3.635,11.268c0.684,2.117,2.959,3.773,5.184,3.773h3.27
			c1.232,0,2.312-0.514,2.967-1.41C1463.428,710.583,1463.582,709.397,1463.203,708.226z"/>
	</g>
	<g>
		<path fill="#FFFFFF" d="M1506.615,661.232c8.684,0,15.748-7.064,15.748-15.75c0-8.684-7.064-15.748-15.748-15.748
			s-15.748,7.064-15.748,15.748C1490.867,654.168,1497.932,661.232,1506.615,661.232z"/>
		<path fill="#FFFFFF" d="M1538.689,708.227l-12.758-39.527c-0.684-2.117-2.959-3.773-5.182-3.773h-1.908h-1.363h-21.732h-1.363
			h-1.906c-2.223,0-4.5,1.656-5.184,3.773l-12.754,39.527c-0.377,1.172-0.221,2.357,0.432,3.256c0.652,0.896,1.734,1.41,2.967,1.41
			h3.27c2.223,0,4.5-1.656,5.184-3.773l3.633-11.262v15.209v0.732v42.387c0,4.008,3.26,7.268,7.266,7.268h0.512
			c4.008,0,7.268-3.26,7.268-7.268v-38.027h3.09v38.027c0,4.008,3.26,7.268,7.268,7.268h0.512c4.006,0,7.266-3.26,7.266-7.268
			v-42.387v-0.732v-15.215l3.637,11.268c0.684,2.117,2.959,3.773,5.182,3.773h3.271c1.232,0,2.312-0.514,2.965-1.41
			C1538.912,710.584,1539.066,709.398,1538.689,708.227z"/>
	</g>
	<g>
		<path fill="#FFFFFF" d="M856.394,661.229c8.684,0,15.748-7.064,15.748-15.748s-7.064-15.748-15.748-15.748
			s-15.747,7.064-15.747,15.748S847.71,661.229,856.394,661.229z"/>
		<path fill="#FFFFFF" d="M888.469,708.224l-12.758-39.527c-0.684-2.115-2.959-3.771-5.183-3.771h-1.907h-1.362h-21.733h-1.363
			h-1.906c-2.224,0-4.5,1.656-5.183,3.771l-12.755,39.527c-0.377,1.174-0.221,2.359,0.432,3.256s1.734,1.412,2.967,1.412h3.27
			c2.224,0,4.5-1.658,5.183-3.773l3.634-11.264v15.211v0.73v42.389c0,4.006,3.26,7.266,7.266,7.266h0.512
			c4.008,0,7.268-3.26,7.268-7.266v-38.027h3.091v38.027c0,4.006,3.26,7.266,7.267,7.266h0.512c4.006,0,7.266-3.26,7.266-7.266
			v-42.389v-0.73v-15.217l3.637,11.27c0.684,2.115,2.959,3.773,5.183,3.773h3.271c1.232,0,2.312-0.516,2.966-1.412
			S888.846,709.397,888.469,708.224z"/>
	</g>
	<g>
		<path fill="#FFFFFF" d="M930.055,505.239c8.684,0,15.748-7.064,15.748-15.75c0-8.684-7.064-15.748-15.748-15.748
			s-15.746,7.064-15.746,15.748C914.309,498.175,921.371,505.239,930.055,505.239z"/>
		<path fill="#FFFFFF" d="M962.13,552.233l-12.757-39.527c-0.684-2.117-2.959-3.773-5.184-3.773h-1.906h-1.363h-21.732h-1.363
			h-1.906c-2.225,0-4.5,1.656-5.184,3.773l-12.754,39.527c-0.378,1.172-0.221,2.357,0.432,3.256c0.652,0.896,1.734,1.41,2.967,1.41
			h3.27c2.224,0,4.5-1.656,5.183-3.773l3.634-11.262v15.209v0.732v42.387c0,4.008,3.26,7.268,7.266,7.268h0.512
			c4.008,0,7.267-3.26,7.267-7.268v-38.027h3.091v38.027c0,4.008,3.26,7.268,7.268,7.268h0.512c4.006,0,7.266-3.26,7.266-7.268
			v-42.387v-0.732v-15.215l3.637,11.268c0.683,2.117,2.959,3.773,5.182,3.773h3.271c1.232,0,2.312-0.514,2.965-1.41
			C962.354,554.591,962.508,553.405,962.13,552.233z"/>
	</g>
	<g>
		<path fill="#FFFFFF" d="M1001.896,505.239c8.684,0,15.748-7.064,15.748-15.75c0-8.684-7.064-15.748-15.748-15.748
			s-15.746,7.064-15.746,15.748C986.15,498.175,993.213,505.239,1001.896,505.239z"/>
		<path fill="#FFFFFF" d="M1033.973,552.233l-12.758-39.527c-0.684-2.117-2.959-3.773-5.184-3.773h-1.906h-1.363h-21.732h-1.363
			h-1.906c-2.225,0-4.5,1.656-5.184,3.773l-12.754,39.527c-0.377,1.172-0.221,2.357,0.432,3.256c0.652,0.896,1.734,1.41,2.967,1.41
			h3.27c2.225,0,4.5-1.656,5.184-3.773l3.633-11.262v15.209v0.732v42.387c0,4.008,3.26,7.268,7.266,7.268h0.512
			c4.008,0,7.268-3.26,7.268-7.268v-38.027h3.09v38.027c0,4.008,3.26,7.268,7.268,7.268h0.512c4.006,0,7.266-3.26,7.266-7.268
			v-42.387v-0.732v-15.215l3.637,11.268c0.684,2.117,2.959,3.773,5.184,3.773h3.27c1.232,0,2.312-0.514,2.965-1.41
			C1034.195,554.591,1034.35,553.405,1033.973,552.233z"/>
	</g>
	<g>
		<path fill="#FFFFFF" d="M1073.739,505.239c8.684,0,15.748-7.064,15.748-15.75c0-8.684-7.064-15.748-15.748-15.748
			c-8.683,0-15.747,7.064-15.747,15.748C1057.992,498.175,1065.057,505.239,1073.739,505.239z"/>
		<path fill="#FFFFFF" d="M1105.812,552.233l-12.756-39.527c-0.684-2.117-2.959-3.773-5.182-3.773h-1.907h-1.364h-21.732h-1.363
			h-1.906c-2.224,0-4.5,1.656-5.184,3.773l-12.754,39.527c-0.377,1.172-0.221,2.357,0.432,3.256c0.652,0.896,1.734,1.41,2.967,1.41
			h3.27c2.223,0,4.5-1.656,5.183-3.773l3.634-11.262v15.209v0.732v42.387c0,4.008,3.26,7.268,7.266,7.268h0.512
			c4.008,0,7.268-3.26,7.268-7.268v-38.027h3.091v38.027c0,4.008,3.259,7.268,7.267,7.268h0.512c4.007,0,7.266-3.26,7.266-7.268
			v-42.387v-0.732v-15.215l3.637,11.268c0.684,2.117,2.959,3.773,5.182,3.773h3.271c1.232,0,2.312-0.514,2.965-1.41
			C1106.037,554.591,1106.191,553.405,1105.812,552.233z"/>
	</g>
	<g>
		<path fill="#FFFFFF" d="M1145.582,505.239c8.684,0,15.748-7.064,15.748-15.75c0-8.684-7.064-15.748-15.748-15.748
			s-15.748,7.064-15.748,15.748C1129.834,498.175,1136.898,505.239,1145.582,505.239z"/>
		<path fill="#FFFFFF" d="M1177.656,552.233l-12.758-39.527c-0.684-2.117-2.959-3.773-5.182-3.773h-1.906h-1.365h-21.732h-1.363
			h-1.906c-2.223,0-4.5,1.656-5.184,3.773l-12.754,39.527c-0.377,1.172-0.221,2.357,0.432,3.256c0.652,0.896,1.734,1.41,2.967,1.41
			h3.27c2.223,0,4.5-1.656,5.184-3.773l3.633-11.262v15.209v0.732v42.387c0,4.008,3.26,7.268,7.266,7.268h0.512
			c4.008,0,7.268-3.26,7.268-7.268v-38.027h3.092v38.027c0,4.008,3.258,7.268,7.266,7.268h0.512c4.008,0,7.266-3.26,7.266-7.268
			v-42.387v-0.732v-15.215l3.637,11.268c0.684,2.117,2.959,3.773,5.182,3.773h3.271c1.232,0,2.312-0.514,2.967-1.41
			C1177.879,554.591,1178.033,553.405,1177.656,552.233z"/>
	</g>
	<g>
		<path fill="#FFFFFF" d="M1217.424,505.239c8.684,0,15.748-7.064,15.748-15.75c0-8.684-7.064-15.748-15.748-15.748
			s-15.746,7.064-15.746,15.748C1201.678,498.175,1208.74,505.239,1217.424,505.239z"/>
		<path fill="#FFFFFF" d="M1249.498,552.233l-12.758-39.527c-0.684-2.117-2.957-3.773-5.182-3.773h-1.906h-1.363h-21.734h-1.361
			h-1.908c-2.223,0-4.5,1.656-5.182,3.773l-12.756,39.527c-0.377,1.172-0.221,2.357,0.434,3.256c0.652,0.896,1.732,1.41,2.967,1.41
			h3.268c2.225,0,4.5-1.656,5.184-3.773l3.633-11.262v15.209v0.732v42.387c0,4.008,3.26,7.268,7.268,7.268h0.512
			c4.006,0,7.266-3.26,7.266-7.268v-38.027h3.092v38.027c0,4.008,3.26,7.268,7.266,7.268h0.512c4.008,0,7.268-3.26,7.268-7.268
			v-42.387v-0.732v-15.215l3.635,11.268c0.684,2.117,2.959,3.773,5.184,3.773h3.27c1.232,0,2.312-0.514,2.967-1.41
			C1249.723,554.591,1249.877,553.405,1249.498,552.233z"/>
	</g>
	<g>
		<path fill="#FFFFFF" d="M1289.266,505.239c8.684,0,15.748-7.064,15.748-15.75c0-8.684-7.064-15.748-15.748-15.748
			s-15.746,7.064-15.746,15.748C1273.52,498.175,1280.582,505.239,1289.266,505.239z"/>
		<path fill="#FFFFFF" d="M1321.34,552.233l-12.758-39.527c-0.682-2.117-2.957-3.773-5.182-3.773h-1.906h-1.363h-21.734h-1.361
			h-1.906c-2.225,0-4.502,1.656-5.184,3.773l-12.756,39.527c-0.377,1.172-0.219,2.357,0.434,3.256
			c0.652,0.896,1.732,1.41,2.967,1.41h3.268c2.225,0,4.5-1.656,5.184-3.773l3.633-11.262v15.209v0.732v42.387
			c0,4.008,3.26,7.268,7.268,7.268h0.512c4.006,0,7.266-3.26,7.266-7.268v-38.027h3.092v38.027c0,4.008,3.26,7.268,7.266,7.268
			h0.512c4.008,0,7.268-3.26,7.268-7.268v-42.387v-0.732v-15.215l3.635,11.268c0.684,2.117,2.959,3.773,5.182,3.773h3.271
			c1.232,0,2.312-0.514,2.965-1.41C1321.562,554.591,1321.717,553.405,1321.34,552.233z"/>
	</g>
	<g>
		<path fill="#FFFFFF" d="M1361.107,505.239c8.684,0,15.748-7.064,15.748-15.75c0-8.684-7.064-15.748-15.748-15.748
			s-15.746,7.064-15.746,15.748C1345.361,498.175,1352.424,505.239,1361.107,505.239z"/>
		<path fill="#FFFFFF" d="M1393.182,552.233l-12.758-39.527c-0.682-2.117-2.957-3.773-5.182-3.773h-1.906h-1.363h-21.734h-1.361
			h-1.906c-2.225,0-4.502,1.656-5.184,3.773l-12.756,39.527c-0.377,1.172-0.219,2.357,0.434,3.256
			c0.652,0.896,1.732,1.41,2.967,1.41h3.268c2.225,0,4.5-1.656,5.184-3.773l3.633-11.262v15.209v0.732v42.387
			c0,4.008,3.26,7.268,7.268,7.268h0.512c4.006,0,7.266-3.26,7.266-7.268v-38.027h3.092v38.027c0,4.008,3.26,7.268,7.266,7.268
			h0.512c4.008,0,7.268-3.26,7.268-7.268v-42.387v-0.732v-15.215l3.635,11.268c0.684,2.117,2.959,3.773,5.184,3.773h3.27
			c1.232,0,2.312-0.514,2.967-1.41C1393.406,554.591,1393.561,553.405,1393.182,552.233z"/>
	</g>
	<g>
		<path fill="#FFFFFF" d="M1432.949,505.239c8.684,0,15.748-7.064,15.748-15.75c0-8.684-7.064-15.748-15.748-15.748
			s-15.746,7.064-15.746,15.748C1417.203,498.175,1424.266,505.239,1432.949,505.239z"/>
		<path fill="#FFFFFF" d="M1465.023,552.233l-12.758-39.527c-0.682-2.117-2.957-3.773-5.182-3.773h-1.906h-1.363h-21.734h-1.361
			h-1.906c-2.225,0-4.502,1.656-5.184,3.773l-12.756,39.527c-0.377,1.172-0.219,2.357,0.434,3.256
			c0.652,0.896,1.732,1.41,2.967,1.41h3.268c2.225,0,4.5-1.656,5.184-3.773l3.633-11.262v15.209v0.732v42.387
			c0,4.008,3.26,7.268,7.268,7.268h0.512c4.006,0,7.266-3.26,7.266-7.268v-38.027h3.092v38.027c0,4.008,3.26,7.268,7.266,7.268
			h0.512c4.008,0,7.268-3.26,7.268-7.268v-42.387v-0.732v-15.215l3.635,11.268c0.684,2.117,2.959,3.773,5.184,3.773h3.27
			c1.232,0,2.312-0.514,2.967-1.41C1465.248,554.591,1465.402,553.405,1465.023,552.233z"/>
	</g>
	<g>
		<path fill="#FFFFFF" d="M1508.436,505.24c8.684,0,15.748-7.064,15.748-15.75c0-8.684-7.064-15.748-15.748-15.748
			s-15.748,7.064-15.748,15.748C1492.688,498.176,1499.752,505.24,1508.436,505.24z"/>
		<path fill="#FFFFFF" d="M1540.51,552.234l-12.758-39.527c-0.684-2.117-2.959-3.773-5.182-3.773h-1.908h-1.363h-21.732h-1.363
			h-1.906c-2.223,0-4.5,1.656-5.184,3.773l-12.754,39.527c-0.377,1.172-0.221,2.357,0.432,3.256c0.652,0.896,1.734,1.41,2.967,1.41
			h3.27c2.223,0,4.5-1.656,5.184-3.773l3.633-11.262v15.209v0.732v42.387c0,4.008,3.26,7.268,7.266,7.268h0.512
			c4.008,0,7.268-3.26,7.268-7.268v-38.027h3.09v38.027c0,4.008,3.26,7.268,7.268,7.268h0.512c4.006,0,7.266-3.26,7.266-7.268
			v-42.387v-0.732v-15.215l3.637,11.268c0.684,2.117,2.959,3.773,5.182,3.773h3.271c1.232,0,2.312-0.514,2.965-1.41
			C1540.732,554.592,1540.887,553.406,1540.51,552.234z"/>
	</g>
	<g>
		<path fill="#FFFFFF" d="M858.214,505.237c8.684,0,15.748-7.064,15.748-15.748s-7.064-15.748-15.748-15.748
			s-15.747,7.064-15.747,15.748S849.53,505.237,858.214,505.237z"/>
		<path fill="#FFFFFF" d="M890.289,552.231l-12.758-39.527c-0.684-2.115-2.959-3.771-5.183-3.771h-1.907h-1.362h-21.733h-1.363
			h-1.906c-2.224,0-4.5,1.656-5.183,3.771l-12.755,39.527c-0.377,1.174-0.221,2.359,0.432,3.256s1.734,1.412,2.967,1.412h3.27
			c2.224,0,4.5-1.658,5.183-3.773l3.634-11.264v15.211v0.73v42.389c0,4.006,3.26,7.266,7.266,7.266h0.512
			c4.008,0,7.268-3.26,7.268-7.266v-38.027h3.091v38.027c0,4.006,3.26,7.266,7.267,7.266h0.512c4.006,0,7.266-3.26,7.266-7.266
			v-42.389v-0.73v-15.217l3.637,11.27c0.684,2.115,2.959,3.773,5.183,3.773h3.271c1.232,0,2.312-0.516,2.966-1.412
			S890.666,553.405,890.289,552.231z"/>
	</g>
	<g>
		<path fill="#FFFFFF" d="M926.413,343.247c8.684,0,15.748-7.064,15.748-15.75c0-8.684-7.064-15.748-15.748-15.748
			s-15.747,7.064-15.747,15.748C910.666,336.183,917.729,343.247,926.413,343.247z"/>
		<path fill="#FFFFFF" d="M958.488,390.241l-12.758-39.527c-0.684-2.117-2.959-3.773-5.183-3.773h-1.906h-1.363h-21.733h-1.363
			h-1.906c-2.224,0-4.5,1.656-5.183,3.773l-12.755,39.527c-0.377,1.172-0.221,2.357,0.432,3.256c0.652,0.896,1.734,1.41,2.967,1.41
			h3.27c2.225,0,4.5-1.656,5.184-3.773l3.633-11.262v15.209v0.732V438.2c0,4.008,3.26,7.268,7.266,7.268h0.512
			c4.008,0,7.268-3.26,7.268-7.268v-38.027h3.091V438.2c0,4.008,3.26,7.268,7.267,7.268h0.512c4.006,0,7.267-3.26,7.267-7.268
			v-42.387v-0.732v-15.215l3.636,11.268c0.684,2.117,2.959,3.773,5.183,3.773h3.271c1.232,0,2.312-0.514,2.966-1.41
			C958.711,392.599,958.865,391.413,958.488,390.241z"/>
	</g>
	<g>
		<path fill="#FFFFFF" d="M998.255,343.247c8.684,0,15.748-7.064,15.748-15.75c0-8.684-7.064-15.748-15.748-15.748
			s-15.746,7.064-15.746,15.748C982.509,336.183,989.571,343.247,998.255,343.247z"/>
		<path fill="#FFFFFF" d="M1030.33,390.241l-12.758-39.527c-0.683-2.117-2.958-3.773-5.183-3.773h-1.906h-1.363h-21.733h-1.362
			h-1.907c-2.224,0-4.499,1.656-5.183,3.773l-12.754,39.527c-0.378,1.172-0.221,2.357,0.432,3.256
			c0.652,0.896,1.733,1.41,2.966,1.41h3.271c2.224,0,4.499-1.656,5.183-3.773l3.633-11.262v15.209v0.732V438.2
			c0,4.008,3.26,7.268,7.267,7.268h0.512c4.007,0,7.267-3.26,7.267-7.268v-38.027h3.091V438.2c0,4.008,3.26,7.268,7.267,7.268h0.512
			c4.007,0,7.267-3.26,7.267-7.268v-42.387v-0.732v-15.215l3.637,11.268c0.683,2.117,2.959,3.773,5.183,3.773h3.27
			c1.232,0,2.312-0.514,2.966-1.41C1030.554,392.599,1030.708,391.413,1030.33,390.241z"/>
	</g>
	<g>
		<path fill="#FFFFFF" d="M1070.098,343.247c8.684,0,15.748-7.064,15.748-15.75c0-8.684-7.064-15.748-15.748-15.748
			s-15.747,7.064-15.747,15.748C1054.351,336.183,1061.414,343.247,1070.098,343.247z"/>
		<path fill="#FFFFFF" d="M1102.171,390.241l-12.757-39.527c-0.684-2.117-2.958-3.773-5.182-3.773h-1.906h-1.364h-21.733h-1.362
			h-1.907c-2.223,0-4.5,1.656-5.183,3.773l-12.755,39.527c-0.377,1.172-0.221,2.357,0.433,3.256c0.652,0.896,1.733,1.41,2.967,1.41
			h3.269c2.224,0,4.5-1.656,5.184-3.773l3.633-11.262v15.209v0.732V438.2c0,4.008,3.26,7.268,7.267,7.268h0.512
			c4.007,0,7.267-3.26,7.267-7.268v-38.027h3.092V438.2c0,4.008,3.259,7.268,7.266,7.268h0.512c4.008,0,7.267-3.26,7.267-7.268
			v-42.387v-0.732v-15.215l3.637,11.268c0.683,2.117,2.958,3.773,5.182,3.773h3.271c1.232,0,2.312-0.514,2.966-1.41
			C1102.396,392.599,1102.55,391.413,1102.171,390.241z"/>
	</g>
	<g>
		<path fill="#FFFFFF" d="M1141.939,343.247c8.684,0,15.748-7.064,15.748-15.75c0-8.684-7.064-15.748-15.748-15.748
			s-15.747,7.064-15.747,15.748C1126.192,336.183,1133.256,343.247,1141.939,343.247z"/>
		<path fill="#FFFFFF" d="M1174.014,390.241l-12.757-39.527c-0.684-2.117-2.959-3.773-5.183-3.773h-1.906h-1.364h-21.733h-1.362
			h-1.906c-2.224,0-4.5,1.656-5.184,3.773l-12.754,39.527c-0.378,1.172-0.221,2.357,0.432,3.256c0.652,0.896,1.734,1.41,2.967,1.41
			h3.269c2.224,0,4.501-1.656,5.184-3.773l3.633-11.262v15.209v0.732V438.2c0,4.008,3.261,7.268,7.267,7.268h0.512
			c4.007,0,7.267-3.26,7.267-7.268v-38.027h3.092V438.2c0,4.008,3.259,7.268,7.266,7.268h0.512c4.008,0,7.267-3.26,7.267-7.268
			v-42.387v-0.732v-15.215l3.637,11.268c0.684,2.117,2.958,3.773,5.182,3.773h3.271c1.233,0,2.312-0.514,2.967-1.41
			C1174.237,392.599,1174.392,391.413,1174.014,390.241z"/>
	</g>
	<g>
		<path fill="#FFFFFF" d="M1213.781,343.247c8.684,0,15.748-7.064,15.748-15.75c0-8.684-7.064-15.748-15.748-15.748
			s-15.746,7.064-15.746,15.748C1198.035,336.183,1205.098,343.247,1213.781,343.247z"/>
		<path fill="#FFFFFF" d="M1245.855,390.241l-12.758-39.527c-0.684-2.117-2.957-3.773-5.182-3.773h-1.906h-1.363h-21.734h-1.361
			h-1.908c-2.223,0-4.5,1.656-5.182,3.773l-12.756,39.527c-0.377,1.172-0.221,2.357,0.434,3.256c0.652,0.896,1.732,1.41,2.967,1.41
			h3.268c2.225,0,4.5-1.656,5.184-3.773l3.633-11.262v15.209v0.732V438.2c0,4.008,3.26,7.268,7.268,7.268h0.512
			c4.006,0,7.266-3.26,7.266-7.268v-38.027h3.092V438.2c0,4.008,3.26,7.268,7.266,7.268h0.512c4.008,0,7.268-3.26,7.268-7.268
			v-42.387v-0.732v-15.215l3.635,11.268c0.684,2.117,2.959,3.773,5.184,3.773h3.27c1.232,0,2.312-0.514,2.967-1.41
			C1246.08,392.599,1246.234,391.413,1245.855,390.241z"/>
	</g>
	<g>
		<path fill="#FFFFFF" d="M1285.623,343.247c8.684,0,15.748-7.064,15.748-15.75c0-8.684-7.064-15.748-15.748-15.748
			s-15.746,7.064-15.746,15.748C1269.877,336.183,1276.939,343.247,1285.623,343.247z"/>
		<path fill="#FFFFFF" d="M1317.697,390.241l-12.758-39.527c-0.682-2.117-2.957-3.773-5.182-3.773h-1.906h-1.363h-21.734h-1.361
			h-1.906c-2.225,0-4.502,1.656-5.184,3.773l-12.756,39.527c-0.377,1.172-0.219,2.357,0.434,3.256
			c0.652,0.896,1.732,1.41,2.967,1.41h3.268c2.225,0,4.5-1.656,5.184-3.773l3.633-11.262v15.209v0.732V438.2
			c0,4.008,3.26,7.268,7.268,7.268h0.512c4.006,0,7.266-3.26,7.266-7.268v-38.027h3.092V438.2c0,4.008,3.26,7.268,7.266,7.268h0.512
			c4.008,0,7.268-3.26,7.268-7.268v-42.387v-0.732v-15.215l3.635,11.268c0.684,2.117,2.959,3.773,5.182,3.773h3.271
			c1.232,0,2.312-0.514,2.965-1.41C1317.92,392.599,1318.074,391.413,1317.697,390.241z"/>
	</g>
	<g>
		<path fill="#FFFFFF" d="M1357.465,343.247c8.684,0,15.748-7.064,15.748-15.75c0-8.684-7.064-15.748-15.748-15.748
			s-15.746,7.064-15.746,15.748C1341.719,336.183,1348.781,343.247,1357.465,343.247z"/>
		<path fill="#FFFFFF" d="M1389.539,390.241l-12.758-39.527c-0.682-2.117-2.957-3.773-5.182-3.773h-1.906h-1.363h-21.734h-1.361
			h-1.906c-2.225,0-4.502,1.656-5.184,3.773l-12.756,39.527c-0.377,1.172-0.219,2.357,0.434,3.256
			c0.652,0.896,1.732,1.41,2.967,1.41h3.268c2.225,0,4.5-1.656,5.184-3.773l3.633-11.262v15.209v0.732V438.2
			c0,4.008,3.26,7.268,7.268,7.268h0.512c4.006,0,7.266-3.26,7.266-7.268v-38.027h3.092V438.2c0,4.008,3.26,7.268,7.266,7.268h0.512
			c4.008,0,7.268-3.26,7.268-7.268v-42.387v-0.732v-15.215l3.635,11.268c0.684,2.117,2.959,3.773,5.184,3.773h3.27
			c1.232,0,2.312-0.514,2.967-1.41C1389.764,392.599,1389.918,391.413,1389.539,390.241z"/>
	</g>
	<g>
		<path fill="#FFFFFF" d="M1429.307,343.247c8.684,0,15.748-7.064,15.748-15.75c0-8.684-7.064-15.748-15.748-15.748
			s-15.746,7.064-15.746,15.748C1413.561,336.183,1420.623,343.247,1429.307,343.247z"/>
		<path fill="#FFFFFF" d="M1461.381,390.241l-12.758-39.527c-0.682-2.117-2.957-3.773-5.182-3.773h-1.906h-1.363h-21.734h-1.361
			h-1.906c-2.225,0-4.502,1.656-5.184,3.773l-12.756,39.527c-0.377,1.172-0.219,2.357,0.434,3.256
			c0.652,0.896,1.732,1.41,2.967,1.41h3.268c2.225,0,4.5-1.656,5.184-3.773l3.633-11.262v15.209v0.732V438.2
			c0,4.008,3.26,7.268,7.268,7.268h0.512c4.006,0,7.266-3.26,7.266-7.268v-38.027h3.092V438.2c0,4.008,3.26,7.268,7.266,7.268h0.512
			c4.008,0,7.268-3.26,7.268-7.268v-42.387v-0.732v-15.215l3.635,11.268c0.684,2.117,2.959,3.773,5.184,3.773h3.27
			c1.232,0,2.312-0.514,2.967-1.41C1461.605,392.599,1461.76,391.413,1461.381,390.241z"/>
	</g>
	<g>
		<path fill="#FFFFFF" d="M1504.793,343.248c8.684,0,15.748-7.064,15.748-15.75c0-8.684-7.064-15.748-15.748-15.748
			s-15.748,7.064-15.748,15.748C1489.045,336.184,1496.109,343.248,1504.793,343.248z"/>
		<path fill="#FFFFFF" d="M1536.867,390.242l-12.758-39.527c-0.684-2.117-2.959-3.773-5.182-3.773h-1.908h-1.363h-21.732h-1.363
			h-1.906c-2.223,0-4.5,1.656-5.184,3.773l-12.754,39.527c-0.377,1.172-0.221,2.357,0.432,3.256c0.652,0.896,1.734,1.41,2.967,1.41
			h3.27c2.223,0,4.5-1.656,5.184-3.773l3.633-11.262v15.209v0.732v42.387c0,4.008,3.26,7.268,7.266,7.268h0.512
			c4.008,0,7.268-3.26,7.268-7.268v-38.027h3.09v38.027c0,4.008,3.26,7.268,7.268,7.268h0.512c4.006,0,7.266-3.26,7.266-7.268
			v-42.387v-0.732v-15.215l3.637,11.268c0.684,2.117,2.959,3.773,5.182,3.773h3.271c1.232,0,2.312-0.514,2.965-1.41
			C1537.09,392.6,1537.244,391.414,1536.867,390.242z"/>
	</g>
	<g>
		<path fill="#FFFFFF" d="M854.572,343.245c8.684,0,15.748-7.064,15.748-15.748s-7.064-15.748-15.748-15.748
			s-15.747,7.064-15.747,15.748S845.889,343.245,854.572,343.245z"/>
		<path fill="#FFFFFF" d="M886.646,390.239l-12.758-39.527c-0.683-2.115-2.958-3.771-5.182-3.771H866.8h-1.362h-21.734h-1.363
			h-1.906c-2.223,0-4.499,1.656-5.182,3.771l-12.755,39.527c-0.378,1.174-0.221,2.359,0.432,3.256s1.733,1.412,2.966,1.412h3.27
			c2.225,0,4.5-1.658,5.184-3.773l3.633-11.264v15.211v0.73V438.2c0,4.006,3.26,7.266,7.267,7.266h0.512
			c4.007,0,7.267-3.26,7.267-7.266v-38.027h3.092V438.2c0,4.006,3.26,7.266,7.266,7.266h0.512c4.007,0,7.267-3.26,7.267-7.266
			v-42.389v-0.73v-15.217l3.636,11.27c0.684,2.115,2.959,3.773,5.184,3.773h3.27c1.232,0,2.312-0.516,2.967-1.412
			C886.87,392.599,887.024,391.413,886.646,390.239z"/>
	</g>
	<g>
		<path fill="#FFFFFF" d="M924.59,187.255c8.684,0,15.748-7.064,15.748-15.75c0-8.684-7.064-15.748-15.748-15.748
			s-15.747,7.064-15.747,15.748C908.843,180.191,915.906,187.255,924.59,187.255z"/>
		<path fill="#FFFFFF" d="M956.664,234.25l-12.758-39.527c-0.683-2.117-2.958-3.773-5.182-3.773h-1.906h-1.363h-21.734h-1.363
			h-1.906c-2.223,0-4.499,1.656-5.182,3.773l-12.755,39.527c-0.378,1.172-0.221,2.357,0.432,3.256
			c0.652,0.896,1.733,1.41,2.966,1.41h3.271c2.224,0,4.499-1.656,5.183-3.773l3.633-11.262v15.209v0.732v42.387
			c0,4.008,3.26,7.268,7.267,7.268h0.512c4.007,0,7.267-3.26,7.267-7.268v-38.027h3.092v38.027c0,4.008,3.26,7.268,7.266,7.268
			h0.512c4.007,0,7.268-3.26,7.268-7.268v-42.387v-0.732v-15.215l3.635,11.268c0.684,2.117,2.96,3.773,5.184,3.773h3.27
			c1.232,0,2.312-0.514,2.967-1.41C956.888,236.607,957.042,235.421,956.664,234.25z"/>
	</g>
	<g>
		<path fill="#FFFFFF" d="M996.432,187.255c8.684,0,15.748-7.064,15.748-15.75c0-8.684-7.064-15.748-15.748-15.748
			s-15.746,7.064-15.746,15.748C980.686,180.191,987.748,187.255,996.432,187.255z"/>
		<path fill="#FFFFFF" d="M1028.506,234.25l-12.758-39.527c-0.682-2.117-2.957-3.773-5.182-3.773h-1.906h-1.363h-21.734h-1.361
			h-1.908c-2.223,0-4.498,1.656-5.182,3.773l-12.754,39.527c-0.379,1.172-0.221,2.357,0.432,3.256
			c0.652,0.896,1.732,1.41,2.965,1.41h3.271c2.223,0,4.498-1.656,5.182-3.773l3.633-11.262v15.209v0.732v42.387
			c0,4.008,3.26,7.268,7.268,7.268h0.512c4.006,0,7.266-3.26,7.266-7.268v-38.027h3.092v38.027c0,4.008,3.26,7.268,7.266,7.268
			h0.512c4.008,0,7.268-3.26,7.268-7.268v-42.387v-0.732v-15.215l3.637,11.268c0.682,2.117,2.959,3.773,5.182,3.773h3.27
			c1.232,0,2.312-0.514,2.967-1.41C1028.73,236.607,1028.885,235.421,1028.506,234.25z"/>
	</g>
	<g>
		<path fill="#FFFFFF" d="M1068.273,187.255c8.684,0,15.748-7.064,15.748-15.75c0-8.684-7.064-15.748-15.748-15.748
			s-15.746,7.064-15.746,15.748C1052.527,180.191,1059.59,187.255,1068.273,187.255z"/>
		<path fill="#FFFFFF" d="M1100.348,234.25l-12.757-39.527c-0.684-2.117-2.958-3.773-5.183-3.773h-1.906h-1.363h-21.734h-1.361
			h-1.907c-2.224,0-4.5,1.656-5.183,3.773l-12.755,39.527c-0.378,1.172-0.221,2.357,0.433,3.256c0.652,0.896,1.733,1.41,2.967,1.41
			h3.268c2.225,0,4.501-1.656,5.184-3.773l3.633-11.262v15.209v0.732v42.387c0,4.008,3.261,7.268,7.268,7.268h0.512
			c4.006,0,7.266-3.26,7.266-7.268v-38.027h3.092v38.027c0,4.008,3.26,7.268,7.266,7.268h0.512c4.008,0,7.268-3.26,7.268-7.268
			v-42.387v-0.732v-15.215l3.637,11.268c0.682,2.117,2.957,3.773,5.182,3.773h3.27c1.232,0,2.312-0.514,2.967-1.41
			C1100.572,236.607,1100.727,235.421,1100.348,234.25z"/>
	</g>
	<g>
		<path fill="#FFFFFF" d="M1140.115,187.255c8.684,0,15.748-7.064,15.748-15.75c0-8.684-7.064-15.748-15.748-15.748
			s-15.746,7.064-15.746,15.748C1124.369,180.191,1131.432,187.255,1140.115,187.255z"/>
		<path fill="#FFFFFF" d="M1172.189,234.25l-12.756-39.527c-0.684-2.117-2.959-3.773-5.184-3.773h-1.906h-1.363h-21.734h-1.361
			h-1.906c-2.225,0-4.5,1.656-5.184,3.773l-12.754,39.527c-0.379,1.172-0.221,2.357,0.432,3.256c0.652,0.896,1.734,1.41,2.967,1.41
			h3.268c2.225,0,4.502-1.656,5.184-3.773l3.633-11.262v15.209v0.732v42.387c0,4.008,3.262,7.268,7.268,7.268h0.512
			c4.006,0,7.266-3.26,7.266-7.268v-38.027h3.092v38.027c0,4.008,3.26,7.268,7.266,7.268h0.512c4.008,0,7.268-3.26,7.268-7.268
			v-42.387v-0.732v-15.215l3.637,11.268c0.684,2.117,2.957,3.773,5.182,3.773h3.27c1.234,0,2.312-0.514,2.967-1.41
			C1172.414,236.607,1172.568,235.421,1172.189,234.25z"/>
	</g>
	<g>
		<path fill="#FFFFFF" d="M1211.957,187.255c8.684,0,15.748-7.064,15.748-15.75c0-8.684-7.064-15.748-15.748-15.748
			s-15.746,7.064-15.746,15.748C1196.211,180.191,1203.273,187.255,1211.957,187.255z"/>
		<path fill="#FFFFFF" d="M1244.031,234.25l-12.758-39.527c-0.684-2.117-2.957-3.773-5.182-3.773h-1.906h-1.363h-21.734h-1.361
			h-1.908c-2.223,0-4.5,1.656-5.182,3.773l-12.756,39.527c-0.377,1.172-0.221,2.357,0.434,3.256c0.652,0.896,1.732,1.41,2.967,1.41
			h3.268c2.225,0,4.5-1.656,5.184-3.773l3.633-11.262v15.209v0.732v42.387c0,4.008,3.26,7.268,7.268,7.268h0.512
			c4.006,0,7.266-3.26,7.266-7.268v-38.027h3.092v38.027c0,4.008,3.26,7.268,7.266,7.268h0.512c4.008,0,7.268-3.26,7.268-7.268
			v-42.387v-0.732v-15.215l3.635,11.268c0.684,2.117,2.959,3.773,5.184,3.773h3.27c1.232,0,2.312-0.514,2.967-1.41
			C1244.256,236.607,1244.41,235.421,1244.031,234.25z"/>
	</g>
	<g>
		<path fill="#FFFFFF" d="M1283.799,187.255c8.684,0,15.748-7.064,15.748-15.75c0-8.684-7.064-15.748-15.748-15.748
			s-15.746,7.064-15.746,15.748C1268.053,180.191,1275.115,187.255,1283.799,187.255z"/>
		<path fill="#FFFFFF" d="M1315.873,234.25l-12.758-39.527c-0.682-2.117-2.957-3.773-5.182-3.773h-1.906h-1.363h-21.734h-1.361
			h-1.906c-2.225,0-4.502,1.656-5.184,3.773l-12.756,39.527c-0.377,1.172-0.219,2.357,0.434,3.256
			c0.652,0.896,1.732,1.41,2.967,1.41h3.268c2.225,0,4.5-1.656,5.184-3.773l3.633-11.262v15.209v0.732v42.387
			c0,4.008,3.26,7.268,7.268,7.268h0.512c4.006,0,7.266-3.26,7.266-7.268v-38.027h3.092v38.027c0,4.008,3.26,7.268,7.266,7.268
			h0.512c4.008,0,7.268-3.26,7.268-7.268v-42.387v-0.732v-15.215l3.635,11.268c0.684,2.117,2.959,3.773,5.182,3.773h3.271
			c1.232,0,2.312-0.514,2.965-1.41C1316.096,236.607,1316.25,235.421,1315.873,234.25z"/>
	</g>
	<g>
		<path fill="#FFFFFF" d="M1355.641,187.255c8.684,0,15.748-7.064,15.748-15.75c0-8.684-7.064-15.748-15.748-15.748
			s-15.746,7.064-15.746,15.748C1339.895,180.191,1346.957,187.255,1355.641,187.255z"/>
		<path fill="#FFFFFF" d="M1387.715,234.25l-12.758-39.527c-0.682-2.117-2.957-3.773-5.182-3.773h-1.906h-1.363h-21.734h-1.361
			h-1.906c-2.225,0-4.502,1.656-5.184,3.773l-12.756,39.527c-0.377,1.172-0.219,2.357,0.434,3.256
			c0.652,0.896,1.732,1.41,2.967,1.41h3.268c2.225,0,4.5-1.656,5.184-3.773l3.633-11.262v15.209v0.732v42.387
			c0,4.008,3.26,7.268,7.268,7.268h0.512c4.006,0,7.266-3.26,7.266-7.268v-38.027h3.092v38.027c0,4.008,3.26,7.268,7.266,7.268
			h0.512c4.008,0,7.268-3.26,7.268-7.268v-42.387v-0.732v-15.215l3.635,11.268c0.684,2.117,2.959,3.773,5.184,3.773h3.27
			c1.232,0,2.312-0.514,2.967-1.41C1387.939,236.607,1388.094,235.421,1387.715,234.25z"/>
	</g>
	<g>
		<path fill="#FFFFFF" d="M1427.482,187.255c8.684,0,15.748-7.064,15.748-15.75c0-8.684-7.064-15.748-15.748-15.748
			s-15.746,7.064-15.746,15.748C1411.736,180.191,1418.799,187.255,1427.482,187.255z"/>
		<path fill="#FFFFFF" d="M1459.557,234.25l-12.758-39.527c-0.682-2.117-2.957-3.773-5.182-3.773h-1.906h-1.363h-21.734h-1.361
			h-1.906c-2.225,0-4.502,1.656-5.184,3.773l-12.756,39.527c-0.377,1.172-0.219,2.357,0.434,3.256
			c0.652,0.896,1.732,1.41,2.967,1.41h3.268c2.225,0,4.5-1.656,5.184-3.773l3.633-11.262v15.209v0.732v42.387
			c0,4.008,3.26,7.268,7.268,7.268h0.512c4.006,0,7.266-3.26,7.266-7.268v-38.027h3.092v38.027c0,4.008,3.26,7.268,7.266,7.268
			h0.512c4.008,0,7.268-3.26,7.268-7.268v-42.387v-0.732v-15.215l3.635,11.268c0.684,2.117,2.959,3.773,5.184,3.773h3.27
			c1.232,0,2.312-0.514,2.967-1.41C1459.781,236.607,1459.936,235.421,1459.557,234.25z"/>
	</g>
	<g>
		<path fill="#FFFFFF" d="M1502.969,187.256c8.684,0,15.748-7.064,15.748-15.75c0-8.684-7.064-15.748-15.748-15.748
			s-15.748,7.064-15.748,15.748C1487.221,180.192,1494.285,187.256,1502.969,187.256z"/>
		<path fill="#FFFFFF" d="M1535.043,234.25l-12.758-39.527c-0.684-2.117-2.959-3.773-5.182-3.773h-1.908h-1.363H1492.1h-1.363
			h-1.906c-2.223,0-4.5,1.656-5.184,3.773l-12.754,39.527c-0.377,1.172-0.221,2.357,0.432,3.256c0.652,0.896,1.734,1.41,2.967,1.41
			h3.27c2.223,0,4.5-1.656,5.184-3.773l3.633-11.262v15.209v0.732v42.387c0,4.008,3.26,7.268,7.266,7.268h0.512
			c4.008,0,7.268-3.26,7.268-7.268v-38.027h3.09v38.027c0,4.008,3.26,7.268,7.268,7.268h0.512c4.006,0,7.266-3.26,7.266-7.268
			v-42.387v-0.732v-15.215l3.637,11.268c0.684,2.117,2.959,3.773,5.182,3.773h3.271c1.232,0,2.312-0.514,2.965-1.41
			C1535.266,236.608,1535.42,235.422,1535.043,234.25z"/>
	</g>
	<g>
		<path fill="#FFFFFF" d="M852.748,187.253c8.684,0,15.748-7.064,15.748-15.748s-7.064-15.748-15.748-15.748
			s-15.746,7.064-15.746,15.748S844.064,187.253,852.748,187.253z"/>
		<path fill="#FFFFFF" d="M884.822,234.248l-12.757-39.527c-0.683-2.115-2.958-3.771-5.183-3.771h-1.906h-1.363H841.88h-1.363
			h-1.906c-2.224,0-4.499,1.656-5.183,3.771l-12.754,39.527c-0.379,1.174-0.221,2.359,0.432,3.256s1.733,1.412,2.966,1.412h3.27
			c2.224,0,4.5-1.658,5.183-3.773l3.633-11.264v15.211v0.73v42.389c0,4.006,3.261,7.266,7.268,7.266h0.512
			c4.007,0,7.266-3.26,7.266-7.266v-38.027h3.092v38.027c0,4.006,3.26,7.266,7.267,7.266h0.512c4.007,0,7.267-3.26,7.267-7.266
			V239.82v-0.73v-15.217l3.636,11.27c0.683,2.115,2.959,3.773,5.183,3.773h3.271c1.231,0,2.312-0.516,2.966-1.412
			S885.201,235.421,884.822,234.248z"/>
	</g>
	<g>
		<path fill="#FFFFFF" d="M197.292,661.232c8.684,0,15.748-7.064,15.748-15.75c0-8.684-7.064-15.748-15.748-15.748
			s-15.746,7.064-15.746,15.748C181.546,654.168,188.608,661.232,197.292,661.232z"/>
		<path fill="#FFFFFF" d="M229.367,708.227l-12.757-39.527c-0.684-2.117-2.959-3.773-5.184-3.773h-1.906h-1.363h-21.732h-1.363
			h-1.906c-2.225,0-4.5,1.656-5.184,3.773l-12.754,39.527c-0.378,1.172-0.221,2.357,0.432,3.256c0.652,0.896,1.734,1.41,2.967,1.41
			h3.27c2.224,0,4.5-1.656,5.183-3.773l3.634-11.262v15.209v0.732v42.387c0,4.008,3.26,7.268,7.266,7.268h0.512
			c4.008,0,7.267-3.26,7.267-7.268v-38.027h3.091v38.027c0,4.008,3.26,7.268,7.268,7.268h0.512c4.006,0,7.266-3.26,7.266-7.268
			v-42.387v-0.732v-15.215l3.637,11.268c0.683,2.117,2.959,3.773,5.182,3.773h3.271c1.232,0,2.312-0.514,2.965-1.41
			C229.591,710.584,229.745,709.398,229.367,708.227z"/>
	</g>
	<g>
		<path fill="#FFFFFF" d="M269.134,661.232c8.684,0,15.748-7.064,15.748-15.75c0-8.684-7.064-15.748-15.748-15.748
			s-15.746,7.064-15.746,15.748C253.388,654.168,260.45,661.232,269.134,661.232z"/>
		<path fill="#FFFFFF" d="M301.21,708.227l-12.758-39.527c-0.684-2.117-2.959-3.773-5.184-3.773h-1.906h-1.363h-21.732h-1.363
			h-1.906c-2.225,0-4.5,1.656-5.184,3.773l-12.754,39.527c-0.377,1.172-0.221,2.357,0.432,3.256c0.652,0.896,1.734,1.41,2.967,1.41
			h3.27c2.225,0,4.5-1.656,5.184-3.773l3.633-11.262v15.209v0.732v42.387c0,4.008,3.26,7.268,7.266,7.268h0.512
			c4.008,0,7.268-3.26,7.268-7.268v-38.027h3.09v38.027c0,4.008,3.26,7.268,7.268,7.268h0.512c4.006,0,7.266-3.26,7.266-7.268
			v-42.387v-0.732v-15.215l3.637,11.268c0.684,2.117,2.959,3.773,5.184,3.773h3.27c1.232,0,2.312-0.514,2.965-1.41
			C301.433,710.584,301.587,709.398,301.21,708.227z"/>
	</g>
	<g>
		<path fill="#FFFFFF" d="M340.977,661.232c8.684,0,15.748-7.064,15.748-15.75c0-8.684-7.064-15.748-15.748-15.748
			c-8.683,0-15.747,7.064-15.747,15.748C325.229,654.168,332.294,661.232,340.977,661.232z"/>
		<path fill="#FFFFFF" d="M373.05,708.227l-12.756-39.527c-0.684-2.117-2.959-3.773-5.182-3.773h-1.907h-1.364h-21.732h-1.363
			h-1.906c-2.224,0-4.5,1.656-5.184,3.773l-12.754,39.527c-0.377,1.172-0.221,2.357,0.432,3.256c0.652,0.896,1.734,1.41,2.967,1.41
			h3.27c2.223,0,4.5-1.656,5.183-3.773l3.634-11.262v15.209v0.732v42.387c0,4.008,3.26,7.268,7.266,7.268h0.512
			c4.008,0,7.268-3.26,7.268-7.268v-38.027h3.091v38.027c0,4.008,3.259,7.268,7.267,7.268h0.512c4.007,0,7.266-3.26,7.266-7.268
			v-42.387v-0.732v-15.215l3.637,11.268c0.684,2.117,2.959,3.773,5.182,3.773h3.271c1.232,0,2.312-0.514,2.965-1.41
			C373.274,710.584,373.429,709.398,373.05,708.227z"/>
	</g>
	<g>
		<path fill="#FFFFFF" d="M412.819,661.232c8.684,0,15.748-7.064,15.748-15.75c0-8.684-7.064-15.748-15.748-15.748
			s-15.748,7.064-15.748,15.748C397.071,654.168,404.136,661.232,412.819,661.232z"/>
		<path fill="#FFFFFF" d="M444.894,708.227l-12.758-39.527c-0.684-2.117-2.959-3.773-5.182-3.773h-1.906h-1.365H401.95h-1.363
			h-1.906c-2.223,0-4.5,1.656-5.184,3.773l-12.754,39.527c-0.377,1.172-0.221,2.357,0.432,3.256c0.652,0.896,1.734,1.41,2.967,1.41
			h3.27c2.223,0,4.5-1.656,5.184-3.773l3.633-11.262v15.209v0.732v42.387c0,4.008,3.26,7.268,7.266,7.268h0.512
			c4.008,0,7.268-3.26,7.268-7.268v-38.027h3.092v38.027c0,4.008,3.258,7.268,7.266,7.268h0.512c4.008,0,7.266-3.26,7.266-7.268
			v-42.387v-0.732v-15.215l3.637,11.268c0.684,2.117,2.959,3.773,5.182,3.773h3.271c1.232,0,2.312-0.514,2.967-1.41
			C445.116,710.584,445.271,709.398,444.894,708.227z"/>
	</g>
	<g>
		<path fill="#FFFFFF" d="M484.661,661.232c8.684,0,15.748-7.064,15.748-15.75c0-8.684-7.064-15.748-15.748-15.748
			s-15.746,7.064-15.746,15.748C468.915,654.168,475.978,661.232,484.661,661.232z"/>
		<path fill="#FFFFFF" d="M516.735,708.227l-12.758-39.527c-0.684-2.117-2.957-3.773-5.182-3.773h-1.906h-1.363h-21.734h-1.361
			h-1.908c-2.223,0-4.5,1.656-5.182,3.773l-12.756,39.527c-0.377,1.172-0.221,2.357,0.434,3.256c0.652,0.896,1.732,1.41,2.967,1.41
			h3.268c2.225,0,4.5-1.656,5.184-3.773l3.633-11.262v15.209v0.732v42.387c0,4.008,3.26,7.268,7.268,7.268h0.512
			c4.006,0,7.266-3.26,7.266-7.268v-38.027h3.092v38.027c0,4.008,3.26,7.268,7.266,7.268h0.512c4.008,0,7.268-3.26,7.268-7.268
			v-42.387v-0.732v-15.215l3.635,11.268c0.684,2.117,2.959,3.773,5.184,3.773h3.27c1.232,0,2.312-0.514,2.967-1.41
			C516.96,710.584,517.114,709.398,516.735,708.227z"/>
	</g>
	<g>
		<path fill="#FFFFFF" d="M556.503,661.232c8.684,0,15.748-7.064,15.748-15.75c0-8.684-7.064-15.748-15.748-15.748
			s-15.746,7.064-15.746,15.748C540.757,654.168,547.819,661.232,556.503,661.232z"/>
		<path fill="#FFFFFF" d="M588.577,708.227l-12.758-39.527c-0.682-2.117-2.957-3.773-5.182-3.773h-1.906h-1.363h-21.734h-1.361
			h-1.906c-2.225,0-4.502,1.656-5.184,3.773l-12.756,39.527c-0.377,1.172-0.219,2.357,0.434,3.256
			c0.652,0.896,1.732,1.41,2.967,1.41h3.268c2.225,0,4.5-1.656,5.184-3.773l3.633-11.262v15.209v0.732v42.387
			c0,4.008,3.26,7.268,7.268,7.268h0.512c4.006,0,7.266-3.26,7.266-7.268v-38.027h3.092v38.027c0,4.008,3.26,7.268,7.266,7.268
			h0.512c4.008,0,7.268-3.26,7.268-7.268v-42.387v-0.732v-15.215l3.635,11.268c0.684,2.117,2.959,3.773,5.182,3.773h3.271
			c1.232,0,2.312-0.514,2.965-1.41C588.8,710.584,588.954,709.398,588.577,708.227z"/>
	</g>
	<g>
		<path fill="#FFFFFF" d="M628.345,661.232c8.684,0,15.748-7.064,15.748-15.75c0-8.684-7.064-15.748-15.748-15.748
			s-15.746,7.064-15.746,15.748C612.599,654.168,619.661,661.232,628.345,661.232z"/>
		<path fill="#FFFFFF" d="M660.419,708.227l-12.758-39.527c-0.682-2.117-2.957-3.773-5.182-3.773h-1.906h-1.363h-21.734h-1.361
			h-1.906c-2.225,0-4.502,1.656-5.184,3.773l-12.756,39.527c-0.377,1.172-0.219,2.357,0.434,3.256
			c0.652,0.896,1.732,1.41,2.967,1.41h3.268c2.225,0,4.5-1.656,5.184-3.773l3.633-11.262v15.209v0.732v42.387
			c0,4.008,3.26,7.268,7.268,7.268h0.512c4.006,0,7.266-3.26,7.266-7.268v-38.027h3.092v38.027c0,4.008,3.26,7.268,7.266,7.268
			h0.512c4.008,0,7.268-3.26,7.268-7.268v-42.387v-0.732v-15.215l3.635,11.268c0.684,2.117,2.959,3.773,5.184,3.773h3.27
			c1.232,0,2.312-0.514,2.967-1.41C660.644,710.584,660.798,709.398,660.419,708.227z"/>
	</g>
	<g>
		<path fill="#FFFFFF" d="M700.187,661.232c8.684,0,15.748-7.064,15.748-15.75c0-8.684-7.064-15.748-15.748-15.748
			s-15.746,7.064-15.746,15.748C684.44,654.168,691.503,661.232,700.187,661.232z"/>
		<path fill="#FFFFFF" d="M732.261,708.227l-12.758-39.527c-0.682-2.117-2.957-3.773-5.182-3.773h-1.906h-1.363h-21.734h-1.361
			h-1.906c-2.225,0-4.502,1.656-5.184,3.773l-12.756,39.527c-0.377,1.172-0.219,2.357,0.434,3.256
			c0.652,0.896,1.732,1.41,2.967,1.41h3.268c2.225,0,4.5-1.656,5.184-3.773l3.633-11.262v15.209v0.732v42.387
			c0,4.008,3.26,7.268,7.268,7.268h0.512c4.006,0,7.266-3.26,7.266-7.268v-38.027h3.092v38.027c0,4.008,3.26,7.268,7.266,7.268
			h0.512c4.008,0,7.268-3.26,7.268-7.268v-42.387v-0.732v-15.215l3.635,11.268c0.684,2.117,2.959,3.773,5.184,3.773h3.27
			c1.232,0,2.312-0.514,2.967-1.41C732.485,710.584,732.64,709.398,732.261,708.227z"/>
	</g>
	<g>
		<path fill="#FFFFFF" d="M775.673,661.233c8.684,0,15.748-7.064,15.748-15.75c0-8.684-7.064-15.748-15.748-15.748
			s-15.748,7.064-15.748,15.748C759.925,654.169,766.989,661.233,775.673,661.233z"/>
		<path fill="#FFFFFF" d="M807.747,708.228L794.989,668.7c-0.684-2.117-2.959-3.773-5.182-3.773h-1.908h-1.363h-21.732h-1.363
			h-1.906c-2.223,0-4.5,1.656-5.184,3.773l-12.754,39.527c-0.377,1.172-0.221,2.357,0.432,3.256c0.652,0.896,1.734,1.41,2.967,1.41
			h3.27c2.223,0,4.5-1.656,5.184-3.773l3.633-11.262v15.209v0.732v42.387c0,4.008,3.26,7.268,7.266,7.268h0.512
			c4.008,0,7.268-3.26,7.268-7.268v-38.027h3.09v38.027c0,4.008,3.26,7.268,7.268,7.268h0.512c4.006,0,7.266-3.26,7.266-7.268V713.8
			v-0.732v-15.215l3.637,11.268c0.684,2.117,2.959,3.773,5.182,3.773h3.271c1.232,0,2.312-0.514,2.965-1.41
			C807.97,710.585,808.124,709.399,807.747,708.228z"/>
	</g>
	<g>
		<path fill="#FFFFFF" d="M125.451,661.23c8.684,0,15.748-7.064,15.748-15.748s-7.064-15.748-15.748-15.748
			s-15.747,7.064-15.747,15.748S116.768,661.23,125.451,661.23z"/>
		<path fill="#FFFFFF" d="M157.526,708.225l-12.758-39.527c-0.684-2.115-2.959-3.771-5.183-3.771h-1.907h-1.362h-21.733h-1.363
			h-1.906c-2.224,0-4.5,1.656-5.183,3.771l-12.755,39.527c-0.377,1.174-0.221,2.359,0.432,3.256s1.734,1.412,2.967,1.412h3.27
			c2.224,0,4.5-1.658,5.183-3.773l3.634-11.264v15.211v0.73v42.389c0,4.006,3.26,7.266,7.266,7.266h0.512
			c4.008,0,7.268-3.26,7.268-7.266v-38.027h3.091v38.027c0,4.006,3.26,7.266,7.267,7.266h0.512c4.006,0,7.266-3.26,7.266-7.266
			v-42.389v-0.73V697.85l3.637,11.27c0.684,2.115,2.959,3.773,5.183,3.773h3.271c1.232,0,2.312-0.516,2.966-1.412
			S157.903,709.398,157.526,708.225z"/>
	</g>
	<g>
		<path fill="#FFFFFF" d="M199.113,820.464c8.684,0,15.748-7.064,15.748-15.75c0-8.684-7.064-15.748-15.748-15.748
			s-15.746,7.064-15.746,15.748C183.367,813.399,190.43,820.464,199.113,820.464z"/>
		<path fill="#FFFFFF" d="M231.188,867.458l-12.757-39.527c-0.684-2.117-2.959-3.773-5.184-3.773h-1.906h-1.363h-21.732h-1.363
			h-1.906c-2.225,0-4.5,1.656-5.184,3.773l-12.754,39.527c-0.378,1.172-0.221,2.357,0.432,3.256c0.652,0.896,1.734,1.41,2.967,1.41
			h3.27c2.224,0,4.5-1.656,5.183-3.773l3.634-11.262v15.209v0.732v42.387c0,4.008,3.26,7.268,7.266,7.268h0.512
			c4.008,0,7.267-3.26,7.267-7.268V877.39h3.091v38.027c0,4.008,3.26,7.268,7.268,7.268h0.512c4.006,0,7.266-3.26,7.266-7.268
			V873.03v-0.732v-15.215l3.637,11.268c0.683,2.117,2.959,3.773,5.182,3.773h3.271c1.232,0,2.312-0.514,2.965-1.41
			C231.412,869.815,231.566,868.63,231.188,867.458z"/>
	</g>
	<g>
		<path fill="#FFFFFF" d="M270.955,820.464c8.684,0,15.748-7.064,15.748-15.75c0-8.684-7.064-15.748-15.748-15.748
			s-15.746,7.064-15.746,15.748C255.209,813.399,262.271,820.464,270.955,820.464z"/>
		<path fill="#FFFFFF" d="M303.031,867.458l-12.758-39.527c-0.684-2.117-2.959-3.773-5.184-3.773h-1.906h-1.363h-21.732h-1.363
			h-1.906c-2.225,0-4.5,1.656-5.184,3.773l-12.754,39.527c-0.377,1.172-0.221,2.357,0.432,3.256c0.652,0.896,1.734,1.41,2.967,1.41
			h3.27c2.225,0,4.5-1.656,5.184-3.773l3.633-11.262v15.209v0.732v42.387c0,4.008,3.26,7.268,7.266,7.268h0.512
			c4.008,0,7.268-3.26,7.268-7.268V877.39h3.09v38.027c0,4.008,3.26,7.268,7.268,7.268h0.512c4.006,0,7.266-3.26,7.266-7.268V873.03
			v-0.732v-15.215l3.637,11.268c0.684,2.117,2.959,3.773,5.184,3.773h3.27c1.232,0,2.312-0.514,2.965-1.41
			C303.254,869.815,303.408,868.63,303.031,867.458z"/>
	</g>
	<g>
		<path fill="#FFFFFF" d="M342.798,820.464c8.684,0,15.748-7.064,15.748-15.75c0-8.684-7.064-15.748-15.748-15.748
			c-8.683,0-15.747,7.064-15.747,15.748C327.051,813.399,334.115,820.464,342.798,820.464z"/>
		<path fill="#FFFFFF" d="M374.871,867.458l-12.756-39.527c-0.684-2.117-2.959-3.773-5.182-3.773h-1.907h-1.364H331.93h-1.363
			h-1.906c-2.224,0-4.5,1.656-5.184,3.773l-12.754,39.527c-0.377,1.172-0.221,2.357,0.432,3.256c0.652,0.896,1.734,1.41,2.967,1.41
			h3.27c2.223,0,4.5-1.656,5.183-3.773l3.634-11.262v15.209v0.732v42.387c0,4.008,3.26,7.268,7.266,7.268h0.512
			c4.008,0,7.268-3.26,7.268-7.268V877.39h3.091v38.027c0,4.008,3.259,7.268,7.267,7.268h0.512c4.007,0,7.266-3.26,7.266-7.268
			V873.03v-0.732v-15.215l3.637,11.268c0.684,2.117,2.959,3.773,5.182,3.773h3.271c1.232,0,2.312-0.514,2.965-1.41
			C375.096,869.815,375.25,868.63,374.871,867.458z"/>
	</g>
	<g>
		<path fill="#FFFFFF" d="M414.641,820.464c8.684,0,15.748-7.064,15.748-15.75c0-8.684-7.064-15.748-15.748-15.748
			s-15.748,7.064-15.748,15.748C398.893,813.399,405.957,820.464,414.641,820.464z"/>
		<path fill="#FFFFFF" d="M446.715,867.458l-12.758-39.527c-0.684-2.117-2.959-3.773-5.182-3.773h-1.906h-1.365h-21.732h-1.363
			h-1.906c-2.223,0-4.5,1.656-5.184,3.773l-12.754,39.527c-0.377,1.172-0.221,2.357,0.432,3.256c0.652,0.896,1.734,1.41,2.967,1.41
			h3.27c2.223,0,4.5-1.656,5.184-3.773l3.633-11.262v15.209v0.732v42.387c0,4.008,3.26,7.268,7.266,7.268h0.512
			c4.008,0,7.268-3.26,7.268-7.268V877.39h3.092v38.027c0,4.008,3.258,7.268,7.266,7.268h0.512c4.008,0,7.266-3.26,7.266-7.268
			V873.03v-0.732v-15.215l3.637,11.268c0.684,2.117,2.959,3.773,5.182,3.773h3.271c1.232,0,2.312-0.514,2.967-1.41
			C446.938,869.815,447.092,868.63,446.715,867.458z"/>
	</g>
	<g>
		<path fill="#FFFFFF" d="M486.482,820.464c8.684,0,15.748-7.064,15.748-15.75c0-8.684-7.064-15.748-15.748-15.748
			s-15.746,7.064-15.746,15.748C470.736,813.399,477.799,820.464,486.482,820.464z"/>
		<path fill="#FFFFFF" d="M518.557,867.458l-12.758-39.527c-0.684-2.117-2.957-3.773-5.182-3.773h-1.906h-1.363h-21.734h-1.361
			h-1.908c-2.223,0-4.5,1.656-5.182,3.773l-12.756,39.527c-0.377,1.172-0.221,2.357,0.434,3.256c0.652,0.896,1.732,1.41,2.967,1.41
			h3.268c2.225,0,4.5-1.656,5.184-3.773l3.633-11.262v15.209v0.732v42.387c0,4.008,3.26,7.268,7.268,7.268h0.512
			c4.006,0,7.266-3.26,7.266-7.268V877.39h3.092v38.027c0,4.008,3.26,7.268,7.266,7.268h0.512c4.008,0,7.268-3.26,7.268-7.268
			V873.03v-0.732v-15.215l3.635,11.268c0.684,2.117,2.959,3.773,5.184,3.773h3.27c1.232,0,2.312-0.514,2.967-1.41
			C518.781,869.815,518.936,868.63,518.557,867.458z"/>
	</g>
	<g>
		<path fill="#FFFFFF" d="M558.324,820.464c8.684,0,15.748-7.064,15.748-15.75c0-8.684-7.064-15.748-15.748-15.748
			s-15.746,7.064-15.746,15.748C542.578,813.399,549.641,820.464,558.324,820.464z"/>
		<path fill="#FFFFFF" d="M590.398,867.458l-12.758-39.527c-0.682-2.117-2.957-3.773-5.182-3.773h-1.906h-1.363h-21.734h-1.361
			h-1.906c-2.225,0-4.502,1.656-5.184,3.773l-12.756,39.527c-0.377,1.172-0.219,2.357,0.434,3.256
			c0.652,0.896,1.732,1.41,2.967,1.41h3.268c2.225,0,4.5-1.656,5.184-3.773l3.633-11.262v15.209v0.732v42.387
			c0,4.008,3.26,7.268,7.268,7.268h0.512c4.006,0,7.266-3.26,7.266-7.268V877.39h3.092v38.027c0,4.008,3.26,7.268,7.266,7.268h0.512
			c4.008,0,7.268-3.26,7.268-7.268V873.03v-0.732v-15.215l3.635,11.268c0.684,2.117,2.959,3.773,5.182,3.773h3.271
			c1.232,0,2.312-0.514,2.965-1.41C590.621,869.815,590.775,868.63,590.398,867.458z"/>
	</g>
	<g>
		<path fill="#FFFFFF" d="M630.166,820.464c8.684,0,15.748-7.064,15.748-15.75c0-8.684-7.064-15.748-15.748-15.748
			s-15.746,7.064-15.746,15.748C614.42,813.399,621.482,820.464,630.166,820.464z"/>
		<path fill="#FFFFFF" d="M662.24,867.458l-12.758-39.527c-0.682-2.117-2.957-3.773-5.182-3.773h-1.906h-1.363h-21.734h-1.361
			h-1.906c-2.225,0-4.502,1.656-5.184,3.773l-12.756,39.527c-0.377,1.172-0.219,2.357,0.434,3.256
			c0.652,0.896,1.732,1.41,2.967,1.41h3.268c2.225,0,4.5-1.656,5.184-3.773l3.633-11.262v15.209v0.732v42.387
			c0,4.008,3.26,7.268,7.268,7.268h0.512c4.006,0,7.266-3.26,7.266-7.268V877.39h3.092v38.027c0,4.008,3.26,7.268,7.266,7.268h0.512
			c4.008,0,7.268-3.26,7.268-7.268V873.03v-0.732v-15.215l3.635,11.268c0.684,2.117,2.959,3.773,5.184,3.773h3.27
			c1.232,0,2.312-0.514,2.967-1.41C662.465,869.815,662.619,868.63,662.24,867.458z"/>
	</g>
	<g>
		<path fill="#FFFFFF" d="M702.008,820.464c8.684,0,15.748-7.064,15.748-15.75c0-8.684-7.064-15.748-15.748-15.748
			s-15.746,7.064-15.746,15.748C686.262,813.399,693.324,820.464,702.008,820.464z"/>
		<path fill="#FFFFFF" d="M734.082,867.458l-12.758-39.527c-0.682-2.117-2.957-3.773-5.182-3.773h-1.906h-1.363h-21.734h-1.361
			h-1.906c-2.225,0-4.502,1.656-5.184,3.773l-12.756,39.527c-0.377,1.172-0.219,2.357,0.434,3.256
			c0.652,0.896,1.732,1.41,2.967,1.41h3.268c2.225,0,4.5-1.656,5.184-3.773l3.633-11.262v15.209v0.732v42.387
			c0,4.008,3.26,7.268,7.268,7.268h0.512c4.006,0,7.266-3.26,7.266-7.268V877.39h3.092v38.027c0,4.008,3.26,7.268,7.266,7.268h0.512
			c4.008,0,7.268-3.26,7.268-7.268V873.03v-0.732v-15.215l3.635,11.268c0.684,2.117,2.959,3.773,5.184,3.773h3.27
			c1.232,0,2.312-0.514,2.967-1.41C734.307,869.815,734.461,868.63,734.082,867.458z"/>
	</g>
	<g>
		<path fill="#FFFFFF" d="M777.494,820.465c8.684,0,15.748-7.064,15.748-15.75c0-8.684-7.064-15.748-15.748-15.748
			s-15.748,7.064-15.748,15.748C761.746,813.4,768.811,820.465,777.494,820.465z"/>
		<path fill="#FFFFFF" d="M809.568,867.459l-12.758-39.527c-0.684-2.117-2.959-3.773-5.182-3.773h-1.908h-1.363h-21.732h-1.363
			h-1.906c-2.223,0-4.5,1.656-5.184,3.773l-12.754,39.527c-0.377,1.172-0.221,2.357,0.432,3.256c0.652,0.896,1.734,1.41,2.967,1.41
			h3.27c2.223,0,4.5-1.656,5.184-3.773l3.633-11.262v15.209v0.732v42.387c0,4.008,3.26,7.268,7.266,7.268h0.512
			c4.008,0,7.268-3.26,7.268-7.268v-38.027h3.09v38.027c0,4.008,3.26,7.268,7.268,7.268h0.512c4.006,0,7.266-3.26,7.266-7.268
			v-42.387v-0.732v-15.215l3.637,11.268c0.684,2.117,2.959,3.773,5.182,3.773h3.271c1.232,0,2.312-0.514,2.965-1.41
			C809.791,869.816,809.945,868.631,809.568,867.459z"/>
	</g>
	<g>
		<path fill="#FFFFFF" d="M127.272,820.462c8.684,0,15.748-7.064,15.748-15.748s-7.064-15.748-15.748-15.748
			s-15.747,7.064-15.747,15.748S118.589,820.462,127.272,820.462z"/>
		<path fill="#FFFFFF" d="M159.348,867.456l-12.758-39.527c-0.684-2.115-2.959-3.771-5.183-3.771H139.5h-1.362h-21.733h-1.363
			h-1.906c-2.224,0-4.5,1.656-5.183,3.771l-12.755,39.527c-0.377,1.174-0.221,2.359,0.432,3.256s1.734,1.412,2.967,1.412h3.27
			c2.224,0,4.5-1.658,5.183-3.773l3.634-11.264v15.211v0.73v42.389c0,4.006,3.26,7.266,7.266,7.266h0.512
			c4.008,0,7.268-3.26,7.268-7.266V877.39h3.091v38.027c0,4.006,3.26,7.266,7.267,7.266h0.512c4.006,0,7.266-3.26,7.266-7.266
			v-42.389v-0.73v-15.217l3.637,11.27c0.684,2.115,2.959,3.773,5.183,3.773h3.271c1.232,0,2.312-0.516,2.966-1.412
			S159.725,868.63,159.348,867.456z"/>
	</g>
	<g>
		<path fill="#FFFFFF" d="M199.112,505.24c8.684,0,15.748-7.064,15.748-15.75c0-8.684-7.064-15.748-15.748-15.748
			s-15.746,7.064-15.746,15.748C183.366,498.176,190.429,505.24,199.112,505.24z"/>
		<path fill="#FFFFFF" d="M231.188,552.234l-12.757-39.527c-0.684-2.117-2.959-3.773-5.184-3.773h-1.906h-1.363h-21.732h-1.363
			h-1.906c-2.225,0-4.5,1.656-5.184,3.773l-12.754,39.527c-0.378,1.172-0.221,2.357,0.432,3.256c0.652,0.896,1.734,1.41,2.967,1.41
			h3.27c2.224,0,4.5-1.656,5.183-3.773l3.634-11.262v15.209v0.732v42.387c0,4.008,3.26,7.268,7.266,7.268h0.512
			c4.008,0,7.267-3.26,7.267-7.268v-38.027h3.091v38.027c0,4.008,3.26,7.268,7.268,7.268h0.512c4.006,0,7.266-3.26,7.266-7.268
			v-42.387v-0.732v-15.215l3.637,11.268c0.683,2.117,2.959,3.773,5.182,3.773h3.271c1.232,0,2.312-0.514,2.965-1.41
			C231.411,554.592,231.565,553.406,231.188,552.234z"/>
	</g>
	<g>
		<path fill="#FFFFFF" d="M270.954,505.24c8.684,0,15.748-7.064,15.748-15.75c0-8.684-7.064-15.748-15.748-15.748
			s-15.746,7.064-15.746,15.748C255.208,498.176,262.271,505.24,270.954,505.24z"/>
		<path fill="#FFFFFF" d="M303.03,552.234l-12.758-39.527c-0.684-2.117-2.959-3.773-5.184-3.773h-1.906h-1.363h-21.732h-1.363
			h-1.906c-2.225,0-4.5,1.656-5.184,3.773l-12.754,39.527c-0.377,1.172-0.221,2.357,0.432,3.256c0.652,0.896,1.734,1.41,2.967,1.41
			h3.27c2.225,0,4.5-1.656,5.184-3.773l3.633-11.262v15.209v0.732v42.387c0,4.008,3.26,7.268,7.266,7.268h0.512
			c4.008,0,7.268-3.26,7.268-7.268v-38.027h3.09v38.027c0,4.008,3.26,7.268,7.268,7.268h0.512c4.006,0,7.266-3.26,7.266-7.268
			v-42.387v-0.732v-15.215l3.637,11.268c0.684,2.117,2.959,3.773,5.184,3.773h3.27c1.232,0,2.312-0.514,2.965-1.41
			C303.253,554.592,303.407,553.406,303.03,552.234z"/>
	</g>
	<g>
		<path fill="#FFFFFF" d="M342.797,505.24c8.684,0,15.748-7.064,15.748-15.75c0-8.684-7.064-15.748-15.748-15.748
			c-8.683,0-15.747,7.064-15.747,15.748C327.05,498.176,334.114,505.24,342.797,505.24z"/>
		<path fill="#FFFFFF" d="M374.87,552.234l-12.756-39.527c-0.684-2.117-2.959-3.773-5.182-3.773h-1.907h-1.364h-21.732h-1.363
			h-1.906c-2.224,0-4.5,1.656-5.184,3.773l-12.754,39.527c-0.377,1.172-0.221,2.357,0.432,3.256c0.652,0.896,1.734,1.41,2.967,1.41
			h3.27c2.223,0,4.5-1.656,5.183-3.773l3.634-11.262v15.209v0.732v42.387c0,4.008,3.26,7.268,7.266,7.268h0.512
			c4.008,0,7.268-3.26,7.268-7.268v-38.027h3.091v38.027c0,4.008,3.259,7.268,7.267,7.268h0.512c4.007,0,7.266-3.26,7.266-7.268
			v-42.387v-0.732v-15.215l3.637,11.268c0.684,2.117,2.959,3.773,5.182,3.773h3.271c1.232,0,2.312-0.514,2.965-1.41
			C375.095,554.592,375.249,553.406,374.87,552.234z"/>
	</g>
	<g>
		<path fill="#FFFFFF" d="M414.64,505.24c8.684,0,15.748-7.064,15.748-15.75c0-8.684-7.064-15.748-15.748-15.748
			s-15.748,7.064-15.748,15.748C398.892,498.176,405.956,505.24,414.64,505.24z"/>
		<path fill="#FFFFFF" d="M446.714,552.234l-12.758-39.527c-0.684-2.117-2.959-3.773-5.182-3.773h-1.906h-1.365h-21.732h-1.363
			h-1.906c-2.223,0-4.5,1.656-5.184,3.773l-12.754,39.527c-0.377,1.172-0.221,2.357,0.432,3.256c0.652,0.896,1.734,1.41,2.967,1.41
			h3.27c2.223,0,4.5-1.656,5.184-3.773l3.633-11.262v15.209v0.732v42.387c0,4.008,3.26,7.268,7.266,7.268h0.512
			c4.008,0,7.268-3.26,7.268-7.268v-38.027h3.092v38.027c0,4.008,3.258,7.268,7.266,7.268h0.512c4.008,0,7.266-3.26,7.266-7.268
			v-42.387v-0.732v-15.215l3.637,11.268c0.684,2.117,2.959,3.773,5.182,3.773h3.271c1.232,0,2.312-0.514,2.967-1.41
			C446.937,554.592,447.091,553.406,446.714,552.234z"/>
	</g>
	<g>
		<path fill="#FFFFFF" d="M486.481,505.24c8.684,0,15.748-7.064,15.748-15.75c0-8.684-7.064-15.748-15.748-15.748
			s-15.746,7.064-15.746,15.748C470.735,498.176,477.798,505.24,486.481,505.24z"/>
		<path fill="#FFFFFF" d="M518.556,552.234l-12.758-39.527c-0.684-2.117-2.957-3.773-5.182-3.773h-1.906h-1.363h-21.734h-1.361
			h-1.908c-2.223,0-4.5,1.656-5.182,3.773l-12.756,39.527c-0.377,1.172-0.221,2.357,0.434,3.256c0.652,0.896,1.732,1.41,2.967,1.41
			h3.268c2.225,0,4.5-1.656,5.184-3.773l3.633-11.262v15.209v0.732v42.387c0,4.008,3.26,7.268,7.268,7.268h0.512
			c4.006,0,7.266-3.26,7.266-7.268v-38.027h3.092v38.027c0,4.008,3.26,7.268,7.266,7.268h0.512c4.008,0,7.268-3.26,7.268-7.268
			v-42.387v-0.732v-15.215l3.635,11.268c0.684,2.117,2.959,3.773,5.184,3.773h3.27c1.232,0,2.312-0.514,2.967-1.41
			C518.78,554.592,518.935,553.406,518.556,552.234z"/>
	</g>
	<g>
		<path fill="#FFFFFF" d="M558.323,505.24c8.684,0,15.748-7.064,15.748-15.75c0-8.684-7.064-15.748-15.748-15.748
			s-15.746,7.064-15.746,15.748C542.577,498.176,549.64,505.24,558.323,505.24z"/>
		<path fill="#FFFFFF" d="M590.397,552.234l-12.758-39.527c-0.682-2.117-2.957-3.773-5.182-3.773h-1.906h-1.363h-21.734h-1.361
			h-1.906c-2.225,0-4.502,1.656-5.184,3.773l-12.756,39.527c-0.377,1.172-0.219,2.357,0.434,3.256
			c0.652,0.896,1.732,1.41,2.967,1.41h3.268c2.225,0,4.5-1.656,5.184-3.773l3.633-11.262v15.209v0.732v42.387
			c0,4.008,3.26,7.268,7.268,7.268h0.512c4.006,0,7.266-3.26,7.266-7.268v-38.027h3.092v38.027c0,4.008,3.26,7.268,7.266,7.268
			h0.512c4.008,0,7.268-3.26,7.268-7.268v-42.387v-0.732v-15.215l3.635,11.268c0.684,2.117,2.959,3.773,5.182,3.773h3.271
			c1.232,0,2.312-0.514,2.965-1.41C590.62,554.592,590.774,553.406,590.397,552.234z"/>
	</g>
	<g>
		<path fill="#FFFFFF" d="M630.165,505.24c8.684,0,15.748-7.064,15.748-15.75c0-8.684-7.064-15.748-15.748-15.748
			s-15.746,7.064-15.746,15.748C614.419,498.176,621.481,505.24,630.165,505.24z"/>
		<path fill="#FFFFFF" d="M662.239,552.234l-12.758-39.527c-0.682-2.117-2.957-3.773-5.182-3.773h-1.906h-1.363h-21.734h-1.361
			h-1.906c-2.225,0-4.502,1.656-5.184,3.773l-12.756,39.527c-0.377,1.172-0.219,2.357,0.434,3.256
			c0.652,0.896,1.732,1.41,2.967,1.41h3.268c2.225,0,4.5-1.656,5.184-3.773l3.633-11.262v15.209v0.732v42.387
			c0,4.008,3.26,7.268,7.268,7.268h0.512c4.006,0,7.266-3.26,7.266-7.268v-38.027h3.092v38.027c0,4.008,3.26,7.268,7.266,7.268
			h0.512c4.008,0,7.268-3.26,7.268-7.268v-42.387v-0.732v-15.215l3.635,11.268c0.684,2.117,2.959,3.773,5.184,3.773h3.27
			c1.232,0,2.312-0.514,2.967-1.41C662.464,554.592,662.618,553.406,662.239,552.234z"/>
	</g>
	<g>
		<path fill="#FFFFFF" d="M702.007,505.24c8.684,0,15.748-7.064,15.748-15.75c0-8.684-7.064-15.748-15.748-15.748
			s-15.746,7.064-15.746,15.748C686.261,498.176,693.323,505.24,702.007,505.24z"/>
		<path fill="#FFFFFF" d="M734.081,552.234l-12.758-39.527c-0.682-2.117-2.957-3.773-5.182-3.773h-1.906h-1.363h-21.734h-1.361
			h-1.906c-2.225,0-4.502,1.656-5.184,3.773l-12.756,39.527c-0.377,1.172-0.219,2.357,0.434,3.256
			c0.652,0.896,1.732,1.41,2.967,1.41h3.268c2.225,0,4.5-1.656,5.184-3.773l3.633-11.262v15.209v0.732v42.387
			c0,4.008,3.26,7.268,7.268,7.268h0.512c4.006,0,7.266-3.26,7.266-7.268v-38.027h3.092v38.027c0,4.008,3.26,7.268,7.266,7.268
			h0.512c4.008,0,7.268-3.26,7.268-7.268v-42.387v-0.732v-15.215l3.635,11.268c0.684,2.117,2.959,3.773,5.184,3.773h3.27
			c1.232,0,2.312-0.514,2.967-1.41C734.306,554.592,734.46,553.406,734.081,552.234z"/>
	</g>
	<g>
		<path fill="#FFFFFF" d="M777.493,505.241c8.684,0,15.748-7.064,15.748-15.75c0-8.684-7.064-15.748-15.748-15.748
			s-15.748,7.064-15.748,15.748C761.745,498.177,768.81,505.241,777.493,505.241z"/>
		<path fill="#FFFFFF" d="M809.567,552.235l-12.758-39.527c-0.684-2.117-2.959-3.773-5.182-3.773h-1.908h-1.363h-21.732h-1.363
			h-1.906c-2.223,0-4.5,1.656-5.184,3.773l-12.754,39.527c-0.377,1.172-0.221,2.357,0.432,3.256c0.652,0.896,1.734,1.41,2.967,1.41
			h3.27c2.223,0,4.5-1.656,5.184-3.773l3.633-11.262v15.209v0.732v42.387c0,4.008,3.26,7.268,7.266,7.268h0.512
			c4.008,0,7.268-3.26,7.268-7.268v-38.027h3.09v38.027c0,4.008,3.26,7.268,7.268,7.268h0.512c4.006,0,7.266-3.26,7.266-7.268
			v-42.387v-0.732V541.86l3.637,11.268c0.684,2.117,2.959,3.773,5.182,3.773h3.271c1.232,0,2.312-0.514,2.965-1.41
			C809.79,554.593,809.944,553.407,809.567,552.235z"/>
	</g>
	<g>
		<path fill="#FFFFFF" d="M127.271,505.238c8.684,0,15.748-7.064,15.748-15.748s-7.064-15.748-15.748-15.748
			s-15.747,7.064-15.747,15.748S118.588,505.238,127.271,505.238z"/>
		<path fill="#FFFFFF" d="M159.347,552.232l-12.758-39.527c-0.684-2.115-2.959-3.771-5.183-3.771h-1.907h-1.362h-21.733h-1.363
			h-1.906c-2.224,0-4.5,1.656-5.183,3.771l-12.755,39.527c-0.377,1.174-0.221,2.359,0.432,3.256s1.734,1.412,2.967,1.412h3.27
			c2.224,0,4.5-1.658,5.183-3.773l3.634-11.264v15.211v0.73v42.389c0,4.006,3.26,7.266,7.266,7.266h0.512
			c4.008,0,7.268-3.26,7.268-7.266v-38.027h3.091v38.027c0,4.006,3.26,7.266,7.267,7.266h0.512c4.006,0,7.266-3.26,7.266-7.266
			v-42.389v-0.73v-15.217l3.637,11.27c0.684,2.115,2.959,3.773,5.183,3.773h3.271c1.232,0,2.312-0.516,2.966-1.412
			S159.724,553.406,159.347,552.232z"/>
	</g>
	<g>
		<path fill="#FFFFFF" d="M195.471,343.248c8.684,0,15.748-7.064,15.748-15.75c0-8.684-7.064-15.748-15.748-15.748
			s-15.747,7.064-15.747,15.748C179.724,336.184,186.787,343.248,195.471,343.248z"/>
		<path fill="#FFFFFF" d="M227.546,390.242l-12.758-39.527c-0.684-2.117-2.959-3.773-5.183-3.773h-1.906h-1.363h-21.733h-1.363
			h-1.906c-2.224,0-4.5,1.656-5.183,3.773l-12.755,39.527c-0.377,1.172-0.221,2.357,0.432,3.256c0.652,0.896,1.734,1.41,2.967,1.41
			h3.27c2.225,0,4.5-1.656,5.184-3.773l3.633-11.262v15.209v0.732v42.387c0,4.008,3.26,7.268,7.266,7.268h0.512
			c4.008,0,7.268-3.26,7.268-7.268v-38.027h3.091v38.027c0,4.008,3.26,7.268,7.267,7.268h0.512c4.006,0,7.267-3.26,7.267-7.268
			v-42.387v-0.732v-15.215l3.636,11.268c0.684,2.117,2.959,3.773,5.183,3.773h3.271c1.232,0,2.312-0.514,2.966-1.41
			C227.769,392.6,227.923,391.414,227.546,390.242z"/>
	</g>
	<g>
		<path fill="#FFFFFF" d="M267.312,343.248c8.684,0,15.748-7.064,15.748-15.75c0-8.684-7.064-15.748-15.748-15.748
			s-15.746,7.064-15.746,15.748C251.566,336.184,258.629,343.248,267.312,343.248z"/>
		<path fill="#FFFFFF" d="M299.388,390.242l-12.758-39.527c-0.683-2.117-2.958-3.773-5.183-3.773h-1.906h-1.363h-21.733h-1.362
			h-1.907c-2.224,0-4.499,1.656-5.183,3.773l-12.754,39.527c-0.378,1.172-0.221,2.357,0.432,3.256
			c0.652,0.896,1.733,1.41,2.966,1.41h3.271c2.224,0,4.499-1.656,5.183-3.773l3.633-11.262v15.209v0.732v42.387
			c0,4.008,3.26,7.268,7.267,7.268h0.512c4.007,0,7.267-3.26,7.267-7.268v-38.027h3.091v38.027c0,4.008,3.26,7.268,7.267,7.268
			h0.512c4.007,0,7.267-3.26,7.267-7.268v-42.387v-0.732v-15.215l3.637,11.268c0.683,2.117,2.959,3.773,5.183,3.773h3.27
			c1.232,0,2.312-0.514,2.966-1.41C299.611,392.6,299.766,391.414,299.388,390.242z"/>
	</g>
	<g>
		<path fill="#FFFFFF" d="M339.155,343.248c8.684,0,15.748-7.064,15.748-15.75c0-8.684-7.064-15.748-15.748-15.748
			s-15.747,7.064-15.747,15.748C323.408,336.184,330.472,343.248,339.155,343.248z"/>
		<path fill="#FFFFFF" d="M371.229,390.242l-12.757-39.527c-0.684-2.117-2.958-3.773-5.182-3.773h-1.906h-1.364h-21.733h-1.362
			h-1.907c-2.223,0-4.5,1.656-5.183,3.773l-12.755,39.527c-0.377,1.172-0.221,2.357,0.433,3.256c0.652,0.896,1.733,1.41,2.967,1.41
			h3.269c2.224,0,4.5-1.656,5.184-3.773l3.633-11.262v15.209v0.732v42.387c0,4.008,3.26,7.268,7.267,7.268h0.512
			c4.007,0,7.267-3.26,7.267-7.268v-38.027h3.092v38.027c0,4.008,3.259,7.268,7.266,7.268h0.512c4.008,0,7.267-3.26,7.267-7.268
			v-42.387v-0.732v-15.215l3.637,11.268c0.683,2.117,2.958,3.773,5.182,3.773h3.271c1.232,0,2.312-0.514,2.966-1.41
			C371.453,392.6,371.607,391.414,371.229,390.242z"/>
	</g>
	<g>
		<path fill="#FFFFFF" d="M410.997,343.248c8.684,0,15.748-7.064,15.748-15.75c0-8.684-7.064-15.748-15.748-15.748
			s-15.747,7.064-15.747,15.748C395.25,336.184,402.313,343.248,410.997,343.248z"/>
		<path fill="#FFFFFF" d="M443.071,390.242l-12.757-39.527c-0.684-2.117-2.959-3.773-5.183-3.773h-1.906h-1.364h-21.733h-1.362
			h-1.906c-2.224,0-4.5,1.656-5.184,3.773l-12.754,39.527c-0.378,1.172-0.221,2.357,0.432,3.256c0.652,0.896,1.734,1.41,2.967,1.41
			h3.269c2.224,0,4.501-1.656,5.184-3.773l3.633-11.262v15.209v0.732v42.387c0,4.008,3.261,7.268,7.267,7.268h0.512
			c4.007,0,7.267-3.26,7.267-7.268v-38.027h3.092v38.027c0,4.008,3.259,7.268,7.266,7.268h0.512c4.008,0,7.267-3.26,7.267-7.268
			v-42.387v-0.732v-15.215l3.637,11.268c0.684,2.117,2.958,3.773,5.182,3.773h3.271c1.233,0,2.312-0.514,2.967-1.41
			C443.295,392.6,443.449,391.414,443.071,390.242z"/>
	</g>
	<g>
		<path fill="#FFFFFF" d="M482.839,343.248c8.684,0,15.748-7.064,15.748-15.75c0-8.684-7.064-15.748-15.748-15.748
			s-15.746,7.064-15.746,15.748C467.093,336.184,474.155,343.248,482.839,343.248z"/>
		<path fill="#FFFFFF" d="M514.913,390.242l-12.758-39.527c-0.684-2.117-2.957-3.773-5.182-3.773h-1.906h-1.363H471.97h-1.361H468.7
			c-2.223,0-4.5,1.656-5.182,3.773l-12.756,39.527c-0.377,1.172-0.221,2.357,0.434,3.256c0.652,0.896,1.732,1.41,2.967,1.41h3.268
			c2.225,0,4.5-1.656,5.184-3.773l3.633-11.262v15.209v0.732v42.387c0,4.008,3.26,7.268,7.268,7.268h0.512
			c4.006,0,7.266-3.26,7.266-7.268v-38.027h3.092v38.027c0,4.008,3.26,7.268,7.266,7.268h0.512c4.008,0,7.268-3.26,7.268-7.268
			v-42.387v-0.732v-15.215l3.635,11.268c0.684,2.117,2.959,3.773,5.184,3.773h3.27c1.232,0,2.312-0.514,2.967-1.41
			C515.138,392.6,515.292,391.414,514.913,390.242z"/>
	</g>
	<g>
		<path fill="#FFFFFF" d="M554.681,343.248c8.684,0,15.748-7.064,15.748-15.75c0-8.684-7.064-15.748-15.748-15.748
			s-15.746,7.064-15.746,15.748C538.935,336.184,545.997,343.248,554.681,343.248z"/>
		<path fill="#FFFFFF" d="M586.755,390.242l-12.758-39.527c-0.682-2.117-2.957-3.773-5.182-3.773h-1.906h-1.363h-21.734h-1.361
			h-1.906c-2.225,0-4.502,1.656-5.184,3.773l-12.756,39.527c-0.377,1.172-0.219,2.357,0.434,3.256
			c0.652,0.896,1.732,1.41,2.967,1.41h3.268c2.225,0,4.5-1.656,5.184-3.773l3.633-11.262v15.209v0.732v42.387
			c0,4.008,3.26,7.268,7.268,7.268h0.512c4.006,0,7.266-3.26,7.266-7.268v-38.027h3.092v38.027c0,4.008,3.26,7.268,7.266,7.268
			h0.512c4.008,0,7.268-3.26,7.268-7.268v-42.387v-0.732v-15.215l3.635,11.268c0.684,2.117,2.959,3.773,5.182,3.773h3.271
			c1.232,0,2.312-0.514,2.965-1.41C586.978,392.6,587.132,391.414,586.755,390.242z"/>
	</g>
	<g>
		<path fill="#FFFFFF" d="M626.522,343.248c8.684,0,15.748-7.064,15.748-15.75c0-8.684-7.064-15.748-15.748-15.748
			s-15.746,7.064-15.746,15.748C610.776,336.184,617.839,343.248,626.522,343.248z"/>
		<path fill="#FFFFFF" d="M658.597,390.242l-12.758-39.527c-0.682-2.117-2.957-3.773-5.182-3.773h-1.906h-1.363h-21.734h-1.361
			h-1.906c-2.225,0-4.502,1.656-5.184,3.773l-12.756,39.527c-0.377,1.172-0.219,2.357,0.434,3.256
			c0.652,0.896,1.732,1.41,2.967,1.41h3.268c2.225,0,4.5-1.656,5.184-3.773l3.633-11.262v15.209v0.732v42.387
			c0,4.008,3.26,7.268,7.268,7.268h0.512c4.006,0,7.266-3.26,7.266-7.268v-38.027h3.092v38.027c0,4.008,3.26,7.268,7.266,7.268
			h0.512c4.008,0,7.268-3.26,7.268-7.268v-42.387v-0.732v-15.215l3.635,11.268c0.684,2.117,2.959,3.773,5.184,3.773h3.27
			c1.232,0,2.312-0.514,2.967-1.41C658.821,392.6,658.976,391.414,658.597,390.242z"/>
	</g>
	<g>
		<path fill="#FFFFFF" d="M698.364,343.248c8.684,0,15.748-7.064,15.748-15.75c0-8.684-7.064-15.748-15.748-15.748
			s-15.746,7.064-15.746,15.748C682.618,336.184,689.681,343.248,698.364,343.248z"/>
		<path fill="#FFFFFF" d="M730.438,390.242l-12.758-39.527c-0.682-2.117-2.957-3.773-5.182-3.773h-1.906h-1.363h-21.734h-1.361
			h-1.906c-2.225,0-4.502,1.656-5.184,3.773l-12.756,39.527c-0.377,1.172-0.219,2.357,0.434,3.256
			c0.652,0.896,1.732,1.41,2.967,1.41h3.268c2.225,0,4.5-1.656,5.184-3.773l3.633-11.262v15.209v0.732v42.387
			c0,4.008,3.26,7.268,7.268,7.268h0.512c4.006,0,7.266-3.26,7.266-7.268v-38.027h3.092v38.027c0,4.008,3.26,7.268,7.266,7.268
			h0.512c4.008,0,7.268-3.26,7.268-7.268v-42.387v-0.732v-15.215l3.635,11.268c0.684,2.117,2.959,3.773,5.184,3.773h3.27
			c1.232,0,2.312-0.514,2.967-1.41C730.663,392.6,730.817,391.414,730.438,390.242z"/>
	</g>
	<g>
		<path fill="#FFFFFF" d="M773.851,343.249c8.684,0,15.748-7.064,15.748-15.75c0-8.684-7.064-15.748-15.748-15.748
			s-15.748,7.064-15.748,15.748C758.103,336.185,765.167,343.249,773.851,343.249z"/>
		<path fill="#FFFFFF" d="M805.925,390.243l-12.758-39.527c-0.684-2.117-2.959-3.773-5.182-3.773h-1.908h-1.363h-21.732h-1.363
			h-1.906c-2.223,0-4.5,1.656-5.184,3.773l-12.754,39.527c-0.377,1.172-0.221,2.357,0.432,3.256c0.652,0.896,1.734,1.41,2.967,1.41
			h3.27c2.223,0,4.5-1.656,5.184-3.773l3.633-11.262v15.209v0.732v42.387c0,4.008,3.26,7.268,7.266,7.268h0.512
			c4.008,0,7.268-3.26,7.268-7.268v-38.027h3.09v38.027c0,4.008,3.26,7.268,7.268,7.268h0.512c4.006,0,7.266-3.26,7.266-7.268
			v-42.387v-0.732v-15.215l3.637,11.268c0.684,2.117,2.959,3.773,5.182,3.773h3.271c1.232,0,2.312-0.514,2.965-1.41
			C806.147,392.601,806.302,391.415,805.925,390.243z"/>
	</g>
	<g>
		<path fill="#FFFFFF" d="M123.63,343.246c8.684,0,15.748-7.064,15.748-15.748s-7.064-15.748-15.748-15.748
			s-15.747,7.064-15.747,15.748S114.946,343.246,123.63,343.246z"/>
		<path fill="#FFFFFF" d="M155.704,390.24l-12.758-39.527c-0.683-2.115-2.958-3.771-5.182-3.771h-1.907h-1.362h-21.734h-1.363
			h-1.906c-2.223,0-4.499,1.656-5.182,3.771L91.555,390.24c-0.378,1.174-0.221,2.359,0.432,3.256s1.733,1.412,2.966,1.412h3.27
			c2.225,0,4.5-1.658,5.184-3.773l3.633-11.264v15.211v0.73v42.389c0,4.006,3.26,7.266,7.267,7.266h0.512
			c4.007,0,7.267-3.26,7.267-7.266v-38.027h3.092v38.027c0,4.006,3.26,7.266,7.266,7.266h0.512c4.007,0,7.267-3.26,7.267-7.266
			v-42.389v-0.73v-15.217l3.636,11.27c0.684,2.115,2.959,3.773,5.184,3.773h3.27c1.232,0,2.312-0.516,2.967-1.412
			C155.928,392.6,156.082,391.414,155.704,390.24z"/>
	</g>
	<g>
		<path fill="#FFFFFF" d="M193.647,187.256c8.684,0,15.748-7.064,15.748-15.75c0-8.684-7.064-15.748-15.748-15.748
			s-15.747,7.064-15.747,15.748C177.9,180.192,184.964,187.256,193.647,187.256z"/>
		<path fill="#FFFFFF" d="M225.722,234.25l-12.758-39.527c-0.683-2.117-2.958-3.773-5.182-3.773h-1.906h-1.363h-21.734h-1.363
			h-1.906c-2.223,0-4.499,1.656-5.182,3.773l-12.755,39.527c-0.378,1.172-0.221,2.357,0.432,3.256
			c0.652,0.896,1.733,1.41,2.966,1.41h3.271c2.224,0,4.499-1.656,5.183-3.773l3.633-11.262v15.209v0.732v42.387
			c0,4.008,3.26,7.268,7.267,7.268h0.512c4.007,0,7.267-3.26,7.267-7.268v-38.027h3.092v38.027c0,4.008,3.26,7.268,7.266,7.268
			h0.512c4.007,0,7.268-3.26,7.268-7.268v-42.387v-0.732v-15.215l3.635,11.268c0.684,2.117,2.96,3.773,5.184,3.773h3.27
			c1.232,0,2.312-0.514,2.967-1.41C225.945,236.608,226.1,235.422,225.722,234.25z"/>
	</g>
	<g>
		<path fill="#FFFFFF" d="M265.489,187.256c8.684,0,15.748-7.064,15.748-15.75c0-8.684-7.064-15.748-15.748-15.748
			s-15.746,7.064-15.746,15.748C249.743,180.192,256.806,187.256,265.489,187.256z"/>
		<path fill="#FFFFFF" d="M297.563,234.25l-12.758-39.527c-0.682-2.117-2.957-3.773-5.182-3.773h-1.906h-1.363H254.62h-1.361h-1.908
			c-2.223,0-4.498,1.656-5.182,3.773l-12.754,39.527c-0.379,1.172-0.221,2.357,0.432,3.256c0.652,0.896,1.732,1.41,2.965,1.41h3.271
			c2.223,0,4.498-1.656,5.182-3.773l3.633-11.262v15.209v0.732v42.387c0,4.008,3.26,7.268,7.268,7.268h0.512
			c4.006,0,7.266-3.26,7.266-7.268v-38.027h3.092v38.027c0,4.008,3.26,7.268,7.266,7.268h0.512c4.008,0,7.268-3.26,7.268-7.268
			v-42.387v-0.732v-15.215l3.637,11.268c0.682,2.117,2.959,3.773,5.182,3.773h3.27c1.232,0,2.312-0.514,2.967-1.41
			C297.788,236.608,297.942,235.422,297.563,234.25z"/>
	</g>
	<g>
		<path fill="#FFFFFF" d="M337.331,187.256c8.684,0,15.748-7.064,15.748-15.75c0-8.684-7.064-15.748-15.748-15.748
			s-15.746,7.064-15.746,15.748C321.585,180.192,328.647,187.256,337.331,187.256z"/>
		<path fill="#FFFFFF" d="M369.405,234.25l-12.757-39.527c-0.684-2.117-2.958-3.773-5.183-3.773h-1.906h-1.363h-21.734h-1.361
			h-1.907c-2.224,0-4.5,1.656-5.183,3.773l-12.755,39.527c-0.378,1.172-0.221,2.357,0.433,3.256c0.652,0.896,1.733,1.41,2.967,1.41
			h3.268c2.225,0,4.501-1.656,5.184-3.773l3.633-11.262v15.209v0.732v42.387c0,4.008,3.261,7.268,7.268,7.268h0.512
			c4.006,0,7.266-3.26,7.266-7.268v-38.027h3.092v38.027c0,4.008,3.26,7.268,7.266,7.268h0.512c4.008,0,7.268-3.26,7.268-7.268
			v-42.387v-0.732v-15.215l3.637,11.268c0.682,2.117,2.957,3.773,5.182,3.773h3.27c1.232,0,2.312-0.514,2.967-1.41
			C369.63,236.608,369.784,235.422,369.405,234.25z"/>
	</g>
	<g>
		<path fill="#FFFFFF" d="M409.173,187.256c8.684,0,15.748-7.064,15.748-15.75c0-8.684-7.064-15.748-15.748-15.748
			s-15.746,7.064-15.746,15.748C393.427,180.192,400.489,187.256,409.173,187.256z"/>
		<path fill="#FFFFFF" d="M441.247,234.25l-12.756-39.527c-0.684-2.117-2.959-3.773-5.184-3.773h-1.906h-1.363h-21.734h-1.361
			h-1.906c-2.225,0-4.5,1.656-5.184,3.773l-12.754,39.527c-0.379,1.172-0.221,2.357,0.432,3.256c0.652,0.896,1.734,1.41,2.967,1.41
			h3.268c2.225,0,4.502-1.656,5.184-3.773l3.633-11.262v15.209v0.732v42.387c0,4.008,3.262,7.268,7.268,7.268h0.512
			c4.006,0,7.266-3.26,7.266-7.268v-38.027h3.092v38.027c0,4.008,3.26,7.268,7.266,7.268h0.512c4.008,0,7.268-3.26,7.268-7.268
			v-42.387v-0.732v-15.215l3.637,11.268c0.684,2.117,2.957,3.773,5.182,3.773h3.27c1.234,0,2.312-0.514,2.967-1.41
			C441.472,236.608,441.626,235.422,441.247,234.25z"/>
	</g>
	<g>
		<path fill="#FFFFFF" d="M481.015,187.256c8.684,0,15.748-7.064,15.748-15.75c0-8.684-7.064-15.748-15.748-15.748
			s-15.746,7.064-15.746,15.748C465.269,180.192,472.331,187.256,481.015,187.256z"/>
		<path fill="#FFFFFF" d="M513.089,234.25l-12.758-39.527c-0.684-2.117-2.957-3.773-5.182-3.773h-1.906h-1.363h-21.734h-1.361
			h-1.908c-2.223,0-4.5,1.656-5.182,3.773l-12.756,39.527c-0.377,1.172-0.221,2.357,0.434,3.256c0.652,0.896,1.732,1.41,2.967,1.41
			h3.268c2.225,0,4.5-1.656,5.184-3.773l3.633-11.262v15.209v0.732v42.387c0,4.008,3.26,7.268,7.268,7.268h0.512
			c4.006,0,7.266-3.26,7.266-7.268v-38.027h3.092v38.027c0,4.008,3.26,7.268,7.266,7.268h0.512c4.008,0,7.268-3.26,7.268-7.268
			v-42.387v-0.732v-15.215l3.635,11.268c0.684,2.117,2.959,3.773,5.184,3.773h3.27c1.232,0,2.312-0.514,2.967-1.41
			C513.313,236.608,513.468,235.422,513.089,234.25z"/>
	</g>
	<g>
		<path fill="#FFFFFF" d="M552.856,187.256c8.684,0,15.748-7.064,15.748-15.75c0-8.684-7.064-15.748-15.748-15.748
			s-15.746,7.064-15.746,15.748C537.11,180.192,544.173,187.256,552.856,187.256z"/>
		<path fill="#FFFFFF" d="M584.931,234.25l-12.758-39.527c-0.682-2.117-2.957-3.773-5.182-3.773h-1.906h-1.363h-21.734h-1.361
			h-1.906c-2.225,0-4.502,1.656-5.184,3.773L520.78,234.25c-0.377,1.172-0.219,2.357,0.434,3.256c0.652,0.896,1.732,1.41,2.967,1.41
			h3.268c2.225,0,4.5-1.656,5.184-3.773l3.633-11.262v15.209v0.732v42.387c0,4.008,3.26,7.268,7.268,7.268h0.512
			c4.006,0,7.266-3.26,7.266-7.268v-38.027h3.092v38.027c0,4.008,3.26,7.268,7.266,7.268h0.512c4.008,0,7.268-3.26,7.268-7.268
			v-42.387v-0.732v-15.215l3.635,11.268c0.684,2.117,2.959,3.773,5.182,3.773h3.271c1.232,0,2.312-0.514,2.965-1.41
			C585.153,236.608,585.308,235.422,584.931,234.25z"/>
	</g>
	<g>
		<path fill="#FFFFFF" d="M624.698,187.256c8.684,0,15.748-7.064,15.748-15.75c0-8.684-7.064-15.748-15.748-15.748
			s-15.746,7.064-15.746,15.748C608.952,180.192,616.015,187.256,624.698,187.256z"/>
		<path fill="#FFFFFF" d="M656.772,234.25l-12.758-39.527c-0.682-2.117-2.957-3.773-5.182-3.773h-1.906h-1.363h-21.734h-1.361
			h-1.906c-2.225,0-4.502,1.656-5.184,3.773l-12.756,39.527c-0.377,1.172-0.219,2.357,0.434,3.256
			c0.652,0.896,1.732,1.41,2.967,1.41h3.268c2.225,0,4.5-1.656,5.184-3.773l3.633-11.262v15.209v0.732v42.387
			c0,4.008,3.26,7.268,7.268,7.268h0.512c4.006,0,7.266-3.26,7.266-7.268v-38.027h3.092v38.027c0,4.008,3.26,7.268,7.266,7.268
			h0.512c4.008,0,7.268-3.26,7.268-7.268v-42.387v-0.732v-15.215l3.635,11.268c0.684,2.117,2.959,3.773,5.184,3.773h3.27
			c1.232,0,2.312-0.514,2.967-1.41C656.997,236.608,657.151,235.422,656.772,234.25z"/>
	</g>
	<g>
		<path fill="#FFFFFF" d="M696.54,187.256c8.684,0,15.748-7.064,15.748-15.75c0-8.684-7.064-15.748-15.748-15.748
			s-15.746,7.064-15.746,15.748C680.794,180.192,687.856,187.256,696.54,187.256z"/>
		<path fill="#FFFFFF" d="M728.614,234.25l-12.758-39.527c-0.682-2.117-2.957-3.773-5.182-3.773h-1.906h-1.363h-21.734h-1.361
			h-1.906c-2.225,0-4.502,1.656-5.184,3.773l-12.756,39.527c-0.377,1.172-0.219,2.357,0.434,3.256
			c0.652,0.896,1.732,1.41,2.967,1.41h3.268c2.225,0,4.5-1.656,5.184-3.773l3.633-11.262v15.209v0.732v42.387
			c0,4.008,3.26,7.268,7.268,7.268h0.512c4.006,0,7.266-3.26,7.266-7.268v-38.027h3.092v38.027c0,4.008,3.26,7.268,7.266,7.268
			h0.512c4.008,0,7.268-3.26,7.268-7.268v-42.387v-0.732v-15.215l3.635,11.268c0.684,2.117,2.959,3.773,5.184,3.773h3.27
			c1.232,0,2.312-0.514,2.967-1.41C728.839,236.608,728.993,235.422,728.614,234.25z"/>
	</g>
	<g>
		<path fill="#FFFFFF" d="M772.026,187.257c8.684,0,15.748-7.064,15.748-15.75c0-8.684-7.064-15.748-15.748-15.748
			s-15.748,7.064-15.748,15.748C756.278,180.193,763.343,187.257,772.026,187.257z"/>
		<path fill="#FFFFFF" d="M804.101,234.251l-12.758-39.527c-0.684-2.117-2.959-3.773-5.182-3.773h-1.908h-1.363h-21.732h-1.363
			h-1.906c-2.223,0-4.5,1.656-5.184,3.773l-12.754,39.527c-0.377,1.172-0.221,2.357,0.432,3.256c0.652,0.896,1.734,1.41,2.967,1.41
			h3.27c2.223,0,4.5-1.656,5.184-3.773l3.633-11.262v15.209v0.732v42.387c0,4.008,3.26,7.268,7.266,7.268h0.512
			c4.008,0,7.268-3.26,7.268-7.268v-38.027h3.09v38.027c0,4.008,3.26,7.268,7.268,7.268h0.512c4.006,0,7.266-3.26,7.266-7.268
			v-42.387v-0.732v-15.215l3.637,11.268c0.684,2.117,2.959,3.773,5.182,3.773h3.271c1.232,0,2.312-0.514,2.965-1.41
			C804.323,236.609,804.478,235.423,804.101,234.251z"/>
	</g>
	<g>
		<path fill="#FFFFFF" d="M121.806,187.254c8.684,0,15.748-7.064,15.748-15.748s-7.064-15.748-15.748-15.748
			s-15.746,7.064-15.746,15.748S113.122,187.254,121.806,187.254z"/>
		<path fill="#FFFFFF" d="M153.88,234.249l-12.757-39.527c-0.683-2.115-2.958-3.771-5.183-3.771h-1.906h-1.363h-21.733h-1.363
			h-1.906c-2.224,0-4.499,1.656-5.183,3.771l-12.754,39.527c-0.379,1.174-0.221,2.359,0.432,3.256s1.733,1.412,2.966,1.412h3.27
			c2.224,0,4.5-1.658,5.183-3.773l3.633-11.264v15.211v0.73v42.389c0,4.006,3.261,7.266,7.268,7.266h0.512
			c4.007,0,7.266-3.26,7.266-7.266v-38.027h3.092v38.027c0,4.006,3.26,7.266,7.267,7.266h0.512c4.007,0,7.267-3.26,7.267-7.266
			v-42.389v-0.73v-15.217l3.636,11.27c0.683,2.115,2.959,3.773,5.183,3.773h3.271c1.231,0,2.312-0.516,2.966-1.412
			S154.259,235.422,153.88,234.249z"/>
	</g>
	<text transform="matrix(1 0 0 1 470.3887 103.0215)" fill="#FFFFFF" font-family="'FuturaPT-Heavy'" font-size="33">PER 100 GRAPHIC DESIGNERS IN THE UK - 2013</text>
</g>
</svg>
