<?xml version="1.0" encoding="utf-8"?>
<!-- Generator: Adobe Illustrator 16.0.4, SVG Export Plug-In . SVG Version: 6.00 Build 0)  -->
<!DOCTYPE svg PUBLIC "-//W3C//DTD SVG 1.1//EN" "http://www.w3.org/Graphics/SVG/1.1/DTD/svg11.dtd">
<svg version="1.1" id="Layer_1" xmlns="http://www.w3.org/2000/svg" xmlns:xlink="http://www.w3.org/1999/xlink" x="0px" y="0px"
	 width="171.277px" height="171.278px" viewBox="0 0 171.277 171.278" enable-background="new 0 0 171.277 171.278"
	 xml:space="preserve">
<path fill="#393939" d="M42.264,52.963h17.572l9.039,44.086l10.059-44.086H92.24l9.955,44.293l9.242-44.293h17.576l-17.979,67.754
	H95.793L85.537,76.936l-10.262,43.782H59.736L42.264,52.963z"/>
<path fill="#37B294" d="M4.73,85.639H0C0,38.418,38.418,0,85.639,0v4.73C41.025,4.73,4.73,41.025,4.73,85.639z"/>
<path fill="#4095CD" d="M85.639,171.278C38.418,171.278,0,132.86,0,85.639h4.73c0,44.613,36.295,80.908,80.908,80.908V171.278z"/>
<path fill="#E65653" d="M85.639,171.278v-4.73c44.613,0,80.908-36.295,80.908-80.908h4.73
	C171.277,132.86,132.859,171.278,85.639,171.278z"/>
<path fill="#EE889F" d="M171.277,85.639h-4.73c0-44.614-36.295-80.909-80.908-80.909V0C132.859,0,171.277,38.418,171.277,85.639z"/>
</svg>
